P3
80 45
255
7 6 4 2 1 0 34 33 31 77 76 74 21 20 18 2 1 0 1 0 0 5 4 2 12 11 9 7 6 4 8 7 5 5 4 2 1 0 0 5 4 2 8 7 5 4 0 2 13 0 9 18 0 14 24 0 16 17 0 2 67 41 42 180 151 143 153 118 99 165 130 102 142 103 70 160 126 89 148 118 84 36 17 0 22 13 0 20 23 14 53 67 67 0 10 7 0 4 0 4 8 0 1 11 0 0 10 4 0 8 10 1 9 12 8 8 10 14 4 2 24 0 0 48 12 0 155 108 82 209 155 121 154 92 55 177 114 71 193 128 86 195 147 107 152 136 110 35 37 15 3 5 0 23 25 4 23 24 6 1 2 0 23 24 10 6 7 0 10 10 0 10 10 0 6 5 0 1 0 0 2 1 0 7 6 2 9 8 6 7 6 4 11 10 8 14 13 11 8 7 5 6 5 3 14 13 11 12 11 9 4 3 1 6 5 3 6 5 3 10 9 7 4 3 1 30 29 27 69 68 66 43 42 40 2 1 0 11 10 8 
6 5 3 29 28 26 65 64 62 66 65 63 13 12 10 9 8 6 13 12 10 1 0 0 17 16 14 31 30 28 41 40 38 44 43 41 43 42 40 34 33 31 18 17 15 8 2 4 12 0 7 18 0 12 17 0 8 14 0 0 54 30 28 157 130 119 157 126 105 169 135 107 167 131 97 182 148 111 184 155 121 78 57 30 50 41 24 44 47 40 54 68 69 0 14 14 10 16 6 0 3 0 0 3 0 0 3 2 12 22 24 29 36 42 42 42 44 50 40 38 47 24 16 71 36 17 176 130 104 213 160 126 158 100 62 176 117 73 202 141 96 193 148 107 111 97 70 16 18 0 14 16 0 50 52 31 88 89 71 85 86 70 92 93 79 77 77 65 80 80 70 22 22 12 1 0 0 2 1 0 11 10 6 1 0 0 1 0 0 12 11 9 1 0 0 6 5 3 22 21 19 38 37 35 43 42 40 36 35 33 19 18 16 2 1 0 4 3 1 17 16 14 2 1 0 11 10 8 68 67 65 80 79 77 35 34 32 3 2 0 
58 57 55 58 57 55 93 92 90 88 87 85 40 39 37 1 0 0 10 9 7 14 13 11 13 12 10 31 30 28 25 24 22 15 14 12 21 20 18 16 15 13 6 5 3 17 13 12 12 3 6 15 4 8 8 0 0 10 0 0 34 17 7 116 97 80 161 135 110 170 141 109 199 167 129 191 159 121 194 165 133 78 56 32 22 13 0 20 21 16 14 25 29 0 3 7 0 2 0 0 1 0 2 8 8 5 15 17 2 11 18 0 6 14 13 12 17 35 25 24 50 30 19 81 50 30 181 140 112 190 145 106 153 102 59 175 123 76 212 160 112 180 141 98 55 44 16 19 21 0 59 60 42 65 66 48 82 83 67 70 71 55 61 62 48 80 80 68 81 81 71 81 81 71 64 63 58 33 32 27 11 10 6 6 5 1 4 3 1 1 0 0 15 14 12 3 2 0 15 14 12 29 28 26 28 27 25 35 34 32 36 35 33 17 16 14 8 7 5 12 11 9 10 9 7 39 38 36 88 87 85 89 88 86 65 64 62 66 65 63 
73 72 70 60 59 57 89 88 86 81 80 78 50 49 47 1 0 0 9 8 6 22 21 19 12 11 9 51 50 48 60 59 57 59 58 56 72 71 69 52 51 49 22 21 19 27 26 22 8 7 2 9 9 1 3 0 0 8 4 0 17 10 0 73 61 37 154 135 105 167 141 106 203 171 133 194 162 124 221 190 159 128 104 80 50 36 23 47 44 39 19 24 30 0 4 12 6 6 6 5 3 4 4 5 9 0 2 8 0 0 11 0 0 9 13 11 16 53 43 41 40 21 7 95 67 45 183 147 115 165 123 83 149 105 60 180 136 87 209 166 115 140 107 62 31 21 0 58 59 41 156 157 139 164 165 149 180 181 165 157 158 144 119 119 107 148 148 136 140 140 130 165 165 157 130 129 124 36 35 30 1 0 0 1 0 0 21 20 18 12 11 9 18 17 15 9 8 6 40 39 37 67 66 64 59 58 56 58 57 55 49 48 46 11 10 8 15 14 12 10 9 7 14 13 11 47 46 44 82 81 79 76 75 73 66 65 63 82 81 79 
19 18 16 32 31 29 53 52 50 23 22 20 17 16 14 4 3 1 17 16 14 2 1 0 3 2 0 29 28 26 19 18 16 5 4 2 17 16 14 9 8 6 1 0 0 14 15 10 1 7 0 2 11 0 0 4 0 8 11 0 10 10 0 39 32 4 135 120 87 162 138 102 222 192 154 206 172 135 222 189 156 135 107 83 23 4 0 18 7 3 1 0 4 0 0 5 12 6 8 6 0 0 3 0 4 3 2 10 5 5 13 2 1 7 8 2 4 18 7 1 32 11 0 123 96 69 196 162 125 165 128 84 170 132 83 193 157 105 184 148 96 78 54 8 12 5 0 1 2 0 21 22 6 1 2 0 49 50 36 69 69 57 49 49 37 80 80 70 37 37 29 25 25 17 14 13 8 11 10 5 11 10 6 7 6 2 1 0 0 1 0 0 22 21 19 1 0 0 8 7 5 20 19 17 10 9 7 24 23 21 38 37 35 16 15 13 16 15 13 18 17 15 6 5 3 4 3 1 35 34 32 58 57 55 40 39 37 8 7 5 
2 1 0 7 6 4 13 12 10 3 2 0 7 6 4 1 0 0 3 2 0 1 0 0 8 7 5 40 39 37 54 53 51 57 56 54 62 61 59 41 40 38 10 9 7 1 4 0 0 7 0 0 10 0 0 6 0 4 12 0 8 10 0 16 11 0 110 95 62 159 135 99 196 164 125 189 154 114 205 169 133 155 121 93 26 0 0 22 2 0 18 7 5 34 24 25 11 0 0 12 0 0 15 3 3 18 9 10 19 10 11 15 7 5 11 0 0 14 0 0 28 3 0 149 120 88 200 166 128 179 145 100 195 161 113 196 164 113 140 112 62 37 15 0 22 16 0 3 4 0 21 22 8 22 22 10 91 91 79 115 115 105 97 97 87 102 102 92 67 67 59 17 17 9 1 0 0 1 0 0 8 7 3 1 0 0 1 0 0 11 10 8 1 0 0 1 0 0 29 28 26 52 51 49 47 46 44 43 42 40 33 32 30 7 6 4 13 12 10 10 9 7 4 3 1 2 1 0 9 8 6 18 17 15 11 10 8 1 0 0 
15 14 12 6 5 3 1 0 0 15 14 12 12 11 9 1 0 0 1 0 0 10 9 7 6 5 3 10 9 7 8 7 5 2 1 0 2 1 0 3 2 0 1 0 0 0 1 0 0 7 0 0 7 0 0 11 0 0 4 0 9 11 0 7 1 0 86 69 39 160 134 99 187 152 112 206 167 124 234 190 151 216 176 140 60 25 0 23 0 0 18 0 0 17 0 0 35 9 0 42 17 0 34 12 0 15 0 0 14 0 0 14 0 0 22 1 0 25 1 0 67 36 7 190 156 119 202 165 123 193 156 112 202 169 124 167 139 92 85 61 17 23 4 0 16 9 0 1 1 0 1 1 0 1 1 0 7 7 0 4 4 0 10 10 2 15 15 7 1 0 0 4 3 0 8 7 3 10 9 5 12 11 9 11 10 8 7 6 4 1 0 0 6 5 3 6 5 3 8 7 5 10 9 7 10 9 7 13 12 10 16 15 13 16 15 13 10 9 7 2 1 0 12 11 9 22 21 19 9 8 6 1 0 0 7 6 4 23 22 20 
1 0 0 16 15 13 1 0 0 1 0 0 1 0 0 15 14 12 1 0 0 3 2 0 7 6 4 1 0 0 1 0 0 1 0 0 1 0 0 6 5 3 14 13 11 6 6 4 1 7 3 0 6 0 5 12 5 0 3 0 11 9 0 8 0 0 72 52 27 164 134 100 200 161 120 222 178 133 239 191 145 249 200 157 113 69 32 119 80 47 167 136 108 204 173 145 210 176 141 216 182 145 210 180 146 194 165 135 177 150 121 146 119 90 86 57 25 29 0 0 136 98 59 242 203 160 214 173 129 203 164 121 197 162 122 133 103 65 40 16 0 17 1 0 8 2 0 5 5 0 9 9 1 7 7 0 19 19 11 1 1 0 12 11 6 6 5 0 4 3 0 7 6 1 7 6 2 3 2 0 1 0 0 2 1 0 6 5 3 9 8 6 4 3 1 11 10 8 7 6 4 2 1 0 4 3 1 1 0 0 1 0 0 8 7 5 8 7 5 13 12 10 15 14 12 3 2 0 1 0 0 16 15 13 19 18 16 1 0 0 
2 1 0 3 2 0 3 2 0 4 3 1 4 3 1 3 2 0 3 2 0 2 1 0 3 2 0 3 2 0 3 2 0 3 2 0 3 2 0 3 2 0 3 2 0 2 2 2 3 4 8 0 0 5 4 5 9 0 0 0 12 4 1 11 0 0 39 14 0 147 112 82 200 155 116 225 173 126 228 172 123 218 162 111 224 172 124 233 186 140 230 188 146 228 187 141 233 190 137 235 190 133 233 192 138 238 201 149 246 210 162 244 208 160 222 184 137 201 159 111 207 161 111 252 206 157 216 169 123 192 149 107 173 135 99 84 53 24 28 3 0 20 3 0 9 2 0 8 8 0 7 6 1 3 2 0 3 2 0 7 6 1 6 5 1 3 2 0 2 1 0 3 2 0 4 3 1 5 4 2 6 5 3 7 6 4 7 6 4 7 6 4 5 4 2 5 4 2 6 5 3 7 6 4 7 6 4 5 4 2 2 1 0 1 0 0 7 6 4 7 6 4 8 7 5 8 7 5 9 8 6 10 9 7 10 9 7 11 10 8 
2 1 0 3 2 0 3 2 0 4 3 1 4 3 1 3 2 0 3 2 0 2 1 0 3 2 0 3 2 0 3 2 0 3 2 0 3 2 0 3 2 0 3 2 0 3 1 4 0 0 9 0 0 11 7 4 15 7 2 9 18 7 11 13 0 0 23 0 0 112 75 48 195 147 109 189 135 88 201 141 87 225 166 108 229 174 117 218 167 110 219 174 119 238 193 134 250 200 131 253 203 130 247 200 130 233 188 121 224 180 117 229 185 124 241 195 135 250 201 142 232 180 122 239 186 132 215 164 117 187 142 101 144 105 74 56 24 3 25 2 0 13 0 0 8 1 0 6 5 0 6 5 1 3 2 0 3 2 0 8 7 3 8 7 3 5 4 0 5 4 0 5 4 0 6 5 3 6 5 3 6 5 3 6 5 3 6 5 3 5 4 2 15 14 12 11 10 8 6 5 3 6 5 3 9 8 6 11 10 8 10 9 7 8 7 5 6 5 3 7 6 4 7 6 4 8 7 5 9 8 6 10 9 7 10 9 7 11 10 8 
2 1 0 3 2 0 3 2 0 4 3 1 4 3 1 3 2 0 3 2 0 2 1 0 3 2 0 3 2 0 3 2 0 3 2 0 3 2 0 3 2 0 3 2 0 3 1 4 3 0 11 3 0 14 6 0 15 11 0 14 19 6 15 14 0 0 25 0 0 95 54 32 167 117 82 199 143 96 220 159 104 213 153 91 216 161 97 250 199 134 255 211 149 232 185 117 249 196 118 255 201 119 255 205 124 253 204 127 253 203 130 251 201 130 244 191 123 235 180 113 245 190 125 220 164 105 214 161 111 179 131 91 109 69 43 24 0 0 21 0 0 11 0 0 5 0 0 6 5 1 5 4 2 2 1 0 3 2 0 8 7 5 9 8 6 7 6 4 8 7 5 8 7 5 8 6 7 7 5 6 7 5 6 6 4 5 6 4 5 6 4 5 14 13 11 9 8 6 3 2 0 1 0 0 4 3 1 8 7 5 9 8 6 8 7 5 6 5 3 6 5 3 7 6 4 8 7 5 9 8 6 9 8 6 10 9 7 10 9 7 
2 1 0 3 2 0 3 2 0 4 3 1 4 3 1 3 2 0 3 2 0 2 1 0 3 2 0 3 2 0 3 2 0 3 2 0 3 2 0 3 2 0 3 2 0 3 1 4 7 1 13 6 0 14 4 0 12 6 0 9 13 0 9 21 1 2 53 24 16 116 78 57 174 125 92 174 120 74 200 143 88 226 170 109 229 175 111 231 182 116 240 195 130 242 198 127 242 189 109 244 189 106 240 188 105 241 190 111 249 197 121 255 204 129 254 200 126 247 190 119 252 195 126 232 177 113 244 193 140 207 162 121 137 101 75 31 3 0 18 0 0 11 1 0 8 2 2 8 7 5 6 4 5 2 1 0 2 0 1 6 5 3 8 6 7 5 4 2 8 7 5 8 7 5 7 5 6 7 5 6 7 5 6 8 6 7 8 6 7 9 7 8 6 5 3 8 7 5 10 9 7 9 8 6 5 4 2 3 2 0 3 2 0 4 3 1 6 5 3 6 5 3 7 6 4 7 6 4 8 7 5 9 8 6 10 9 7 10 9 7 
2 1 0 3 2 0 3 2 0 4 3 1 4 3 1 3 2 0 3 2 0 2 1 0 3 2 0 3 2 0 3 2 0 3 2 0 3 2 0 3 2 0 3 2 0 3 1 2 6 1 7 9 4 11 3 0 5 4 0 4 9 0 2 27 12 9 82 58 48 137 105 84 154 111 77 153 104 61 174 123 70 201 151 92 200 152 90 182 141 77 185 147 84 202 163 96 239 191 117 255 206 130 255 217 141 255 207 134 241 191 118 234 184 111 240 188 113 246 192 120 251 197 127 247 193 129 253 203 150 227 186 142 188 159 129 87 68 51 19 8 2 3 0 0 12 8 9 11 9 10 8 6 9 2 0 1 1 0 2 4 2 3 4 2 5 2 0 1 5 3 4 5 3 4 5 3 4 6 4 5 7 5 6 9 7 8 11 9 10 13 11 12 4 3 1 16 15 13 28 27 25 28 27 25 17 16 14 7 6 4 4 3 1 6 5 3 5 4 2 5 4 2 6 5 3 7 6 4 8 7 5 8 7 5 9 8 6 9 8 6 
2 1 0 3 2 0 3 2 0 4 3 1 4 3 1 3 2 0 3 2 0 2 1 0 3 2 0 3 2 0 3 2 0 3 2 0 3 2 0 3 2 0 3 2 0 3 2 0 1 0 0 9 8 6 3 1 2 8 4 3 9 4 1 30 19 13 92 74 60 131 105 82 131 95 61 160 118 76 170 126 77 167 124 69 166 125 69 152 116 58 144 113 56 161 126 68 141 95 33 165 116 50 188 140 76 204 156 92 215 167 101 224 177 107 231 183 111 233 183 110 227 174 104 212 163 97 189 144 87 164 130 84 153 130 96 111 99 77 27 25 13 0 1 0 13 11 12 14 12 15 9 7 10 2 0 3 1 0 2 2 0 3 3 1 4 1 0 2 3 1 2 3 1 2 3 1 2 4 2 3 6 4 5 9 7 8 12 10 11 14 12 13 1 0 0 16 15 13 31 30 28 32 31 29 21 20 18 8 7 5 4 3 1 5 4 2 5 4 2 5 4 2 6 5 3 6 5 3 7 6 4 8 7 5 9 8 6 9 8 6 
2 1 0 3 2 0 3 2 0 4 3 1 4 3 1 3 2 0 3 2 0 2 1 0 3 2 0 3 2 0 3 2 0 3 2 0 3 2 0 3 2 0 3 2 0 3 2 0 1 1 0 8 10 0 0 2 0 7 8 0 9 9 0 33 27 15 94 81 64 114 94 69 147 118 86 142 107 67 146 108 61 186 148 99 191 158 107 118 88 36 102 79 29 189 161 111 222 180 130 215 168 116 198 152 100 189 146 91 198 156 98 213 169 106 217 172 105 213 166 96 198 149 80 181 136 69 158 119 60 133 103 53 84 69 30 101 95 69 37 41 26 0 7 0 11 11 11 13 11 16 9 7 12 1 0 4 1 0 4 2 0 5 4 2 5 2 0 3 4 2 5 4 2 5 3 1 2 3 1 2 4 2 3 7 5 6 10 8 9 12 10 11 1 0 0 7 6 4 15 14 12 17 16 14 12 11 9 6 5 3 3 2 0 3 2 0 4 3 1 5 4 2 5 4 2 6 5 3 7 6 4 8 7 5 8 7 5 9 8 6 
2 1 0 3 2 0 3 2 0 4 3 1 4 3 1 3 2 0 3 2 0 2 1 0 3 2 0 3 2 0 3 2 0 3 2 0 3 2 0 3 2 0 3 2 0 3 2 0 1 3 0 8 12 0 0 3 0 3 7 0 9 9 0 36 33 18 97 89 70 106 90 65 122 99 68 149 121 84 150 119 75 167 136 90 182 154 106 127 104 54 113 91 42 191 167 119 187 153 107 202 164 117 212 174 127 210 174 124 207 170 117 207 171 113 209 169 107 208 167 103 187 146 82 192 154 92 205 172 118 181 157 109 76 60 24 103 97 71 48 51 32 0 2 0 11 10 6 13 9 10 7 5 6 1 0 0 1 0 2 4 2 5 6 4 7 3 3 5 6 4 7 5 3 6 3 1 2 2 0 1 3 1 2 5 3 4 10 6 7 10 9 7 6 5 3 3 2 0 1 0 0 3 2 0 6 5 3 8 7 5 7 6 4 5 4 2 4 3 1 5 4 2 5 4 2 6 5 3 7 6 4 7 6 4 8 7 5 8 7 5 
3 2 0 4 3 1 5 4 2 5 4 2 5 4 2 5 4 2 4 3 1 3 2 0 4 3 1 3 2 0 3 2 0 2 1 0 2 1 0 3 2 0 3 2 0 3 4 0 5 8 0 1 4 0 0 2 0 1 3 0 11 9 0 33 27 13 65 57 38 97 82 59 114 97 69 114 91 59 102 78 40 100 76 32 118 94 46 141 118 68 155 134 81 165 143 93 165 141 93 172 148 100 182 156 107 187 161 110 190 163 110 195 166 110 203 172 115 208 177 120 183 152 98 174 144 94 167 140 95 131 107 69 135 116 86 95 80 57 50 39 21 7 0 0 18 11 1 16 12 3 11 8 1 2 1 0 1 0 0 1 1 0 2 2 0 0 1 0 3 3 3 6 6 6 7 7 7 4 2 3 5 4 2 11 7 6 12 6 6 8 4 3 4 3 1 2 2 0 2 2 0 2 2 0 3 3 1 4 4 2 5 5 3 6 6 4 3 3 1 5 5 3 7 7 5 7 7 5 4 4 2 3 3 1 3 3 1 4 4 2 
3 2 0 4 3 1 5 4 2 5 4 2 5 4 2 5 4 2 4 3 1 3 2 0 4 3 1 3 2 0 3 2 0 2 1 0 2 1 0 3 2 0 3 2 0 3 3 1 0 1 0 0 2 0 4 5 0 9 9 1 15 13 1 26 20 6 47 38 21 68 56 34 77 61 36 131 114 84 139 119 84 112 90 49 109 88 41 110 88 38 102 81 28 109 87 37 123 105 57 126 110 61 135 117 67 146 126 75 152 131 78 150 127 75 142 117 63 133 107 56 162 135 88 120 95 54 120 96 60 124 103 72 85 65 40 89 71 51 45 28 12 37 23 10 19 11 0 17 13 1 12 8 0 2 2 0 1 1 0 1 2 0 1 3 0 0 1 0 2 4 3 5 7 6 6 6 6 3 3 3 6 2 1 10 6 5 13 5 3 8 3 0 3 2 0 2 2 0 1 1 0 1 1 0 2 2 0 3 3 1 4 4 2 5 5 3 2 2 0 4 4 2 6 6 4 6 6 4 4 4 2 2 2 0 2 2 0 3 3 1 
3 2 0 4 3 1 5 4 2 5 4 2 5 4 2 5 4 2 4 3 1 3 2 0 4 3 1 3 2 0 3 2 0 2 1 0 2 1 0 3 2 0 3 2 0 3 3 1 0 1 0 0 2 0 5 6 0 11 11 3 14 11 2 20 14 2 34 27 11 50 39 21 54 39 18 135 119 93 163 144 112 125 105 68 110 91 48 130 109 62 137 117 67 133 113 63 117 100 54 112 95 51 109 92 46 113 95 47 121 101 51 120 98 48 108 86 37 97 75 28 112 89 45 87 65 26 116 96 63 39 19 0 97 79 57 198 182 166 11 0 0 10 0 0 19 11 0 17 13 1 13 9 0 2 2 0 1 1 0 2 3 0 1 3 0 0 1 0 2 4 3 5 7 6 6 6 6 2 2 2 5 1 0 9 5 4 13 5 3 8 3 0 2 1 0 1 1 0 1 1 0 0 0 0 1 1 0 2 2 0 3 3 1 3 3 1 1 1 0 3 3 1 5 5 3 5 5 3 2 2 0 1 1 0 1 1 0 2 2 0 
3 2 0 4 3 1 5 4 2 5 4 2 5 4 2 5 4 2 4 3 1 3 2 0 4 3 1 3 2 0 3 2 0 2 1 0 2 1 0 3 2 0 3 2 0 4 3 1 5 6 1 1 3 0 1 2 0 4 3 0 9 6 0 16 12 3 35 27 16 52 43 28 38 25 6 18 3 0 122 105 77 189 173 139 112 94 56 85 66 23 128 110 64 116 98 52 118 103 60 118 103 60 122 105 61 125 108 64 128 110 64 126 108 62 124 103 58 121 100 57 77 58 18 94 76 40 78 61 33 88 72 49 145 129 113 65 53 41 11 1 0 21 12 5 20 11 2 17 13 1 13 9 0 3 3 0 1 0 0 2 3 0 2 4 1 0 1 0 2 4 3 5 7 6 5 5 5 1 1 0 5 1 0 10 6 3 14 6 4 10 5 2 2 1 0 1 1 0 0 0 0 0 0 0 0 0 0 0 0 0 1 1 0 2 2 0 1 1 0 3 3 1 4 4 2 4 4 2 2 2 0 0 0 0 0 0 0 1 1 0 
3 2 0 4 3 1 5 4 2 5 4 2 5 4 2 5 4 2 4 3 1 3 2 0 4 3 1 3 2 0 3 2 0 2 1 0 2 1 0 3 2 0 3 2 0 4 3 1 8 8 6 3 3 1 1 0 0 2 1 0 7 3 0 14 9 3 31 24 16 47 39 28 71 62 47 66 55 35 35 20 0 77 62 33 187 171 137 205 190 151 149 131 91 130 113 70 97 82 43 110 96 57 126 111 70 128 113 72 122 104 64 114 96 56 113 95 55 116 98 60 107 91 57 73 58 29 87 72 51 158 146 130 122 112 102 7 0 0 26 18 15 6 0 0 19 12 4 18 14 3 14 10 1 3 3 0 1 0 0 3 4 0 2 4 1 0 2 0 2 4 3 5 7 6 5 5 3 1 1 0 5 1 0 11 7 4 17 9 7 14 9 6 3 2 0 1 1 0 0 0 0 0 0 0 0 0 0 0 0 0 1 1 0 1 1 0 1 1 0 3 3 1 4 4 2 4 4 2 2 2 0 0 0 0 0 0 0 1 1 0 
3 2 0 4 3 1 5 4 2 5 4 2 5 4 2 5 4 2 4 3 1 3 2 0 4 3 1 3 2 0 3 2 0 2 1 0 2 1 0 3 2 0 3 2 0 4 3 1 5 4 2 3 2 0 4 3 1 8 7 5 10 6 5 10 6 3 16 11 7 25 18 10 38 30 19 47 38 23 61 48 29 46 32 6 48 33 2 124 110 75 183 167 131 164 149 110 136 120 84 140 126 89 141 125 89 128 112 76 110 94 58 102 86 50 107 93 58 116 101 68 105 91 62 134 122 98 181 169 153 111 103 92 6 0 0 25 20 17 4 0 0 4 0 0 19 12 6 18 14 3 14 10 1 4 4 0 1 0 0 3 4 0 3 5 2 0 2 0 1 3 2 4 6 5 4 4 2 1 1 0 7 3 0 14 11 6 22 14 11 19 14 10 4 3 0 3 3 1 2 2 0 1 1 0 0 0 0 1 1 0 1 1 0 1 1 0 1 1 0 3 3 1 5 5 3 5 5 3 2 2 0 1 1 0 1 1 0 2 2 0 
3 2 0 4 3 1 5 4 2 5 4 2 5 4 2 5 4 2 4 3 1 3 2 0 4 3 1 3 2 0 3 2 0 2 1 0 2 1 0 3 2 0 3 2 0 4 3 1 3 2 0 4 0 0 7 3 4 12 8 9 12 8 9 8 4 5 8 4 3 12 7 3 39 32 24 23 15 4 47 35 19 78 66 44 61 47 20 36 21 0 68 52 18 121 105 69 155 139 105 149 133 99 141 125 91 132 116 82 126 112 77 125 110 77 126 113 81 125 114 86 137 127 102 154 146 127 51 43 30 8 4 0 3 0 0 9 7 10 7 4 11 19 14 18 18 13 9 19 15 6 14 9 3 4 4 0 1 0 0 3 4 0 3 5 2 0 2 1 1 3 2 4 6 5 4 4 2 2 2 0 9 5 2 18 15 10 26 18 15 24 19 15 8 4 1 5 4 2 4 3 1 3 2 0 2 1 0 2 1 0 3 2 0 3 2 0 3 2 0 5 4 2 7 6 4 7 6 4 5 4 2 3 2 0 3 2 0 4 3 1 
3 2 0 4 3 1 5 4 2 5 4 2 5 4 2 5 4 2 4 3 1 3 2 0 4 3 1 3 2 0 3 2 0 2 1 0 2 1 0 3 2 0 3 2 0 4 3 1 8 4 3 5 1 0 6 2 3 10 6 7 11 6 10 9 4 8 10 6 7 15 11 8 7 2 0 35 26 17 28 19 4 32 20 0 65 49 23 62 45 15 45 29 0 63 45 9 66 48 12 70 52 16 84 66 30 106 90 56 126 110 76 127 112 81 108 94 65 87 77 52 51 43 22 23 16 0 19 12 2 6 3 0 28 26 27 1 0 4 0 0 7 17 14 21 18 13 10 19 15 6 15 10 4 4 3 0 2 1 0 4 4 2 3 5 4 1 3 2 0 2 1 3 5 4 4 4 2 3 4 0 10 7 2 20 17 10 29 22 16 27 22 18 9 5 2 6 5 3 5 4 2 4 3 1 3 2 0 3 2 0 3 2 0 4 3 1 4 3 1 6 5 3 8 7 5 8 7 5 5 4 2 4 3 1 4 3 1 5 4 2 
4 3 1 5 4 2 6 5 3 6 5 3 6 5 3 6 5 3 5 4 2 4 3 1 5 4 2 5 4 2 4 3 1 3 2 0 3 2 0 4 3 1 5 4 2 5 4 2 3 0 0 11 5 5 12 8 9 8 3 7 7 5 10 12 10 13 11 9 12 7 3 2 16 11 7 17 8 0 20 8 0 20 5 0 20 3 0 38 19 0 55 35 0 57 35 0 43 21 0 63 41 2 40 18 0 44 24 0 47 31 0 28 13 0 38 24 0 37 27 2 22 14 0 14 8 0 14 10 1 3 0 0 1 0 2 17 16 22 0 0 9 7 4 11 17 12 9 16 11 5 14 9 5 9 8 3 6 5 1 3 3 1 0 2 1 0 1 0 0 2 1 7 9 8 5 5 3 9 10 5 5 2 0 10 7 0 41 34 28 33 28 22 14 10 7 10 6 5 7 3 2 5 1 0 5 1 0 6 2 1 6 2 1 5 1 0 6 2 1 3 0 0 23 19 18 16 12 11 3 0 0 6 2 1 3 0 0 8 4 3 
4 3 1 5 4 2 6 5 3 6 5 3 6 5 3 6 5 3 5 4 2 4 3 1 5 4 2 5 4 2 4 3 1 3 2 0 3 2 0 4 3 1 5 4 2 5 4 2 4 0 0 10 4 4 11 7 8 8 3 7 7 5 10 11 9 12 10 8 11 7 3 2 18 10 7 7 0 0 20 7 0 22 6 0 37 18 0 129 106 72 198 174 136 179 154 113 167 139 99 140 112 72 107 82 41 113 90 49 91 71 34 52 36 2 30 16 0 11 0 0 22 14 0 7 0 0 12 8 0 13 9 6 10 8 11 1 0 5 1 0 9 23 20 27 16 10 10 15 10 4 14 9 5 9 8 4 6 5 3 3 3 1 0 2 1 0 1 0 0 2 1 7 9 6 4 5 0 8 9 3 5 2 0 12 9 0 44 37 29 37 32 26 15 10 7 10 6 5 7 3 2 5 1 0 6 2 1 6 2 1 6 2 1 5 1 0 7 3 2 3 0 0 23 19 18 17 13 12 3 0 0 7 3 2 4 0 0 9 5 4 
4 3 1 5 4 2 6 5 3 6 5 3 6 5 3 6 5 3 5 4 2 4 3 1 5 4 2 5 4 2 4 3 1 3 2 0 3 2 0 4 3 1 5 4 2 5 4 2 4 0 0 8 2 2 9 5 6 7 3 4 6 4 7 9 7 10 11 6 10 7 3 2 11 4 0 8 0 0 14 0 0 73 53 28 172 149 117 225 197 158 220 191 147 216 184 137 230 198 151 233 201 154 231 200 154 218 191 146 189 166 124 184 164 127 152 136 103 55 41 14 10 0 0 7 0 0 23 16 6 4 0 0 4 0 0 18 13 17 12 7 14 11 6 12 15 9 9 14 9 5 12 7 4 8 7 3 6 5 3 3 3 1 0 2 1 0 2 1 0 2 0 6 8 5 2 3 0 7 8 2 5 2 0 14 11 2 48 41 33 42 38 29 15 10 7 11 7 6 7 3 2 5 1 0 6 2 1 7 3 2 6 2 1 5 1 0 8 4 3 3 0 0 24 20 19 18 14 13 4 0 0 8 4 3 5 1 0 10 6 5 
4 3 1 5 4 2 6 5 3 6 5 3 6 5 3 6 5 3 5 4 2 4 3 1 5 4 2 5 4 2 4 3 1 3 2 0 3 2 0 4 3 1 5 4 2 5 4 2 5 0 0 7 2 0 7 3 2 6 2 3 5 3 6 7 5 6 9 5 6 9 4 1 31 22 15 10 0 0 40 24 1 159 136 105 241 213 176 206 173 130 176 140 92 216 179 127 213 173 121 229 192 139 223 187 135 189 157 108 171 143 96 196 173 131 216 198 162 193 178 147 95 83 57 25 17 0 7 0 0 6 0 0 16 8 6 15 6 7 9 3 7 17 11 15 14 6 4 12 7 3 11 6 3 6 5 1 5 4 2 3 3 1 1 3 2 0 2 1 0 2 0 5 7 4 2 3 0 6 7 1 5 2 0 15 13 1 51 44 34 48 41 33 16 11 8 11 7 6 8 4 3 6 2 1 6 2 1 7 3 2 7 3 2 6 2 1 9 5 4 4 0 0 25 21 20 19 15 14 4 0 0 9 5 4 6 2 1 11 7 6 
4 3 1 5 4 2 6 5 3 6 5 3 6 5 3 6 5 3 5 4 2 4 3 1 5 4 2 5 4 2 4 3 1 3 2 0 3 2 0 4 3 1 5 4 2 5 4 2 7 2 0 6 1 0 5 1 0 5 4 2 6 4 5 6 4 5 8 4 3 11 6 2 12 4 0 17 4 0 149 129 104 250 224 191 188 155 112 137 99 50 181 140 86 216 174 116 229 184 125 224 179 120 206 166 107 198 161 106 184 152 101 139 112 65 144 122 81 224 205 172 216 202 173 136 124 102 55 43 27 15 5 0 8 0 0 9 0 0 20 10 11 7 0 0 12 4 2 10 5 2 9 3 3 5 4 2 4 2 3 2 2 2 1 3 2 0 2 1 0 2 0 5 7 4 2 3 0 6 7 0 5 2 0 15 13 1 51 44 34 48 41 33 16 11 8 13 7 7 9 3 3 7 1 1 8 2 2 9 3 3 8 2 2 7 1 1 10 4 4 5 0 0 26 20 20 20 14 14 5 0 0 10 4 4 7 1 1 12 6 6 
4 3 1 5 4 2 6 5 3 6 5 3 6 5 3 6 5 3 5 4 2 4 3 1 5 4 2 5 4 2 4 3 1 3 2 0 3 2 0 4 3 1 5 4 2 5 4 0 8 5 0 5 2 0 3 2 0 6 5 3 7 5 6 5 4 2 9 5 2 15 8 2 21 11 0 124 107 87 234 210 182 219 189 151 131 94 49 127 86 32 186 140 80 205 157 93 210 161 95 217 169 105 209 163 101 203 163 102 195 160 106 106 76 26 37 13 0 91 71 34 175 159 126 214 200 174 199 186 167 111 99 85 16 3 0 8 0 0 34 20 17 8 0 0 11 1 0 8 3 0 8 2 2 4 3 1 4 2 3 2 2 2 1 3 2 1 3 2 0 2 0 6 8 3 2 3 0 7 8 0 5 2 0 14 12 0 48 42 30 44 37 27 16 11 7 13 7 7 9 3 3 8 2 2 8 2 2 9 3 3 9 3 3 8 2 2 9 3 3 4 0 0 25 19 19 19 13 13 5 0 0 9 3 3 6 0 0 11 5 5 
4 3 1 5 4 2 6 5 3 6 5 3 6 5 3 6 5 3 5 4 2 4 3 1 5 4 2 5 4 2 4 3 1 3 2 0 3 2 0 4 3 1 5 4 2 5 4 0 11 8 3 6 3 0 3 2 0 7 6 2 8 7 5 5 4 2 9 6 1 18 11 3 123 111 97 239 221 199 219 194 163 117 85 44 121 81 30 169 124 65 192 143 77 217 167 98 223 170 102 230 177 109 219 170 104 185 141 78 178 139 82 131 98 45 47 19 0 38 15 0 83 63 30 125 108 80 203 188 165 238 225 208 125 111 100 10 0 0 11 0 0 31 17 14 9 0 0 6 1 0 6 0 0 3 2 0 3 1 2 2 2 2 1 3 2 1 3 2 0 2 0 7 9 4 4 5 0 8 9 1 5 2 0 12 10 0 44 38 26 39 32 22 17 12 8 14 8 8 10 4 4 8 2 2 9 3 3 9 3 3 9 3 3 8 2 2 8 2 2 4 0 0 24 18 18 18 12 12 4 0 0 8 2 2 5 0 0 10 4 4 
6 2 0 7 3 0 8 4 1 8 4 1 8 4 1 6 5 1 5 4 0 4 3 0 5 4 0 5 4 0 6 2 0 5 1 0 5 1 0 7 2 0 8 3 0 7 4 0 10 10 2 3 4 0 2 3 0 8 7 2 11 8 3 9 4 0 14 5 0 23 11 0 183 167 144 243 220 189 200 171 131 132 96 48 167 124 71 220 171 112 217 166 101 211 158 90 217 164 94 199 149 78 211 163 97 201 160 98 186 149 94 142 110 61 56 29 0 24 0 0 25 4 0 32 15 0 125 109 84 247 231 208 196 180 157 57 40 20 17 0 0 14 0 0 12 0 0 9 1 0 9 1 0 8 1 0 6 2 0 5 2 0 3 2 0 2 3 0 0 2 0 5 10 6 2 7 3 8 10 5 2 3 0 8 8 0 39 35 23 35 28 18 19 12 6 16 8 6 12 4 2 10 2 0 11 3 1 10 4 4 9 3 3 8 2 2 6 2 1 3 0 0 23 19 18 16 12 11 3 0 0 6 2 1 3 0 0 8 4 3 
6 0 0 7 0 0 9 4 0 8 3 0 5 0 0 3 0 0 5 2 0 8 5 0 5 2 0 5 2 0 6 1 0 9 1 0 11 1 0 13 2 0 15 4 2 14 7 1 8 11 0 1 9 0 1 4 0 5 5 0 4 0 0 27 17 7 14 0 0 25 3 0 148 122 87 216 183 140 242 205 153 255 220 165 242 196 137 255 221 162 255 220 160 238 189 123 228 184 111 211 172 97 204 165 98 195 160 102 179 149 99 156 128 88 103 80 48 43 22 0 58 38 14 31 13 0 127 107 80 232 211 180 236 214 177 168 145 103 129 105 59 150 127 83 87 71 37 54 41 9 41 28 0 21 7 0 14 0 0 10 0 0 22 16 0 1 1 0 0 4 0 1 11 10 0 8 9 0 6 5 5 11 7 11 14 5 18 18 6 36 30 18 19 9 0 17 4 0 16 5 1 19 8 4 15 5 3 8 0 0 7 1 1 14 10 9 5 3 4 9 7 8 12 12 12 10 10 10 3 3 1 0 0 0 3 4 0 11 12 7 
18 8 6 11 3 0 6 0 0 4 0 0 9 4 0 11 8 3 7 6 1 3 2 0 4 3 0 4 3 0 6 3 0 7 2 0 11 1 0 13 2 0 14 3 1 13 6 0 0 3 0 0 5 0 0 3 0 6 6 0 6 0 0 11 0 0 18 0 0 83 58 28 200 168 127 227 191 141 255 217 158 243 199 136 222 177 112 193 145 81 249 199 138 255 222 157 244 204 132 240 204 130 236 202 138 213 182 127 186 159 114 183 160 126 155 134 107 93 75 53 113 95 75 101 83 61 121 101 74 205 185 150 242 218 174 241 215 164 242 213 155 238 213 156 243 225 177 219 202 158 170 151 108 83 64 22 41 21 0 18 1 0 28 17 0 6 0 0 0 2 0 0 6 3 3 13 14 7 17 16 7 13 9 10 13 4 21 19 6 30 22 9 26 14 2 21 7 0 16 1 0 15 2 0 14 3 0 11 1 0 4 0 0 3 0 0 6 5 3 9 9 7 13 13 11 15 15 13 11 11 9 6 7 2 3 4 0 4 5 0 
6 0 0 4 0 0 4 0 0 3 0 0 5 4 2 6 6 4 4 6 3 2 4 1 4 6 3 3 5 2 4 4 2 4 3 1 6 2 1 8 2 2 9 3 3 9 5 2 3 8 1 4 11 3 5 7 2 19 18 14 11 3 0 11 0 0 38 19 2 157 131 104 231 202 162 179 146 93 193 157 95 247 208 141 242 202 133 143 103 33 180 137 69 252 212 143 243 206 135 233 199 128 238 207 143 216 189 134 172 148 104 153 133 100 118 98 73 47 31 8 15 0 0 31 15 0 65 48 20 213 195 159 234 211 169 173 150 100 151 125 68 179 154 97 232 211 158 214 194 144 227 203 155 242 218 172 242 217 176 133 111 74 40 23 0 10 0 0 4 0 0 5 6 0 15 17 12 0 3 0 1 1 0 6 3 0 36 28 9 32 19 2 17 3 0 18 4 0 11 0 0 10 0 0 8 0 0 16 7 2 24 16 13 20 15 12 5 1 0 5 4 0 8 7 3 9 8 3 10 7 2 8 5 0 6 3 0 3 0 0 
6 0 0 9 3 5 17 11 13 15 11 12 6 4 5 0 1 0 1 3 2 4 8 7 3 7 6 2 6 5 1 5 4 2 4 3 3 3 3 3 3 3 5 3 4 4 4 4 0 2 0 4 6 3 0 0 0 12 8 7 15 5 4 18 3 0 55 36 21 194 170 142 242 214 174 163 133 79 124 93 29 236 203 132 255 227 155 204 170 96 165 128 57 194 160 89 244 210 139 219 188 121 228 199 139 223 197 146 179 156 115 148 127 96 110 92 68 48 33 12 15 0 0 25 10 0 83 67 41 253 234 201 247 225 184 140 118 69 63 38 0 124 99 43 228 203 147 232 207 151 210 180 126 171 141 89 232 201 154 240 213 170 196 173 139 162 145 119 42 31 13 6 0 0 19 15 4 86 82 71 108 100 87 106 95 77 106 90 67 89 73 50 100 82 68 109 92 82 112 95 85 111 97 88 116 103 95 104 93 87 53 44 39 6 0 0 7 2 0 11 6 2 12 7 1 10 3 0 10 3 0 16 7 0 21 13 2 23 15 4 
19 8 14 22 13 18 21 15 19 16 11 15 6 4 7 0 1 3 2 3 5 4 8 9 2 8 8 1 7 7 0 6 6 0 4 5 0 4 5 2 3 5 3 4 6 3 5 4 1 1 1 12 10 11 3 0 0 6 0 0 8 0 0 19 1 0 62 43 29 198 177 150 244 219 179 215 190 136 137 112 48 167 140 69 226 200 126 255 239 165 214 186 113 151 122 52 212 183 117 204 176 113 202 175 120 171 147 99 122 100 63 105 86 56 87 71 48 42 27 8 19 4 0 20 5 0 85 69 44 202 186 153 233 214 174 209 188 143 81 59 9 92 69 15 194 168 111 233 204 144 215 183 124 139 104 48 200 165 111 248 216 167 222 193 153 197 174 142 181 165 140 32 21 1 22 13 0 164 155 138 239 226 207 216 200 177 206 185 158 220 198 174 219 200 183 210 194 181 200 184 171 204 190 179 224 211 202 208 198 189 125 116 107 36 27 20 11 4 0 22 13 6 26 17 8 23 13 4 23 10 1 32 18 7 42 26 13 45 29 14 
17 2 7 8 0 0 8 0 0 6 0 0 4 0 0 6 5 3 4 4 4 1 3 0 2 6 5 1 6 2 1 5 4 0 5 1 2 4 3 3 5 2 4 6 5 6 6 4 9 5 2 19 14 11 16 7 8 18 6 6 11 0 0 22 3 0 59 40 25 174 153 126 229 206 165 228 205 153 168 147 84 121 101 32 195 172 102 228 205 135 216 193 125 144 121 54 138 112 51 170 145 88 168 145 95 114 91 49 71 51 16 70 53 25 60 43 23 24 9 0 19 6 0 13 0 0 61 45 22 134 117 89 180 162 126 200 181 139 74 53 6 61 38 0 196 167 109 202 170 109 192 158 97 140 104 44 196 160 102 212 176 124 163 130 87 148 122 85 203 182 153 70 54 31 11 0 0 56 43 24 86 69 49 75 55 31 85 59 32 107 83 57 99 78 59 95 77 63 83 67 54 73 59 46 82 68 57 85 72 63 54 44 34 12 4 0 19 9 0 29 19 9 37 23 12 35 19 6 36 18 4 46 24 10 50 27 11 47 24 8 
17 0 0 23 3 2 30 10 11 29 14 11 24 10 9 14 5 0 6 1 0 3 0 0 4 3 0 4 4 0 4 3 0 4 4 0 5 4 0 6 6 0 9 6 1 11 7 0 10 1 0 8 0 0 24 11 3 73 58 53 91 72 66 105 85 76 114 93 76 185 164 137 221 199 160 214 192 143 170 149 92 149 129 68 207 189 127 204 186 124 203 184 125 183 164 106 148 127 72 174 151 101 169 147 100 155 133 94 166 147 115 174 157 131 160 143 123 149 133 117 176 160 145 106 90 74 130 113 93 174 157 131 192 173 141 188 168 131 134 113 70 155 133 84 197 171 114 187 157 95 163 129 68 88 52 0 144 105 48 187 150 98 144 110 65 117 89 52 121 97 69 103 85 61 93 78 59 95 80 61 102 85 65 117 97 73 135 109 82 143 119 93 92 71 52 109 92 76 117 101 86 104 90 77 89 75 62 81 69 57 71 61 49 62 52 40 71 59 47 70 56 43 63 45 31 55 33 19 62 36 21 77 48 32 79 48 30 70 37 18 
47 16 13 78 49 43 107 78 74 99 74 67 63 40 34 26 8 0 11 0 0 9 0 0 10 0 0 9 1 0 9 1 0 10 2 0 11 3 0 12 4 0 15 5 0 16 7 0 30 17 0 13 0 0 53 36 20 167 148 134 233 211 200 255 232 220 237 211 194 255 243 217 237 214 180 239 218 175 172 152 102 188 168 117 228 210 160 255 243 194 241 224 180 239 222 178 249 228 181 216 193 149 178 156 115 204 184 149 255 245 215 255 244 220 243 226 208 255 247 231 231 213 199 166 149 133 181 163 143 235 215 191 255 238 209 255 232 198 251 229 190 255 241 197 208 183 129 131 102 44 97 65 8 52 15 0 77 40 0 75 39 0 69 34 0 130 101 67 154 133 106 139 123 100 130 117 100 139 126 110 141 126 107 117 99 79 108 86 62 123 101 77 160 141 124 150 134 118 136 120 105 124 111 95 128 116 102 137 125 111 135 126 111 129 117 103 144 130 117 129 112 96 102 81 64 85 59 42 98 67 49 121 86 66 127 89 70 117 76 56 
130 87 78 132 92 80 133 93 83 122 86 72 104 72 59 89 62 45 84 58 43 82 61 42 68 47 30 92 74 54 78 61 43 95 78 58 85 66 49 69 51 31 96 77 60 64 46 22 76 57 25 89 69 36 92 71 44 198 173 151 183 156 137 227 198 180 255 239 218 247 219 195 234 207 177 238 214 178 194 172 133 173 154 114 169 151 115 254 238 205 240 223 195 249 230 200 240 218 181 240 217 176 192 170 133 147 124 92 199 178 151 255 240 219 201 180 163 218 199 184 254 235 220 178 157 140 187 164 146 224 202 179 254 230 204 239 214 184 255 234 200 247 222 182 212 188 140 105 77 27 105 73 22 112 79 28 100 64 14 106 72 27 109 75 38 145 118 88 142 122 98 83 67 51 100 90 78 133 125 112 141 131 119 117 105 89 129 114 95 117 100 80 157 141 125 140 124 108 111 95 80 100 87 71 111 99 83 134 125 108 131 122 105 85 73 57 92 76 60 142 123 106 135 109 92 102 71 51 122 85 66 143 101 79 140 93 73 143 95 73 
112 60 46 127 78 61 139 92 76 137 92 73 129 88 70 140 104 82 175 140 120 204 172 149 202 171 150 182 154 130 157 129 107 193 165 141 188 157 136 158 128 104 198 167 146 207 177 149 203 178 138 159 134 93 144 115 81 246 216 188 233 201 178 219 187 166 232 197 177 212 180 157 236 204 179 225 195 167 194 167 137 246 223 192 147 125 101 176 155 134 233 214 200 107 86 69 221 198 167 248 224 190 224 199 168 228 202 175 130 106 82 230 205 185 157 131 116 151 125 110 236 210 197 215 189 174 255 229 210 255 233 212 225 197 173 184 157 130 229 200 170 255 227 193 233 205 165 141 114 69 149 118 72 161 127 82 155 118 74 157 122 82 144 111 78 161 134 107 133 114 97 128 116 102 148 141 131 134 130 121 126 122 113 116 110 98 139 129 117 135 123 107 130 117 101 148 135 119 156 143 127 150 138 122 138 129 112 137 128 111 138 129 112 124 113 95 116 101 82 157 136 117 148 121 100 123 88 68 136 95 73 144 96 74 126 74 52 123 69 45 
92 35 16 114 57 37 138 83 63 147 97 74 150 102 80 162 118 93 187 145 121 210 170 144 217 180 154 192 155 128 177 140 114 224 187 160 224 184 159 188 148 122 215 175 150 227 188 157 212 177 135 160 127 82 161 127 90 255 219 190 255 234 208 247 209 188 255 229 211 255 218 199 224 188 166 255 248 223 218 186 163 255 234 212 251 224 207 243 216 205 255 248 244 215 191 181 255 234 211 192 165 136 245 218 191 249 221 197 247 219 197 168 139 121 184 155 139 255 223 208 255 229 216 233 201 186 254 221 204 255 239 220 255 241 219 255 231 206 255 246 220 255 241 213 229 199 165 154 124 88 155 121 83 159 124 86 158 120 83 169 130 97 156 122 94 164 136 114 148 129 115 132 122 112 96 91 85 34 33 29 33 32 28 37 37 29 84 81 72 125 119 107 146 137 122 136 124 110 101 92 77 60 53 37 43 36 20 54 47 31 92 85 67 136 128 109 134 119 100 161 140 119 154 126 104 138 102 80 146 100 77 135 83 59 109 51 27 102 42 18 
94 33 12 99 41 19 113 57 34 133 79 55 150 98 74 155 105 80 147 100 74 138 92 66 142 98 71 143 99 72 141 95 69 165 119 93 165 118 92 152 105 79 162 115 89 144 97 67 145 103 63 129 90 47 152 109 75 186 142 115 200 155 134 188 142 126 224 177 161 203 157 141 223 180 161 179 138 118 191 155 133 204 171 152 118 86 73 162 132 124 200 170 168 131 102 96 197 166 146 191 159 134 186 154 131 192 160 139 69 37 16 168 133 114 152 116 100 112 75 59 196 159 143 184 147 131 195 156 139 204 166 147 203 165 144 205 164 142 210 169 147 196 159 133 179 145 117 132 99 66 135 96 63 133 93 58 133 90 56 144 103 73 136 100 74 138 110 89 147 128 114 101 91 82 46 43 38 30 30 28 74 76 73 37 39 34 33 34 26 84 82 70 153 145 134 114 105 90 62 54 41 35 29 13 50 44 28 52 46 30 45 40 21 80 72 53 132 119 100 149 128 107 146 115 94 137 96 74 134 86 63 117 61 36 98 36 11 99 33 9 
104 46 26 94 36 16 89 32 12 107 52 31 135 83 61 152 102 79 149 99 76 136 88 65 136 88 65 138 90 67 130 80 57 125 75 52 122 70 48 133 81 59 147 92 71 126 72 46 133 84 52 131 85 52 148 98 73 127 76 57 125 73 59 110 58 47 138 84 74 111 59 46 111 62 45 118 71 51 127 85 63 104 66 47 109 71 58 136 102 92 97 64 59 126 91 85 113 78 59 118 82 60 112 74 53 103 65 46 143 105 86 135 93 77 112 70 54 131 88 72 114 71 55 122 79 63 130 84 68 126 80 64 108 63 44 111 64 44 116 69 49 116 71 48 128 88 62 118 79 50 135 90 61 138 91 61 137 88 56 135 88 60 124 82 58 119 86 67 148 126 113 91 78 70 44 39 35 81 81 79 168 172 171 103 108 104 47 52 45 85 87 76 145 141 130 105 99 85 68 64 52 80 78 63 140 138 123 122 121 103 43 40 21 44 37 18 127 114 95 136 115 94 135 104 83 126 85 63 114 62 38 100 40 16 97 31 7 109 39 14 
