P3
70 40
255
17 7 1 24 16 12 51 43 40 47 39 32 25 14 6 18 9 2 11 7 3 13 12 11 13 13 12 15 15 14 15 15 14 12 12 10 8 8 6 4 3 2 7 5 2 9 5 2 6 3 1 8 5 1 10 7 3 5 4 1 7 7 5 27 27 27 60 52 40 88 65 36 110 77 36 125 87 41 117 82 39 93 65 31 83 58 29 120 84 41 136 96 45 114 82 40 105 77 42 123 90 49 132 96 49 127 92 49 130 95 52 132 95 49 129 91 44 127 90 42 126 90 42 129 91 43 132 93 44 91 63 31 42 30 18 19 16 14 12 12 12 9 9 10 11 10 10 8 8 8 2 2 2 0 0 0 0 0 0 0 0 0 0 0 0 0 0 0 0 0 0 0 0 0 14 14 14 29 29 29 29 29 29 15 15 15 1 1 1 3 2 1 3 1 0 5 4 3 32 31 30 40 39 39 12 11 11 1 1 1 
22 17 13 43 38 35 62 57 53 52 44 37 32 20 11 20 9 1 12 8 4 19 18 16 24 23 21 26 24 22 30 27 24 28 25 21 17 13 10 8 5 2 9 6 3 9 5 2 5 4 1 9 5 2 10 7 3 4 3 1 8 7 6 40 39 39 89 78 63 121 92 54 140 98 46 150 105 49 151 106 49 136 96 45 102 72 36 133 94 45 154 108 49 123 87 43 122 89 50 160 119 67 164 120 67 153 113 65 138 104 62 149 109 59 155 110 53 149 105 48 149 106 49 151 107 49 155 110 51 128 89 42 72 52 29 33 28 23 22 22 22 20 20 21 24 24 24 20 20 20 8 8 8 1 1 1 0 0 0 0 0 0 0 0 0 0 0 0 0 0 0 0 0 0 23 23 23 50 50 49 52 52 52 29 29 29 3 2 2 2 2 0 2 1 1 11 10 9 38 37 36 53 52 51 36 35 34 13 13 12 
52 48 47 63 60 57 72 67 62 61 51 45 38 25 16 27 11 2 28 12 5 32 16 12 43 29 24 50 36 30 54 40 33 48 32 25 35 16 9 28 12 5 16 9 4 7 5 2 5 4 2 10 6 3 8 6 3 6 5 3 20 18 19 48 48 49 92 84 74 148 122 85 166 123 67 155 108 48 161 114 53 158 111 51 118 83 41 125 89 42 145 100 46 115 75 35 109 72 37 150 104 58 152 107 64 148 105 63 117 82 49 120 79 41 147 97 45 163 112 52 161 115 53 156 110 50 161 114 53 151 107 51 95 72 43 49 44 37 36 35 34 30 30 30 30 30 30 32 32 32 19 19 19 8 8 8 3 3 3 0 0 0 0 0 0 0 0 0 0 0 0 0 0 0 8 9 9 45 46 46 54 55 55 16 16 17 1 0 0 3 2 1 1 1 1 15 14 14 44 43 42 63 62 61 58 57 56 47 46 45 
45 40 37 52 48 46 62 55 50 56 42 34 37 22 12 27 12 4 27 10 5 32 14 8 46 29 23 50 34 27 52 36 29 47 30 22 34 16 7 27 12 4 14 8 3 6 4 2 5 3 1 9 6 4 7 4 2 13 11 9 44 43 40 64 63 62 81 76 69 145 120 88 169 127 76 150 105 48 155 109 50 156 110 50 135 95 45 117 82 40 118 81 39 101 65 31 108 70 41 150 105 66 156 111 74 153 109 73 123 86 57 98 63 34 117 75 35 137 94 44 139 99 46 156 109 50 156 111 51 152 108 52 89 68 40 37 34 29 32 30 29 28 28 28 23 23 23 23 23 23 17 17 17 9 9 9 3 3 3 0 0 0 0 0 0 0 0 0 1 0 1 12 9 8 29 24 21 51 49 46 53 52 50 29 29 27 16 15 14 5 3 2 1 0 0 11 10 9 33 32 31 50 49 48 46 45 44 37 36 35 
13 9 4 22 19 16 36 27 21 40 23 13 32 15 6 21 10 4 13 7 2 22 15 11 38 32 27 36 30 25 36 30 24 34 28 23 20 13 9 12 6 2 9 5 3 8 4 2 7 4 1 10 6 4 4 1 0 28 26 22 98 95 87 117 114 105 104 94 84 152 125 101 177 137 94 157 112 57 153 107 47 158 111 51 144 102 48 95 67 33 81 58 30 120 85 51 173 125 83 202 151 104 204 152 106 205 153 108 197 147 103 152 111 72 110 78 42 91 64 33 107 76 38 155 109 50 158 112 51 153 108 52 77 55 29 15 13 8 18 17 14 24 24 23 14 14 14 5 6 5 4 4 4 3 3 3 1 1 1 0 0 0 1 1 0 0 0 0 3 2 2 47 38 33 119 102 89 112 99 87 91 87 78 108 106 97 65 63 57 9 8 7 0 0 0 4 3 2 10 9 9 20 19 19 16 15 14 4 3 1 
12 7 3 12 6 2 20 9 2 28 12 3 26 12 4 19 10 4 13 7 2 18 12 9 29 26 23 29 25 22 27 23 20 24 20 17 15 10 8 11 6 3 11 7 3 11 6 3 10 6 2 10 7 3 3 0 0 31 28 25 107 102 93 119 115 103 109 96 80 143 121 102 165 132 98 156 111 58 156 109 48 158 111 52 133 94 45 58 41 22 62 45 29 165 120 78 236 172 114 232 172 116 232 172 116 231 172 116 225 168 113 186 136 90 124 90 56 101 73 48 119 86 52 135 95 45 158 111 50 154 108 50 70 49 24 8 6 2 12 12 8 18 18 16 7 7 7 1 1 1 0 0 0 0 0 0 0 0 0 0 0 0 1 1 0 0 0 0 3 2 2 54 45 38 134 116 101 119 104 90 94 89 80 122 120 109 75 73 67 11 10 9 1 0 0 4 3 1 1 1 0 1 1 1 2 2 1 2 1 0 
18 10 4 19 11 4 21 11 4 20 10 3 18 10 4 17 9 4 15 8 3 13 8 3 13 7 3 13 8 3 13 7 2 12 6 3 13 8 4 13 8 4 14 8 3 12 6 3 9 6 3 8 6 3 8 5 1 11 6 3 16 13 11 16 15 12 48 35 20 83 62 34 102 74 39 131 92 44 163 115 53 159 112 51 115 81 39 56 41 26 100 73 49 194 141 91 229 166 107 224 161 104 222 160 103 184 133 85 147 105 63 129 92 52 128 92 56 168 122 80 177 128 83 120 84 44 154 108 49 147 104 48 55 38 19 0 1 0 2 4 1 2 3 2 1 1 1 0 0 0 0 0 0 0 0 0 0 0 0 0 0 0 0 0 0 0 0 0 0 0 0 6 5 5 16 14 12 14 12 10 11 10 10 14 14 13 9 9 8 3 2 1 3 2 0 3 2 0 3 2 0 3 3 1 3 3 1 3 2 0 
18 10 4 17 10 4 17 10 3 17 9 4 16 9 4 15 8 4 14 8 4 11 7 2 12 6 2 13 7 2 13 7 2 12 7 3 11 7 3 11 7 3 16 8 2 14 8 2 8 5 2 6 4 2 8 5 2 9 4 1 4 1 0 1 0 0 36 24 11 92 65 29 91 64 29 91 64 32 146 102 48 165 116 53 113 80 37 69 50 31 138 100 66 209 152 98 226 164 106 224 162 105 187 135 87 135 96 53 129 91 46 135 97 51 115 83 44 153 110 68 195 142 94 137 98 59 144 102 46 126 89 41 43 30 16 0 0 1 4 4 2 1 1 0 0 0 0 0 0 0 0 0 0 1 0 0 1 0 0 0 0 0 0 0 0 0 0 0 0 0 0 0 0 0 0 0 0 0 0 0 0 0 0 0 0 0 0 0 0 1 1 0 3 2 0 3 2 0 3 2 0 4 3 0 3 2 0 3 2 0 
13 8 3 13 8 3 14 8 3 13 8 3 13 7 4 15 8 4 17 8 3 12 7 3 9 6 3 11 7 3 12 8 3 11 8 3 11 7 3 12 7 2 17 8 2 15 7 2 8 5 2 7 4 2 10 6 2 11 8 4 12 8 3 8 4 2 32 21 11 94 66 31 111 78 37 84 59 29 96 67 33 139 98 46 128 90 42 85 61 37 150 109 71 225 163 104 230 167 108 197 143 92 146 104 60 128 90 43 113 80 46 119 86 53 135 98 57 179 129 80 213 155 101 168 122 79 120 84 43 76 54 25 63 46 28 71 52 36 44 33 21 1 1 0 1 1 1 0 0 0 0 0 0 2 0 1 2 0 0 0 0 0 0 0 0 0 0 0 0 0 0 0 0 0 1 1 0 1 0 0 0 0 0 1 1 1 0 0 0 1 0 0 3 2 0 4 2 0 3 2 0 3 2 0 3 2 0 3 2 0 
10 6 2 12 8 4 14 8 4 13 7 4 13 8 4 17 8 4 18 9 4 12 6 2 10 5 2 13 6 4 14 8 5 14 8 4 14 8 4 15 9 3 17 9 3 15 7 2 10 4 2 9 5 2 12 7 3 14 7 4 14 8 4 11 5 3 19 11 6 75 52 25 115 81 38 103 73 34 78 55 27 81 57 28 113 79 37 93 67 37 127 92 60 195 142 93 193 140 91 143 103 60 130 91 41 114 80 41 85 63 46 119 95 78 161 124 93 193 141 93 228 165 106 193 140 91 82 60 35 33 25 13 101 73 47 142 103 68 76 56 37 4 3 2 0 0 0 1 0 0 0 0 0 1 0 1 2 0 1 1 0 0 0 0 0 0 0 0 0 0 0 0 0 0 0 0 0 0 0 0 0 0 0 0 0 0 0 0 0 1 0 0 3 1 0 3 2 0 3 2 0 3 2 0 3 2 0 3 2 0 
13 7 3 15 8 3 17 9 4 17 9 4 17 9 4 18 10 4 17 10 4 11 6 2 14 7 3 18 9 4 19 10 4 18 9 5 17 9 4 18 10 4 18 10 3 14 7 2 9 4 1 11 6 2 15 7 4 16 7 4 17 8 5 15 7 4 9 4 2 52 36 18 106 76 35 113 80 38 84 60 28 70 49 24 82 58 28 70 49 27 100 71 40 147 105 62 150 108 68 136 97 58 138 98 50 126 91 57 115 90 76 143 117 101 146 117 98 159 119 85 222 160 102 210 153 99 75 56 37 23 19 12 101 74 48 138 101 66 75 55 37 10 8 6 0 0 0 1 0 0 0 0 0 1 0 0 2 0 1 2 0 1 0 0 0 0 0 0 0 0 0 0 0 0 0 0 0 0 0 0 0 0 0 0 0 0 0 0 0 1 0 0 2 1 1 3 2 0 3 2 0 3 2 0 3 2 0 3 2 0 
18 9 3 20 10 2 21 11 2 20 11 2 20 11 3 21 12 3 17 10 3 11 6 2 15 8 3 20 11 3 22 12 3 21 11 4 19 10 4 20 10 4 20 10 4 15 8 3 11 6 2 14 7 3 17 8 4 17 8 4 17 8 4 17 8 5 11 4 2 29 19 9 84 60 28 108 77 36 92 64 31 95 67 31 80 56 27 41 29 17 77 54 29 103 74 36 110 79 48 153 110 74 179 129 82 177 130 87 154 120 95 144 110 86 143 107 79 164 122 85 218 158 101 221 160 104 101 74 48 25 20 13 72 53 36 125 92 61 84 62 41 12 10 6 0 0 0 2 1 1 1 0 1 1 0 1 2 0 1 2 0 1 1 0 0 0 0 0 0 0 0 0 0 0 0 0 0 0 0 0 0 0 0 0 0 0 0 0 0 0 0 0 2 1 0 4 2 0 4 2 0 3 2 0 3 2 0 3 2 0 
20 11 3 22 12 3 23 12 2 22 11 2 22 12 3 24 13 4 19 11 4 14 8 3 19 10 3 23 12 3 23 12 3 22 12 4 21 11 3 20 11 3 20 10 4 16 9 3 16 9 2 18 9 3 17 9 4 15 9 4 14 9 4 15 8 3 15 7 3 10 4 2 41 28 14 82 58 27 89 63 29 92 65 30 103 72 33 52 37 19 47 36 26 65 49 34 76 54 36 142 102 67 228 165 108 213 155 102 164 121 83 160 115 76 196 140 88 219 158 101 231 167 108 224 163 105 122 90 58 22 17 10 73 53 36 148 107 71 96 70 46 7 5 3 0 0 0 2 1 1 1 0 1 2 0 1 2 0 1 2 0 1 2 0 1 1 0 0 0 0 0 0 0 0 0 0 0 0 0 0 0 0 0 0 0 0 0 0 0 0 0 0 1 1 0 4 2 0 4 2 0 3 2 0 3 2 0 3 2 0 
22 12 3 22 12 3 23 12 4 23 12 3 23 13 3 24 13 4 22 12 4 22 12 4 23 13 3 24 13 3 22 12 3 22 12 4 21 12 3 19 10 2 16 8 2 15 8 2 15 8 2 13 7 3 10 6 3 8 6 2 8 5 3 7 4 1 6 4 2 4 2 1 8 5 2 27 19 9 49 34 17 74 53 26 113 81 38 83 58 26 45 34 24 76 57 45 121 88 59 160 116 74 221 160 104 227 163 106 221 160 103 226 163 106 229 166 108 224 162 105 229 165 107 229 166 107 144 106 68 33 26 16 88 65 42 119 86 57 45 32 22 1 1 1 1 1 1 1 0 0 2 0 1 2 0 1 2 0 1 2 0 1 2 0 1 1 0 0 0 0 0 0 0 0 0 0 0 0 0 0 0 0 0 0 0 0 0 0 0 0 0 0 1 1 0 4 3 0 4 3 0 3 2 0 3 2 0 3 2 0 
24 14 4 24 14 3 24 14 4 24 13 3 21 12 3 19 11 4 19 10 4 18 10 3 16 9 3 14 8 3 13 8 3 11 7 3 10 7 2 10 6 2 7 4 1 6 4 1 6 4 2 5 3 2 3 3 1 4 3 1 4 3 2 2 3 1 2 2 2 3 2 1 2 2 1 3 2 1 8 6 3 28 21 10 70 51 24 89 64 28 70 50 27 120 87 57 183 134 88 187 136 89 207 149 97 225 162 105 228 165 106 228 165 107 226 163 106 220 159 103 225 163 105 230 166 108 173 126 82 49 37 25 41 31 20 43 32 21 6 4 3 0 0 0 1 0 0 1 0 0 2 0 1 2 0 1 2 0 1 2 0 1 2 0 1 1 0 1 0 0 0 0 0 0 0 0 0 0 0 0 0 0 0 0 0 0 0 0 0 0 0 0 1 1 0 4 3 0 4 3 0 3 2 0 3 2 0 3 2 0 
14 8 3 13 8 3 12 8 3 12 7 2 9 6 2 7 5 2 8 6 2 7 5 2 5 3 2 5 4 3 5 4 3 3 3 1 3 3 1 5 4 2 3 3 2 3 3 2 4 4 2 4 3 2 2 2 1 4 3 1 4 3 2 2 2 2 2 2 3 4 3 2 3 3 1 2 2 0 1 1 0 4 3 1 17 12 5 33 24 10 37 26 13 93 67 43 152 111 73 166 122 79 199 145 94 223 161 104 224 162 105 220 159 103 222 160 104 224 162 105 227 164 106 230 166 108 194 140 92 61 44 29 4 3 3 5 4 2 0 0 0 0 0 0 0 0 0 1 0 0 2 0 1 2 0 1 2 1 0 2 0 1 2 0 1 1 0 1 0 0 0 0 0 0 0 0 0 0 0 0 0 0 0 0 0 0 0 0 0 0 0 0 1 1 0 3 2 0 3 2 0 3 2 0 3 2 0 3 2 0 
6 5 3 4 4 3 4 3 2 5 4 2 3 4 1 2 3 2 4 4 2 4 3 2 3 3 2 4 4 3 4 4 3 3 3 1 5 4 2 5 4 3 3 3 2 4 4 2 5 4 2 4 3 3 4 3 2 5 4 2 5 4 2 2 2 2 2 2 2 4 3 2 3 2 0 3 2 0 5 3 1 3 2 1 0 0 0 0 0 0 3 3 1 28 20 14 93 68 45 178 130 85 226 164 105 225 163 105 221 161 104 227 165 108 230 167 108 225 162 103 221 159 103 230 166 108 203 147 96 67 50 32 0 0 0 2 1 1 2 1 1 0 0 0 0 0 0 1 0 0 2 0 1 2 1 1 2 2 0 2 1 1 2 0 1 2 0 1 1 0 0 0 0 0 0 0 0 0 0 0 0 0 0 0 0 0 0 0 0 0 0 0 0 0 0 2 2 0 3 2 0 3 2 0 3 2 0 3 2 0 
5 6 2 3 3 2 5 4 2 6 5 2 5 5 2 4 4 2 6 5 3 6 4 2 5 4 2 7 5 2 6 4 2 4 3 2 6 5 2 6 5 2 4 3 2 5 4 3 5 4 3 4 3 2 3 3 2 5 4 2 4 3 3 3 3 2 3 3 1 5 4 2 4 3 1 3 2 0 4 4 2 5 4 2 4 3 1 4 3 1 4 3 1 0 0 0 49 36 24 159 116 76 219 159 103 215 155 101 224 162 104 226 162 103 203 147 95 172 126 85 178 130 87 229 166 107 211 153 100 75 56 36 1 2 1 0 1 0 1 1 1 0 0 0 0 0 0 1 0 0 2 0 0 3 1 0 4 2 0 3 1 0 2 0 1 2 0 1 2 0 1 0 0 0 0 0 0 0 0 0 0 0 0 0 0 0 0 0 0 0 0 0 0 0 1 2 1 1 4 2 0 4 2 0 4 2 0 3 2 0 
7 6 2 5 4 2 6 5 2 7 6 2 6 5 2 5 5 2 7 6 3 5 4 3 5 4 2 7 5 2 5 4 2 4 4 2 6 5 2 6 5 2 4 3 2 5 4 3 6 5 2 4 3 1 4 3 1 5 4 2 5 4 2 3 3 2 5 4 1 5 4 2 4 3 1 3 2 0 5 4 2 5 4 2 3 2 0 3 3 0 6 4 1 3 2 1 10 8 5 74 55 37 165 120 79 193 139 90 206 149 96 192 141 93 151 116 87 123 97 78 155 115 80 229 165 106 222 161 105 100 74 48 24 18 12 9 7 5 2 2 1 0 0 0 0 0 0 1 0 0 2 1 0 2 1 0 4 1 0 4 1 0 2 1 0 2 0 1 2 0 1 1 0 0 0 0 0 0 0 0 0 0 0 0 0 0 0 0 0 0 0 0 0 0 0 2 1 1 5 2 1 6 3 0 5 3 0 3 2 0 
6 5 3 5 4 2 7 6 2 7 6 2 6 5 2 7 6 2 8 7 3 6 5 3 6 5 2 7 6 2 5 4 3 5 4 3 6 5 2 6 5 2 4 4 2 6 5 2 6 5 2 4 3 1 4 4 1 6 5 2 6 5 1 4 3 1 5 4 2 5 4 2 4 3 1 4 3 1 5 4 2 5 4 2 3 2 0 3 2 0 4 3 1 5 3 1 0 0 0 33 24 16 121 89 60 167 124 87 164 127 95 155 125 104 150 123 106 169 130 98 205 149 97 228 164 107 227 164 107 154 113 74 98 72 48 44 32 21 3 2 1 0 0 0 1 0 0 2 0 0 2 1 0 2 1 0 5 1 0 5 1 0 3 1 0 2 0 1 2 0 1 1 0 0 0 0 0 0 0 0 0 0 0 0 0 0 0 0 0 0 0 0 0 0 0 3 1 0 7 3 0 7 3 0 5 3 0 3 2 0 
6 5 3 6 5 2 7 6 2 7 6 1 6 5 1 7 6 3 7 6 3 5 4 2 6 5 3 7 6 3 5 4 3 5 4 2 7 6 2 6 5 2 4 4 2 6 5 2 6 5 2 4 3 2 5 4 1 7 6 1 5 4 2 4 3 1 6 5 2 6 5 2 5 4 1 4 3 1 5 4 2 5 4 2 2 2 0 3 2 1 4 3 1 3 2 1 3 1 0 12 7 4 56 42 32 139 114 97 177 147 129 177 142 119 185 139 101 212 153 100 228 164 106 224 162 105 223 161 105 218 157 102 185 134 87 80 58 37 0 0 0 1 0 0 2 0 1 2 1 0 3 2 0 3 1 0 5 1 0 6 1 1 4 1 0 2 1 0 2 0 1 1 0 0 0 0 0 0 0 0 0 0 0 0 0 0 0 0 0 0 0 0 0 0 0 3 1 0 7 3 0 9 4 1 8 4 1 4 3 0 
6 5 3 6 5 2 8 7 2 7 6 2 5 4 2 7 6 2 7 6 3 5 4 1 7 6 2 7 6 2 4 4 2 6 5 2 8 7 2 6 5 2 5 4 3 6 5 2 6 5 2 4 3 1 5 4 1 6 5 1 5 4 2 4 2 2 6 4 2 6 5 1 4 4 1 4 3 1 5 4 2 5 4 2 3 2 0 4 3 1 5 4 2 5 4 2 1 1 0 10 7 4 68 50 35 162 124 90 181 139 101 185 137 94 211 152 98 227 164 105 225 163 105 222 161 104 220 159 103 235 169 109 202 145 94 81 58 38 0 0 0 2 0 1 2 0 1 2 1 0 4 1 0 5 1 0 6 1 1 7 1 1 4 1 0 3 1 0 2 0 1 2 0 1 1 0 0 0 0 0 0 0 0 0 0 0 0 0 0 0 0 0 0 0 0 2 1 0 7 3 1 10 5 2 9 5 2 7 3 1 
6 5 2 7 6 2 7 7 2 6 5 3 6 5 2 7 6 2 6 6 3 5 5 2 8 7 2 6 6 2 5 4 2 6 5 2 8 7 3 6 5 2 5 4 3 7 6 2 5 4 1 5 4 1 7 5 2 9 7 3 8 5 3 6 4 2 6 4 2 5 5 2 4 3 1 4 3 1 6 4 1 5 4 1 3 2 0 4 3 1 5 4 2 6 4 2 1 1 0 6 4 4 69 50 33 182 131 84 167 121 78 160 115 75 206 149 96 229 166 107 219 158 103 221 160 104 231 168 109 236 170 110 154 110 71 42 30 19 0 0 0 4 1 1 2 0 1 2 1 0 5 1 0 5 1 0 6 1 0 7 1 0 5 1 0 4 1 0 2 0 1 2 0 1 1 0 0 0 0 0 0 0 0 0 0 0 0 0 0 0 0 0 0 0 0 2 1 1 8 4 1 11 6 2 11 6 2 8 4 1 
6 5 2 7 7 2 7 7 2 5 5 3 6 5 3 8 7 2 6 6 3 5 5 3 8 7 2 7 5 2 5 4 2 6 6 2 8 7 2 6 5 3 5 4 3 7 6 2 7 5 2 5 4 2 4 3 1 3 2 1 2 2 0 4 3 1 8 5 3 8 5 3 5 3 1 5 4 1 6 5 1 4 4 1 3 2 0 3 3 1 4 3 1 4 3 1 4 2 0 0 0 0 39 28 19 166 119 78 191 138 92 185 134 89 208 150 98 226 164 106 230 166 108 231 167 108 210 152 100 157 114 76 67 50 36 10 8 8 2 2 2 3 1 1 3 1 2 3 1 1 6 1 1 6 1 0 6 2 0 7 2 0 6 1 0 5 1 0 2 1 0 2 0 1 1 0 0 0 0 0 0 0 0 0 0 0 0 0 0 0 0 0 0 0 0 2 1 1 8 4 1 13 7 2 13 7 2 11 6 2 
6 5 3 8 7 2 7 6 2 5 5 3 6 6 3 7 6 2 6 5 2 5 5 2 8 7 2 6 5 2 5 4 2 6 6 2 7 6 3 5 5 3 5 4 2 8 6 2 5 4 1 0 0 0 4 3 2 14 10 7 15 11 8 5 4 3 2 3 2 4 4 3 4 3 1 5 4 1 5 5 2 4 4 1 2 2 0 3 3 1 4 3 1 3 3 1 6 3 1 2 0 0 19 13 9 130 93 61 224 162 104 242 176 113 232 168 109 230 166 107 218 157 101 193 140 91 154 112 73 75 57 43 28 27 34 17 18 28 8 7 9 0 0 0 1 0 1 3 1 1 6 1 1 7 1 1 7 1 0 8 2 1 7 1 1 5 1 0 3 1 0 2 0 1 1 0 0 0 0 0 0 0 0 0 0 0 0 0 0 0 0 0 0 0 0 1 0 1 7 4 1 15 7 2 16 7 2 15 7 2 
6 5 3 8 7 2 7 6 2 5 5 2 6 6 3 7 6 2 5 4 2 5 5 2 8 6 2 6 5 2 5 4 2 7 6 2 6 5 3 4 4 2 6 5 1 4 3 1 7 5 3 38 28 18 76 56 36 99 72 47 102 74 50 63 42 29 26 9 6 9 2 0 5 4 2 5 4 2 6 5 2 4 4 1 3 2 0 3 3 1 5 4 2 3 3 1 6 3 1 4 2 0 9 7 4 83 60 38 192 139 89 223 162 104 205 148 97 180 131 87 132 99 68 102 75 52 122 87 56 82 61 46 48 45 55 36 37 52 19 19 24 6 6 8 4 4 5 2 1 1 5 1 0 7 1 1 8 1 1 9 1 0 7 2 1 6 1 0 4 0 0 2 0 1 2 0 1 0 0 0 0 0 0 0 0 0 0 0 0 0 0 0 0 0 0 0 0 1 7 4 1 16 7 2 18 8 1 17 8 1 
6 5 2 8 7 3 6 5 2 5 5 2 7 7 2 7 6 2 5 4 2 6 5 3 7 6 3 6 4 2 5 4 2 7 6 2 6 5 2 5 4 2 6 5 2 8 6 3 63 46 31 161 117 76 214 155 99 217 159 102 213 157 102 163 98 64 124 30 17 83 9 3 29 7 4 2 3 1 6 5 2 5 4 2 3 2 0 4 3 1 5 4 2 4 3 1 5 3 1 5 2 1 2 1 1 29 21 13 101 73 48 116 84 53 85 62 41 56 46 44 37 36 46 54 44 39 105 77 54 71 55 47 38 37 48 35 35 48 35 34 44 31 30 41 22 21 29 14 14 19 7 5 6 6 1 1 9 1 1 10 1 0 8 1 0 7 1 1 4 1 0 3 0 1 2 0 1 1 0 0 0 0 0 0 0 0 0 0 0 0 0 0 0 0 0 0 0 0 6 3 1 16 8 1 19 9 0 18 8 0 
7 5 1 7 6 3 6 5 3 6 5 1 8 7 2 7 6 2 6 5 3 7 6 3 7 6 2 6 4 2 6 4 2 7 6 2 8 6 3 6 4 2 4 3 2 48 36 24 168 123 80 221 161 104 200 144 93 200 146 96 187 134 87 150 63 39 189 33 15 195 35 17 91 18 10 4 1 0 4 5 2 6 4 1 3 2 0 4 3 1 5 4 2 4 3 1 4 2 1 6 2 2 4 2 1 5 4 2 16 12 8 18 13 10 15 14 18 28 29 42 42 43 59 43 42 52 48 44 53 47 44 57 44 43 58 43 42 56 46 45 60 49 48 64 47 45 61 43 42 56 27 25 34 10 6 8 7 0 0 10 1 1 9 1 0 6 1 1 5 1 0 4 0 0 3 0 1 1 0 0 1 0 0 0 0 0 0 0 0 0 0 0 0 0 0 0 0 0 6 3 0 16 8 1 21 10 1 19 10 1 
7 6 2 7 6 2 6 4 3 6 5 2 7 7 2 7 6 2 6 5 2 7 6 3 7 6 3 6 4 2 6 5 2 7 6 3 8 6 3 5 4 2 3 3 2 57 42 28 150 109 71 144 104 69 73 52 35 69 44 30 102 52 36 111 29 18 156 28 14 198 38 21 144 37 23 48 24 16 8 9 6 4 2 1 3 2 0 4 3 1 5 4 2 4 3 1 4 2 1 6 2 1 5 3 1 2 2 0 4 4 6 22 22 31 37 36 51 44 43 60 50 49 64 48 47 63 42 44 62 46 45 63 49 48 64 49 48 63 48 47 64 49 48 64 49 48 64 48 48 64 46 45 60 27 25 33 11 6 7 11 1 1 12 2 2 9 2 2 7 2 2 6 2 2 4 1 2 3 1 2 2 1 1 0 1 1 0 0 0 0 0 0 0 0 0 0 0 0 4 2 0 15 8 1 22 11 1 21 11 1 
8 7 2 7 6 2 6 5 3 6 6 2 8 7 2 7 5 2 6 4 2 7 6 2 6 6 3 5 4 2 6 5 3 7 6 3 7 5 3 5 4 3 2 1 1 38 28 19 138 101 66 179 130 85 130 95 61 86 57 38 86 33 24 99 17 11 105 13 7 128 22 12 174 79 51 129 86 56 20 17 11 1 1 0 3 2 1 4 3 1 4 4 1 4 3 1 4 2 0 6 3 1 4 2 0 4 3 2 21 21 26 44 43 56 53 51 67 50 48 65 48 47 63 49 48 64 51 49 65 50 48 63 48 47 63 48 47 64 48 47 63 47 46 62 45 45 60 41 41 55 50 48 65 42 41 55 18 14 20 5 0 0 7 1 1 4 1 1 3 1 1 2 1 1 2 1 1 1 1 1 1 1 1 1 0 0 0 0 0 0 0 0 0 0 0 0 0 0 3 2 0 14 8 1 24 13 1 24 12 1 
8 7 2 7 6 2 6 5 2 7 6 3 8 7 2 5 5 2 4 4 2 7 6 2 5 4 1 2 3 2 4 4 2 5 5 2 5 4 2 5 3 2 11 7 4 63 46 31 157 114 75 208 151 98 212 154 100 203 146 96 164 104 68 109 40 26 83 16 10 128 61 39 199 132 85 142 104 68 15 12 8 2 2 0 4 2 1 4 3 1 4 4 1 4 3 1 5 2 1 6 3 1 4 2 1 14 12 15 34 34 45 44 43 59 46 45 61 48 47 63 47 46 62 48 47 62 48 47 62 48 47 63 48 47 63 48 47 62 50 49 65 49 48 65 43 41 58 39 39 53 46 45 62 48 48 65 30 29 39 12 8 10 9 5 3 8 5 3 6 4 3 5 4 3 5 4 3 4 3 2 4 2 1 2 1 1 0 0 0 0 0 0 0 0 0 0 0 0 2 1 0 13 7 1 25 13 1 26 13 1 
9 7 2 7 6 2 7 6 3 8 7 3 8 7 3 8 5 3 10 6 3 12 7 2 10 6 2 8 5 3 10 6 3 12 8 4 10 6 3 6 2 1 28 20 14 117 85 57 174 127 84 173 126 83 174 127 83 208 152 99 221 159 103 159 107 70 116 71 48 186 129 84 183 135 88 69 51 35 3 3 1 6 5 3 5 4 2 6 4 2 6 4 2 4 3 1 5 3 2 5 2 2 7 6 8 30 29 40 45 44 59 41 40 54 43 42 57 50 48 65 49 48 65 49 48 64 49 48 64 49 48 64 49 48 64 48 48 64 48 47 64 44 43 59 39 38 50 40 40 52 45 45 62 71 67 76 99 89 85 99 85 73 87 72 57 88 74 59 91 78 65 90 79 64 88 76 61 92 79 65 92 80 66 62 53 42 11 10 9 0 0 0 1 1 1 0 0 0 1 1 0 13 7 1 26 14 2 27 14 2 
10 7 2 7 6 1 5 5 2 5 6 3 9 8 3 20 11 5 29 15 8 29 15 7 28 15 7 28 15 8 27 15 8 29 16 8 26 13 6 29 17 9 71 51 35 137 101 67 187 137 89 200 145 93 173 125 81 153 111 74 185 133 87 214 156 100 184 135 88 171 124 81 93 67 44 6 4 3 1 1 0 2 2 1 2 2 0 1 1 0 0 0 0 0 0 0 0 0 0 0 0 0 10 10 15 38 39 55 50 49 67 37 36 47 35 34 44 46 44 60 49 48 63 48 46 62 47 46 62 47 45 61 47 45 61 46 45 60 44 42 56 45 45 54 50 53 54 41 42 50 38 39 58 92 82 84 163 143 124 186 163 137 172 148 120 173 147 118 178 155 129 175 152 126 170 146 119 177 155 130 178 157 130 121 102 80 21 18 15 0 0 0 2 1 1 1 0 0 0 0 0 9 5 1 25 13 1 29 15 2 
8 6 1 6 4 1 5 3 2 4 4 1 11 8 3 27 15 8 41 23 11 46 26 12 47 26 10 44 25 10 41 24 10 34 19 7 37 21 9 86 60 37 163 119 78 155 113 74 144 105 68 171 125 81 208 151 98 198 144 94 157 115 76 196 142 91 190 139 90 109 80 54 35 27 20 15 14 11 17 14 11 15 13 10 14 12 9 14 11 9 22 19 14 31 25 19 31 25 18 35 28 23 51 45 44 67 64 70 56 54 68 37 37 47 35 36 41 42 42 50 42 42 54 42 42 54 42 43 53 42 43 52 43 43 53 46 48 54 54 56 59 74 79 77 86 95 89 56 61 62 43 44 56 69 64 73 104 93 92 117 104 96 114 99 85 112 92 72 100 82 64 95 80 63 90 76 60 84 71 58 77 65 53 51 43 34 13 11 9 5 4 3 3 3 2 3 1 0 3 1 1 10 5 2 24 12 1 31 16 1 
16 7 3 38 21 16 55 29 20 45 21 12 24 10 5 18 9 6 36 20 10 55 33 11 55 32 10 48 27 8 41 25 8 27 14 2 49 31 14 148 107 68 224 163 107 192 139 91 160 121 83 165 135 101 197 161 119 214 170 119 196 161 119 214 181 138 194 157 115 151 113 84 145 119 96 155 140 114 150 134 108 145 130 105 137 122 96 127 108 82 140 124 98 170 156 130 184 167 139 183 164 137 193 175 147 174 156 131 81 76 81 31 34 51 52 60 63 70 81 77 65 74 74 66 75 76 68 78 77 71 80 79 72 83 82 79 89 87 84 96 93 95 106 101 115 117 103 114 105 87 103 93 79 104 94 81 110 98 84 105 95 81 103 93 78 110 95 74 104 84 61 110 92 70 102 90 70 91 79 61 84 71 54 74 64 49 69 59 46 61 51 39 36 31 23 26 13 9 42 17 11 57 30 20 52 28 14 38 17 2 
77 48 39 102 62 50 124 71 56 106 56 40 66 36 22 48 29 14 60 33 10 73 43 11 75 46 15 68 41 14 62 37 12 51 31 8 74 48 20 155 108 61 214 152 91 214 153 95 196 154 110 180 160 133 181 165 141 200 176 141 218 199 163 242 230 198 224 198 158 212 163 126 226 181 153 240 215 188 241 225 195 240 222 192 235 214 182 215 188 150 180 161 131 200 187 163 241 225 197 239 220 194 234 216 187 222 201 166 115 101 90 57 50 51 83 81 71 107 108 91 105 106 91 105 106 91 106 106 91 107 108 92 107 108 93 109 109 94 106 108 94 112 111 95 137 125 99 132 117 93 108 97 80 118 107 88 136 124 101 121 112 94 102 97 83 117 106 86 143 120 90 135 118 94 109 100 84 112 102 85 129 118 96 120 110 89 102 93 76 107 96 77 106 91 68 85 54 37 101 50 37 125 72 56 108 65 50 88 53 38 
123 70 56 135 84 68 143 86 71 135 79 58 128 82 48 136 101 61 150 120 86 154 124 88 146 112 72 148 117 80 145 115 79 139 108 70 154 125 90 182 151 114 193 152 106 187 135 79 203 164 115 208 190 161 192 181 162 179 165 142 190 175 151 236 226 201 236 211 170 230 195 153 236 199 173 243 215 196 247 230 206 246 221 198 247 224 197 236 208 168 199 181 150 182 173 153 215 204 183 225 212 192 197 183 164 223 204 170 166 135 95 128 93 55 139 106 66 148 116 74 148 117 76 147 116 75 148 115 74 148 115 73 147 114 73 147 114 73 144 111 70 148 115 72 156 127 86 130 116 94 114 107 93 122 113 98 125 117 100 118 111 96 116 110 96 127 117 97 148 128 98 138 124 101 120 114 98 120 113 99 132 123 107 132 123 105 113 108 92 115 108 91 147 123 87 141 95 61 133 76 55 143 87 71 137 84 68 125 71 54 
118 49 31 126 67 50 133 81 66 142 91 62 161 109 59 184 142 88 204 175 136 203 176 139 187 151 105 195 162 120 203 173 134 198 166 123 203 174 137 205 184 152 187 158 121 160 116 64 198 162 111 218 199 167 184 172 151 152 137 115 152 129 109 196 176 151 225 198 157 233 211 168 239 217 188 243 221 200 241 223 199 240 215 192 240 217 190 234 205 163 231 210 174 198 187 165 185 175 155 194 185 166 183 172 154 227 208 172 194 152 96 168 117 56 169 119 61 167 117 59 166 116 58 167 116 59 167 116 59 167 116 58 167 116 59 167 117 59 167 117 58 169 118 59 163 124 74 137 122 98 123 116 102 94 91 81 66 66 60 67 65 60 92 88 78 123 114 95 141 126 98 132 122 100 109 104 90 83 80 72 74 71 66 94 89 79 113 109 94 120 113 96 152 123 82 160 111 62 144 91 61 133 81 65 127 67 50 118 49 31 
104 32 12 110 41 24 127 68 50 143 91 61 152 103 62 160 116 75 168 129 93 166 127 91 165 124 87 173 136 103 175 139 109 169 130 97 167 127 92 169 129 95 166 122 85 154 104 61 180 137 97 182 152 125 150 123 103 135 104 83 138 104 84 154 120 97 190 154 121 205 171 136 209 180 154 213 187 166 212 184 162 213 186 163 211 180 155 201 164 128 202 169 139 180 154 134 147 123 106 143 121 105 167 142 124 197 167 138 170 125 84 150 100 56 152 103 60 153 104 60 153 103 60 153 103 60 152 103 60 152 103 60 152 103 60 152 104 61 151 102 60 152 103 58 156 114 72 140 123 98 92 89 79 46 49 46 46 49 46 49 50 48 46 46 45 94 88 75 143 129 102 113 107 90 58 58 54 44 45 45 46 47 46 48 48 46 83 81 72 128 118 98 154 121 84 155 105 63 144 90 60 128 68 50 110 41 24 104 32 12 
107 36 16 106 33 14 113 47 27 131 73 54 143 92 73 144 97 75 141 90 67 136 82 60 157 114 95 167 128 110 146 97 76 132 74 52 135 80 57 134 79 54 136 78 56 138 82 60 144 90 69 143 93 74 137 87 70 138 87 72 144 95 77 140 90 71 143 90 72 146 95 75 147 97 79 147 98 80 148 97 80 148 99 81 148 97 79 147 95 75 144 93 74 128 79 63 113 65 50 112 65 51 122 73 58 143 92 74 142 89 68 138 83 62 138 83 62 138 84 62 138 84 62 138 83 62 138 83 62 137 83 61 137 84 62 137 84 63 136 82 62 138 82 60 147 99 73 137 119 94 70 70 62 43 47 44 102 100 86 112 109 96 58 57 55 83 79 68 141 128 102 101 96 83 49 52 49 82 82 73 101 99 87 50 52 48 50 51 48 118 108 87 150 116 89 145 93 73 129 70 53 114 47 28 106 33 14 107 37 16 
