P3
80 45
255
25 14 7 15 6 0 33 26 21 71 64 59 32 21 14 20 11 3 20 10 3 10 6 3 7 6 5 5 3 1 5 4 2 6 5 4 1 0 0 3 1 0 6 4 2 5 4 2 5 3 1 12 6 2 5 3 1 3 2 1 14 7 2 6 4 2 6 5 3 5 4 2 4 3 2 3 1 0 70 48 20 80 56 26 105 74 35 110 78 38 95 66 31 73 51 25 55 39 20 120 85 42 111 79 37 117 83 39 100 70 35 81 57 30 117 82 39 111 78 35 111 76 37 115 81 39 113 79 38 113 80 39 113 80 37 113 80 38 113 80 38 113 80 37 116 82 39 105 73 38 17 12 8 34 26 16 5 4 4 0 0 0 0 0 0 0 0 0 0 0 0 0 0 0 0 0 0 0 0 0 0 0 0 0 0 0 0 0 0 0 0 0 0 0 0 0 0 0 1 1 1 1 1 1 0 0 0 0 0 0 0 0 0 2 1 0 3 2 0 3 2 1 3 2 1 13 13 12 59 59 57 22 21 20 0 0 0 5 4 2 
9 2 0 25 20 18 70 65 61 51 44 38 32 21 12 25 12 3 22 12 3 4 3 0 25 25 24 38 38 37 25 26 23 45 44 42 37 35 33 36 34 32 11 9 7 5 3 1 8 5 3 12 7 3 4 3 1 5 3 1 16 9 3 5 4 3 8 7 5 1 0 0 63 62 62 119 115 109 141 117 83 128 90 41 163 114 54 162 114 52 159 112 51 160 113 52 80 57 30 149 104 50 163 115 52 167 119 54 101 73 38 154 120 76 176 133 76 174 133 79 169 128 78 143 111 71 180 138 82 165 119 59 162 114 51 161 114 52 161 114 52 161 114 52 161 113 52 165 116 55 71 48 24 48 40 30 32 34 35 21 20 20 32 32 32 31 31 31 30 30 30 5 5 5 0 0 0 0 0 0 0 0 0 0 0 0 0 0 0 0 0 0 0 0 0 0 0 0 4 4 4 74 74 74 77 77 77 88 88 88 21 22 22 1 1 0 4 3 1 3 2 0 3 2 1 12 12 12 39 38 37 63 62 61 19 18 17 0 0 0 
36 32 29 73 69 66 59 55 53 80 72 67 59 48 38 22 9 2 27 14 6 18 8 3 17 8 5 28 20 17 27 18 13 28 18 12 37 28 21 29 18 13 21 9 4 19 9 4 11 7 3 10 6 3 3 2 1 6 4 1 13 8 3 5 4 2 5 4 1 10 8 7 21 21 21 32 28 23 122 93 56 151 109 56 155 109 51 153 108 49 152 107 49 165 116 53 109 76 38 98 69 35 166 117 53 140 95 44 71 45 23 155 108 55 159 112 60 158 112 61 170 120 64 113 79 46 106 73 40 157 107 49 149 101 47 153 107 49 153 108 50 154 108 50 151 106 49 164 116 55 104 74 38 60 46 29 29 26 23 20 21 21 22 22 22 22 22 22 24 24 24 17 17 17 10 10 10 4 4 4 0 0 0 0 0 0 0 0 0 0 0 0 0 0 0 0 0 0 2 1 1 16 15 15 33 32 32 25 25 25 8 8 8 2 1 1 4 2 0 4 3 1 1 1 0 39 38 37 68 67 65 52 51 50 68 67 65 30 30 29 
73 69 66 52 48 46 76 72 70 66 56 49 52 39 30 26 11 2 39 17 8 41 14 7 38 12 5 63 39 31 75 52 44 74 53 46 80 59 49 55 29 19 43 15 5 46 18 7 19 10 4 7 5 2 4 3 1 6 4 2 10 6 3 10 9 5 1 0 0 42 41 40 96 96 97 64 65 66 173 160 140 187 157 115 153 106 47 155 109 51 155 109 50 157 110 50 148 104 49 74 52 28 160 113 52 120 74 35 83 45 20 123 75 36 131 92 62 135 94 63 131 90 60 142 101 67 76 41 21 120 70 33 147 92 43 162 113 53 155 109 50 155 109 50 153 108 50 166 119 59 118 86 45 59 56 51 55 52 47 42 43 43 42 42 42 29 29 29 42 42 42 29 29 29 8 8 8 12 12 12 0 0 0 0 0 0 0 0 0 0 0 0 0 0 0 0 0 0 0 0 0 0 0 0 107 108 108 42 42 42 0 0 0 0 0 0 4 2 0 4 3 1 1 0 0 30 29 27 49 48 47 70 69 67 46 45 44 67 66 64 
14 9 5 31 27 23 56 51 48 54 40 31 39 24 15 32 15 5 19 9 4 14 7 3 17 9 4 28 19 13 26 16 10 21 12 6 30 19 13 28 17 10 18 9 3 15 8 3 8 5 3 6 4 1 4 3 2 7 3 3 11 6 3 10 6 3 10 8 5 41 39 35 60 57 53 38 37 35 96 73 50 162 118 67 152 108 53 155 109 49 155 109 50 153 107 49 165 117 53 91 64 32 135 96 46 87 61 29 79 55 35 146 104 66 168 122 83 174 125 83 171 124 85 149 107 72 104 74 49 78 53 27 154 107 51 85 61 30 157 111 52 155 109 50 153 108 50 163 116 56 121 87 45 9 10 8 25 20 16 7 7 8 20 20 20 9 9 9 10 10 10 8 8 8 9 9 9 2 2 2 0 0 0 0 0 0 0 0 0 0 0 0 0 0 0 3 2 2 35 27 23 46 40 36 34 30 28 29 29 26 37 37 35 15 15 14 2 1 1 4 3 1 2 1 0 12 11 10 31 30 28 49 48 46 24 23 21 5 4 2 
13 8 4 9 6 2 12 5 0 30 13 4 32 14 4 31 15 6 15 9 3 10 6 2 15 10 7 53 50 47 53 50 47 35 32 29 51 49 46 39 36 34 8 3 2 10 5 3 10 6 3 9 6 3 9 5 2 8 4 1 9 5 4 0 0 0 32 30 26 190 184 169 202 198 179 116 106 95 187 161 141 207 176 156 173 132 93 151 104 42 156 110 52 153 108 49 164 116 54 73 51 27 70 50 25 80 58 36 206 149 98 240 177 118 239 186 135 237 180 125 237 182 131 241 187 135 249 184 124 126 91 57 98 69 32 26 20 17 105 75 37 165 116 54 151 106 49 162 114 52 123 86 41 0 0 0 14 10 4 24 22 19 45 46 46 5 5 5 0 0 0 0 0 0 0 0 0 0 0 0 0 0 0 0 0 0 0 0 0 1 1 1 0 0 0 17 13 12 195 165 141 239 212 186 123 106 92 156 153 139 211 206 190 97 94 86 0 0 0 7 5 3 3 2 0 2 1 0 0 0 0 0 0 0 4 3 1 2 1 0 
13 8 4 12 7 2 23 12 5 28 14 5 25 13 4 23 10 5 19 9 4 17 8 4 16 8 6 14 9 6 17 12 9 19 14 10 12 7 2 12 6 2 15 9 5 15 8 4 13 7 3 11 6 3 10 6 2 11 7 2 10 6 3 7 4 2 17 14 10 84 80 72 91 88 78 49 43 38 130 104 78 128 110 91 163 119 67 153 107 46 155 109 51 156 110 50 149 105 49 49 35 22 16 11 10 113 83 54 238 172 111 219 159 103 222 160 103 220 159 103 231 167 105 214 155 99 201 145 96 171 125 84 62 44 30 206 150 98 87 63 41 144 101 46 156 110 50 163 115 53 114 80 40 0 0 0 5 7 2 11 11 6 0 0 0 0 0 0 0 0 0 0 0 0 0 0 0 0 0 0 0 0 0 0 0 0 0 0 0 0 0 0 0 0 0 6 4 4 84 71 61 99 89 79 49 41 36 62 61 56 90 89 82 39 38 35 1 1 0 5 3 1 3 2 0 3 2 0 4 3 1 4 3 1 3 2 0 3 2 0 
20 11 4 21 11 4 21 11 3 18 9 2 17 9 2 17 9 4 16 8 4 12 7 3 12 7 3 15 8 3 14 7 2 13 7 2 14 9 4 15 9 5 13 8 4 11 7 4 13 8 3 14 8 3 9 6 3 7 5 3 9 5 2 9 5 2 7 3 0 0 0 0 0 0 0 1 0 0 96 66 26 61 41 13 86 60 28 168 118 55 151 106 48 160 113 51 134 94 44 37 27 18 97 71 48 168 122 78 230 167 108 223 161 104 221 160 103 234 170 109 182 133 87 110 78 46 118 84 43 112 80 42 129 93 61 243 176 114 165 119 80 95 66 33 164 115 53 164 115 53 84 59 29 2 2 1 6 7 3 0 2 1 0 0 0 0 0 0 0 0 0 0 0 0 0 0 0 0 0 0 0 0 0 0 0 0 0 0 0 0 0 0 0 0 0 0 0 0 0 0 0 0 0 0 0 0 0 0 0 0 0 0 0 0 0 0 1 1 0 3 2 0 3 2 0 3 2 0 3 2 0 3 2 0 3 2 0 3 2 0 
19 9 4 16 9 3 16 8 3 18 9 4 17 9 4 17 8 4 15 8 4 14 8 4 12 7 3 12 7 3 14 8 3 14 8 3 13 8 3 12 7 3 11 6 3 11 6 3 17 9 3 16 8 2 10 6 3 4 3 2 7 4 1 8 4 1 9 5 2 11 7 4 11 7 5 11 6 4 96 68 34 122 87 42 57 41 21 107 74 38 169 118 55 155 109 50 143 101 47 26 19 12 126 92 61 194 141 90 227 164 107 220 159 103 234 169 109 191 139 92 102 73 39 145 101 46 122 86 43 127 90 43 98 69 30 151 110 72 240 174 113 90 65 40 144 102 45 167 117 55 49 35 18 0 0 0 0 0 0 3 4 2 1 0 1 0 0 0 0 0 0 0 0 0 0 0 0 2 0 1 0 0 0 0 0 0 0 0 0 0 0 0 0 0 0 0 0 0 3 3 2 4 3 3 2 2 1 2 2 2 4 3 3 2 1 1 1 0 0 3 2 0 3 2 0 3 2 0 3 2 0 3 2 0 3 2 0 3 2 0 
13 8 3 14 8 4 14 8 3 14 8 2 14 8 3 12 7 4 16 8 3 18 9 3 12 7 3 7 3 1 9 7 1 10 7 2 11 8 3 11 7 2 10 6 3 12 6 1 18 9 3 16 7 2 10 6 1 5 3 2 9 5 2 10 6 3 10 6 3 11 7 3 12 7 2 6 3 2 86 61 30 114 81 37 111 78 37 56 39 20 98 69 35 168 118 54 153 108 50 36 25 16 137 99 65 190 137 87 223 162 104 231 166 108 209 152 101 102 73 42 158 110 49 114 81 47 163 120 82 170 124 82 127 92 58 164 119 78 248 179 115 151 110 74 106 74 34 142 100 48 2 2 3 66 50 33 58 43 30 0 2 0 1 1 1 0 0 0 0 0 0 0 0 0 0 0 0 2 0 1 0 0 0 0 0 0 0 0 0 0 0 0 0 0 0 0 0 0 0 0 0 0 0 0 0 0 0 0 0 0 0 0 0 0 0 0 1 0 0 3 2 0 3 2 0 3 2 0 3 2 0 3 2 0 3 2 0 3 2 0 
9 5 2 10 7 3 12 8 3 13 7 3 11 7 3 12 6 3 17 8 4 18 9 3 12 7 3 8 4 1 13 7 3 14 8 4 14 8 4 13 9 4 13 8 4 14 9 2 19 9 2 16 6 4 11 6 2 7 3 2 12 6 2 12 8 4 13 8 4 13 8 4 14 9 4 5 1 0 58 40 20 116 82 38 108 76 35 117 83 39 53 38 21 65 46 24 168 118 56 77 55 28 120 88 59 208 150 96 244 177 113 213 154 101 111 79 47 153 108 48 135 95 45 58 42 32 42 30 21 79 58 40 205 149 94 237 172 110 225 163 105 206 150 98 60 44 25 54 38 18 36 27 19 176 127 82 168 121 81 23 17 12 0 0 0 1 1 1 0 0 0 0 0 0 0 0 0 2 0 1 2 0 1 0 0 0 0 0 0 0 0 0 0 0 0 0 0 0 0 0 0 0 0 0 0 0 0 0 0 0 0 0 0 0 0 0 0 0 0 4 1 0 3 2 0 3 2 0 3 2 0 3 2 0 3 2 0 3 2 0 
11 6 1 15 8 3 16 8 4 16 8 4 16 8 4 17 8 4 19 10 4 17 10 4 11 7 3 10 6 2 18 8 4 18 9 5 18 9 5 17 9 5 16 9 4 17 9 4 19 10 3 14 7 3 10 6 2 9 4 2 13 8 4 15 8 5 16 7 5 15 7 4 17 8 5 11 5 2 25 16 8 107 76 36 107 76 35 114 81 37 80 57 28 53 38 19 66 47 23 112 79 39 55 39 26 120 86 55 155 112 73 128 93 63 113 79 36 144 101 45 110 80 50 63 46 36 159 132 115 224 188 165 117 93 79 188 136 87 229 166 107 232 167 108 60 46 30 0 0 0 94 70 46 158 114 75 122 89 58 42 31 22 0 0 0 2 1 1 0 0 0 0 0 0 0 0 0 2 0 1 2 0 1 0 0 0 0 0 0 0 0 0 0 0 0 0 0 0 0 0 0 0 0 0 0 0 0 0 0 0 0 0 0 0 0 0 0 0 1 2 1 0 3 2 0 3 2 0 3 2 0 3 2 0 3 2 0 3 2 0 
15 8 3 19 10 3 20 10 2 20 11 2 19 10 3 19 10 3 21 11 3 17 10 3 10 6 3 13 7 3 19 10 3 20 10 3 20 10 3 21 11 4 18 9 4 19 10 4 20 11 4 15 8 3 10 6 2 9 5 2 15 8 3 17 7 4 17 7 4 17 7 4 17 7 4 14 8 4 5 2 0 81 59 28 116 82 38 109 77 36 64 46 23 116 82 37 81 57 27 28 20 13 57 39 21 155 109 50 116 81 37 143 104 71 155 111 73 115 83 52 189 135 85 155 126 106 184 145 116 128 95 73 124 103 94 134 96 63 235 170 110 236 171 111 96 72 46 1 1 0 90 67 44 94 68 46 96 71 46 51 38 25 0 0 0 2 1 1 1 0 0 0 0 0 0 0 0 2 0 1 2 0 1 1 0 1 0 0 0 0 0 0 0 0 0 0 0 0 0 0 0 0 0 0 0 0 0 0 0 0 0 0 0 0 0 0 0 0 0 1 1 1 4 3 1 3 2 0 3 2 0 3 2 0 3 2 0 3 2 0 
19 10 4 20 11 3 21 11 2 22 12 3 20 11 2 21 11 2 23 12 3 19 11 4 10 6 2 15 8 3 21 12 3 22 12 3 22 12 4 20 12 3 17 9 4 20 11 3 21 11 5 15 8 4 12 7 3 13 7 2 18 9 3 17 9 4 16 9 4 17 9 4 18 8 4 19 9 5 12 5 2 28 19 9 102 73 34 118 83 38 66 46 22 100 71 33 109 77 36 40 28 16 42 32 22 95 67 35 77 54 26 95 70 50 222 160 105 235 170 110 217 157 99 112 88 71 94 70 52 112 76 46 185 134 85 227 164 105 220 159 103 240 173 112 128 95 62 0 0 0 41 32 22 126 92 61 182 132 85 63 45 30 0 0 0 2 2 1 2 0 1 1 0 1 0 0 0 2 0 1 2 0 1 2 0 1 1 0 0 0 0 0 0 0 0 0 0 0 0 0 0 0 0 0 0 0 0 0 0 0 0 0 0 0 0 0 0 0 0 1 1 0 4 3 1 3 2 0 3 2 0 3 2 0 3 2 0 3 2 0 
21 11 2 23 13 4 23 12 3 24 11 3 19 10 3 24 12 3 26 13 5 18 10 4 15 9 4 19 10 4 24 12 3 23 12 4 22 12 4 22 12 4 22 12 3 20 11 2 19 10 4 17 9 3 20 10 3 22 11 2 19 10 5 16 9 3 14 9 3 13 8 4 13 7 4 12 6 2 13 6 3 3 0 0 21 15 8 105 74 35 78 55 27 88 62 30 118 83 37 77 55 26 8 7 6 53 44 44 75 58 50 29 15 3 115 84 59 235 169 109 224 162 106 202 145 93 214 154 100 242 176 115 233 168 109 224 162 105 221 160 104 237 171 111 161 118 77 0 0 0 46 35 23 124 89 59 156 113 75 20 15 11 0 0 0 1 1 0 1 0 1 2 0 1 1 0 0 2 0 1 2 0 1 2 0 1 2 0 1 1 0 0 0 0 0 0 0 0 0 0 0 0 0 0 0 0 0 0 0 0 0 0 0 0 0 0 0 0 0 1 0 0 4 2 0 3 2 0 3 2 0 3 2 0 3 2 0 3 2 0 
21 11 3 22 12 3 21 12 3 22 12 4 24 12 3 23 12 3 23 13 4 22 12 3 25 15 5 25 14 3 25 13 3 23 12 3 23 12 3 23 12 3 21 12 3 19 10 2 15 8 2 14 8 3 13 8 2 11 6 3 8 5 3 6 4 2 6 4 2 5 4 2 2 3 1 2 2 2 3 2 1 4 3 1 0 0 0 9 8 5 26 19 10 73 52 25 120 86 40 121 85 39 36 24 11 45 35 28 129 95 66 164 119 77 213 154 101 228 165 107 222 161 104 229 166 108 227 164 107 220 159 103 223 161 104 224 162 105 222 161 104 231 167 108 196 142 93 0 1 0 64 50 31 173 125 82 53 38 26 0 0 0 1 1 1 0 0 0 1 0 0 2 0 1 2 0 1 2 0 1 2 0 1 2 0 1 2 0 1 1 0 0 0 0 0 0 0 0 0 0 0 0 0 0 0 0 0 0 0 0 0 0 0 0 0 0 0 0 0 0 0 0 3 2 1 4 3 1 3 2 0 3 2 0 3 2 0 3 2 0 
27 14 4 26 15 4 27 14 4 28 15 5 26 15 4 20 11 4 19 10 4 21 12 4 18 10 4 15 8 3 12 7 4 12 7 3 10 6 3 6 4 2 5 4 1 6 4 2 4 3 0 2 2 0 3 4 1 4 3 1 1 2 0 1 2 0 3 3 1 4 3 2 2 2 0 2 2 2 4 3 1 3 3 1 3 3 1 0 1 1 0 0 0 11 8 4 57 41 19 103 73 34 99 70 32 79 56 35 195 140 90 217 159 103 181 131 85 220 159 103 225 162 105 223 161 105 223 162 105 224 162 105 224 162 105 224 162 105 223 162 105 225 163 105 221 161 105 27 24 14 20 17 10 34 24 17 0 0 0 1 1 1 0 0 0 0 0 0 1 0 0 2 0 1 2 0 1 2 1 0 2 0 1 2 0 1 2 0 1 1 0 0 0 0 0 0 0 0 0 0 0 0 0 0 0 0 0 0 0 0 0 0 0 0 0 0 0 0 0 0 0 0 3 2 1 3 2 0 3 2 0 3 2 0 3 2 0 3 2 0 
14 9 2 12 8 3 10 7 3 9 5 2 7 5 2 5 4 2 3 3 2 5 4 2 4 3 2 2 2 3 3 3 2 5 4 4 2 3 2 2 2 1 4 3 2 5 4 3 3 2 1 3 3 1 5 4 2 5 4 2 3 2 1 3 2 0 5 4 2 5 4 2 2 2 1 2 2 2 4 4 2 4 3 1 2 2 0 2 2 1 4 4 1 1 2 0 0 0 0 7 5 4 28 21 10 26 19 12 150 108 71 115 84 56 136 99 66 189 137 88 229 166 107 223 161 104 224 162 105 224 162 105 224 162 105 222 161 104 223 161 105 222 161 104 233 169 110 61 48 30 0 0 0 0 0 0 1 1 1 0 0 0 0 0 0 0 0 0 1 0 0 2 0 1 2 0 1 2 1 0 2 1 0 2 0 1 2 0 1 2 0 1 0 0 0 0 0 0 0 0 0 0 0 0 0 0 0 0 0 0 0 0 0 0 0 0 0 0 0 0 0 0 3 1 0 3 2 0 3 2 0 3 2 0 3 2 0 3 2 0 
4 4 3 2 2 2 1 2 2 4 4 2 5 5 2 3 3 1 3 3 1 6 5 3 5 4 3 3 3 2 5 4 2 7 5 3 4 3 2 4 3 1 6 5 3 6 5 3 3 3 2 4 3 2 6 5 2 5 4 2 4 2 3 4 3 2 5 4 2 5 4 3 2 2 2 2 2 2 5 4 3 4 4 2 2 2 0 2 2 0 4 3 1 4 3 1 4 3 1 1 1 1 0 0 0 0 0 0 63 46 31 120 88 58 235 171 110 223 162 104 222 161 104 224 162 105 224 162 105 223 161 104 222 161 104 235 170 110 228 165 107 220 159 103 237 171 111 76 58 37 1 1 0 5 3 2 0 0 0 0 0 0 0 0 0 0 0 0 1 0 0 2 0 1 2 0 1 3 2 0 3 2 0 2 0 1 2 0 1 2 0 1 1 0 0 0 0 0 0 0 0 0 0 0 0 0 0 0 0 0 0 0 0 0 0 0 0 0 0 0 0 0 2 1 0 3 2 0 3 2 0 3 2 0 3 2 0 3 2 0 
7 5 3 4 4 1 4 3 2 7 5 2 6 5 1 4 3 1 5 4 3 7 6 2 5 4 3 3 3 2 6 5 3 7 6 2 4 3 2 4 3 1 6 5 3 6 4 2 3 3 2 4 3 2 6 5 3 5 4 2 3 3 3 4 3 2 6 5 3 5 4 3 3 3 3 3 3 2 5 4 2 5 4 2 3 2 0 3 2 0 5 4 2 5 4 2 3 2 0 2 2 0 5 4 1 5 4 1 1 1 1 66 48 34 233 169 110 236 170 110 228 165 107 221 160 104 220 159 103 232 168 109 233 168 108 173 124 79 203 147 97 225 163 105 238 172 112 87 65 43 1 0 0 6 5 2 0 0 0 0 0 0 0 0 0 0 0 0 1 0 0 2 0 1 2 0 1 3 2 0 3 2 0 2 1 1 2 0 1 2 0 1 2 0 1 0 0 0 0 0 0 0 0 0 0 0 0 0 0 0 0 0 0 0 0 0 0 0 0 0 0 0 1 1 1 3 2 0 4 2 0 4 3 1 3 2 0 3 2 0 
7 6 2 4 4 2 5 4 2 7 6 2 6 5 1 4 4 2 5 5 1 7 6 2 5 4 3 4 4 2 6 5 2 7 6 2 4 3 2 3 3 1 7 6 1 6 4 2 4 2 1 5 4 2 6 5 3 5 4 2 3 3 1 4 3 2 6 5 2 5 4 3 3 3 3 4 3 1 5 4 2 5 4 2 3 2 0 3 2 0 5 4 2 5 4 2 2 2 0 2 2 0 4 3 1 4 3 1 3 2 0 1 1 1 119 86 58 161 119 78 164 119 80 232 168 110 240 175 112 193 139 84 123 92 66 73 62 59 163 117 77 233 169 109 237 171 111 122 91 60 0 0 0 0 0 0 0 0 0 0 0 0 0 0 0 0 0 0 1 0 0 2 0 1 2 1 0 3 1 0 5 1 0 3 2 0 2 1 0 2 0 1 2 0 1 0 0 0 0 0 0 0 0 0 0 0 0 0 0 0 0 0 0 0 0 0 0 0 0 0 0 0 1 0 0 3 3 1 6 3 1 6 4 0 4 3 0 3 2 0 
6 5 3 4 4 2 6 5 2 8 7 2 6 5 2 4 4 2 6 6 2 8 7 3 5 4 3 5 4 2 7 6 2 7 5 2 4 3 3 5 4 1 7 6 2 6 4 2 3 2 2 5 5 2 7 6 3 5 4 2 3 3 1 5 3 3 6 5 2 5 4 1 4 3 1 4 3 1 6 5 3 5 4 2 4 3 1 4 3 1 5 4 2 5 4 2 2 2 0 2 2 0 4 3 1 4 3 1 5 3 1 1 0 0 40 29 21 196 142 94 201 144 90 179 129 80 127 91 61 120 97 81 163 140 128 144 110 84 220 158 100 223 162 105 233 168 109 181 132 87 6 8 4 56 42 28 1 0 1 0 0 0 0 0 0 0 0 0 1 0 0 3 0 1 1 1 0 3 1 0 6 1 1 3 2 0 2 1 0 2 0 1 2 0 1 2 0 1 0 0 0 0 0 0 0 0 0 0 0 0 0 0 0 0 0 0 0 0 0 0 0 0 1 0 0 6 3 1 7 3 0 6 3 0 4 3 0 3 2 0 
6 5 3 5 4 2 6 5 2 8 7 2 6 5 1 5 4 3 8 7 3 8 7 3 5 4 2 5 4 2 8 7 3 7 5 2 5 3 2 5 4 2 7 6 2 6 5 2 4 3 2 5 5 2 7 6 2 5 4 2 4 3 1 5 4 2 7 6 2 5 4 1 4 3 1 4 3 1 6 5 2 5 4 2 4 3 1 4 3 1 5 4 2 4 4 2 2 2 0 3 2 0 4 3 1 4 3 1 3 2 0 2 1 0 19 12 9 82 60 42 134 107 87 152 125 110 194 163 148 187 158 143 151 114 83 217 156 98 229 165 108 222 161 104 229 165 107 200 145 95 170 124 81 146 105 68 4 3 2 0 0 0 1 0 1 1 0 0 1 0 0 4 1 1 2 1 0 3 1 0 7 1 1 4 1 0 3 1 0 2 0 1 2 0 1 2 0 1 0 0 0 0 0 0 0 0 0 0 0 0 0 0 0 0 0 0 0 0 0 0 0 0 0 0 0 6 2 0 8 4 1 7 4 1 6 4 1 3 2 0 
6 5 3 6 5 2 7 6 2 8 7 2 6 5 1 6 5 2 8 7 3 7 6 3 5 4 2 6 5 2 8 7 3 6 5 2 4 3 2 6 5 2 8 7 2 6 5 2 3 3 2 6 5 2 7 6 2 4 3 1 4 3 1 5 4 1 7 6 2 4 3 2 4 3 1 5 4 2 7 6 2 5 4 1 4 3 1 4 3 1 6 5 3 4 4 2 2 2 0 3 2 0 4 3 1 4 3 1 2 1 0 3 1 0 13 8 6 29 20 15 147 122 109 196 164 145 153 122 101 167 120 79 229 163 104 227 164 107 222 161 104 224 162 105 223 161 105 228 165 107 235 169 108 153 110 70 7 5 4 0 0 0 2 0 1 2 0 1 2 1 0 4 1 0 3 2 0 4 1 0 7 1 1 6 1 0 4 1 0 2 1 0 2 0 1 2 0 1 1 0 0 0 0 0 0 0 0 0 0 0 0 0 0 0 0 0 0 0 0 0 0 0 0 0 0 6 3 0 9 4 1 9 5 1 9 4 1 4 2 0 
6 5 3 6 5 1 8 7 2 7 6 2 5 5 3 6 5 1 8 7 3 7 6 3 5 4 1 6 5 1 8 7 3 4 4 1 4 4 2 6 5 3 8 7 3 6 4 2 4 3 3 6 6 3 7 6 2 4 3 2 4 3 1 6 5 1 7 6 2 5 3 2 4 3 1 5 3 2 7 6 1 5 4 1 4 3 1 4 3 1 6 5 3 5 4 2 3 2 0 3 2 0 5 4 2 4 3 1 2 2 0 7 4 2 1 1 0 91 67 43 186 135 85 177 127 79 209 150 94 220 159 104 225 163 106 223 161 104 224 162 105 224 162 105 224 162 105 219 158 103 231 167 108 144 103 67 1 1 1 1 1 1 2 0 1 2 0 1 2 1 0 5 1 0 5 1 0 5 1 0 7 1 1 7 1 1 3 2 0 3 1 0 2 0 1 2 0 1 1 0 0 0 0 0 0 0 0 0 0 0 0 0 0 0 0 0 0 0 0 0 0 0 0 0 0 6 2 1 10 5 2 9 5 2 11 5 2 6 3 0 
5 4 3 6 5 2 8 7 2 6 6 2 4 4 2 6 5 2 8 7 3 6 6 3 5 4 3 7 6 2 8 7 3 4 4 1 4 4 2 7 6 3 8 7 3 6 4 2 5 4 2 7 6 3 6 5 1 4 3 1 4 3 1 5 4 1 7 6 2 5 3 2 4 3 1 5 4 3 6 5 2 4 3 1 4 3 1 4 3 1 6 5 1 5 4 1 3 2 0 3 2 0 5 4 2 5 4 2 2 2 0 6 3 2 0 0 0 42 30 21 229 166 107 158 115 77 93 68 49 159 115 77 233 169 109 222 161 104 224 162 105 224 162 105 220 159 103 231 167 108 233 169 109 57 41 29 1 0 1 2 2 1 2 0 1 2 0 1 1 1 0 6 1 0 6 1 0 5 1 0 7 2 0 6 2 1 5 1 0 4 1 0 2 0 1 2 0 1 1 0 0 0 0 0 0 0 0 0 0 0 0 0 0 0 0 0 0 0 0 0 0 0 0 0 0 5 2 1 12 6 2 11 6 2 12 6 2 7 4 1 
6 5 3 6 5 3 8 8 2 7 6 3 5 5 3 7 6 2 8 7 2 6 5 3 5 4 3 7 6 2 8 7 2 4 4 2 5 4 2 7 6 2 8 7 3 4 4 2 5 4 3 8 6 2 6 5 1 5 3 2 5 4 2 8 7 3 9 7 3 7 5 3 5 4 1 5 4 2 6 5 3 4 3 1 4 3 1 5 4 2 6 5 1 4 3 1 2 2 0 3 2 0 4 3 1 4 3 1 3 2 0 5 3 1 4 1 1 13 9 7 175 126 83 208 151 100 200 144 95 225 163 105 224 162 105 223 162 105 221 160 104 224 162 105 240 173 112 203 147 96 67 48 32 0 0 0 0 0 0 0 0 0 2 0 1 2 0 1 1 1 0 6 1 1 6 0 0 5 1 0 7 2 0 7 2 1 6 1 1 5 1 0 2 1 0 2 0 1 2 0 1 0 0 0 0 0 0 0 0 0 0 0 0 0 0 0 0 0 0 0 0 0 0 0 0 4 2 1 12 7 2 12 7 1 15 7 1 10 5 1 
6 5 3 7 6 2 8 7 1 6 5 2 5 5 3 7 7 3 8 7 2 5 5 3 5 5 3 8 7 2 7 6 2 4 4 2 5 5 2 7 6 2 8 7 3 4 4 2 5 4 2 8 6 2 5 5 1 6 5 2 5 4 1 0 0 0 0 0 0 0 0 0 0 0 0 8 5 3 8 5 3 4 3 1 4 3 1 5 4 1 6 5 1 4 3 1 2 2 0 3 2 0 5 4 2 4 3 1 3 2 0 5 2 1 8 4 2 0 0 0 130 93 61 231 167 107 227 164 106 221 160 104 220 159 103 226 163 106 238 172 111 226 163 106 146 106 71 44 33 23 17 20 31 35 34 43 13 12 18 1 1 1 3 1 2 2 0 2 1 1 0 6 1 1 7 1 1 5 1 0 8 1 0 8 1 1 7 1 1 5 2 0 3 1 0 2 0 1 2 0 1 1 0 0 0 0 0 0 0 0 0 0 0 0 0 0 0 0 0 0 0 0 0 0 0 2 1 1 13 7 1 15 7 2 17 7 2 14 7 2 
6 5 3 7 6 2 8 7 2 5 4 2 5 5 3 8 7 3 7 6 1 5 4 2 5 5 2 8 7 3 7 6 2 4 3 2 5 5 2 7 6 2 7 6 2 4 3 2 5 4 1 8 6 1 8 6 2 0 0 0 2 2 1 44 33 22 66 50 34 74 54 38 25 19 14 0 0 0 1 4 2 5 3 1 4 3 1 4 4 1 6 5 2 4 3 1 2 2 0 3 2 0 5 4 2 5 4 2 3 2 0 4 2 1 9 5 3 0 0 0 75 54 36 210 153 97 232 169 108 236 171 111 239 172 112 218 157 100 152 110 71 74 54 39 115 82 56 130 93 60 37 37 49 56 54 73 35 34 46 0 0 0 0 0 0 1 0 0 2 1 0 6 1 1 7 2 1 6 1 1 10 0 0 8 1 1 6 2 1 5 1 0 5 1 0 2 0 1 2 0 1 1 0 1 0 0 0 0 0 0 0 0 0 0 0 0 0 0 0 0 0 0 0 0 0 1 0 1 14 6 2 17 7 2 17 8 2 17 8 2 
5 4 2 8 7 2 7 6 3 5 4 2 5 5 3 8 7 2 7 6 1 5 4 2 5 5 2 8 7 3 6 5 2 4 3 2 6 5 2 8 7 2 5 4 2 4 3 2 5 5 2 10 7 2 0 0 0 57 42 29 183 134 87 216 158 100 191 140 91 227 165 107 172 121 79 74 15 9 42 12 6 1 4 2 3 3 1 5 4 2 6 5 3 5 3 1 3 2 0 3 2 0 5 4 2 5 4 2 3 2 0 4 2 0 7 4 1 1 1 0 15 10 7 146 106 68 195 142 92 154 111 73 102 75 53 53 43 43 13 18 34 62 46 34 174 124 79 104 75 48 18 18 25 45 45 59 27 27 34 29 29 39 17 16 22 7 6 8 0 0 0 2 0 0 8 2 1 7 1 1 10 1 0 8 2 0 7 1 0 6 1 1 5 1 0 2 0 1 2 0 1 1 0 1 0 0 0 0 0 0 0 0 0 0 0 0 0 0 0 0 0 0 0 0 0 0 0 1 13 6 2 18 8 2 17 8 0 18 8 0 
5 4 1 8 7 3 6 5 2 4 4 2 6 5 1 8 7 2 7 6 3 5 4 3 6 5 3 8 8 3 6 5 2 4 3 2 6 5 2 8 7 2 6 5 1 5 4 2 8 7 3 1 1 0 69 51 35 228 165 107 246 178 115 239 173 112 231 166 108 241 180 117 158 100 65 208 34 18 216 35 13 135 14 4 7 5 3 6 5 2 6 5 1 4 3 1 3 2 0 3 2 0 5 4 2 5 4 2 3 2 0 4 2 1 6 3 2 4 2 0 3 1 0 4 3 2 6 4 3 0 0 0 0 0 2 41 42 60 44 43 58 34 31 36 42 36 39 32 32 43 47 46 63 39 39 51 33 33 44 53 51 69 50 49 66 46 45 61 40 39 52 19 17 22 4 0 0 7 1 2 9 1 0 11 0 0 9 0 0 6 1 1 5 1 0 5 1 0 3 0 1 2 0 1 1 0 0 0 0 0 0 0 0 0 0 0 0 0 0 0 0 0 0 0 0 0 0 0 10 5 1 20 10 0 19 9 0 19 9 0 
6 5 1 8 7 3 6 5 2 5 4 3 6 5 1 8 7 2 6 5 3 6 5 3 7 6 3 8 7 3 6 5 3 5 4 2 6 5 2 8 7 3 6 5 3 5 4 3 5 4 1 12 10 6 212 154 101 240 173 111 166 120 78 124 90 60 166 120 79 135 92 59 88 15 7 167 12 0 213 55 32 201 46 28 27 0 0 0 0 0 9 6 2 4 3 1 3 2 0 3 2 0 5 4 2 5 4 2 3 2 0 4 2 1 7 3 2 3 2 0 5 4 2 1 1 0 0 0 0 24 22 28 35 34 45 42 41 55 50 49 65 48 48 66 46 47 65 51 50 66 49 48 64 48 47 63 50 48 65 47 46 62 47 46 62 48 47 63 51 50 66 50 49 66 22 20 27 4 0 0 10 2 1 11 0 0 9 0 0 6 1 1 5 1 0 5 1 0 3 0 1 2 0 1 1 0 0 0 0 0 0 0 0 0 0 0 0 0 0 0 0 0 0 0 0 0 0 0 8 4 1 22 11 1 21 11 1 20 11 1 
7 6 2 8 7 2 6 5 2 5 4 3 7 6 2 8 7 2 6 5 2 5 4 2 7 6 2 8 7 3 6 5 2 5 4 2 7 6 3 8 7 3 5 4 3 5 4 3 5 4 1 13 10 6 105 77 51 112 81 55 50 35 25 0 0 0 3 0 0 98 37 29 106 32 23 103 13 7 168 36 21 192 36 21 128 54 36 37 31 21 5 3 1 5 4 1 3 2 0 3 2 0 5 4 2 5 4 2 3 2 0 4 2 1 7 3 2 3 2 0 5 4 2 1 0 0 30 30 38 52 51 69 50 49 67 49 48 64 47 47 62 48 47 62 48 47 63 48 47 62 48 47 63 48 47 63 48 47 63 48 47 63 48 47 63 48 47 63 44 43 58 48 47 62 50 50 67 15 12 16 7 0 0 12 2 1 9 0 0 7 1 1 5 2 0 5 1 0 3 0 1 2 0 1 2 0 1 0 0 0 0 0 0 0 0 0 0 0 0 0 0 0 0 0 0 0 0 0 6 3 1 22 12 1 22 12 1 23 12 1 
7 6 3 8 7 2 5 5 3 5 5 3 8 7 2 8 7 2 5 4 2 5 4 2 8 7 2 8 7 3 4 3 1 5 4 2 7 6 3 7 6 2 5 3 2 4 3 2 11 9 4 0 0 0 89 65 44 224 162 105 227 165 106 179 130 86 92 66 45 89 36 27 107 18 11 124 28 17 99 8 1 122 17 8 238 161 105 116 85 57 0 0 0 7 5 2 2 2 0 3 2 0 5 4 2 4 3 1 3 2 0 4 2 1 7 3 2 4 3 1 2 0 0 17 16 21 48 47 64 46 45 60 48 47 62 48 47 63 48 47 63 48 47 63 48 47 63 48 47 63 48 47 63 48 47 63 48 47 63 48 47 63 48 47 64 46 45 61 33 33 44 48 47 64 50 49 65 39 39 50 9 3 1 15 4 2 13 3 2 10 4 2 8 4 2 8 3 2 5 3 2 5 3 3 4 2 3 3 3 2 2 1 1 0 0 0 0 0 0 0 0 0 0 0 0 0 0 0 3 2 1 22 11 1 24 13 1 25 13 1 
8 7 3 8 7 2 6 5 3 6 5 3 8 7 3 7 6 2 5 4 2 6 5 2 8 7 2 7 6 2 2 3 1 4 3 1 6 5 2 6 5 2 3 2 1 5 4 2 1 2 0 21 16 10 206 149 97 213 154 101 220 160 104 248 179 115 239 175 114 185 125 81 86 19 10 67 4 1 69 15 11 179 125 81 238 177 115 54 37 25 1 0 0 5 4 2 2 2 0 3 2 0 5 4 2 4 3 1 2 2 0 5 2 1 7 3 2 2 1 1 7 5 6 44 43 57 32 31 43 45 44 60 49 48 64 48 47 63 48 47 63 48 47 63 48 47 63 48 47 63 48 47 63 48 47 63 48 47 63 48 47 63 49 48 64 45 44 60 37 37 49 50 49 66 47 46 61 43 44 63 11 11 20 0 0 0 0 0 0 0 0 0 0 0 0 0 0 0 0 0 0 0 0 0 0 0 0 0 0 0 0 0 0 0 0 0 0 0 0 0 0 0 0 0 0 0 0 0 2 0 1 22 11 2 26 13 1 25 13 1 
8 7 2 7 6 1 5 4 2 6 5 2 8 7 3 7 6 2 4 3 2 5 3 2 8 6 2 7 4 2 6 3 2 6 4 3 9 7 3 8 7 2 8 5 3 10 5 3 21 14 9 133 98 66 120 86 58 136 100 67 116 84 58 159 116 76 221 160 103 244 177 115 185 137 90 93 64 45 186 127 82 251 183 117 138 99 66 0 0 0 8 7 2 4 3 0 3 2 0 4 3 1 5 4 2 4 3 1 3 2 0 5 2 1 7 4 2 0 0 0 31 30 41 51 50 68 42 41 55 46 45 60 48 47 64 48 47 63 48 47 63 48 47 63 48 47 63 48 47 63 48 47 63 48 47 63 47 47 62 49 48 64 52 50 68 31 30 43 37 37 49 50 49 66 46 46 62 89 81 85 103 91 86 86 71 59 88 71 58 85 70 56 84 70 58 84 71 58 83 70 57 81 68 55 81 69 57 82 70 56 40 35 29 0 0 0 1 1 1 0 0 0 0 0 0 0 0 0 0 0 1 19 10 2 26 14 1 26 14 2 
10 7 2 8 6 1 5 4 2 6 6 3 9 8 2 6 5 2 27 14 7 31 16 9 30 15 8 30 16 8 29 16 9 29 16 9 28 15 8 28 15 7 34 17 9 21 9 3 45 31 23 98 71 49 218 158 103 252 183 117 220 160 104 147 107 72 108 79 54 199 145 94 246 177 114 177 129 85 172 127 83 187 136 89 13 10 8 9 7 5 11 9 4 7 5 2 6 4 2 6 5 2 8 6 4 8 6 3 6 5 3 8 6 4 8 4 3 14 13 16 52 51 66 49 48 64 47 46 61 19 19 24 48 47 63 50 50 66 49 48 64 50 49 65 50 49 65 50 49 66 51 50 66 51 50 67 50 49 66 45 43 60 31 31 41 47 53 48 34 34 41 50 48 64 56 56 71 186 154 120 228 202 167 223 198 164 212 179 140 218 188 153 225 197 164 232 209 177 220 185 147 227 198 163 233 211 183 236 205 167 147 120 89 1 2 3 2 1 1 0 0 0 0 0 0 1 0 0 0 0 0 17 8 1 29 15 1 27 14 2 
11 7 2 6 6 2 4 5 2 5 6 3 5 6 2 9 6 3 36 19 9 40 22 11 40 23 10 39 21 10 39 21 9 37 21 9 35 19 8 36 19 8 27 12 5 53 35 22 169 123 82 177 129 84 143 104 68 137 98 65 199 142 91 247 177 113 192 138 88 112 78 51 213 152 97 197 142 89 163 118 78 22 16 11 0 0 0 0 0 0 0 0 0 0 0 0 0 0 0 0 0 0 0 0 0 0 0 0 0 0 0 0 0 0 0 0 0 13 13 25 40 41 60 44 43 61 49 48 65 21 22 25 30 29 37 42 40 57 42 41 57 40 40 56 39 38 53 37 37 51 36 35 50 35 34 47 33 32 42 40 41 44 69 77 71 103 114 109 41 47 47 31 32 50 39 41 63 75 72 81 98 88 89 101 91 90 83 70 60 87 70 55 83 67 53 72 60 49 67 55 44 65 55 46 65 54 46 65 55 44 28 25 22 0 0 0 0 0 0 1 1 1 1 1 0 0 0 0 0 0 1 13 7 2 31 16 1 31 16 2 
10 6 2 9 7 4 7 2 0 11 5 0 17 9 4 16 10 5 36 21 10 36 21 10 67 41 13 63 38 13 59 35 11 53 32 10 42 26 9 41 25 8 40 23 7 165 120 79 253 183 116 139 100 67 112 82 56 160 123 82 136 109 81 211 160 109 240 184 125 163 131 94 203 159 109 202 156 105 117 87 60 98 78 61 102 89 67 93 78 57 87 73 54 77 66 49 65 55 39 61 49 34 94 78 58 137 122 95 137 120 94 146 125 99 144 123 97 151 136 112 171 150 120 87 78 76 41 41 61 43 44 47 71 78 70 49 52 50 47 49 50 52 54 55 54 57 55 56 61 57 61 66 62 67 73 68 83 90 83 98 108 100 99 108 102 105 112 103 95 96 83 66 60 55 97 88 82 95 84 77 104 90 81 111 97 85 114 101 82 134 112 83 76 57 40 92 75 53 106 89 66 77 65 48 58 48 34 40 32 22 25 21 13 18 14 10 5 3 2 0 0 0 0 0 0 13 5 2 4 0 0 11 3 0 34 18 2 32 16 1 
27 11 6 75 41 31 123 74 59 115 58 40 86 34 19 5 1 0 25 12 8 31 17 7 59 35 10 53 31 10 46 26 7 40 22 5 28 16 6 39 24 5 35 20 4 187 136 90 235 171 113 233 168 110 239 176 116 169 144 113 189 171 142 212 191 156 184 154 108 223 198 157 249 234 202 235 212 173 196 151 109 230 164 135 251 224 191 254 234 198 255 234 196 254 232 192 247 225 188 237 205 158 192 168 129 209 196 168 255 254 221 255 239 207 255 241 208 255 239 208 255 231 187 108 98 90 26 32 58 31 35 44 92 105 102 96 111 105 94 108 104 95 109 106 96 110 107 96 110 107 96 110 107 96 110 107 93 107 105 91 103 101 85 101 100 144 132 103 158 136 104 136 121 96 137 122 94 132 118 92 128 117 93 115 107 86 84 82 69 121 111 90 137 112 81 154 130 102 129 118 99 121 109 89 145 131 106 134 118 92 140 124 97 130 114 89 128 111 85 125 106 77 37 29 23 79 27 17 117 59 41 123 72 57 86 46 29 46 19 6 
128 85 75 112 68 55 148 94 78 135 75 59 114 65 45 80 56 30 88 57 27 88 54 20 97 61 22 97 62 25 99 67 30 92 62 28 82 54 24 94 64 30 85 58 26 168 117 64 200 140 78 194 139 82 202 149 93 213 190 155 137 126 114 217 202 179 163 145 117 223 208 181 255 243 218 236 213 180 224 188 134 219 167 143 229 187 171 243 232 208 240 225 202 243 232 208 241 226 206 228 201 163 192 169 135 126 118 105 216 203 181 244 230 208 217 202 181 208 194 175 247 229 194 142 119 91 87 68 55 94 76 55 121 109 82 121 109 83 122 109 83 121 109 83 121 109 83 121 109 83 121 109 83 121 109 83 122 109 83 123 111 85 119 107 82 159 136 100 124 113 94 67 64 59 90 84 74 130 121 105 139 130 112 103 98 85 102 97 85 109 104 86 160 134 98 144 126 101 91 88 78 83 77 68 111 103 90 135 126 108 112 107 92 81 78 68 86 83 73 152 134 104 113 86 54 107 58 40 136 77 59 147 94 79 118 69 55 130 87 72 
124 59 42 144 93 76 133 78 61 137 84 72 140 84 60 170 118 58 185 144 94 201 169 130 199 167 129 191 157 114 177 133 81 200 169 130 187 148 100 174 127 72 216 194 164 191 163 128 189 160 126 161 117 66 165 118 64 235 210 172 217 203 180 202 187 167 170 159 138 178 156 135 243 230 205 239 218 182 205 169 117 244 233 201 233 188 170 232 198 176 242 233 209 227 174 154 244 224 202 224 195 153 240 211 167 212 201 179 90 83 70 255 244 220 161 145 130 129 114 102 253 238 204 190 148 94 167 115 55 172 122 64 167 116 59 167 116 59 167 116 59 167 116 59 167 116 59 167 116 59 167 116 59 167 116 59 167 116 59 167 116 60 167 114 56 171 131 81 125 115 96 140 129 111 136 127 110 124 117 100 120 112 98 122 115 101 146 136 116 128 121 103 144 125 92 131 119 96 145 136 117 145 136 116 123 116 100 144 134 116 123 117 100 124 117 100 100 96 82 141 123 95 178 128 69 138 82 57 135 85 71 133 79 60 144 92 77 123 59 42 
103 29 10 115 48 31 138 87 72 136 82 57 150 99 54 158 110 50 184 151 108 211 194 167 209 192 164 192 164 126 185 153 110 219 206 184 213 197 170 192 166 127 214 199 175 214 198 172 213 196 169 167 123 70 172 126 68 243 221 180 190 176 155 145 134 111 141 127 101 109 74 60 154 133 112 249 230 195 222 187 134 250 236 203 252 236 211 249 234 212 252 241 215 248 226 200 254 241 216 233 205 159 236 210 163 250 239 214 226 215 191 237 225 200 228 216 195 230 217 197 255 242 209 192 154 100 159 111 55 164 119 64 164 119 63 164 119 63 164 119 63 164 119 63 164 119 63 164 119 63 164 119 63 164 119 63 164 119 63 164 119 64 164 118 61 168 127 75 134 123 102 127 121 103 96 92 82 43 46 45 25 28 30 38 39 40 74 71 64 122 115 98 150 131 102 136 127 104 108 103 90 67 68 61 45 45 46 46 45 46 89 85 77 131 122 104 134 126 107 142 120 87 169 123 63 147 96 51 137 82 57 138 87 73 116 48 30 103 29 10 
108 38 18 105 31 12 116 49 32 144 95 76 152 102 63 156 107 64 155 106 62 151 101 55 152 101 56 150 98 55 154 106 65 151 102 61 160 113 75 156 109 68 148 97 52 148 96 50 148 94 49 150 97 54 154 103 59 204 167 133 163 136 116 130 95 77 146 115 94 167 138 116 139 101 75 188 156 128 193 151 111 205 175 149 209 181 159 208 180 157 209 180 158 210 184 160 212 183 160 193 152 116 200 161 126 187 160 138 102 77 62 98 76 63 88 64 55 115 89 75 214 185 156 168 123 81 148 96 52 151 101 57 150 100 56 150 100 56 151 99 56 150 100 56 150 100 56 150 100 56 150 100 56 150 100 56 150 100 56 151 100 56 148 97 53 160 113 67 143 129 103 104 100 88 30 34 33 29 33 33 60 60 56 43 44 44 23 26 28 90 86 75 154 137 104 120 114 96 54 55 52 19 23 25 40 41 42 37 38 38 23 27 28 73 72 65 124 118 100 155 126 91 159 109 65 151 101 61 145 95 76 116 49 32 105 31 12 108 38 18 
107 36 16 108 37 17 105 33 12 115 50 31 133 77 64 140 91 78 142 95 81 142 94 81 141 90 77 137 84 72 208 188 184 158 117 105 130 72 57 133 77 62 136 82 67 135 82 67 135 80 66 135 79 65 134 78 64 131 74 59 134 78 62 135 81 65 136 79 64 134 78 62 136 83 67 132 75 60 131 74 60 130 74 59 129 74 58 129 71 56 129 73 57 130 73 57 130 72 57 131 76 61 130 76 60 130 72 57 131 74 59 133 78 62 133 78 61 133 76 60 129 71 56 133 79 64 134 80 65 134 78 64 134 78 64 134 80 65 135 80 65 134 78 64 135 79 65 133 79 64 133 77 63 134 79 65 134 80 65 134 78 63 132 76 63 144 92 71 146 129 101 88 86 77 26 31 30 78 78 69 171 163 139 106 102 90 56 55 53 80 78 68 161 143 111 113 107 93 57 58 55 61 62 56 143 138 118 121 117 102 32 35 34 45 48 45 119 112 92 152 121 92 139 90 77 132 77 65 116 50 32 106 33 12 108 37 17 107 36 16 
