P3
100 56
255
22 12 4 22 12 5 11 2 0 48 41 38 80 72 68 42 32 25 19 11 4 20 11 5 17 9 3 8 5 3 3 3 1 0 0 0 1 0 0 1 0 0 0 0 0 0 0 0 0 0 0 2 1 0 5 5 3 4 3 2 4 3 1 11 6 2 10 5 1 3 2 1 3 2 1 15 8 2 8 5 2 5 4 2 6 5 3 5 3 1 0 0 0 0 0 0 23 14 2 74 50 21 69 48 23 89 63 30 102 73 36 85 59 28 76 53 26 59 42 21 37 26 14 107 76 38 100 71 35 101 72 34 100 71 34 106 75 37 62 43 22 95 66 31 100 70 32 99 69 30 100 69 33 102 70 33 99 69 32 99 69 32 101 72 35 101 72 34 101 72 34 101 72 34 101 72 34 101 72 34 99 71 34 109 76 38 46 32 19 4 3 3 43 31 16 0 0 0 0 0 0 0 0 0 0 0 0 0 0 0 0 0 0 0 0 0 0 0 0 0 0 0 0 0 0 0 0 0 0 0 0 0 0 0 0 0 0 0 0 0 0 0 0 0 0 0 0 0 0 0 0 0 0 0 0 0 0 0 0 0 0 0 0 0 0 0 0 2 1 0 3 2 0 3 2 0 3 2 1 3 2 1 25 24 24 67 66 65 38 37 36 0 0 0 3 2 0 3 2 0 
22 12 5 21 14 8 31 24 21 75 71 67 36 29 23 19 7 0 25 14 5 25 12 3 19 11 3 6 4 1 22 21 19 41 40 38 21 20 18 34 33 30 44 42 40 26 24 23 28 26 24 22 20 17 6 4 2 8 5 3 6 4 2 12 7 3 9 5 2 3 3 1 4 3 1 17 10 4 7 5 2 6 5 3 7 6 4 2 2 1 52 51 49 91 92 93 109 93 71 134 105 64 119 84 38 162 113 54 163 115 53 160 113 52 154 109 50 153 108 50 62 43 23 144 101 49 168 117 54 160 113 51 171 121 55 118 82 39 109 83 56 181 135 78 168 124 68 171 127 70 168 122 68 149 114 72 175 130 73 174 130 75 163 114 55 162 114 52 162 115 52 162 115 52 162 115 52 162 115 52 161 113 51 171 120 57 120 84 43 33 22 13 49 42 36 31 33 34 15 15 15 27 27 27 24 24 24 22 22 22 21 21 21 10 10 10 0 0 0 0 0 0 0 0 0 0 0 0 0 0 0 0 0 0 0 0 0 0 0 0 0 0 0 1 1 1 0 0 0 17 17 17 70 70 70 50 50 50 75 75 75 41 41 41 1 1 1 2 1 0 3 2 0 3 2 0 3 2 0 4 3 1 0 0 0 22 21 20 70 69 67 21 20 19 9 8 6 4 3 1 
0 0 0 24 20 18 68 65 62 69 64 61 68 60 54 69 59 50 21 9 2 28 14 5 17 9 3 3 3 1 13 13 12 32 32 31 25 25 23 20 19 16 34 32 29 40 36 34 37 34 31 27 23 21 6 3 2 9 6 3 7 5 3 13 7 3 6 4 2 3 3 1 5 3 1 18 10 4 5 4 3 5 4 2 6 5 3 1 0 0 33 31 29 83 85 86 129 114 92 131 102 65 138 95 39 156 111 53 153 107 49 154 108 50 153 108 49 168 118 54 101 71 37 82 59 31 166 116 53 150 106 48 159 113 53 67 48 24 150 114 67 166 125 72 161 120 69 165 126 77 173 132 80 127 95 58 111 87 59 175 133 75 152 107 49 155 109 51 153 108 50 153 108 50 153 108 50 153 108 50 153 108 50 155 109 49 149 105 50 56 37 19 66 51 31 27 28 29 22 21 21 19 19 19 32 32 32 32 32 32 32 32 32 18 18 18 2 2 2 2 2 2 0 0 0 0 0 0 0 0 0 0 0 0 0 0 0 0 0 0 0 0 0 0 0 0 0 0 0 6 6 6 71 71 71 67 67 67 69 69 69 67 67 67 0 0 1 2 1 1 3 2 0 3 2 0 4 3 1 1 1 0 51 50 48 55 54 53 63 62 60 62 61 60 20 19 18 0 0 0 
60 56 53 84 80 77 76 72 69 46 42 41 85 75 69 56 44 36 24 10 3 30 15 6 31 14 5 28 11 5 24 7 3 30 14 9 43 28 22 38 23 16 38 24 16 43 30 21 36 21 13 27 8 1 32 13 6 30 12 5 13 8 3 11 8 4 5 4 2 3 3 1 6 4 2 12 7 3 6 5 2 6 6 2 3 2 0 18 16 16 45 44 44 0 0 0 69 52 32 143 110 67 166 125 74 154 107 49 155 109 50 155 109 50 154 109 50 157 110 50 146 103 49 57 40 24 154 109 51 157 109 50 137 88 42 52 28 14 129 83 37 157 105 54 159 110 61 157 105 54 158 106 55 164 114 62 70 44 26 109 67 30 152 99 47 145 95 43 154 106 49 154 109 50 155 109 50 155 109 50 155 109 49 154 109 53 166 118 56 70 53 32 73 58 41 33 29 24 26 26 27 31 31 30 21 21 21 20 20 20 22 22 22 27 27 27 15 15 15 13 13 13 6 6 6 0 0 0 0 0 0 0 0 0 0 0 0 0 0 0 0 0 0 0 0 0 0 0 0 1 0 0 0 0 0 29 29 29 22 22 22 0 0 0 1 1 1 1 0 0 4 1 0 3 2 0 4 3 1 2 1 1 38 37 36 69 68 67 40 39 38 69 68 67 79 78 77 53 53 51 
79 75 72 30 26 23 65 62 60 79 73 70 60 48 41 60 49 40 27 13 3 32 15 6 42 17 8 41 14 7 38 11 5 57 33 24 81 58 50 79 56 48 81 60 53 89 68 59 75 50 40 45 17 8 47 19 8 47 18 7 22 11 4 9 6 2 5 3 1 4 3 2 7 4 2 10 6 3 9 7 4 12 10 6 0 0 0 60 59 58 132 132 132 65 67 67 147 147 145 200 183 157 189 161 122 152 105 45 156 110 51 155 109 50 155 109 50 153 107 49 167 117 55 76 53 29 110 78 38 167 117 53 108 64 31 89 51 25 127 76 34 122 82 51 131 95 69 134 95 67 127 89 63 138 101 74 139 95 59 64 32 14 133 80 39 141 86 40 157 108 50 158 112 52 154 108 50 155 109 50 154 108 49 156 112 56 165 118 56 82 64 40 60 60 56 59 56 50 41 41 42 51 51 50 40 40 40 31 31 31 45 45 45 40 40 40 8 8 8 10 10 10 11 11 11 0 0 0 0 0 0 0 0 0 0 0 0 0 0 0 0 0 0 0 0 0 0 0 0 0 0 0 3 4 4 127 129 128 103 103 103 0 0 0 0 0 0 0 0 0 4 2 0 3 2 0 4 3 1 1 0 0 40 39 38 40 39 38 71 70 68 59 58 57 24 23 22 73 72 70 
18 13 9 21 15 11 61 59 57 59 53 48 58 43 33 41 26 18 33 16 6 29 14 5 14 7 3 16 7 3 18 8 4 18 9 3 18 8 2 18 7 0 18 8 1 19 7 0 20 7 0 21 11 4 19 9 3 15 8 3 9 5 3 7 4 1 4 3 1 4 2 2 8 3 3 11 6 3 11 7 4 11 6 4 8 6 3 23 22 19 34 33 32 27 26 24 26 22 21 118 82 41 160 114 56 151 106 49 155 109 50 155 109 50 155 109 50 154 108 50 161 114 51 127 90 43 69 48 26 173 124 57 65 45 21 59 40 24 111 78 49 143 100 65 158 111 73 162 113 72 161 114 74 134 93 59 112 77 47 61 42 28 82 55 27 169 117 55 95 69 35 139 98 48 159 112 51 154 108 50 155 109 50 152 108 51 169 120 60 79 58 32 7 7 6 31 25 19 5 6 6 10 9 9 9 9 9 9 9 9 11 11 11 8 8 8 12 12 12 10 10 10 1 1 1 0 0 0 0 0 0 0 0 0 0 0 0 0 0 0 0 0 0 0 1 1 8 4 4 17 13 11 19 16 15 19 16 15 2 2 2 12 13 11 15 15 14 2 2 2 2 2 1 3 2 0 3 2 0 3 2 1 15 14 13 33 32 31 48 47 46 58 57 56 11 10 9 8 7 6 
13 8 4 13 9 4 12 9 6 19 8 1 33 16 5 31 14 4 33 16 6 25 12 5 9 7 3 11 8 4 8 4 1 47 43 40 64 61 58 43 41 37 29 26 23 57 55 52 57 56 54 19 16 14 4 1 0 8 4 3 7 5 4 7 5 3 8 5 2 7 4 2 7 3 2 8 4 2 9 6 5 1 0 0 69 66 59 173 168 153 178 174 158 124 119 106 110 92 79 196 169 143 179 142 121 172 132 95 152 104 43 156 110 52 155 109 50 154 108 50 158 112 50 136 97 48 39 28 16 135 97 47 45 33 21 178 130 87 234 169 109 241 185 132 242 190 140 237 180 125 241 187 137 244 192 143 235 183 134 210 154 102 73 53 33 154 110 52 19 13 9 40 28 15 165 116 55 153 107 49 155 109 50 152 107 49 165 116 54 77 54 27 0 0 0 23 17 11 8 6 3 43 43 44 47 47 47 0 0 0 0 0 0 0 0 0 0 0 0 0 0 0 0 0 0 0 0 0 0 0 0 0 0 0 0 0 0 0 0 0 3 3 2 0 0 0 94 77 66 192 165 142 207 185 162 119 101 87 99 98 89 191 188 170 165 160 145 71 68 63 0 0 0 6 5 2 3 2 0 3 2 0 2 1 0 2 1 0 0 0 0 7 6 4 4 3 1 2 1 0 
13 9 5 10 6 2 6 3 0 26 14 7 31 14 6 30 14 5 29 13 4 23 11 5 16 9 2 17 8 4 15 6 4 29 25 22 33 29 26 38 33 31 33 29 26 26 21 18 24 19 15 17 9 6 15 7 4 15 7 4 14 7 3 12 7 2 10 5 3 10 6 2 10 6 1 9 5 3 10 7 5 1 1 1 72 68 61 189 184 169 184 180 163 128 122 110 120 102 89 204 182 160 204 180 158 179 141 101 149 101 41 156 111 52 155 109 50 153 107 49 165 116 54 88 62 32 20 14 10 42 30 17 106 77 52 238 172 111 221 159 103 223 167 114 223 163 109 224 166 113 221 164 109 224 165 109 234 172 112 255 184 118 150 109 72 44 30 12 121 88 59 87 64 45 101 72 35 167 117 54 153 108 49 153 107 49 167 117 54 79 56 29 0 0 0 7 8 3 24 20 11 21 22 21 11 11 11 0 0 0 1 1 1 0 0 0 0 0 0 0 0 0 0 0 0 0 0 0 0 0 0 0 0 0 0 0 0 0 0 0 3 3 2 0 0 0 96 79 68 202 178 154 209 188 164 124 107 92 94 92 84 188 185 168 179 173 157 70 67 63 0 0 0 6 5 2 3 2 0 3 2 0 3 2 0 3 2 0 4 3 1 2 1 0 3 2 0 3 2 0 
15 8 4 16 9 4 21 11 4 25 12 4 23 12 3 21 12 3 20 10 5 19 9 5 18 9 3 16 8 4 15 8 5 10 5 1 9 4 0 9 4 0 10 5 1 10 5 1 11 5 1 13 8 4 14 9 5 14 8 4 12 7 3 12 7 4 9 5 2 10 6 3 11 7 3 10 6 3 9 5 2 9 5 2 10 6 3 20 16 13 25 22 17 7 6 5 48 34 17 109 80 43 52 39 27 147 103 50 158 111 50 154 108 50 155 109 50 154 108 49 161 113 53 53 37 19 57 42 31 19 13 11 154 113 73 232 168 109 222 161 104 224 161 103 224 161 104 221 159 102 233 168 105 219 159 102 151 110 73 155 114 76 158 116 79 67 48 36 215 156 101 213 154 101 59 41 26 155 109 50 155 109 50 153 107 49 163 116 54 55 38 21 0 0 0 3 5 1 3 6 2 0 0 0 0 0 0 0 0 0 0 0 0 0 0 0 0 0 0 0 0 0 0 0 0 0 0 0 0 0 0 0 0 0 0 0 0 0 0 0 0 0 0 0 1 1 8 4 4 20 15 14 19 16 15 7 4 4 9 9 9 15 15 14 17 17 16 2 2 2 1 1 0 3 2 0 3 2 0 3 2 0 3 2 0 3 2 0 3 2 0 3 2 0 3 2 0 3 2 0 
22 11 4 21 11 3 20 11 3 19 10 3 17 9 2 17 9 2 17 9 3 16 9 3 14 8 3 11 7 2 11 7 2 16 9 4 17 9 4 16 9 4 15 9 4 15 9 4 15 9 5 14 8 4 12 8 4 10 6 3 13 7 2 16 9 3 12 7 3 8 5 3 5 5 3 9 5 2 9 5 2 9 5 2 8 4 1 5 1 0 6 1 0 0 0 0 50 35 17 122 87 38 69 50 23 57 40 22 164 115 55 153 108 49 154 108 50 156 110 50 153 107 51 40 27 16 66 49 33 136 99 65 182 132 84 229 166 108 223 161 104 224 163 106 221 160 103 235 171 109 184 135 89 88 63 39 114 79 38 122 86 41 109 78 38 113 81 50 204 148 98 245 178 114 121 87 60 99 69 33 167 117 55 153 108 49 155 109 51 26 19 10 1 1 1 5 6 2 1 4 2 2 2 2 0 0 0 0 0 0 0 0 0 0 0 0 0 0 0 0 0 0 1 0 0 0 0 0 0 0 0 0 0 0 0 0 0 0 0 0 0 0 0 0 0 0 0 0 0 0 0 0 0 0 0 0 0 0 0 0 0 0 0 0 0 0 0 0 0 0 1 0 0 3 2 0 3 2 0 3 2 0 3 2 0 3 2 0 3 2 0 3 2 0 3 2 0 3 2 0 
18 9 4 17 9 4 15 8 3 17 9 3 18 9 4 18 9 4 18 9 4 16 8 4 14 9 5 14 8 4 12 7 3 11 7 2 13 8 3 13 7 3 14 7 3 13 7 3 13 7 3 12 7 3 11 6 3 11 7 4 16 9 3 17 9 2 12 7 3 9 6 3 4 3 1 7 3 1 8 4 1 8 4 1 9 5 2 8 4 2 10 6 4 2 0 0 45 31 17 114 81 39 118 84 39 57 40 20 77 53 29 171 120 56 154 108 49 153 108 49 160 113 53 45 31 16 49 37 27 161 117 75 191 139 89 228 165 108 223 161 105 221 160 104 233 169 108 198 144 96 84 59 35 155 110 50 138 96 45 105 75 35 129 91 42 129 91 40 104 75 48 236 171 111 203 147 97 65 47 27 155 110 49 160 112 51 137 96 47 7 6 3 0 0 0 0 1 0 3 5 2 2 2 1 0 0 0 0 0 0 0 0 0 0 0 0 0 0 0 1 0 0 2 0 0 0 0 0 0 0 0 0 0 0 0 0 0 0 0 0 0 0 0 0 0 0 0 0 0 1 1 1 1 1 1 0 0 0 0 0 0 1 1 1 1 1 1 0 0 0 0 0 0 3 2 0 3 2 0 3 2 0 3 2 0 3 2 0 3 2 0 3 2 0 3 2 0 3 2 0 
16 9 3 15 8 3 14 8 4 14 9 3 14 9 3 14 9 4 14 8 4 13 7 3 18 9 4 17 9 2 12 8 4 7 3 2 9 6 2 11 8 2 11 7 2 11 8 3 10 7 2 10 6 3 9 5 3 12 6 1 18 9 3 17 8 2 14 7 1 8 6 2 4 3 2 8 4 2 9 6 2 10 6 3 10 6 3 10 6 2 12 7 2 5 1 1 38 26 15 114 81 38 107 75 35 116 82 39 50 34 18 75 52 28 163 115 54 155 109 49 166 117 55 49 34 16 69 50 35 165 119 76 192 139 89 229 166 107 221 160 104 229 165 107 216 158 104 88 64 39 153 107 49 132 93 44 121 87 58 193 142 94 145 107 72 87 62 34 95 69 44 223 162 105 240 174 112 113 82 56 105 74 34 177 124 57 76 53 28 0 0 0 32 25 16 23 19 13 0 2 0 2 3 1 0 0 1 0 0 0 0 0 0 0 0 0 0 0 0 1 0 1 2 0 1 0 0 0 0 0 0 0 0 0 0 0 0 0 0 0 0 0 0 0 0 0 0 0 0 0 0 0 0 0 0 0 0 0 0 0 0 0 0 0 0 0 0 0 0 0 0 0 0 3 2 0 3 2 0 3 2 0 3 2 0 3 2 0 3 2 0 3 2 0 3 2 0 3 2 0 
10 6 3 11 7 3 12 8 2 13 8 2 13 7 2 12 7 2 11 7 2 14 7 4 18 9 4 17 9 3 13 8 4 8 4 1 8 4 0 10 7 2 11 7 3 12 8 3 12 8 4 12 8 3 11 8 3 13 8 2 18 9 2 17 7 3 14 6 2 8 5 1 5 2 2 11 6 2 12 7 3 12 7 4 12 8 4 13 8 4 13 7 3 9 5 1 19 13 6 106 74 35 110 78 36 108 76 36 117 82 39 57 41 22 56 40 22 149 105 50 176 124 58 72 51 25 68 50 35 171 124 78 197 142 90 224 163 104 225 162 105 226 163 108 99 71 46 129 91 42 172 120 56 90 64 36 112 81 59 96 71 47 151 109 70 230 167 109 207 151 98 225 163 104 232 168 108 186 136 90 49 34 19 154 108 52 8 6 3 44 34 22 162 117 77 151 109 73 27 21 15 0 1 0 1 1 1 0 0 0 0 0 0 0 0 0 0 0 0 1 0 0 2 0 1 1 0 0 0 0 0 0 0 0 0 0 0 0 0 0 0 0 0 0 0 0 0 0 0 0 0 0 0 0 0 0 0 0 0 0 0 0 0 0 0 0 0 0 0 0 0 0 0 3 1 0 4 2 0 3 2 0 3 2 0 3 2 0 3 2 0 3 2 0 3 2 0 3 2 0 
8 4 1 10 7 3 11 8 3 13 7 4 13 7 4 13 8 3 11 7 3 16 7 4 18 8 3 18 9 3 13 8 3 8 4 1 12 6 2 16 8 5 16 8 5 15 8 5 14 9 5 14 9 5 13 8 4 15 9 2 20 11 2 17 7 3 14 6 3 9 5 2 8 3 2 12 7 3 12 7 3 14 8 4 13 8 4 13 8 4 13 8 4 16 9 2 6 1 1 79 55 28 116 81 38 107 76 35 107 76 35 122 86 41 41 29 16 29 20 13 137 96 47 146 102 47 55 41 27 140 102 68 208 150 97 240 174 112 229 166 109 108 78 49 126 88 41 173 123 56 122 86 40 55 40 32 23 16 14 60 46 39 76 61 52 133 96 61 235 170 109 223 161 105 224 162 105 222 162 105 39 30 20 48 34 18 0 0 0 121 88 57 166 119 77 179 129 84 84 61 42 0 0 0 3 2 1 0 0 0 0 0 0 0 0 0 0 0 0 1 0 0 2 0 1 2 0 1 1 0 0 0 0 0 0 0 0 0 0 0 0 0 0 0 0 0 0 0 0 0 0 0 0 0 0 0 0 0 0 0 0 0 0 0 0 0 0 0 0 0 0 0 0 2 1 0 4 2 0 3 2 0 3 2 0 3 2 0 3 2 0 3 2 0 3 2 0 3 2 0 
11 6 2 16 8 2 17 8 4 17 8 4 17 8 4 18 9 4 17 8 4 19 10 3 19 10 5 16 10 3 11 7 3 8 5 3 15 8 3 18 9 4 18 9 5 18 9 5 18 10 5 18 9 5 17 9 3 17 9 4 19 11 3 16 8 3 12 6 2 9 5 1 9 4 1 13 8 4 14 8 5 17 7 5 16 6 4 16 7 5 17 7 5 16 8 5 6 2 0 41 28 15 114 81 38 108 76 35 110 78 36 103 73 34 60 43 22 87 62 29 28 20 11 110 79 39 74 52 28 51 36 23 106 76 48 116 85 55 140 101 69 92 65 38 147 104 46 128 89 40 114 83 54 98 70 49 97 81 71 243 202 176 255 214 186 132 109 99 133 96 63 235 172 110 219 158 102 238 171 111 80 60 40 0 0 0 10 11 6 147 107 71 148 107 70 109 79 52 78 57 39 1 1 1 1 1 1 0 0 0 0 0 0 0 0 0 0 0 0 1 0 0 2 0 1 2 0 1 1 0 1 0 0 0 0 0 0 0 0 0 0 0 0 0 0 0 0 0 0 0 0 0 0 0 0 0 0 0 0 0 0 0 0 0 0 0 0 0 0 0 0 0 1 1 1 1 3 2 0 3 2 1 3 2 0 3 2 0 3 2 0 3 2 0 3 2 0 3 2 0 
15 8 3 18 9 3 19 10 3 20 11 2 20 11 2 19 10 4 18 9 3 20 11 3 21 11 4 16 10 3 11 7 3 9 6 2 18 9 3 19 10 3 19 10 3 20 10 3 20 10 3 20 11 4 17 9 4 20 10 4 21 11 4 17 9 3 13 7 2 8 5 2 10 5 2 15 9 3 16 8 4 17 7 4 17 7 4 17 7 4 17 7 4 14 7 4 11 6 1 12 8 3 99 71 33 111 79 37 112 79 37 93 66 31 60 42 22 123 86 39 101 71 33 22 16 10 36 25 16 89 61 30 164 115 53 130 91 41 105 76 48 196 141 97 98 71 44 97 69 44 221 160 103 117 87 62 229 191 169 137 97 64 142 107 85 156 131 118 64 46 35 225 162 106 221 160 104 239 173 113 116 85 56 1 1 0 20 19 10 126 92 61 62 44 30 82 61 41 81 61 40 1 1 1 0 0 0 0 0 0 1 0 0 1 0 0 0 0 0 1 0 1 2 0 1 2 0 1 2 0 1 1 0 0 0 0 0 0 0 0 0 0 0 0 0 0 0 0 0 0 0 0 0 0 0 0 0 0 0 0 0 0 0 0 0 0 0 0 0 0 0 0 0 1 1 1 3 2 1 4 3 0 3 2 0 3 2 0 3 2 0 3 2 0 3 2 0 3 2 0 
18 9 4 19 10 3 20 11 1 20 11 2 21 12 3 20 11 1 19 10 1 21 12 3 23 12 2 17 10 4 12 6 2 12 6 2 20 11 3 21 12 3 22 12 3 23 13 3 22 12 3 20 11 3 17 8 5 21 11 3 22 11 5 18 9 4 13 8 3 9 6 2 10 6 2 18 8 3 18 9 3 17 9 3 17 8 3 17 8 3 17 8 3 17 8 4 17 8 5 6 3 0 50 36 18 115 83 38 111 79 36 96 67 32 60 42 20 112 80 37 109 77 37 55 38 21 32 23 15 63 46 27 133 94 45 125 88 40 71 53 37 189 136 92 236 170 111 221 161 104 237 171 108 108 81 59 141 119 107 54 31 14 73 48 28 140 101 65 210 152 97 225 163 104 220 160 103 238 172 111 148 109 71 0 0 0 9 10 5 76 57 40 146 107 70 179 130 84 123 89 57 0 0 0 1 1 1 0 0 0 1 0 1 2 0 1 0 0 0 1 0 0 2 0 1 2 0 1 2 0 1 2 0 1 0 0 0 0 0 0 0 0 0 0 0 0 0 0 0 0 0 0 0 0 0 0 0 0 0 0 0 0 0 0 0 0 0 0 0 0 0 0 0 0 0 0 3 2 1 4 3 1 3 2 0 3 2 0 3 2 0 3 2 0 3 2 0 3 2 0 
20 11 2 22 12 4 22 12 3 24 12 2 25 12 3 20 11 3 22 11 3 25 13 4 25 13 5 17 10 5 12 7 3 12 7 3 20 11 3 22 11 3 22 11 4 22 12 4 20 11 4 20 11 4 19 10 3 20 11 2 20 11 5 17 9 4 13 8 3 19 10 3 19 10 2 19 9 4 18 10 5 15 10 4 14 9 4 15 9 5 17 8 5 17 9 4 17 8 3 17 8 4 4 0 0 48 34 18 116 83 39 110 77 35 51 37 18 107 76 36 115 81 36 80 56 26 18 14 11 41 31 24 38 30 27 43 34 30 51 33 18 89 64 44 202 146 95 227 164 106 230 166 108 179 130 86 123 89 59 192 141 94 234 170 112 239 174 112 228 165 106 224 162 105 222 161 104 234 169 109 178 130 86 0 2 0 3 6 1 61 45 31 105 75 50 174 125 82 90 66 45 0 0 0 2 2 1 0 0 0 1 0 1 2 0 1 1 0 1 1 0 0 2 0 1 2 0 1 2 0 1 2 0 1 1 0 0 1 0 0 0 0 0 0 0 0 0 0 0 0 0 0 0 0 0 0 0 0 0 0 0 0 0 0 0 0 0 0 0 0 0 0 0 0 0 0 2 2 0 4 3 1 3 2 0 3 2 0 3 2 0 3 2 0 3 2 0 3 2 0 
21 11 2 23 13 3 22 12 3 22 11 3 22 11 3 19 10 2 22 11 3 26 13 5 24 13 5 17 9 2 20 12 4 21 12 4 25 13 3 26 13 3 23 13 4 23 12 4 24 12 4 24 13 3 23 13 3 19 10 2 18 9 3 18 10 4 20 10 2 21 10 3 20 11 3 17 9 5 14 8 3 12 8 2 12 7 3 11 7 3 8 6 2 7 4 2 7 4 2 7 3 2 6 4 2 0 0 0 42 30 16 99 71 33 56 39 21 98 69 32 108 77 36 117 83 38 54 38 19 0 0 0 81 67 60 113 91 79 53 28 5 41 29 23 177 129 85 233 169 109 221 160 103 231 167 108 241 174 113 232 167 108 222 161 104 221 160 104 223 161 105 224 162 105 223 161 104 229 165 107 205 148 97 13 14 6 3 5 2 94 69 45 152 110 72 154 111 73 23 16 13 0 0 0 1 1 0 0 0 0 1 0 0 2 0 1 2 0 1 2 0 1 2 0 1 2 0 1 2 0 1 2 0 1 2 0 0 1 0 0 0 0 0 0 0 0 0 0 0 0 0 0 0 0 0 0 0 0 0 0 0 0 0 0 0 0 0 0 0 0 0 0 0 0 0 0 2 1 0 4 3 1 3 2 0 3 2 0 3 2 0 3 2 0 3 2 0 3 2 0 
21 12 3 22 12 3 22 12 3 21 12 4 23 13 5 26 13 4 22 12 3 22 12 3 22 12 3 23 12 3 25 15 5 25 14 4 24 13 3 23 13 3 22 12 3 22 12 3 22 12 3 20 11 3 19 11 3 18 9 2 15 7 2 13 7 2 10 7 2 9 6 2 8 5 3 5 4 2 4 3 2 3 2 2 4 3 2 4 3 2 2 2 0 1 2 1 2 2 2 3 3 1 3 2 0 3 3 0 0 0 0 5 4 3 11 8 6 81 58 28 119 86 40 111 78 36 109 76 35 16 10 7 49 37 25 124 89 58 185 136 90 227 166 107 233 168 109 222 160 104 225 162 105 222 161 104 221 160 103 222 161 104 224 162 105 224 162 105 224 162 105 224 162 105 224 162 105 224 162 105 227 164 107 46 36 23 0 0 0 123 91 60 160 115 77 38 28 19 0 0 0 1 1 1 0 0 0 0 0 0 1 0 0 2 0 1 2 0 1 2 0 1 2 0 1 2 0 1 2 0 1 2 0 1 2 0 1 1 0 0 0 0 0 0 0 0 0 0 0 0 0 0 0 0 0 0 0 0 0 0 0 0 0 0 0 0 0 0 0 0 0 0 0 0 0 0 2 1 0 4 3 1 4 3 1 3 2 0 3 2 0 3 2 0 3 2 0 3 2 0 
27 14 4 27 15 4 26 15 3 28 15 4 30 16 5 28 16 4 24 14 4 20 10 4 23 12 4 22 12 5 19 11 4 17 9 3 14 8 3 12 8 4 12 7 3 10 6 3 7 5 3 5 4 1 5 4 2 6 4 2 3 2 0 1 1 0 2 3 0 4 4 2 4 3 1 1 2 0 1 2 0 2 2 0 4 3 2 4 3 2 3 2 0 2 2 1 3 2 2 4 3 1 3 3 1 2 2 0 3 3 2 2 2 1 0 1 0 10 8 4 55 39 19 98 70 32 123 87 40 83 59 26 92 66 45 189 136 88 231 168 108 190 139 90 207 150 97 230 166 107 224 161 105 224 162 105 224 162 105 224 162 105 224 162 105 224 162 105 224 162 105 224 162 105 224 162 105 221 160 103 238 172 112 85 65 42 0 0 0 45 35 24 21 15 10 0 0 0 1 1 1 0 0 0 0 0 0 0 0 0 1 0 0 2 0 1 2 0 1 2 0 1 2 1 0 2 0 1 2 0 1 2 0 1 2 0 1 1 0 0 0 0 0 0 0 0 0 0 0 0 0 0 0 0 0 0 0 0 0 0 0 0 0 0 0 0 0 0 0 0 0 0 0 0 0 0 2 1 0 4 3 1 3 2 0 3 2 0 3 2 0 3 2 0 3 2 0 3 2 0 
19 11 3 17 10 2 16 10 4 15 9 3 13 7 2 10 7 1 8 6 2 6 4 3 5 4 2 6 4 2 5 3 2 3 2 2 2 2 2 3 3 2 5 5 4 2 3 2 1 2 2 3 3 1 4 4 2 5 4 2 3 3 1 3 3 1 4 3 1 5 4 2 5 3 1 3 2 1 2 2 0 3 3 1 5 4 2 5 4 2 2 2 1 2 2 2 3 3 3 4 3 1 3 3 1 2 2 0 2 2 2 2 2 1 4 3 1 2 2 1 0 0 0 8 6 4 35 26 13 51 38 17 36 26 19 159 114 75 152 111 72 90 66 47 120 87 58 190 138 89 230 166 107 223 161 104 224 162 105 224 162 105 224 162 105 224 162 105 224 162 105 224 162 105 224 162 105 220 159 103 240 173 113 121 90 59 0 0 0 0 1 0 0 0 0 1 1 1 0 0 0 0 0 0 0 0 0 0 0 0 1 0 0 2 0 1 2 0 1 2 0 0 2 1 0 2 0 1 2 0 1 2 0 1 2 0 1 1 0 1 0 0 0 0 0 0 0 0 0 0 0 0 0 0 0 0 0 0 0 0 0 0 0 0 0 0 0 0 0 0 0 0 0 0 0 0 1 1 0 3 2 0 3 2 0 3 2 0 3 2 0 3 2 0 3 2 0 3 2 0 
5 5 3 3 3 2 2 2 3 1 2 1 3 3 2 5 4 3 3 3 1 2 2 1 3 3 1 6 5 3 5 4 2 3 3 3 4 3 2 5 4 2 6 5 3 4 4 1 3 3 1 4 3 1 6 5 3 6 5 3 3 2 2 3 3 3 5 4 2 5 4 2 5 4 2 4 2 3 4 2 2 4 3 1 5 4 2 5 4 3 2 2 2 2 2 2 3 3 3 5 4 2 4 3 1 2 2 0 2 2 0 3 2 0 4 3 1 3 3 1 3 3 1 1 1 2 0 0 0 0 0 0 0 0 0 110 79 53 102 75 49 172 126 82 238 173 111 214 156 100 225 163 105 224 162 105 224 162 105 224 162 105 224 162 105 224 162 105 222 161 104 221 160 104 224 162 105 221 160 103 239 172 112 141 103 68 0 0 0 6 7 3 1 1 1 0 0 0 0 0 0 0 0 0 0 0 0 0 0 0 1 0 0 2 0 1 2 0 1 2 0 1 3 2 0 3 2 0 2 1 0 2 0 1 2 0 1 2 0 1 1 0 0 0 0 0 0 0 0 0 0 0 0 0 0 0 0 0 0 0 0 0 0 0 0 0 0 0 0 0 0 0 0 0 0 0 1 0 0 3 2 0 3 2 0 3 2 0 3 2 0 3 2 0 3 2 0 3 2 0 
6 5 3 4 4 2 3 3 2 4 3 2 6 5 2 7 5 2 4 4 1 3 3 1 5 4 3 6 5 2 5 4 3 3 3 2 4 3 2 6 5 3 7 6 3 4 3 2 3 3 1 5 4 2 6 5 3 5 4 2 3 3 2 3 3 3 5 4 2 6 5 3 5 4 2 3 2 3 4 3 2 5 4 2 6 5 3 5 4 3 2 2 2 2 2 2 3 3 3 5 4 2 4 4 2 3 2 0 3 2 0 3 2 0 5 4 2 4 3 1 2 2 0 2 2 1 4 3 1 6 4 2 1 1 0 25 17 11 77 56 40 181 131 86 229 167 107 221 160 102 222 160 104 224 162 105 224 162 105 224 162 105 223 161 105 221 160 103 235 170 110 238 172 112 224 162 105 221 160 104 237 171 111 154 113 75 0 0 0 5 6 2 0 0 0 0 0 0 0 0 0 0 0 0 0 0 0 0 0 0 1 0 0 2 0 1 2 0 1 2 0 1 3 2 0 3 2 0 2 1 0 2 0 1 2 0 1 2 0 1 2 0 1 0 0 0 0 0 0 0 0 0 0 0 0 0 0 0 0 0 0 0 0 0 0 0 0 0 0 0 0 0 0 0 0 0 0 0 1 2 2 0 3 2 0 3 2 0 3 2 0 3 2 0 3 2 0 3 2 0 
7 6 3 5 4 2 3 3 1 5 3 3 7 6 2 7 6 1 4 4 1 4 3 2 6 5 3 7 6 2 5 4 3 4 4 2 4 3 3 7 6 3 7 6 2 4 3 3 4 3 1 5 4 2 6 5 3 5 4 2 3 3 2 3 3 3 5 4 2 6 5 3 5 4 2 3 3 3 3 3 2 5 4 2 6 5 3 4 4 2 3 3 3 3 3 3 3 3 2 5 4 2 5 4 2 3 2 0 3 2 0 4 3 1 5 4 2 5 4 2 3 2 0 2 2 0 3 2 0 4 3 1 4 3 1 4 2 1 8 5 6 154 113 75 252 182 117 235 170 109 232 168 109 222 161 104 224 162 105 220 159 103 227 165 107 242 176 115 171 122 77 138 101 67 225 163 106 222 160 104 236 170 110 166 122 80 0 0 0 4 6 1 2 2 1 0 0 0 0 0 0 0 0 0 0 0 0 0 0 0 1 0 0 2 0 1 2 0 1 2 1 0 3 2 0 3 2 0 3 1 0 2 0 1 2 0 1 2 0 1 2 0 1 1 0 0 0 0 0 0 0 0 0 0 0 0 0 0 0 0 0 0 0 0 0 0 0 0 0 0 0 0 0 0 0 0 0 0 1 2 2 1 3 2 0 4 2 0 4 3 1 4 3 1 3 2 0 3 2 0 
7 6 2 5 5 1 4 4 2 5 5 2 7 7 1 7 6 2 4 4 2 4 4 2 6 5 1 7 6 2 5 4 3 4 4 2 5 4 1 7 6 2 7 5 2 4 3 2 3 3 1 5 4 1 7 6 2 5 4 2 4 2 2 4 3 1 6 5 3 6 5 3 4 3 1 3 3 1 3 2 2 5 4 2 6 5 2 4 4 3 3 3 3 4 3 1 5 4 1 5 4 2 4 3 1 3 2 0 3 2 0 4 3 1 5 4 2 5 4 2 3 2 0 2 2 0 3 2 0 4 3 1 4 3 1 5 3 1 0 0 0 38 28 20 155 113 75 154 114 74 139 101 68 207 149 99 232 168 109 241 176 113 212 154 96 101 72 46 90 75 69 69 54 44 222 160 103 223 161 105 231 167 108 192 140 92 7 8 4 2 6 1 0 0 0 0 0 0 0 0 0 0 0 0 0 0 0 0 0 0 1 0 0 2 0 1 2 1 0 1 1 0 4 1 0 5 1 0 4 1 0 2 1 0 2 0 1 2 0 1 2 0 1 1 0 1 0 0 0 0 0 0 0 0 0 0 0 0 0 0 0 0 0 0 0 0 0 0 0 0 0 0 0 0 0 0 0 0 0 1 1 1 4 3 1 6 3 1 7 3 0 5 4 0 3 2 0 3 2 0 
7 6 3 5 4 2 4 4 2 6 6 2 8 7 2 7 6 2 4 4 2 5 4 2 7 6 2 7 6 2 5 4 3 4 4 2 5 5 2 7 6 2 6 5 2 4 3 3 4 4 2 6 5 1 7 6 2 5 4 2 3 2 2 4 4 1 7 6 3 7 6 3 4 3 1 3 3 1 4 3 2 6 4 2 6 5 1 5 4 1 3 3 2 4 3 1 5 4 2 6 5 3 5 4 2 3 2 0 4 3 1 4 3 1 5 4 2 5 4 2 3 2 0 2 2 0 3 2 0 4 3 1 4 3 1 2 1 0 5 3 2 0 0 0 94 69 47 179 130 86 213 153 99 237 172 109 203 147 94 134 95 61 71 55 42 168 141 126 149 125 112 152 109 71 235 170 110 222 160 104 222 160 104 236 171 112 65 52 34 0 0 0 37 28 19 0 0 0 0 0 0 0 0 0 0 0 0 0 0 0 0 0 0 3 0 1 2 1 0 1 1 0 4 1 0 6 1 0 4 1 0 3 2 0 2 0 1 2 0 1 2 0 1 2 0 1 1 0 0 0 0 0 0 0 0 0 0 0 0 0 0 0 0 0 0 0 0 0 0 0 0 0 0 0 0 0 0 0 0 2 1 1 6 3 1 7 3 0 7 3 0 5 4 0 3 2 0 3 2 0 
7 6 4 5 4 2 5 4 2 7 6 2 8 7 3 6 5 1 5 4 2 6 5 2 8 7 3 8 7 3 5 4 3 5 4 2 6 5 2 8 7 3 6 5 2 5 3 3 5 4 2 6 5 2 7 6 2 5 4 2 4 3 2 4 4 2 7 6 2 7 6 3 4 3 2 4 3 1 4 3 2 6 5 3 7 6 1 5 4 1 4 3 1 4 3 1 5 4 2 6 5 3 5 4 2 4 3 1 4 3 1 5 4 2 5 4 2 5 4 2 3 2 0 2 2 0 3 2 0 4 3 1 4 3 1 3 2 0 4 3 1 3 1 0 73 53 37 192 139 91 139 101 66 99 75 52 95 77 64 150 124 111 225 189 170 155 130 114 145 105 67 235 170 110 223 161 105 224 162 105 224 162 104 228 165 107 96 72 49 110 81 53 131 94 62 1 0 0 1 1 0 0 0 0 0 0 0 0 0 0 0 0 0 4 1 1 3 1 0 1 1 0 4 1 0 6 2 1 4 1 0 3 2 0 2 0 1 2 0 1 2 0 1 2 0 1 1 0 0 0 0 0 0 0 0 0 0 0 0 0 0 0 0 0 0 0 0 0 0 0 0 0 0 0 0 0 0 0 0 1 1 0 7 3 0 8 3 0 7 3 0 5 4 0 4 3 0 3 2 0 
6 5 3 5 4 2 6 5 3 8 7 2 8 7 2 6 5 1 5 4 2 6 5 3 8 7 3 7 6 3 5 4 2 5 4 2 7 6 3 8 7 3 6 5 3 5 4 2 5 4 2 7 6 2 8 7 2 6 4 2 4 3 2 4 4 2 7 6 2 7 6 3 4 3 1 4 3 1 4 3 1 7 6 1 7 6 3 5 4 2 4 3 1 4 3 1 6 5 2 6 5 1 5 4 1 4 3 1 4 3 1 5 4 2 6 5 3 4 4 2 2 2 0 3 2 0 4 3 1 4 3 1 4 3 1 2 2 0 2 1 0 6 2 1 12 8 7 1 1 5 152 128 115 220 183 164 245 204 181 213 179 160 126 100 84 168 120 76 238 171 111 222 161 104 224 162 105 224 162 105 224 162 105 222 160 104 229 166 108 218 157 101 136 98 64 8 6 4 0 0 0 1 0 0 2 0 1 2 0 1 0 0 0 4 1 0 3 2 0 2 2 0 4 1 0 7 1 1 6 1 0 5 1 0 3 1 0 2 1 0 2 0 1 2 0 1 1 0 0 0 0 0 0 0 0 0 0 0 0 0 0 0 0 0 0 0 0 0 0 0 0 0 0 0 0 0 0 0 0 1 0 0 7 3 0 8 4 1 8 4 1 9 4 1 6 3 1 2 2 0 
6 5 3 6 5 2 6 5 2 8 7 2 8 7 2 6 5 2 5 4 1 7 6 3 8 7 3 7 6 3 5 4 2 5 4 1 7 6 3 8 7 3 5 4 2 4 3 1 5 4 2 7 6 2 8 7 3 5 4 2 4 3 2 5 5 2 7 6 2 6 5 2 4 3 1 4 3 1 4 3 1 7 6 1 6 5 2 4 3 2 4 3 1 4 3 2 6 5 2 7 6 1 5 4 1 4 3 1 4 3 1 5 4 2 6 5 3 4 3 1 2 2 0 3 2 0 4 3 1 4 3 1 4 3 1 2 1 0 3 1 0 4 1 1 23 16 12 63 44 30 117 95 81 168 141 122 124 101 85 129 94 66 208 149 93 238 171 112 222 159 104 224 162 105 224 162 105 224 162 105 224 162 105 224 162 105 225 163 106 217 156 99 146 104 67 7 6 4 0 0 0 1 0 0 2 0 1 2 0 1 1 1 0 4 1 0 4 1 0 3 2 0 4 1 0 7 1 1 7 1 1 5 1 0 3 2 0 2 1 0 2 0 1 2 0 1 2 0 1 0 0 0 0 0 0 0 0 0 0 0 0 0 0 0 0 0 0 0 0 0 0 0 0 0 0 0 0 0 0 0 0 0 7 3 1 9 4 1 8 5 2 10 5 1 8 4 1 4 2 0 
6 5 3 6 5 2 6 5 1 8 7 2 7 6 2 6 5 3 5 4 1 7 6 2 8 7 3 6 5 3 5 4 2 5 4 0 8 7 3 8 7 3 3 4 1 4 4 2 5 4 2 8 7 3 8 7 2 5 4 2 4 3 3 5 5 3 7 6 2 6 5 2 4 3 1 5 4 2 5 4 1 7 6 2 7 6 2 4 3 3 4 3 1 4 2 2 6 5 1 6 5 1 5 4 1 4 3 1 4 3 1 5 4 2 6 5 3 5 4 2 3 2 0 3 2 0 4 3 1 5 4 2 4 3 1 3 2 0 2 1 0 10 5 4 0 0 0 115 85 55 198 143 90 179 128 79 222 159 99 241 175 112 221 161 105 222 161 104 224 162 105 224 162 105 224 162 105 224 162 105 224 162 105 224 162 105 222 160 104 227 164 106 127 91 60 1 1 1 1 1 1 1 0 0 2 0 1 2 0 1 1 1 0 4 1 0 5 1 0 5 1 0 5 1 0 7 1 1 8 1 1 5 1 0 2 2 0 3 1 0 2 0 1 2 0 1 2 0 1 0 0 0 0 0 0 0 0 0 0 0 0 0 0 0 0 0 0 0 0 0 0 0 0 0 0 0 0 0 0 0 0 0 7 3 1 10 5 1 9 5 2 11 6 2 11 5 2 5 2 0 
5 4 2 6 5 3 7 6 2 8 7 3 6 5 2 4 4 3 5 4 2 8 7 2 8 7 3 6 6 3 5 5 3 6 5 1 8 7 3 7 6 2 3 3 1 4 4 2 6 4 3 8 7 3 8 7 3 5 4 2 5 4 2 6 5 3 7 6 2 5 4 1 4 3 1 5 4 2 4 3 1 7 6 2 6 5 2 5 3 3 4 3 1 5 3 3 6 5 2 6 5 2 4 3 1 4 3 1 4 3 1 5 4 1 6 5 1 5 4 2 3 2 0 3 2 0 4 3 1 5 4 2 5 4 2 3 2 0 2 1 0 10 5 3 0 0 0 55 40 27 237 172 111 194 142 91 124 92 64 86 63 45 163 117 79 234 170 109 222 160 104 224 162 105 224 162 105 224 162 105 224 162 105 221 159 104 227 164 105 230 167 107 49 34 24 0 0 0 2 2 1 1 0 0 2 0 1 2 0 1 1 1 0 4 1 0 7 0 0 6 1 0 5 1 0 7 2 0 7 2 1 5 1 0 5 1 0 4 1 0 2 0 1 2 0 1 2 0 1 0 0 0 0 0 0 0 0 0 0 0 0 0 0 0 0 0 0 0 0 0 0 0 0 0 0 0 0 0 0 0 0 0 6 2 1 11 6 2 11 6 2 11 6 2 11 6 2 6 3 1 
6 5 2 6 5 3 7 7 2 8 7 2 6 5 3 4 4 3 6 5 3 8 7 2 8 7 3 5 5 3 5 5 3 6 5 2 9 8 2 7 6 2 3 3 1 5 4 2 6 5 2 8 7 3 7 6 3 4 4 2 5 4 2 7 5 3 7 6 2 5 4 1 4 3 2 5 4 2 5 4 1 7 6 2 6 5 2 4 3 2 4 3 1 5 3 2 6 5 2 6 5 3 4 3 1 4 3 1 4 3 1 6 5 2 6 5 1 4 3 1 3 2 0 3 2 0 4 3 1 5 4 2 4 3 1 3 2 0 3 1 0 9 4 3 1 0 0 30 21 16 190 136 89 186 136 91 140 103 73 160 115 77 219 158 102 225 163 106 224 162 105 224 162 105 224 162 105 223 161 105 220 159 103 235 170 110 229 166 108 89 64 43 0 0 0 3 2 2 0 0 0 1 0 0 2 0 1 2 0 1 1 1 0 4 1 0 7 1 1 5 0 0 5 1 0 7 2 0 7 2 0 6 1 1 5 1 0 5 1 0 2 1 1 2 0 1 2 0 1 1 0 0 0 0 0 0 0 0 0 0 0 0 0 0 0 0 0 0 0 0 0 0 0 0 0 0 0 0 0 0 0 0 5 2 2 12 7 2 11 6 2 13 7 2 13 7 2 8 4 1 
6 5 3 6 5 3 8 7 2 8 7 1 6 5 3 5 5 3 6 5 3 8 7 1 8 7 2 5 5 3 5 5 3 7 6 3 8 8 1 6 5 2 4 4 2 5 5 3 6 5 1 8 7 2 7 6 3 4 4 2 4 4 3 8 5 2 7 6 2 5 4 1 4 3 2 5 4 2 7 6 3 10 8 3 8 6 3 6 5 2 5 4 1 5 4 2 6 5 3 6 5 3 4 3 1 4 3 1 4 3 1 6 5 2 6 5 1 3 3 1 2 2 0 3 2 0 4 3 1 4 3 1 4 3 1 3 2 0 3 1 0 8 3 2 5 2 1 3 2 3 146 105 69 234 169 109 238 172 111 236 170 110 225 163 106 224 162 105 224 162 105 223 161 105 220 159 103 228 164 106 242 175 114 175 128 84 46 33 25 0 0 2 4 3 3 0 0 0 0 0 0 1 0 0 2 0 1 2 0 1 1 1 0 4 1 0 8 1 1 6 1 0 5 1 0 7 2 0 7 2 0 7 1 1 6 1 1 5 1 0 2 2 0 2 0 1 2 0 1 2 0 1 0 0 0 0 0 0 0 0 0 0 0 0 0 0 0 0 0 0 0 0 0 0 0 0 0 0 0 0 0 1 4 2 1 13 7 1 12 7 1 16 6 1 16 7 1 11 5 1 
6 5 3 6 5 2 8 7 2 7 6 1 5 4 2 5 5 3 6 6 3 9 8 3 7 6 1 5 4 3 4 4 2 7 6 2 8 8 2 6 5 2 4 4 2 5 5 2 6 5 1 8 7 3 7 6 3 4 4 2 4 4 2 8 5 1 7 6 2 4 4 1 6 4 2 7 5 2 2 2 0 0 0 0 0 0 0 0 0 0 0 0 0 7 4 3 7 5 3 6 5 3 4 3 1 4 3 1 4 3 1 6 5 2 6 5 1 3 3 1 2 2 0 3 2 0 4 3 1 5 4 2 4 3 1 3 2 0 3 1 0 7 3 2 7 4 2 0 0 0 103 75 49 207 150 96 223 162 103 220 159 103 222 161 104 221 160 104 221 160 104 229 166 107 240 174 111 210 152 100 109 79 54 56 40 27 26 24 25 46 45 60 43 42 55 25 25 35 1 1 2 1 1 1 2 0 1 2 0 1 1 1 0 4 1 0 8 1 1 6 1 1 5 1 0 9 1 0 9 1 0 7 1 1 6 2 1 5 1 0 4 1 0 2 0 1 2 0 1 2 0 1 1 0 0 0 0 0 0 0 0 0 0 0 0 0 0 0 0 0 0 0 0 0 0 0 0 0 0 0 0 0 2 1 1 13 6 1 15 7 2 16 7 2 17 8 3 15 7 2 
6 5 3 7 6 2 8 7 2 7 6 1 5 4 2 5 5 3 7 6 3 8 7 3 6 5 1 5 4 3 4 4 2 7 6 3 8 7 2 6 4 2 4 4 2 5 4 2 7 6 2 8 7 3 5 4 2 4 3 2 4 4 2 8 6 1 7 6 2 7 5 2 0 0 0 0 0 0 24 18 13 52 39 26 74 55 39 71 52 38 26 19 14 0 0 0 4 6 3 9 5 2 7 4 1 4 3 1 4 3 1 6 5 2 6 5 2 3 3 1 2 2 0 3 2 0 4 3 1 5 4 2 5 4 2 3 2 0 3 1 0 7 3 2 7 4 2 0 0 0 56 41 27 182 132 84 221 162 102 224 162 104 230 167 108 238 172 111 236 170 111 203 147 93 118 87 56 52 38 28 101 72 49 170 122 78 62 47 40 41 43 61 52 50 66 43 42 56 0 0 0 0 0 0 2 0 0 3 1 1 2 1 1 4 1 1 7 1 1 7 2 1 6 1 0 10 0 0 9 1 0 7 1 1 6 2 1 5 1 0 5 1 0 3 0 1 2 0 1 2 0 1 1 0 0 0 0 0 0 0 0 0 0 0 0 0 0 0 0 0 0 0 0 0 0 0 0 0 0 0 0 0 1 1 1 14 6 2 17 7 2 16 7 2 17 8 2 17 8 2 
5 4 3 7 6 3 8 7 2 6 5 3 5 4 2 5 5 3 7 7 2 8 7 2 6 5 1 5 4 3 4 4 2 8 7 3 8 7 3 5 3 2 5 3 2 5 4 2 7 6 2 7 6 2 4 2 2 5 3 1 5 4 2 8 6 1 9 8 2 0 0 0 30 22 17 146 107 70 214 156 100 197 145 91 193 142 93 220 159 103 183 134 88 49 13 9 25 4 1 0 4 2 0 2 1 5 3 1 4 3 1 6 5 3 6 5 3 4 3 1 3 2 0 3 2 0 4 3 1 5 4 2 5 4 2 3 2 0 3 1 0 7 3 0 5 3 0 3 2 0 6 5 3 131 95 62 224 162 103 225 163 106 195 141 92 149 109 72 83 61 45 35 30 33 9 15 31 88 64 44 190 135 89 162 117 75 55 40 27 16 18 30 52 51 66 29 29 38 22 22 29 15 14 20 3 3 4 0 0 0 0 0 0 1 0 0 8 3 1 7 1 0 7 1 1 10 1 0 9 2 0 6 2 0 7 1 1 6 1 0 5 1 0 3 0 1 2 0 1 2 0 1 1 0 1 0 0 0 0 0 0 0 0 0 0 0 0 0 0 0 0 0 0 0 0 0 0 0 0 0 0 1 0 0 1 12 5 2 18 8 3 17 8 0 18 8 0 18 8 0 
5 4 1 7 6 2 8 7 3 5 4 2 5 4 2 6 5 2 8 7 2 8 7 2 6 5 2 5 4 2 5 4 2 8 7 3 8 7 3 5 3 2 5 4 2 5 4 2 8 7 3 7 6 2 4 3 1 5 4 2 5 5 2 10 8 2 0 0 0 54 40 27 208 151 99 237 172 110 226 163 105 213 155 99 205 147 96 238 169 108 193 145 94 162 36 21 211 51 30 147 18 3 66 13 7 1 3 2 5 3 1 6 5 2 6 5 2 4 3 1 3 2 0 3 2 0 4 3 1 5 4 2 5 4 2 3 2 0 3 1 0 7 3 2 5 3 1 4 2 1 3 1 0 21 16 11 57 41 26 40 29 20 8 5 4 0 0 0 30 33 51 48 48 66 30 31 41 41 31 23 81 59 41 45 37 31 27 26 36 45 44 58 40 40 52 21 21 26 50 49 66 50 49 66 44 43 57 34 33 45 24 24 33 10 9 11 5 0 0 8 2 2 6 1 1 9 1 0 11 1 0 9 1 0 8 1 1 6 1 1 5 1 0 4 1 0 3 0 0 2 0 1 2 0 1 1 0 0 0 0 0 0 0 0 0 0 0 0 0 0 0 0 0 0 0 0 0 0 0 0 0 0 0 0 0 9 5 1 19 9 1 18 9 0 19 9 0 19 9 0 
5 4 0 8 7 3 8 7 3 4 4 2 5 5 2 6 5 1 8 7 2 8 7 3 6 5 3 6 5 3 6 5 3 8 7 3 7 6 2 5 3 2 5 4 2 5 4 2 8 7 3 7 6 1 5 4 2 5 4 2 7 6 2 3 4 1 27 21 15 209 151 100 235 169 108 235 170 110 234 170 111 235 170 111 242 175 114 224 167 109 111 69 46 178 16 4 220 37 15 216 32 11 183 20 8 17 4 3 4 5 2 6 5 2 6 5 1 4 3 1 3 2 0 3 2 0 4 3 1 5 4 2 5 4 2 3 2 0 3 1 0 7 3 2 5 3 1 3 2 0 6 3 2 0 0 0 0 0 0 0 0 0 2 1 1 9 8 11 31 30 39 50 49 67 45 43 57 38 39 55 32 35 52 42 43 60 51 50 66 50 49 66 40 39 52 44 43 58 49 47 64 47 46 62 49 48 64 50 49 66 52 50 67 47 47 62 16 14 19 4 0 0 8 2 2 8 2 0 11 0 0 10 0 0 8 1 1 6 1 1 5 1 0 5 1 0 4 0 0 2 0 1 2 0 1 1 0 0 0 0 0 0 0 0 0 0 0 0 0 0 0 0 0 0 0 0 0 0 0 0 0 0 0 0 0 7 4 1 19 10 0 20 10 1 20 10 1 19 9 0 
6 5 2 8 7 2 7 6 2 5 4 2 6 5 3 6 5 1 8 7 2 7 6 2 6 5 3 6 5 3 6 5 3 8 7 3 7 6 3 5 4 2 5 4 2 6 5 2 8 7 3 7 6 2 5 4 3 5 4 2 10 8 3 0 0 0 115 84 57 255 187 121 216 157 101 138 99 65 73 52 35 73 53 35 132 93 62 83 42 26 83 5 0 127 16 6 183 19 5 215 86 58 192 41 24 51 9 7 0 0 0 9 6 3 6 5 1 4 3 1 3 2 0 3 2 0 4 3 1 5 4 2 5 4 2 3 2 0 3 1 0 7 3 2 5 3 1 3 2 0 5 4 2 4 3 1 3 2 0 8 7 9 37 35 48 44 43 59 43 42 57 48 47 63 49 48 64 50 49 65 51 50 66 49 48 64 47 46 62 48 47 62 50 49 65 49 48 64 48 47 63 48 47 63 48 47 63 47 46 62 48 47 62 49 48 64 49 48 64 19 17 24 4 0 0 9 2 1 12 1 0 10 0 0 8 1 1 6 1 1 5 1 0 5 1 0 4 0 0 2 0 1 2 0 1 1 0 0 0 0 0 0 0 0 0 0 0 0 0 0 0 0 0 0 0 0 0 0 0 0 0 0 0 0 0 5 3 1 22 10 2 21 11 1 21 11 1 21 11 1 
7 6 2 8 8 2 7 6 3 5 4 2 5 5 3 7 6 2 8 8 2 6 5 2 5 4 2 5 4 2 7 6 2 8 7 3 7 6 3 5 4 2 5 4 2 6 5 3 8 7 3 7 6 2 4 3 3 4 4 2 7 6 3 3 3 1 48 35 24 101 74 49 87 63 44 41 29 21 0 0 0 0 0 0 40 0 0 118 53 43 110 40 30 98 13 5 121 18 9 187 38 21 188 31 17 143 54 36 73 56 39 3 2 1 8 6 2 3 3 1 2 2 0 3 2 0 4 3 1 5 4 2 5 4 2 3 2 0 3 1 0 7 3 2 5 3 1 3 2 0 5 4 2 1 1 0 9 9 10 46 45 60 51 50 68 49 48 65 49 48 64 48 47 63 48 47 63 48 47 63 48 47 63 48 47 63 48 47 63 48 47 63 48 47 63 48 47 63 48 47 63 48 47 63 48 47 63 49 47 64 45 44 59 46 45 60 49 48 64 48 47 63 10 7 9 8 1 0 12 2 1 11 1 0 9 0 1 7 2 1 6 2 1 5 1 0 4 0 0 2 0 1 2 0 1 2 0 1 0 0 0 0 0 0 0 0 0 0 0 0 0 0 0 0 0 0 0 0 0 0 0 0 0 0 0 3 2 1 21 11 1 22 12 1 22 12 1 23 11 1 
7 6 3 8 8 1 7 6 2 5 5 3 5 5 3 7 6 2 8 7 2 7 6 2 5 4 2 5 4 2 7 6 1 8 7 3 5 4 2 4 3 1 5 4 2 7 6 3 7 6 2 6 5 2 4 3 2 4 4 2 6 5 2 8 6 2 4 3 4 133 98 65 214 155 100 229 167 107 189 138 89 99 73 51 44 20 14 100 40 32 108 29 20 117 19 11 121 34 22 111 4 0 134 12 5 216 137 88 197 145 96 1 1 1 7 6 1 2 2 0 2 2 0 3 2 0 4 3 1 5 4 2 4 3 1 3 2 0 2 1 0 7 3 2 5 3 1 3 2 0 5 4 2 1 0 0 38 37 49 49 48 65 47 46 61 48 47 63 48 47 63 48 47 63 48 47 63 48 47 63 48 47 63 48 47 63 48 47 63 48 47 63 48 47 63 48 47 63 48 47 63 48 47 63 48 47 63 49 48 64 31 30 41 46 45 62 48 46 63 50 50 66 32 31 41 5 0 0 13 2 1 11 1 0 10 0 1 6 2 1 5 1 0 5 1 0 4 0 0 2 0 1 2 0 1 2 0 1 0 0 0 0 0 0 0 0 0 0 0 0 0 0 0 0 0 0 0 0 0 0 0 0 0 0 0 1 1 1 19 10 1 23 13 0 24 13 1 25 13 1 
7 6 3 8 7 2 7 6 2 6 5 3 6 5 3 8 7 3 8 7 2 6 5 2 5 4 2 6 5 3 8 7 2 8 8 2 4 4 2 3 3 1 5 4 2 7 5 3 8 6 2 6 4 2 4 3 1 4 3 1 10 8 4 0 0 0 46 33 22 250 182 118 243 176 113 234 169 109 231 167 108 237 171 112 204 153 101 122 64 41 85 0 0 103 10 2 87 13 6 63 3 2 159 103 67 245 183 118 154 110 73 1 1 1 8 6 3 2 2 0 2 2 0 3 2 0 4 3 1 5 4 2 4 3 1 3 2 0 3 1 0 7 3 2 5 3 1 4 3 1 3 0 0 21 20 26 48 48 63 29 28 40 49 47 64 48 47 63 48 47 63 48 47 63 48 47 63 48 47 63 48 47 63 48 47 63 48 47 63 48 47 63 48 47 63 48 47 63 48 47 63 48 47 63 49 48 65 43 42 57 30 30 40 50 49 67 47 46 63 48 47 63 50 49 65 16 13 15 11 1 0 13 3 1 11 1 0 7 2 0 6 2 0 6 2 0 5 1 0 3 2 0 3 1 1 3 1 1 1 1 1 2 1 1 1 1 1 0 0 0 0 0 0 0 0 0 0 0 0 0 0 0 0 0 0 0 0 0 18 9 1 26 14 1 25 13 1 25 13 1 
8 7 3 8 7 2 6 5 2 6 5 3 6 5 2 8 7 3 8 7 2 5 4 2 5 4 2 5 4 2 8 7 1 8 6 2 3 2 1 2 3 2 3 3 1 5 5 2 6 6 1 3 3 1 2 2 1 5 3 2 4 3 1 19 14 9 182 133 87 169 121 80 139 101 69 168 123 82 232 169 109 233 168 108 228 164 106 237 171 112 133 87 58 33 4 2 81 33 24 137 83 54 234 172 110 229 166 108 56 40 27 1 1 0 8 7 3 3 2 0 3 2 0 3 2 0 5 4 2 5 4 2 4 3 1 3 2 0 3 1 0 7 3 2 6 3 2 1 1 0 9 8 10 49 48 64 41 40 54 32 32 43 51 50 68 47 46 62 48 47 63 48 47 63 48 47 63 48 47 63 48 47 63 48 47 63 48 47 63 48 47 63 48 47 63 48 47 63 48 47 63 47 46 62 50 49 66 45 44 61 37 37 49 50 49 66 48 47 63 45 44 60 43 44 64 31 34 49 1 0 0 5 0 0 3 0 0 0 0 0 0 0 0 0 0 0 0 0 0 0 0 0 0 0 0 0 0 0 0 0 0 0 0 0 0 0 0 0 0 0 0 0 0 0 0 0 0 0 0 0 0 0 0 0 0 0 0 0 15 8 2 26 14 1 25 13 1 26 14 2 
8 7 2 8 7 2 6 5 1 6 5 3 6 5 2 8 7 3 8 7 2 6 4 2 5 4 2 8 4 3 11 6 2 11 6 3 9 5 2 10 6 3 10 6 4 12 8 4 13 9 3 12 7 4 13 8 5 18 9 5 15 9 6 143 105 71 103 75 51 114 84 56 170 124 81 114 83 56 96 69 48 169 124 80 227 165 108 226 163 104 234 171 110 142 105 71 156 109 74 234 170 108 241 174 112 125 91 60 0 0 0 8 7 3 6 5 1 3 2 0 3 2 0 3 2 0 5 4 2 5 4 2 4 3 1 3 2 0 3 1 0 7 3 2 5 3 1 1 1 1 35 35 47 51 49 67 48 47 64 45 44 58 41 40 53 49 48 64 48 47 63 48 47 63 48 47 63 48 47 63 48 47 63 48 47 63 48 47 63 48 47 63 48 47 63 48 47 62 47 46 62 51 50 66 48 46 64 21 21 29 32 32 42 51 50 67 45 44 60 56 56 71 132 115 102 148 128 111 143 121 101 139 118 94 141 118 96 138 115 91 139 118 97 139 120 97 140 121 98 136 114 91 137 116 92 137 118 96 136 118 96 128 108 84 35 32 28 0 0 0 1 1 1 0 0 0 0 0 0 0 0 0 0 0 0 0 0 0 11 6 1 27 14 1 26 14 2 26 14 2 
10 7 2 9 7 2 5 5 1 5 5 3 6 6 3 9 7 2 5 6 2 15 8 4 37 19 10 32 17 9 33 17 9 33 18 8 32 18 9 32 18 10 32 18 10 30 16 8 30 16 8 32 16 8 37 19 10 20 9 3 48 34 24 52 38 28 160 116 76 255 189 122 247 179 114 239 173 112 189 137 90 115 86 58 98 71 49 222 162 104 228 164 105 224 162 104 114 84 56 200 147 95 165 119 79 4 3 3 7 5 3 8 6 3 6 5 1 3 2 0 3 2 0 3 2 0 5 4 2 7 5 3 6 4 2 5 4 1 5 4 2 10 6 5 5 2 2 17 16 20 53 52 68 48 47 62 50 49 65 40 39 51 12 13 14 49 48 65 49 48 64 47 46 62 48 47 62 48 47 63 48 47 63 48 47 63 49 48 63 49 48 64 50 49 65 51 50 67 51 50 66 40 38 54 26 27 31 59 66 59 27 27 33 52 50 66 40 40 57 85 81 88 205 166 121 226 203 172 231 210 180 213 180 141 219 188 152 221 190 153 227 200 168 232 211 181 230 205 171 213 176 135 231 207 178 231 208 181 234 214 189 218 175 127 96 82 65 0 0 0 3 3 2 0 0 0 0 0 0 0 0 0 0 0 0 0 0 0 8 4 1 28 14 1 28 14 1 27 15 1 
11 7 2 9 7 2 8 6 2 6 5 2 8 7 3 10 8 3 5 5 2 20 11 6 41 21 10 39 22 11 38 21 9 37 20 10 36 19 9 35 18 9 34 18 8 33 18 7 35 19 8 35 18 9 26 12 5 34 22 13 154 113 77 156 113 74 229 167 107 147 107 70 167 121 81 226 164 107 236 170 110 249 182 116 137 100 66 120 86 59 240 174 113 178 130 83 219 159 103 129 93 63 36 27 18 0 0 0 5 4 2 4 4 1 5 4 1 3 2 1 4 3 1 5 4 2 2 2 1 0 0 0 0 0 0 0 0 0 0 0 0 0 0 0 0 0 0 19 20 33 41 42 62 40 41 60 49 48 65 45 44 59 13 14 14 30 28 39 50 48 66 50 49 66 50 49 67 49 48 65 47 47 64 47 46 63 45 44 61 43 42 59 41 39 55 33 32 45 28 27 35 36 38 38 78 87 81 107 117 111 43 47 44 36 35 48 49 49 66 47 47 66 101 93 94 113 101 93 117 103 96 106 93 82 90 75 59 96 78 63 99 81 63 98 82 65 89 75 60 93 77 62 95 82 67 100 83 68 98 81 63 92 80 64 22 20 18 3 3 2 3 3 2 2 2 1 1 1 1 0 0 0 2 1 0 2 1 1 7 3 2 29 15 2 30 16 2 31 15 2 
12 7 3 5 5 1 0 0 0 0 2 0 0 3 0 2 5 2 5 4 2 27 15 7 35 19 10 33 19 9 56 34 12 54 33 12 53 31 10 54 31 10 46 27 9 42 25 8 29 17 6 45 26 8 29 17 8 158 115 76 252 182 115 193 140 92 44 32 23 91 67 45 127 92 60 83 58 38 199 142 92 227 164 107 231 168 108 98 70 47 207 150 95 187 136 86 187 136 87 75 58 41 24 20 15 20 14 9 14 11 5 15 10 4 8 3 1 3 0 0 0 0 0 0 0 0 15 10 9 35 28 20 41 34 23 48 39 28 58 46 35 60 47 34 61 49 36 83 75 70 102 91 85 81 73 73 45 45 64 45 43 61 35 38 40 52 58 53 27 28 32 28 28 35 28 28 37 30 31 37 30 31 36 30 32 34 32 34 36 35 38 40 40 44 44 58 63 58 80 89 83 100 109 103 97 106 102 92 104 101 76 87 82 16 19 25 51 52 67 56 54 65 60 57 68 72 65 73 82 72 76 89 81 79 80 67 51 107 84 61 60 45 33 31 23 16 64 51 37 35 29 21 20 15 11 5 2 2 0 0 0 0 0 0 0 0 0 0 0 0 0 0 0 0 0 0 0 0 0 0 0 0 0 0 0 0 0 0 0 0 0 18 8 0 30 16 0 32 17 2 
14 6 1 20 13 8 61 34 27 40 17 9 55 23 12 62 23 10 16 9 5 30 18 10 35 20 11 39 24 11 75 46 14 68 41 13 64 38 13 55 32 10 54 32 10 46 28 9 36 23 8 57 33 8 60 39 20 215 156 101 227 164 105 199 143 94 200 145 95 218 163 108 185 151 109 211 186 146 208 178 138 214 176 124 225 188 139 210 184 144 224 197 154 241 206 157 164 138 99 145 100 75 215 167 132 217 200 159 209 183 144 210 185 145 202 180 141 197 174 135 185 163 125 174 150 114 173 141 100 189 167 132 255 236 193 241 218 179 247 223 184 245 219 179 241 216 177 235 215 176 250 222 173 173 148 115 38 40 57 51 48 64 34 36 37 100 109 101 90 99 90 82 90 82 84 91 84 89 96 89 91 99 92 93 101 94 96 104 97 98 107 99 100 109 103 102 112 105 99 108 102 95 103 98 95 103 97 134 127 102 147 132 104 126 109 84 134 118 91 147 128 97 137 118 89 139 122 92 143 125 97 128 116 90 141 128 104 156 136 106 120 96 69 128 103 74 176 152 115 159 139 108 145 126 96 143 124 93 132 111 84 115 98 70 99 83 61 80 66 49 61 50 37 43 35 24 20 16 12 12 5 4 59 20 10 50 21 12 39 15 8 71 38 25 42 23 7 36 15 1 
57 30 22 47 21 14 150 90 71 141 89 73 136 70 50 116 52 33 7 0 0 22 10 6 23 11 6 34 17 5 54 32 9 49 29 10 48 28 9 43 25 6 36 19 5 25 13 6 32 19 5 40 24 5 40 26 13 212 156 102 232 169 111 231 169 110 238 171 110 210 160 110 160 145 124 128 114 95 225 209 182 176 154 120 177 147 100 221 200 163 254 241 214 245 230 201 228 191 145 223 172 126 216 146 127 237 202 179 248 236 207 247 230 202 253 236 204 251 233 200 249 231 201 246 222 183 223 191 144 155 143 119 155 147 130 255 246 220 242 229 205 242 227 201 248 232 206 243 228 205 247 227 192 168 148 123 29 35 56 39 41 62 25 31 37 89 103 100 92 106 102 93 108 103 93 107 105 92 106 104 91 105 103 91 105 102 90 104 102 90 103 101 89 102 100 89 102 100 90 103 101 90 103 101 91 106 102 159 139 103 147 128 99 130 118 98 111 102 83 125 115 94 117 108 90 117 110 93 111 105 89 77 76 66 59 59 53 111 102 84 140 116 85 148 122 94 125 113 97 84 81 72 95 87 74 125 116 98 122 111 92 122 109 90 140 128 104 129 116 92 146 130 103 153 132 100 142 119 85 13 4 5 114 50 33 136 71 52 143 89 71 148 88 71 63 28 11 71 36 21 
150 104 92 105 64 53 136 86 72 138 85 70 126 67 52 123 70 52 88 61 33 102 69 38 96 62 29 102 66 29 108 70 29 106 69 28 109 73 34 107 72 33 102 70 34 92 63 29 101 69 35 101 70 32 101 70 34 183 130 73 192 135 75 192 137 80 190 135 79 209 162 106 230 211 176 124 112 99 217 202 180 193 177 154 162 146 120 239 225 201 248 234 207 246 233 204 219 181 135 225 197 146 220 163 142 229 181 164 247 238 213 240 223 199 242 228 204 246 236 211 240 224 204 231 210 180 220 187 143 174 157 132 131 122 107 221 209 184 244 227 205 248 232 207 206 191 170 220 205 183 250 234 200 192 166 126 99 77 56 105 81 62 101 79 53 129 113 82 127 110 81 127 110 81 127 111 81 127 111 81 127 111 81 127 111 81 128 111 81 128 111 81 128 111 81 128 111 81 128 111 81 128 111 82 126 109 79 167 142 104 129 117 97 68 66 60 66 61 54 103 95 83 134 124 107 148 138 118 106 100 86 107 101 90 114 108 93 114 108 89 157 133 97 164 139 106 113 107 91 86 81 72 84 77 68 108 100 87 137 127 108 132 123 105 99 95 82 72 70 61 73 71 65 115 107 90 157 129 91 91 62 34 122 69 52 125 67 50 137 85 70 138 87 74 111 66 51 148 104 88 
122 59 43 146 95 77 141 89 73 128 69 52 145 96 84 134 76 56 169 117 61 172 122 64 185 145 93 186 146 99 187 147 101 190 154 110 172 127 72 182 139 89 195 161 118 182 139 87 170 119 59 191 154 108 209 182 149 174 136 91 178 143 101 168 127 79 153 104 50 182 141 88 247 225 189 211 197 175 223 210 188 179 165 147 179 172 147 196 176 155 255 243 213 247 232 204 214 182 134 213 180 130 250 242 212 236 197 178 225 170 150 243 237 212 241 223 200 225 167 147 247 229 207 239 217 185 213 176 126 255 238 203 204 193 171 36 32 24 217 201 180 253 238 214 70 57 49 128 114 101 255 245 213 211 179 129 168 117 56 173 122 63 172 121 63 168 116 59 168 117 59 168 117 59 168 117 59 168 117 59 168 117 59 168 117 59 168 117 59 168 117 59 168 117 59 168 117 59 168 117 59 168 117 60 169 115 56 174 137 88 127 117 97 130 120 103 152 139 122 125 118 102 131 122 104 139 130 112 121 115 100 145 135 116 151 141 120 123 116 98 141 122 90 140 122 94 125 118 102 168 155 132 146 137 117 122 115 98 152 141 122 134 126 108 116 110 95 115 108 93 90 86 74 121 111 92 178 142 94 170 115 57 133 77 57 143 97 82 128 70 50 141 90 73 146 94 79 121 60 42 
103 27 9 113 44 27 136 84 68 140 91 74 131 74 52 140 86 61 157 110 59 158 111 56 214 199 178 224 214 198 223 213 197 215 202 182 180 147 105 196 169 137 216 204 184 220 207 190 174 138 93 211 196 173 228 221 209 225 217 202 233 227 217 183 148 108 155 105 49 185 143 91 245 223 188 185 169 147 183 163 143 140 136 112 148 120 97 96 55 44 160 142 124 253 239 210 220 187 139 219 185 138 246 232 203 241 215 192 237 207 186 240 229 206 242 225 200 230 184 162 243 227 203 238 216 183 215 178 126 242 223 186 236 222 198 207 194 173 253 237 210 255 245 221 225 209 188 237 219 199 248 230 200 212 181 134 158 111 56 161 115 63 161 114 62 162 115 63 162 115 63 162 115 63 162 115 63 162 115 63 162 115 63 162 115 63 162 115 63 162 115 63 162 115 63 162 115 63 162 115 63 162 116 63 161 114 60 169 129 81 122 110 93 139 131 111 125 118 101 113 108 95 66 66 60 45 46 44 54 54 52 85 81 73 95 91 78 131 125 106 149 130 101 140 127 99 134 128 108 100 95 83 100 99 85 77 75 70 73 69 65 96 91 82 125 118 102 149 140 118 145 136 113 121 110 90 169 132 83 156 107 54 139 87 61 132 74 53 141 91 75 136 84 67 114 44 26 102 27 9 
107 37 17 109 39 20 111 39 22 139 88 76 140 88 59 157 106 49 164 117 58 163 115 56 171 129 76 172 131 78 176 140 90 173 131 80 164 119 63 189 158 115 193 165 126 201 176 141 190 160 117 186 152 109 178 140 93 176 137 86 177 140 90 167 120 65 160 112 55 186 144 87 254 233 194 190 179 154 132 114 98 140 129 94 139 121 103 154 133 111 128 93 63 211 196 171 238 208 159 225 195 146 251 240 209 254 243 217 252 241 217 253 239 214 253 241 215 255 250 221 254 242 216 247 226 189 215 178 123 252 234 198 241 229 203 166 155 136 181 172 151 151 143 129 158 149 134 180 169 152 255 249 217 217 188 137 163 113 55 165 118 62 164 118 61 164 118 61 164 118 61 164 118 61 164 118 61 164 118 61 164 118 61 164 118 61 165 118 61 164 118 61 164 118 61 164 117 61 164 118 61 165 118 62 162 115 58 174 132 77 141 128 104 127 121 103 89 86 78 35 39 38 17 23 26 25 29 31 24 27 29 21 23 27 70 68 61 112 106 91 154 135 104 134 123 99 114 108 96 73 71 64 23 27 28 19 22 26 21 24 28 21 22 27 65 63 59 94 89 78 128 120 103 133 118 93 171 127 72 162 115 55 157 106 49 142 88 57 139 88 75 110 40 22 109 38 20 108 37 17 
107 36 16 107 36 17 105 31 13 117 52 33 143 95 80 145 94 72 148 98 69 152 104 74 151 102 70 148 98 66 147 94 61 142 89 56 151 101 72 145 95 63 131 74 38 141 85 52 139 83 50 137 81 46 140 86 51 139 85 51 140 82 49 143 86 54 140 85 53 148 95 63 175 131 106 153 114 95 131 89 72 143 93 78 146 108 90 166 127 106 136 92 70 153 111 92 170 123 94 164 117 89 175 134 113 174 133 113 174 132 112 174 133 113 174 134 114 174 132 112 175 134 114 172 127 103 159 108 77 177 135 111 150 111 92 76 38 26 94 58 45 78 43 33 79 41 31 105 66 51 178 138 116 161 114 84 140 87 55 141 89 56 141 88 55 141 88 55 141 88 55 141 87 54 142 87 55 141 88 55 141 88 55 140 88 55 140 87 54 141 88 55 140 89 55 141 89 56 141 88 55 142 88 55 138 84 51 155 107 67 144 128 100 115 108 94 58 58 54 18 23 23 51 53 49 87 86 76 77 75 69 41 42 41 19 23 26 92 87 77 159 140 105 129 120 98 86 86 77 16 21 23 34 37 36 63 62 59 65 65 60 43 45 41 19 24 25 76 76 68 121 114 97 145 126 98 164 118 83 145 95 67 146 95 71 144 95 81 118 51 34 105 31 13 107 36 17 107 36 16 
107 36 16 107 36 16 108 37 17 104 33 11 111 45 24 130 71 57 140 88 76 139 93 80 141 94 81 141 94 81 142 93 82 133 78 67 171 134 127 233 225 225 151 108 97 136 81 69 137 83 70 136 82 70 138 85 72 136 83 70 137 83 70 137 82 69 136 82 69 135 79 66 131 73 59 133 78 61 137 83 66 134 81 64 135 77 62 130 73 58 137 84 68 134 78 62 130 74 60 131 74 60 129 74 58 128 74 58 129 71 56 129 71 56 128 73 57 130 73 58 130 72 57 131 74 60 132 79 65 128 73 58 134 76 61 147 90 73 144 88 71 148 93 75 147 90 73 143 85 69 128 70 56 132 77 63 137 84 70 135 80 67 136 80 67 136 80 67 135 82 68 136 83 69 136 81 68 136 80 68 137 81 68 135 81 68 135 80 67 135 79 67 135 82 68 136 82 69 135 79 66 136 81 68 133 78 66 148 96 76 146 128 97 117 111 98 43 47 44 35 39 37 91 90 78 180 171 145 153 146 126 61 59 55 80 77 71 76 75 66 166 146 112 135 126 106 76 74 68 72 72 65 61 63 56 154 148 126 158 153 132 74 72 65 25 28 29 49 50 47 114 108 90 145 125 94 147 102 83 137 85 74 130 72 58 112 44 24 105 32 11 107 37 17 107 36 16 107 36 16 
