P3
100 56
255
4 4 2 4 5 3 3 5 2 3 5 2 5 5 2 6 7 2 5 6 2 5 5 4 3 3 1 3 3 2 3 5 2 3 5 2 3 5 2 3 5 2 3 3 1 4 5 2 6 7 3 7 7 2 6 7 3 3 5 3 5 7 3 8 7 3 9 8 4 9 8 4 10 8 5 10 9 5 10 10 6 9 9 5 15 13 6 12 11 6 10 10 6 13 12 7 12 11 7 13 12 5 13 13 5 12 12 6 11 12 7 10 11 7 10 11 5 10 11 6 9 11 6 7 10 7 9 10 7 9 9 7 7 9 6 7 9 6 7 9 6 7 9 6 8 10 7 8 10 7 9 10 5 9 10 5 10 10 5 9 10 6 8 10 7 6 10 6 7 12 9 7 11 8 13 15 10 7 9 6 5 7 4 5 7 3 5 7 2 8 8 4 5 6 3 9 8 3 14 11 3 13 9 3 25 14 6 21 12 5 15 10 4 24 13 4 34 18 4 36 18 5 32 17 5 33 17 4 19 10 3 24 12 3 27 14 3 28 15 4 20 12 3 18 9 2 24 13 2 22 13 3 20 11 2 17 10 2 11 8 2 14 8 1 16 9 2 19 11 2 19 12 1 20 11 2 18 10 3 11 7 2 5 5 1 2 2 1 4 5 0 4 6 0 2 4 1 5 6 2 
4 4 2 4 4 2 4 4 2 2 4 1 5 5 3 7 7 3 6 6 3 5 5 3 4 4 2 4 5 2 4 5 2 4 5 2 4 5 2 4 5 2 3 3 1 3 5 2 6 7 3 7 7 3 6 7 4 3 5 3 5 6 3 7 8 3 7 8 3 7 8 3 7 8 3 9 8 4 10 10 5 8 9 4 11 11 6 10 11 6 9 9 7 12 12 7 11 11 6 12 12 6 12 13 5 11 12 6 9 11 6 9 11 6 10 10 7 9 10 7 8 10 6 8 10 7 8 9 7 8 9 7 7 9 6 8 10 7 7 9 6 8 10 7 8 10 7 8 10 7 7 8 6 7 9 6 7 9 6 7 8 5 7 9 6 3 9 4 4 9 5 3 8 5 4 9 5 3 8 4 5 7 4 3 6 3 5 7 2 10 9 4 6 7 3 14 11 5 16 11 4 10 9 3 23 13 5 24 14 4 27 16 5 28 17 4 28 15 4 19 11 4 21 12 4 33 17 4 21 10 2 28 16 2 28 15 2 27 15 5 19 11 2 18 10 1 23 13 2 20 12 2 19 10 1 16 11 1 14 9 1 18 11 3 20 12 2 19 12 2 13 8 1 8 7 1 4 4 1 2 3 1 5 6 1 3 3 1 5 5 2 6 6 1 3 3 1 6 6 2 
2 3 0 2 3 0 2 2 0 1 3 0 3 4 1 4 4 3 4 4 3 4 4 2 3 4 1 4 5 1 4 4 2 4 5 2 4 5 2 5 5 3 4 5 3 3 4 2 5 6 3 5 6 3 4 6 3 4 6 3 5 7 2 7 8 2 8 8 3 8 8 3 7 8 3 9 7 3 8 8 4 7 8 4 12 12 5 9 10 6 7 8 5 10 11 6 10 11 5 10 11 6 10 11 6 10 11 6 9 10 6 8 10 6 9 10 7 8 10 7 8 10 7 8 10 7 8 10 7 8 10 7 8 10 7 8 10 7 8 10 7 7 9 6 8 10 7 8 10 7 7 10 6 8 9 7 8 10 7 8 10 7 8 9 7 6 9 6 5 9 5 3 8 4 6 9 6 4 8 4 4 6 3 5 6 3 5 7 3 10 9 5 7 8 4 11 9 5 12 9 3 18 10 4 22 13 3 24 14 4 23 14 5 23 14 3 18 10 3 21 12 2 26 14 3 28 15 3 19 11 2 27 15 3 27 14 3 26 13 4 18 10 2 16 8 1 19 10 2 17 10 1 17 10 1 18 10 1 18 11 3 13 9 3 8 5 1 6 5 1 2 2 0 3 5 1 4 5 1 4 3 1 6 6 2 3 4 2 6 6 2 7 7 2 3 4 1 6 6 2 
4 5 2 4 5 3 4 4 2 4 4 2 3 5 2 4 4 2 4 4 2 4 4 2 3 3 1 3 3 1 3 3 1 2 4 2 2 4 3 3 4 2 3 4 2 3 4 1 3 5 2 3 5 2 3 5 2 4 5 2 4 6 2 5 6 3 6 6 3 7 7 3 6 7 3 7 7 3 7 7 5 6 7 5 10 11 4 8 10 5 6 8 5 9 10 5 10 11 6 11 11 6 10 11 6 10 11 5 9 10 6 8 10 7 8 10 7 8 10 7 7 9 6 8 10 7 8 10 7 8 10 7 8 10 7 8 10 7 8 10 7 7 9 6 8 10 7 8 9 6 7 9 6 6 10 7 7 10 7 8 10 7 8 11 7 7 10 7 5 10 6 3 8 4 7 8 6 5 7 4 6 7 4 9 9 5 6 8 3 9 9 4 11 8 4 12 9 4 18 11 3 16 11 3 15 10 3 12 9 2 13 9 2 23 13 3 19 11 2 25 14 2 28 14 4 23 13 4 17 10 1 25 13 4 23 12 3 22 13 3 17 10 2 17 9 2 19 11 1 17 11 2 14 9 2 9 7 1 5 4 1 3 4 1 2 2 1 5 6 1 3 4 0 5 5 2 5 5 1 3 3 1 7 6 2 3 5 1 5 7 2 7 8 2 3 5 0 7 7 1 
6 6 3 6 6 4 6 6 4 6 6 4 4 5 2 4 5 2 4 5 2 4 5 2 4 5 2 4 5 2 4 5 3 4 5 2 3 5 2 4 5 2 4 5 2 4 4 2 4 5 2 4 6 3 4 6 3 3 5 2 3 5 2 3 5 2 3 6 3 4 6 3 5 6 3 5 6 4 5 6 3 5 6 4 9 10 6 7 9 4 5 7 5 6 7 5 7 8 5 7 9 5 7 8 5 7 8 5 6 8 5 7 9 6 7 9 6 8 10 7 7 9 6 7 9 6 8 10 7 8 10 7 8 10 7 9 10 8 8 10 7 8 10 7 7 10 6 6 8 5 7 9 6 6 11 7 8 11 7 8 10 7 7 11 7 5 11 7 4 9 5 3 7 3 6 8 5 5 7 4 8 9 5 9 8 4 6 7 2 12 10 3 15 11 4 12 9 4 9 7 2 10 8 2 12 8 3 10 7 2 16 10 1 21 11 2 19 9 2 23 13 2 25 14 3 22 13 3 14 9 1 20 11 2 19 10 2 19 10 3 18 11 3 15 9 2 9 7 1 5 5 1 3 3 1 3 5 0 3 3 1 6 6 1 4 4 1 6 6 2 3 4 1 6 5 2 5 6 1 3 5 2 7 6 2 4 5 0 7 7 2 8 7 2 4 5 0 7 7 2 
6 6 4 6 6 4 5 7 4 4 7 3 3 5 2 3 5 2 3 5 2 3 5 2 3 5 2 3 5 2 3 5 2 3 5 2 3 5 2 3 5 2 3 5 2 3 5 2 3 5 2 3 5 2 3 5 2 3 5 2 3 5 2 3 5 2 4 6 3 4 6 3 5 6 3 5 6 3 6 6 3 6 6 4 7 8 5 6 8 5 6 8 5 6 9 6 7 9 6 6 8 5 6 8 5 6 8 5 6 8 5 5 7 4 6 8 5 6 8 5 6 8 5 6 8 5 4 7 4 4 8 4 6 7 5 5 8 5 5 8 4 6 8 5 6 8 5 4 9 5 6 8 5 6 9 6 6 9 6 7 9 6 7 9 6 4 9 5 3 8 4 4 7 4 7 8 6 4 6 3 5 7 4 5 7 3 10 9 4 10 9 3 6 6 4 4 5 3 4 5 3 8 7 4 12 8 3 12 8 1 17 10 2 19 10 2 16 10 2 20 11 2 20 10 1 21 11 2 16 10 1 19 11 2 17 10 3 12 7 2 5 5 1 3 4 0 1 3 1 3 4 2 3 5 2 5 6 2 4 4 1 6 7 1 3 4 1 6 6 2 4 4 1 5 6 2 5 6 1 4 5 1 8 8 3 5 6 1 7 7 2 8 8 2 4 6 1 7 7 2 
5 5 4 5 6 4 4 5 3 4 5 3 4 5 2 2 4 1 2 4 1 2 4 2 3 4 2 3 5 2 3 5 2 3 5 2 3 5 2 3 5 2 3 5 2 3 5 2 3 5 2 3 5 2 3 5 2 3 5 2 3 5 2 3 5 2 3 5 2 3 5 2 3 5 2 3 5 2 3 5 2 4 6 3 5 7 4 6 7 5 6 8 5 6 8 5 6 8 5 6 8 5 7 9 6 7 9 6 7 9 6 7 9 6 7 9 6 7 9 6 5 9 5 6 9 6 6 9 6 6 8 5 5 9 5 4 9 5 6 8 5 6 8 5 5 9 5 4 9 5 3 9 4 3 8 4 2 8 3 2 8 4 3 8 4 3 6 3 2 6 2 4 7 3 6 8 5 4 6 3 7 8 3 8 9 4 6 7 3 3 5 2 5 6 3 4 6 3 5 6 2 8 7 3 9 8 4 12 7 2 16 8 2 17 9 2 13 8 1 17 10 2 19 10 2 17 10 2 12 9 2 7 6 2 2 4 1 2 4 1 1 4 1 2 4 1 3 4 1 5 6 2 4 4 1 6 6 2 3 4 1 6 7 1 4 4 1 7 6 2 5 5 2 5 6 2 7 7 2 5 6 1 8 8 3 6 6 2 7 8 2 9 8 2 5 6 1 8 7 2 
10 10 5 11 11 6 9 10 6 9 10 6 9 10 6 8 10 6 8 9 5 7 8 4 6 8 4 5 7 3 5 7 3 6 6 3 4 6 3 4 5 2 3 5 3 2 5 2 3 5 1 2 4 2 2 4 2 2 4 2 2 4 1 2 4 1 2 4 2 2 4 2 3 5 2 3 5 2 4 6 3 4 6 3 5 6 3 6 6 4 6 7 5 6 8 5 7 9 6 7 9 6 7 9 6 7 9 6 7 9 6 7 9 6 7 9 6 6 9 6 4 9 5 4 10 6 4 10 6 3 9 5 4 9 5 4 9 5 5 9 5 4 8 5 3 8 5 4 8 6 4 8 6 4 8 6 4 9 6 4 9 5 4 9 5 5 8 5 5 6 4 4 6 3 5 7 4 7 7 4 5 7 3 5 6 3 5 6 4 4 5 3 6 7 3 5 6 3 7 6 2 8 6 3 8 7 3 11 7 2 14 8 2 15 9 3 15 9 3 14 9 4 9 6 2 3 3 1 2 3 1 1 4 1 2 4 1 3 5 2 3 4 2 4 5 2 3 4 1 5 6 2 4 4 2 6 6 2 3 4 1 7 7 2 4 5 2 8 8 3 6 5 2 6 6 2 8 8 3 6 7 1 9 9 2 5 6 2 7 8 2 9 8 2 5 6 1 7 8 2 
12 11 7 12 13 8 10 14 9 10 14 9 11 15 10 13 15 11 13 15 10 13 16 10 13 16 9 13 15 10 14 15 9 15 16 10 14 16 9 13 15 10 12 15 10 11 14 9 12 13 8 11 13 8 10 12 7 9 11 7 9 10 7 8 10 7 7 10 6 7 9 5 7 9 5 7 9 5 7 9 5 6 8 5 6 7 4 6 7 4 5 6 4 6 8 5 7 9 6 7 9 6 7 9 6 6 8 5 6 8 6 7 9 6 7 9 6 4 8 5 4 9 5 4 9 5 4 9 5 4 9 5 4 9 5 4 9 5 4 9 5 3 8 6 3 8 7 3 8 7 4 8 7 5 9 8 5 9 8 5 9 6 4 9 5 3 9 5 5 8 5 6 8 5 5 7 4 5 6 4 2 5 2 5 6 3 6 7 4 6 6 3 7 7 3 5 6 3 6 6 2 7 6 2 7 6 2 10 8 2 12 8 2 8 6 2 5 5 1 2 3 1 1 2 0 2 4 1 4 4 2 3 5 1 3 5 1 4 6 2 3 5 2 5 6 2 4 5 2 5 6 2 4 4 2 6 6 2 4 5 1 8 7 3 5 6 1 7 7 2 4 5 1 5 6 1 8 8 2 6 7 1 9 9 3 6 6 2 7 8 1 9 9 1 5 6 2 7 8 1 
11 11 7 11 12 7 10 13 8 9 14 8 11 14 9 12 14 10 13 15 9 16 18 11 14 16 10 13 16 10 13 15 9 14 15 9 14 17 10 13 17 11 13 17 11 14 16 11 14 17 11 15 16 11 15 17 11 14 17 11 15 17 11 14 18 12 12 18 12 14 18 11 15 18 12 17 18 12 16 17 11 15 17 12 14 17 10 14 16 11 12 15 10 12 15 10 11 15 10 7 12 9 6 11 9 12 15 10 14 15 10 6 11 8 6 11 7 9 12 8 9 11 8 7 10 7 7 9 6 7 10 6 5 10 6 5 9 6 5 9 5 4 9 6 3 9 7 3 9 7 4 10 7 5 10 8 4 9 7 4 9 5 4 8 4 5 7 4 5 7 4 4 6 3 3 5 2 4 7 3 5 6 3 7 8 3 6 7 3 7 6 3 8 7 3 5 6 3 7 8 3 6 6 2 6 5 2 5 5 2 2 3 1 0 3 0 1 3 0 2 3 1 3 5 1 3 5 2 4 5 3 4 5 1 4 5 1 4 6 1 3 5 2 5 6 2 4 4 2 5 6 2 4 4 2 7 7 3 4 5 0 8 7 2 6 6 1 8 8 2 4 6 1 6 7 2 8 9 3 5 7 1 8 8 3 6 7 2 7 8 1 9 9 1 5 6 2 8 8 1 
7 8 3 11 12 8 10 13 9 10 14 9 11 14 10 13 15 10 9 13 8 0 3 1 6 11 7 14 17 10 13 15 10 12 16 9 14 16 10 14 16 9 13 16 9 13 16 9 14 17 11 13 15 10 13 16 9 14 16 10 14 16 11 14 17 11 12 18 11 13 18 11 12 17 10 12 17 10 14 17 11 16 17 13 15 18 11 14 18 12 13 17 12 15 17 13 13 17 11 8 14 9 6 12 9 18 20 14 23 24 16 6 12 10 8 13 10 20 21 15 15 17 12 8 13 10 10 14 11 8 13 9 9 11 8 10 12 9 9 11 8 7 10 7 9 11 7 8 10 7 5 10 6 4 9 5 4 8 5 4 7 4 5 7 4 4 6 3 3 5 2 4 6 4 6 7 3 6 8 3 7 7 3 8 7 3 5 6 1 7 7 3 7 7 3 7 6 2 5 5 2 2 3 1 1 3 0 1 2 0 1 3 0 2 4 1 2 4 1 3 4 1 3 5 2 3 5 2 4 5 3 3 5 1 4 5 2 5 5 1 3 5 1 4 6 3 3 4 1 5 6 1 3 5 2 6 7 2 4 5 1 8 8 3 6 7 1 7 8 3 4 5 3 6 6 2 10 9 3 12 10 4 11 9 3 5 6 1 7 8 2 9 9 1 5 6 2 8 8 1 
7 8 3 8 9 6 7 10 6 8 11 6 9 12 6 6 8 6 28 24 15 130 99 64 45 38 24 6 9 5 14 14 10 12 14 9 12 14 8 12 15 9 13 15 10 13 15 9 13 16 10 13 16 10 13 15 10 14 16 10 13 16 11 13 16 11 13 18 11 14 18 12 12 17 11 12 17 12 13 17 12 15 17 12 15 17 12 15 18 12 13 16 11 14 16 12 13 17 10 8 13 8 6 12 8 17 18 12 22 22 14 7 11 10 8 13 10 19 21 12 14 17 11 8 13 9 8 13 9 7 12 8 9 12 8 10 11 9 10 12 9 8 11 7 9 11 7 7 9 7 6 9 6 6 8 5 6 8 5 5 7 4 4 6 3 4 7 3 6 7 5 6 7 4 7 8 3 6 8 3 8 7 3 8 7 3 7 7 3 6 6 3 4 5 2 2 3 1 1 3 0 1 3 0 1 3 0 1 3 0 1 3 0 2 4 1 2 4 1 3 5 2 3 5 2 2 4 1 4 5 3 4 5 1 4 6 1 5 6 1 4 5 2 7 7 3 12 8 2 13 9 1 9 8 3 7 7 2 4 6 2 9 9 3 7 7 2 12 9 3 15 11 4 21 14 6 33 19 8 37 20 9 13 9 4 4 6 1 7 8 2 10 9 2 5 6 2 8 9 2 
7 8 4 8 9 7 9 10 6 10 11 5 11 12 8 2 4 1 127 93 56 255 201 124 159 118 76 1 1 1 13 13 8 9 10 6 9 10 6 10 12 6 11 11 7 10 11 6 10 11 6 10 12 7 13 13 9 11 13 9 12 13 8 12 14 9 11 13 9 12 14 10 11 14 10 10 15 10 11 15 10 13 15 10 13 15 11 14 16 11 13 16 11 13 16 12 13 16 10 10 13 9 7 11 9 17 18 12 22 20 14 8 12 9 8 13 10 16 18 10 13 15 10 9 13 10 9 12 9 8 12 8 9 11 8 10 12 9 9 11 8 6 9 6 7 9 7 7 9 7 6 8 5 6 8 5 5 8 5 6 8 5 6 7 5 6 7 4 7 8 4 7 7 3 8 7 3 7 7 3 7 6 4 5 6 2 3 5 2 2 4 2 1 4 1 1 3 1 1 3 0 1 3 0 1 3 0 2 4 1 2 4 1 2 4 1 3 5 2 3 5 2 3 5 1 3 5 2 4 5 3 5 5 1 6 6 2 7 6 2 13 8 2 16 10 3 21 13 4 19 11 2 15 10 3 7 7 2 3 5 2 14 9 3 25 15 6 32 19 7 37 21 7 41 23 8 41 23 8 40 22 8 13 10 4 5 6 1 7 8 2 9 9 1 5 6 2 7 8 1 
7 9 4 8 10 7 11 12 7 16 13 8 17 14 7 19 17 8 172 125 77 245 177 108 186 136 85 9 9 6 17 15 8 16 14 7 14 13 7 13 12 7 13 13 6 13 13 8 15 14 7 16 15 8 3 6 1 7 8 4 15 14 6 13 12 6 12 12 7 14 14 8 15 14 8 12 15 8 12 14 9 12 13 8 12 13 8 12 13 9 13 14 9 13 14 9 13 14 8 13 14 8 12 13 9 12 14 9 12 14 8 10 12 8 10 13 9 11 14 9 11 13 9 11 13 10 10 12 8 10 12 9 9 11 8 8 10 7 7 9 6 7 10 6 7 9 6 6 8 5 6 8 5 6 8 5 7 8 5 6 8 5 7 8 4 7 8 5 9 9 4 9 9 4 7 6 3 4 5 3 3 5 2 3 5 2 3 5 2 2 4 1 2 4 1 2 4 2 2 4 0 1 3 0 2 4 0 2 4 1 2 4 1 2 4 1 2 4 1 3 5 2 5 6 1 6 6 3 7 6 2 8 6 2 9 6 3 9 6 2 17 9 3 19 11 3 19 12 3 19 12 3 15 10 3 7 7 2 3 5 1 14 10 4 35 21 7 28 17 4 26 14 4 25 14 2 24 13 2 38 23 8 14 11 4 6 7 2 8 8 3 10 10 2 5 6 2 8 8 1 
8 9 4 8 10 7 10 10 8 15 12 7 14 10 5 32 25 14 192 138 83 214 143 82 178 131 82 17 15 9 18 14 5 19 16 6 15 13 7 13 12 6 14 14 6 18 15 8 21 16 7 12 10 3 66 50 31 42 33 22 9 9 4 16 14 8 15 14 8 18 16 7 21 18 7 19 18 8 17 17 8 16 17 7 16 16 9 18 17 10 19 18 10 19 17 8 18 17 8 17 16 7 16 16 8 17 16 7 16 16 8 15 14 8 13 14 9 14 15 9 12 15 8 11 13 10 10 12 8 9 11 8 9 11 8 8 10 7 7 9 6 7 9 6 7 9 6 7 10 6 8 10 5 7 8 6 8 9 5 7 8 5 8 8 4 2 6 2 0 1 1 0 0 0 2 4 1 3 5 2 3 5 2 3 5 2 3 5 2 3 4 1 2 4 1 2 4 2 1 3 0 1 3 0 1 3 1 2 4 1 3 4 1 4 4 2 5 5 2 6 6 2 7 6 2 9 5 2 6 6 1 7 6 2 6 6 2 8 7 2 17 9 2 24 15 5 22 13 3 20 11 3 15 10 3 6 7 2 5 7 2 14 10 4 32 19 7 22 12 1 19 10 2 13 8 3 26 15 3 44 25 9 13 9 3 3 5 1 8 8 3 10 10 3 6 6 2 8 8 1 
7 8 5 7 9 7 7 9 6 9 10 6 4 6 3 41 33 18 216 152 93 205 121 68 165 121 76 16 14 9 10 10 4 11 12 5 10 11 6 11 12 8 12 12 7 15 14 7 5 8 3 89 73 49 250 184 114 199 149 94 16 13 7 13 13 7 14 14 8 17 15 6 19 16 7 17 16 7 16 16 8 18 18 9 17 16 8 21 18 7 23 20 9 16 18 7 17 16 7 20 16 6 18 17 7 23 19 8 21 19 8 16 17 8 13 14 9 13 15 9 12 15 9 10 12 9 10 12 8 10 12 7 7 10 7 7 9 6 8 9 7 8 10 7 8 10 7 9 10 7 7 9 6 7 9 6 7 8 5 7 7 3 2 4 2 18 12 7 64 37 21 56 39 25 5 7 5 2 4 1 3 5 2 3 5 2 3 5 2 2 5 1 2 4 1 2 4 1 2 4 1 3 4 1 4 4 1 6 6 1 6 5 2 6 6 2 6 5 1 6 5 1 5 5 1 6 5 1 7 6 2 10 7 2 8 7 3 9 7 1 17 10 1 25 15 5 23 14 4 20 12 4 18 12 4 9 9 3 3 5 0 12 9 6 42 26 16 19 9 3 15 8 4 18 10 4 26 15 2 46 26 9 21 15 8 16 13 7 6 7 1 10 10 4 5 7 1 7 7 1 
7 8 4 7 9 6 8 10 7 10 12 8 4 7 6 40 32 17 216 150 91 218 125 72 159 117 72 15 15 13 10 11 6 11 12 7 10 11 6 11 12 7 13 14 8 6 8 3 27 31 22 187 142 90 234 168 100 225 164 101 35 29 18 6 8 3 12 13 8 11 12 8 10 12 7 11 12 6 13 14 7 16 15 8 11 14 9 2 14 8 12 13 7 19 14 7 14 14 8 5 14 7 8 14 7 16 15 7 15 15 9 12 14 8 11 13 9 13 14 9 12 15 8 12 14 8 11 13 8 9 11 8 8 10 7 9 11 8 9 11 8 8 10 7 9 10 7 8 9 5 6 8 5 5 7 4 4 6 2 2 5 2 4 4 3 133 75 38 182 99 46 159 100 55 72 60 42 1 1 1 5 7 3 3 5 2 3 4 2 3 4 2 3 3 1 4 4 2 5 5 3 5 5 2 5 5 2 5 5 3 5 5 3 6 6 2 7 6 2 8 6 2 8 7 3 8 7 3 9 8 3 10 8 3 8 8 2 10 7 2 17 10 3 20 12 3 21 13 4 23 14 4 13 8 2 0 0 0 1 1 2 39 28 13 94 65 26 82 56 21 75 52 21 47 32 14 27 16 7 38 19 5 37 24 12 48 34 19 0 0 0 12 11 3 5 7 2 7 8 0 
8 8 3 5 8 5 6 9 6 8 9 5 3 6 5 35 27 14 210 145 88 224 130 74 154 113 69 12 14 11 7 10 5 9 10 7 9 10 7 10 11 8 11 12 8 2 7 5 90 79 53 217 156 93 209 137 77 196 144 87 22 21 14 9 12 8 13 15 10 13 14 10 12 14 10 12 13 9 13 12 10 5 14 11 23 14 9 96 16 6 140 18 2 154 18 1 145 17 3 107 17 4 38 13 6 4 13 9 11 14 9 10 14 9 9 13 9 12 15 10 13 16 10 11 13 8 10 12 8 10 12 9 9 11 8 9 11 8 8 10 7 7 9 6 6 8 5 4 6 3 1 4 2 1 4 2 3 5 2 0 0 1 50 29 16 181 109 51 174 107 47 145 93 44 134 106 69 49 35 23 0 0 0 6 7 4 5 6 3 6 6 2 4 4 2 3 3 1 3 3 2 4 4 3 5 5 4 5 6 2 6 6 2 7 6 2 8 7 3 8 7 3 8 7 3 8 7 2 7 7 3 8 7 3 7 7 3 10 6 1 19 11 4 21 13 3 25 15 6 14 7 2 43 28 14 108 73 31 120 82 34 115 78 30 125 85 33 115 78 24 110 76 25 115 79 28 94 65 25 47 31 15 75 50 21 82 57 24 26 19 13 11 10 4 6 7 2 7 8 1 
8 8 3 3 8 7 3 9 8 5 10 8 2 7 7 22 18 9 195 137 83 227 136 80 154 112 70 11 14 12 9 11 8 13 13 9 12 13 8 13 14 10 10 11 8 7 15 14 140 115 72 233 154 90 209 126 71 173 131 80 18 19 15 12 14 10 12 15 11 13 16 13 14 17 14 10 13 9 2 12 9 39 14 8 154 18 1 190 19 1 185 19 0 183 19 0 184 19 0 188 19 0 172 19 1 67 15 7 2 13 11 10 13 10 8 13 10 11 16 10 11 15 9 12 14 9 12 14 8 11 13 8 9 11 8 6 9 8 5 8 5 3 7 3 4 7 4 2 5 3 22 17 10 24 16 9 33 23 14 107 59 25 135 69 28 128 82 35 119 73 28 123 83 38 129 101 61 104 86 56 17 14 8 0 3 1 4 5 1 5 6 1 5 5 3 4 4 2 6 5 2 6 6 2 7 6 2 7 6 2 6 6 2 7 6 2 7 5 1 6 5 1 6 6 2 7 6 2 7 6 2 8 7 3 9 8 3 10 8 2 13 10 2 16 11 2 15 10 2 21 14 9 123 83 37 174 116 42 163 108 39 161 107 40 161 107 41 145 97 36 115 77 26 101 69 23 105 72 27 114 80 27 114 78 27 33 24 10 7 7 4 12 11 4 6 7 2 7 7 1 
9 7 3 3 8 8 3 9 9 4 9 9 2 9 10 8 9 6 167 121 73 229 144 86 159 114 70 11 14 11 4 10 6 10 14 10 16 17 10 19 19 11 14 13 7 33 37 28 176 135 82 235 142 82 211 139 81 148 113 71 10 14 11 22 23 18 10 14 11 7 12 8 10 14 10 6 14 9 21 13 8 154 18 2 187 19 0 174 20 2 173 20 2 177 19 0 176 19 0 175 19 0 180 19 0 161 17 1 44 13 7 4 13 12 12 15 10 13 18 12 12 17 11 12 15 10 10 13 8 6 10 6 4 7 7 3 7 8 3 7 5 4 8 4 0 7 3 12 11 7 44 26 15 28 18 10 53 36 20 136 74 29 90 52 22 121 76 32 147 87 36 125 78 32 97 67 38 127 105 67 92 72 44 28 27 18 15 15 9 7 8 4 4 4 3 5 3 2 6 5 3 5 5 3 4 5 3 5 4 3 5 5 3 5 6 2 6 6 1 7 6 2 8 6 3 7 5 3 8 7 3 8 7 3 8 7 2 6 5 1 9 6 2 14 11 3 5 3 0 74 51 24 143 96 43 159 106 39 155 103 38 140 92 34 158 106 38 160 106 40 161 107 40 100 69 24 32 23 12 84 59 26 98 68 26 71 50 23 2 4 1 11 11 2 6 7 2 7 7 1 
7 7 3 3 8 8 3 9 9 3 9 9 4 10 10 0 3 4 130 96 55 230 152 91 165 118 73 16 18 12 1 7 4 6 11 7 9 13 9 18 18 10 14 14 6 60 57 38 206 149 90 226 133 77 212 150 90 97 75 48 8 14 13 22 24 19 23 25 19 16 19 14 12 15 8 0 13 9 95 16 4 190 21 2 175 13 0 152 57 42 175 37 20 178 16 2 177 22 4 177 21 3 174 19 1 161 29 12 118 16 4 7 14 10 12 17 11 13 17 11 9 14 10 5 9 9 3 7 5 3 8 4 3 8 4 3 8 4 4 8 4 2 8 5 11 6 5 79 33 19 61 36 20 31 24 13 71 48 24 125 69 24 77 49 22 102 64 26 129 77 32 106 66 28 77 55 31 114 77 40 84 58 29 43 34 19 27 23 12 26 21 12 20 19 11 10 10 7 2 2 1 3 2 0 5 5 3 5 5 3 5 6 2 5 6 2 5 5 2 7 6 2 11 8 3 15 9 3 3 3 1 3 2 0 5 2 1 4 1 0 11 7 3 15 11 4 3 2 0 77 51 23 137 92 40 151 101 37 117 79 41 161 113 66 150 100 38 156 103 36 164 109 40 135 91 37 4 4 3 0 0 4 2 3 3 26 19 11 10 9 4 9 10 1 6 7 2 7 7 2 
7 7 3 3 8 9 4 8 9 4 9 8 7 11 10 0 2 3 93 68 37 222 154 93 175 124 75 23 23 16 1 7 4 6 11 6 5 10 7 9 12 9 6 12 7 86 77 50 225 154 91 217 135 79 194 145 90 27 23 15 5 12 9 18 22 18 22 25 21 23 25 20 20 23 18 17 14 9 150 18 2 193 21 2 96 11 1 109 106 96 189 69 50 176 1 0 181 10 0 183 10 0 182 18 0 129 67 56 114 18 5 32 12 7 3 10 8 5 9 4 2 8 6 4 8 8 4 8 7 4 9 5 4 9 5 4 8 4 5 8 4 0 3 3 91 39 19 140 61 31 43 30 17 31 23 13 76 49 23 129 72 24 80 53 24 81 51 21 88 57 23 69 47 21 78 53 26 97 62 28 52 38 21 35 25 12 29 22 11 32 22 11 30 23 12 25 27 18 24 29 21 9 13 10 2 2 1 3 4 2 5 4 2 14 10 3 21 13 4 29 17 3 39 24 4 43 25 6 5 3 1 3 2 1 6 2 1 5 2 1 12 8 3 16 11 3 11 6 1 43 28 12 137 93 42 112 76 31 109 76 41 212 149 86 141 97 55 131 90 48 155 103 40 151 102 38 9 8 5 39 28 18 42 31 20 0 0 0 6 7 2 11 11 2 6 7 1 7 7 1 
11 9 4 4 7 8 4 9 6 5 10 6 8 12 8 3 9 6 56 40 22 217 158 96 221 163 100 35 32 20 3 9 5 8 12 7 7 11 8 9 12 8 1 8 7 120 100 64 229 153 89 217 150 89 136 103 63 2 6 3 13 17 13 8 13 9 17 23 19 18 21 18 14 23 20 50 22 15 181 17 0 146 24 8 11 16 10 116 107 97 205 127 108 151 48 46 139 104 112 139 71 76 172 46 29 124 107 99 60 13 7 53 10 5 0 6 8 4 8 4 3 7 3 6 7 4 5 7 6 5 8 5 5 8 5 7 8 5 1 4 3 28 14 7 160 73 29 143 63 32 36 23 14 29 21 11 84 55 25 138 76 25 68 50 25 109 83 42 74 47 17 80 52 20 79 52 21 57 45 22 37 29 14 33 25 13 34 25 14 31 24 13 37 29 14 95 40 19 114 46 26 95 50 37 5 6 4 0 0 0 7 5 2 27 17 6 28 17 4 30 17 3 30 17 2 29 17 2 6 4 2 3 2 1 6 2 1 6 2 1 12 7 2 17 12 2 26 17 5 11 6 1 78 53 30 83 57 29 67 47 24 152 106 62 134 94 52 131 92 55 142 98 56 131 87 41 20 15 11 137 96 58 108 76 48 1 1 1 8 9 3 10 10 2 6 7 0 7 7 1 
17 12 4 14 14 7 4 10 6 7 12 8 9 14 9 12 16 10 26 22 9 181 131 77 255 191 119 55 46 27 0 1 0 2 10 7 0 2 2 0 0 0 0 8 8 162 125 79 226 158 93 205 152 92 53 42 24 14 16 11 19 20 13 14 18 11 11 16 10 14 17 12 12 25 22 62 20 14 190 18 0 82 26 15 17 27 22 48 41 34 206 160 149 152 159 170 100 172 208 82 150 184 182 147 143 100 83 80 35 12 6 58 11 6 0 7 7 5 8 4 7 11 7 9 11 7 10 12 8 9 11 8 8 9 6 7 8 5 0 2 1 55 25 11 180 70 30 137 57 29 40 29 15 34 26 13 75 52 23 137 76 27 51 34 14 130 102 58 93 70 33 68 49 20 60 47 22 40 32 16 34 26 13 35 26 14 35 26 15 29 26 13 106 50 23 177 61 29 151 49 23 140 52 27 70 32 23 0 0 0 9 6 2 26 17 6 25 16 4 28 16 5 31 17 2 30 18 3 7 5 2 3 2 0 6 2 0 6 2 1 11 7 2 16 12 2 24 15 5 18 11 3 16 10 3 28 21 13 0 0 1 118 88 61 210 149 84 185 137 87 225 160 90 173 123 71 21 16 11 111 79 48 37 26 17 3 4 1 7 8 2 10 10 2 6 7 1 7 7 1 
17 15 8 21 21 11 7 11 7 8 13 8 11 16 9 18 22 11 12 18 8 108 80 46 207 163 106 144 126 88 142 124 86 178 145 98 171 138 90 123 96 64 75 66 46 210 161 100 251 186 114 134 102 63 4 8 7 24 24 15 21 21 15 19 20 14 17 20 14 11 14 8 1 13 11 68 20 12 185 19 0 57 27 17 26 28 26 22 42 14 103 132 66 194 175 165 75 138 176 134 154 173 175 155 126 41 69 32 38 16 12 56 14 6 2 12 9 5 9 5 10 13 7 14 14 9 13 13 9 11 11 7 8 9 7 7 8 5 0 2 1 45 25 13 154 58 26 142 55 27 42 32 16 31 24 12 53 39 17 142 81 28 57 40 15 102 50 24 157 67 36 75 41 21 40 35 19 36 29 16 35 29 15 35 27 14 34 26 14 39 32 16 155 63 29 184 69 33 185 89 36 159 71 27 134 58 32 45 22 18 5 4 1 28 17 6 26 16 4 29 17 5 30 17 2 31 18 2 11 6 2 3 1 0 6 2 0 6 2 1 10 7 2 15 11 3 23 14 5 19 11 2 17 11 3 7 6 2 0 0 0 90 65 41 236 166 92 216 152 83 235 164 87 185 131 71 35 26 18 53 38 24 0 0 0 9 9 3 6 7 1 10 10 3 6 7 2 6 6 1 
8 7 2 3 9 5 7 12 8 9 14 10 13 18 11 17 21 9 20 27 16 84 86 64 133 115 78 167 132 84 181 137 86 211 156 94 255 191 116 255 199 122 246 189 118 247 189 115 224 167 102 41 35 21 9 15 9 16 17 11 22 22 15 22 22 15 21 21 12 17 17 11 2 14 11 53 14 9 184 19 1 64 29 19 23 27 25 33 41 21 2 91 0 93 113 72 178 169 176 157 140 134 45 105 23 16 65 13 48 12 12 42 10 4 0 10 7 6 10 6 10 12 7 11 14 8 10 12 8 8 10 7 6 8 5 4 6 3 2 4 3 91 54 25 153 91 36 153 77 35 54 35 19 31 24 12 46 35 18 132 79 29 84 51 18 53 36 17 110 51 25 63 42 20 32 29 13 37 31 15 35 29 15 34 28 14 33 28 14 38 33 16 147 62 28 187 74 35 194 97 36 161 72 26 153 71 28 119 55 39 21 12 7 25 15 4 26 16 5 28 17 4 28 16 2 31 18 3 14 8 3 3 1 1 6 3 1 5 2 1 10 6 1 16 10 2 23 14 5 19 11 4 17 11 3 9 8 3 2 3 1 111 81 52 207 146 82 231 161 84 236 164 87 168 118 68 4 4 4 40 31 20 5 6 1 8 7 2 6 7 2 10 9 4 7 7 2 6 7 1 
10 8 3 6 10 6 7 12 8 10 15 10 13 18 11 18 21 11 39 50 39 76 67 45 103 76 42 151 109 62 146 106 67 141 105 64 234 175 104 239 180 107 252 190 116 255 199 124 213 163 101 18 20 10 17 22 10 19 22 13 13 16 12 18 20 13 21 23 15 22 22 15 11 20 14 30 16 11 177 17 0 100 34 24 22 31 27 29 27 23 61 24 19 92 21 9 182 105 90 106 43 30 22 21 12 18 21 21 59 14 8 21 8 5 0 9 5 22 26 20 13 16 11 6 10 6 7 9 6 4 7 4 4 6 2 0 3 1 19 13 6 120 70 30 153 93 37 168 106 45 78 52 26 26 19 10 42 32 18 104 72 30 121 67 21 37 28 13 28 29 16 34 30 15 37 30 14 36 30 14 37 31 15 36 29 15 33 27 15 32 29 15 132 55 25 179 68 30 178 72 32 175 81 32 135 54 20 115 44 28 47 25 16 19 12 1 26 16 5 27 16 3 28 16 2 30 18 3 18 11 3 4 1 1 7 2 2 6 2 1 10 7 1 16 10 3 23 13 5 17 10 3 17 10 3 8 7 3 5 7 2 0 0 0 155 109 65 216 152 86 225 157 85 188 131 75 83 61 40 41 30 19 2 3 0 8 8 2 6 7 2 9 8 3 6 7 2 6 7 1 
11 8 3 8 11 7 8 13 9 11 15 9 12 16 9 26 30 19 29 30 19 46 30 13 86 63 34 133 97 56 174 130 78 175 132 78 178 135 77 202 156 91 187 137 79 224 169 99 245 188 114 60 49 30 10 15 7 20 22 11 15 18 11 20 20 12 41 28 13 31 22 10 29 21 11 22 19 10 149 16 1 157 29 11 29 39 32 84 25 13 184 17 0 187 15 0 170 11 0 171 11 0 108 22 10 24 18 13 65 13 6 2 8 6 3 8 4 27 33 26 14 17 12 6 7 5 7 7 4 5 6 3 5 6 3 0 1 0 44 27 13 133 80 35 147 91 36 160 100 38 85 56 25 24 20 10 32 25 13 60 48 23 141 82 27 98 58 20 34 29 17 43 34 18 39 32 17 40 32 17 39 32 16 40 33 17 41 34 17 41 36 18 124 49 23 174 62 27 150 57 26 128 64 27 112 61 25 107 60 31 61 31 18 18 12 1 25 16 3 27 16 2 29 16 2 29 17 2 21 13 3 4 1 1 6 3 1 7 2 1 10 6 1 16 10 3 21 13 5 17 11 3 16 10 3 7 7 3 6 7 2 3 3 1 89 65 46 180 129 82 212 148 81 247 173 94 152 107 64 23 19 19 7 9 4 7 7 1 6 7 2 9 8 3 6 6 2 6 7 1 
7 7 3 1 7 7 2 10 9 4 11 8 7 14 9 21 24 14 26 19 5 31 21 6 62 44 21 131 98 55 105 79 45 76 58 31 107 83 46 120 94 52 168 134 79 162 129 73 181 142 82 140 113 69 3 10 4 17 20 12 13 18 12 15 15 9 21 13 2 25 18 2 29 17 3 16 16 2 90 16 2 196 19 1 86 33 20 141 20 6 189 29 10 177 36 16 172 29 11 166 30 12 117 18 4 75 14 4 36 12 6 1 10 6 5 8 5 25 30 23 14 16 12 7 7 6 8 7 4 7 6 5 7 7 4 1 2 1 75 45 21 131 79 32 137 85 33 146 93 36 74 49 21 22 16 8 38 27 13 39 32 17 102 68 26 145 79 23 61 45 21 44 39 21 50 42 21 50 41 22 46 39 19 43 36 19 40 33 17 37 33 14 118 41 18 149 60 28 160 106 44 170 113 45 144 88 36 132 85 44 84 61 36 14 8 0 25 17 4 26 15 3 26 15 3 26 16 3 22 14 4 6 3 1 6 3 1 7 2 1 9 6 1 15 10 2 19 13 4 17 11 3 16 10 3 6 7 2 6 6 1 3 5 1 22 18 11 213 150 85 204 144 79 108 78 51 88 63 42 58 48 46 20 21 25 4 4 0 4 4 0 10 9 4 5 6 1 6 6 1 
21 14 5 44 27 12 43 27 13 42 27 12 38 25 11 19 17 8 31 20 6 34 21 5 33 20 5 112 83 46 137 104 66 144 112 72 113 82 52 107 78 49 109 82 51 89 69 46 98 80 44 96 79 44 4 11 8 13 17 14 10 15 12 10 12 6 13 10 2 24 19 4 27 20 3 23 19 3 31 19 3 152 19 2 177 21 3 164 12 0 203 116 94 218 168 145 218 163 139 199 127 104 122 12 0 67 16 10 7 16 13 12 14 11 11 14 10 9 10 8 8 11 7 9 9 6 9 7 4 8 7 5 6 6 4 10 9 5 93 57 25 119 74 29 127 79 31 133 82 33 71 45 20 33 26 13 34 26 13 31 23 11 47 39 19 128 84 31 116 64 20 43 33 16 30 28 15 35 30 13 33 27 13 29 23 11 31 25 12 24 20 10 89 42 19 173 114 47 187 128 50 175 114 44 154 97 38 131 78 35 90 69 40 12 9 0 22 15 3 23 14 4 22 14 3 23 13 3 23 14 4 9 4 1 6 2 1 8 3 1 9 6 2 14 10 2 19 13 4 17 10 2 15 10 3 5 6 2 4 4 1 7 8 2 1 3 0 31 25 16 10 8 6 22 25 35 47 45 49 39 38 43 49 48 55 39 38 44 15 15 15 5 5 0 5 7 2 6 6 1 
26 14 4 57 33 8 60 33 9 66 39 9 74 46 10 29 21 5 17 16 8 39 24 7 37 23 6 37 25 7 60 43 18 74 57 24 88 70 34 105 85 42 120 98 53 130 106 62 160 129 76 53 45 26 3 10 8 10 14 10 8 14 10 11 12 7 15 9 1 15 14 4 17 15 4 18 14 4 13 15 4 41 14 3 163 19 2 192 20 2 186 63 43 182 79 60 177 88 69 152 62 45 73 10 7 11 13 16 27 20 11 21 18 11 10 15 14 6 11 9 7 9 6 9 10 5 8 7 4 8 7 5 7 7 5 8 6 4 91 55 25 122 76 31 137 87 34 143 88 36 87 55 23 23 19 8 44 34 16 31 23 12 33 26 13 65 52 25 138 86 33 124 70 24 57 41 17 40 32 15 35 27 15 27 22 11 23 21 9 9 11 5 102 68 27 189 128 48 181 123 47 178 119 47 160 103 42 133 79 33 93 68 39 12 10 1 18 13 1 18 12 0 18 12 0 19 13 1 23 14 3 13 6 2 6 1 1 7 3 1 9 5 2 14 9 2 20 12 3 15 10 2 13 10 2 6 7 2 3 4 1 6 6 2 11 9 4 17 10 2 20 14 11 48 46 52 49 48 54 48 47 53 43 41 48 49 48 54 47 46 52 16 16 18 1 2 0 6 7 1 
15 9 1 19 16 2 18 16 1 22 19 1 47 37 6 35 28 4 9 13 8 18 17 9 32 22 7 36 23 7 29 19 4 28 21 3 29 22 3 34 30 5 42 37 10 49 43 14 46 41 20 9 13 10 7 12 8 7 12 8 7 13 9 10 11 6 19 10 2 12 13 10 12 14 12 5 6 4 13 11 7 7 14 10 33 14 8 111 7 0 151 18 3 133 13 0 125 1 0 99 16 6 27 37 39 19 28 31 18 19 17 16 14 12 8 12 11 6 12 11 8 10 8 9 10 5 8 7 3 8 7 5 9 7 5 0 2 2 59 37 18 124 76 33 141 90 36 152 94 37 115 71 31 20 16 7 38 31 15 44 35 17 31 21 11 38 29 14 59 49 23 111 70 27 117 67 24 66 42 17 51 34 14 61 40 16 64 41 17 64 39 16 91 59 24 175 117 47 181 122 50 180 121 48 162 107 41 137 84 36 84 59 33 10 9 1 18 14 2 16 14 1 16 13 1 18 13 1 21 14 2 17 11 2 5 2 1 6 2 1 10 5 2 14 8 3 19 12 3 14 10 2 13 9 2 5 6 2 4 4 1 5 6 2 13 9 4 31 18 6 25 18 16 43 42 49 43 42 47 48 49 51 43 44 46 40 39 46 50 48 55 48 47 53 18 18 19 1 2 0 
16 9 1 20 15 1 20 16 1 20 16 1 18 14 1 15 13 1 12 14 8 10 14 10 8 13 7 20 23 15 70 63 41 59 43 19 44 31 13 14 13 3 13 14 5 15 17 10 2 8 6 6 11 7 7 12 8 6 11 7 7 13 9 11 13 9 24 14 5 16 17 13 14 16 13 6 8 4 15 15 10 14 14 8 21 20 13 115 86 73 214 154 138 151 46 33 144 14 3 136 20 6 40 19 9 25 50 60 24 40 50 0 5 7 8 13 11 8 11 10 8 10 7 9 9 5 10 7 3 9 7 4 9 7 5 1 3 2 31 22 10 118 72 32 139 89 35 161 102 41 135 84 37 38 27 13 20 17 8 51 43 22 46 37 18 33 26 12 76 48 23 140 87 40 53 34 14 22 14 7 25 18 8 58 38 16 93 55 25 116 74 35 167 111 60 171 117 60 175 117 61 173 113 54 159 107 44 141 90 37 75 49 25 4 3 1 12 8 2 10 8 1 10 7 1 10 8 2 11 7 2 11 7 1 6 3 1 6 2 1 10 6 2 13 8 2 18 12 2 14 9 3 13 9 2 5 6 1 3 4 1 5 5 1 12 9 4 28 16 3 32 29 23 81 89 77 79 88 74 86 96 81 86 97 82 53 57 51 33 32 38 51 50 56 48 46 52 22 21 24 
13 8 1 11 9 1 10 10 2 10 11 2 10 10 1 10 9 1 10 13 7 10 15 9 4 8 4 40 47 35 195 161 106 176 133 78 167 131 77 108 85 52 52 47 34 0 0 0 5 10 6 8 13 8 6 11 7 8 13 9 12 17 13 15 18 13 26 15 5 17 17 11 10 13 9 8 9 4 14 15 8 21 16 9 187 130 115 237 180 162 175 61 46 165 13 0 156 19 3 157 19 2 131 12 0 59 52 61 18 36 45 5 8 6 10 13 10 6 10 10 8 9 7 9 9 5 11 6 3 9 7 5 8 7 5 3 4 3 19 15 8 111 68 29 137 88 36 105 68 29 104 65 28 60 38 16 19 17 7 33 28 13 51 42 21 104 71 31 163 104 41 169 106 42 94 59 26 23 14 6 23 16 7 58 40 19 141 83 39 54 35 17 155 108 59 162 112 60 152 104 57 150 98 52 138 87 41 133 83 37 86 54 30 0 0 1 2 1 1 2 0 1 3 0 1 2 0 0 3 0 0 2 0 1 3 2 1 5 2 1 8 6 2 13 9 2 18 11 2 13 9 3 13 8 2 5 6 1 3 4 1 5 5 1 12 9 4 24 12 2 45 45 39 94 106 90 90 101 84 88 99 83 95 107 89 66 72 60 11 6 6 45 45 51 47 48 56 49 49 57 
13 8 1 7 8 4 7 8 5 7 8 5 7 7 5 12 8 2 8 12 7 8 13 8 0 5 2 89 87 61 234 184 112 190 142 79 234 181 105 147 111 61 157 120 69 129 103 68 17 18 13 0 0 0 9 14 9 5 11 8 9 16 13 19 21 15 27 16 5 14 13 7 11 11 7 12 11 8 3 6 0 98 67 56 248 188 169 208 156 138 167 15 0 174 19 1 172 19 1 174 20 1 163 16 0 110 26 20 14 22 23 5 9 7 7 10 10 6 9 11 7 9 7 9 9 5 11 6 3 8 7 4 8 7 5 3 5 3 15 13 7 102 62 27 57 35 15 103 61 27 120 93 52 32 25 12 26 21 8 23 21 10 42 31 14 151 97 39 168 109 42 162 99 40 137 84 35 34 22 9 26 17 7 23 17 6 133 79 35 81 48 19 74 50 26 147 98 53 124 82 43 118 73 35 108 63 28 112 62 26 102 68 38 3 3 4 3 0 1 5 0 0 5 0 0 5 0 0 5 0 0 5 0 0 1 0 1 2 2 1 9 6 2 12 9 3 17 10 2 13 8 2 12 8 2 5 6 1 3 4 1 5 5 1 11 8 3 23 11 4 58 62 54 90 102 85 84 94 79 85 95 80 93 104 88 64 71 60 18 6 0 40 27 18 56 42 34 42 34 31 
13 7 2 9 10 5 11 12 7 12 13 7 11 12 6 15 9 2 14 13 6 16 12 6 11 17 11 96 92 64 190 154 99 189 151 97 217 172 107 124 98 58 85 65 36 160 127 74 175 148 102 54 49 37 14 17 13 42 42 31 31 31 23 0 0 0 9 3 0 15 12 4 16 11 6 15 10 5 13 8 3 45 31 28 162 127 118 180 129 114 174 21 3 175 20 1 170 20 1 165 20 2 159 18 1 89 15 6 3 11 12 8 11 9 8 11 8 5 9 8 6 9 6 10 9 6 11 7 3 8 7 4 8 7 5 3 4 3 16 13 7 48 29 13 80 50 25 158 103 41 157 119 58 82 57 28 159 105 49 33 28 15 63 42 18 167 110 46 146 99 37 144 95 35 157 98 41 106 64 28 15 11 2 20 13 5 64 39 18 55 32 14 37 23 9 113 67 31 105 59 25 104 56 23 109 58 24 120 64 28 58 35 18 2 1 1 6 3 2 6 1 0 6 0 0 6 0 0 5 0 0 5 0 0 2 0 0 1 1 0 9 6 3 13 8 2 17 10 2 13 8 3 12 8 2 5 6 1 3 4 2 5 5 2 12 9 3 20 12 6 85 92 77 127 141 116 121 134 110 101 112 93 91 102 86 62 69 57 19 10 0 33 21 3 30 16 1 21 10 2 
14 9 1 17 15 4 19 16 5 18 15 4 20 17 6 23 16 6 17 11 4 17 16 9 42 48 36 51 39 21 39 27 10 77 63 40 132 117 84 207 171 112 242 195 120 187 151 87 219 180 108 181 159 109 97 97 71 229 193 122 173 142 86 144 119 76 80 61 38 7 6 4 12 13 7 13 14 5 19 19 7 9 11 2 0 0 0 4 1 2 93 10 1 151 15 0 155 16 0 161 17 0 133 14 0 24 10 6 0 8 9 5 8 6 6 9 5 5 8 7 6 8 6 6 8 3 8 6 1 7 6 2 6 6 3 6 6 3 3 5 1 54 32 11 163 97 40 143 92 32 125 87 30 95 61 26 168 111 44 57 43 16 92 65 24 149 104 38 157 108 41 156 105 39 143 95 35 150 94 39 83 50 24 16 10 2 16 9 1 11 6 0 30 18 6 108 58 25 113 60 22 112 59 24 97 51 23 42 21 12 0 0 0 0 0 0 0 0 0 0 0 0 1 0 0 3 0 0 4 0 0 3 0 0 0 0 0 0 0 1 10 7 4 13 9 1 16 10 3 13 8 3 12 8 1 6 6 1 4 5 2 4 4 1 5 2 0 32 28 22 122 132 112 117 129 107 112 124 102 130 142 117 105 117 98 54 60 49 33 25 0 32 27 6 14 10 2 22 15 12 
14 8 1 11 8 3 11 8 3 9 6 2 18 11 7 24 15 8 9 8 3 20 29 21 39 38 25 72 51 27 98 75 42 68 52 25 35 27 13 82 59 31 138 106 61 191 151 90 217 175 100 185 157 90 25 23 11 146 121 68 140 117 64 205 170 96 233 189 112 89 74 34 63 59 13 77 70 21 58 51 15 53 46 16 33 25 15 25 19 14 25 21 16 43 23 16 67 28 18 80 28 15 75 39 24 59 44 31 65 46 32 65 47 33 66 49 32 65 49 32 68 51 33 74 55 38 76 55 40 70 52 38 69 52 40 67 49 39 57 40 32 75 53 39 81 56 39 80 56 37 70 49 31 56 40 29 59 43 27 49 37 24 72 50 27 133 93 37 99 70 27 83 53 22 153 107 43 133 87 34 93 52 22 17 10 2 26 16 8 29 19 13 38 24 16 54 32 18 46 28 15 46 28 15 20 12 9 15 14 8 40 31 17 50 34 20 40 27 17 27 19 11 12 8 6 10 7 5 9 6 5 8 7 5 6 5 4 3 2 2 7 5 1 11 8 1 15 9 3 11 8 1 8 6 0 2 4 0 1 3 0 10 11 9 15 13 17 53 53 48 97 103 89 74 78 69 102 111 93 140 155 125 125 137 115 47 52 43 21 15 0 24 21 6 15 9 2 26 17 13 
15 8 2 13 8 2 14 10 4 13 8 1 27 16 9 29 18 9 19 13 7 20 16 7 28 19 6 45 33 15 83 62 31 113 88 48 58 44 20 18 9 0 20 10 0 110 84 47 123 98 52 125 102 56 32 23 12 39 30 13 65 54 27 80 65 30 98 78 37 79 61 35 69 53 32 79 59 38 76 57 36 69 51 35 57 42 29 63 50 32 62 47 28 56 44 26 61 51 30 71 62 36 81 69 41 96 75 44 94 74 41 92 75 40 90 74 34 85 73 33 81 70 31 87 73 38 97 80 46 87 74 40 75 68 32 66 63 27 61 60 25 57 58 27 51 54 26 45 47 23 39 42 19 39 41 18 38 40 18 54 50 27 58 51 29 66 54 29 48 40 22 43 35 17 70 54 20 42 32 14 37 29 13 37 30 15 42 34 18 38 32 16 38 32 16 56 42 25 94 67 39 89 71 39 87 62 34 70 55 26 76 58 26 74 54 28 90 61 35 83 61 34 84 68 37 63 49 29 30 22 12 31 21 12 28 17 9 29 19 10 32 21 11 35 23 13 32 22 12 30 22 11 28 21 11 21 16 9 25 22 19 39 36 40 40 41 41 71 75 67 77 84 75 79 85 75 75 81 71 95 105 88 135 149 124 39 41 34 9 4 0 11 10 4 16 8 3 22 15 11 
13 8 1 9 8 4 8 8 7 9 5 2 29 18 10 32 18 11 17 12 8 6 8 6 33 21 8 33 22 8 32 22 9 23 15 6 22 17 10 21 16 10 25 19 14 26 18 13 34 24 14 30 21 10 41 31 21 45 33 22 40 30 20 47 37 22 61 49 31 72 58 36 69 57 32 57 50 26 52 46 22 46 42 19 34 34 12 32 32 8 35 34 6 35 34 6 35 33 4 36 34 4 34 34 4 32 33 2 37 38 5 47 47 9 49 50 9 45 48 7 41 47 7 44 48 8 38 43 6 33 41 4 35 45 3 41 50 4 43 52 7 43 52 7 41 50 6 42 51 7 43 49 7 42 49 6 45 51 8 43 49 8 42 48 7 37 43 7 39 44 9 33 37 7 30 34 7 37 39 9 35 38 9 39 41 10 35 37 6 41 40 9 69 53 29 104 69 35 122 76 35 80 60 33 66 43 24 70 53 26 70 53 27 71 52 29 81 51 22 87 60 31 65 47 21 52 36 21 84 64 43 97 71 49 88 66 45 58 44 24 44 31 13 46 32 14 41 27 12 43 28 12 56 36 14 57 38 16 60 40 18 53 37 19 55 43 26 56 48 34 53 50 42 64 65 65 88 92 86 70 74 69 79 85 79 28 25 20 13 6 0 15 9 4 23 12 4 14 9 7 
14 8 2 13 13 6 23 21 8 20 15 5 26 15 9 52 38 13 52 43 7 36 33 10 21 14 5 22 14 4 24 16 7 27 18 8 28 20 10 27 20 10 32 22 14 40 27 18 28 21 12 24 26 8 25 30 6 24 30 6 24 32 8 25 34 10 28 34 11 26 32 11 20 28 8 25 31 9 36 37 11 42 39 12 41 39 10 40 37 8 38 37 7 37 36 8 36 36 7 36 37 6 35 36 7 34 36 7 32 34 5 32 35 5 31 35 5 27 32 4 36 40 8 45 46 13 29 34 7 37 43 10 47 53 15 66 63 19 75 70 22 82 75 23 87 79 27 93 82 25 94 82 24 90 80 25 88 78 24 84 76 23 77 70 20 72 70 21 73 72 26 48 51 11 61 63 18 71 70 18 43 48 7 45 50 8 51 55 10 55 58 11 54 56 14 82 70 26 80 68 23 56 53 16 45 41 12 54 49 15 58 53 16 48 41 15 67 54 25 77 66 28 65 58 21 37 39 12 57 64 22 66 74 29 61 72 26 47 62 15 39 56 10 43 60 13 41 57 12 60 47 19 83 51 28 59 39 18 58 40 19 57 42 25 53 39 27 48 33 24 42 31 24 38 29 24 41 35 39 103 109 100 56 60 56 2 0 0 7 6 2 17 10 4 25 14 6 4 3 2 
20 13 4 55 44 11 67 52 10 44 31 7 21 10 7 58 46 12 66 55 7 47 38 7 6 4 1 9 6 0 9 6 2 9 6 1 11 8 2 13 9 3 15 10 4 19 13 6 20 15 7 20 15 7 21 17 8 23 19 9 21 18 7 21 20 8 25 23 12 30 27 15 35 32 19 43 39 19 46 42 20 46 42 21 47 44 21 48 44 20 47 44 21 48 46 21 48 45 16 41 41 9 36 39 8 36 38 9 38 40 9 36 39 7 33 38 7 31 36 6 28 35 6 28 35 6 30 38 6 33 42 7 36 46 8 33 45 7 32 47 8 32 44 7 31 42 6 30 41 6 30 43 8 33 45 7 34 46 7 37 50 8 42 55 10 42 56 8 42 55 9 39 53 8 37 49 7 38 49 8 42 52 8 43 52 7 48 57 9 54 60 12 59 64 10 57 65 9 62 67 12 70 71 14 84 79 22 86 81 31 92 85 39 99 90 45 101 91 48 101 89 50 101 88 50 94 82 45 77 70 38 67 63 37 62 58 31 57 54 24 51 50 23 50 47 24 52 45 26 62 46 34 61 43 36 53 39 33 48 36 31 44 34 29 43 34 30 49 37 32 46 35 30 37 29 25 17 12 7 32 31 19 37 36 23 15 12 3 19 14 4 17 13 3 22 13 5 6 5 2 
15 8 0 13 6 0 11 5 1 11 4 0 23 13 6 16 9 6 10 5 1 17 10 3 3 2 2 0 0 0 0 0 0 0 0 0 0 0 0 0 0 0 0 0 0 0 0 0 1 1 0 3 2 1 4 2 2 6 3 2 8 4 3 9 6 4 10 7 5 12 8 6 13 9 7 12 9 6 11 8 6 14 10 8 17 12 9 19 14 11 20 15 12 20 15 11 24 17 12 24 20 13 24 20 13 26 21 13 28 22 13 28 22 13 26 23 13 26 22 11 26 23 11 28 24 13 28 24 13 28 25 13 27 24 12 29 25 12 32 28 15 34 29 17 34 30 16 35 30 15 37 31 18 36 32 17 34 30 15 33 30 14 34 30 15 35 31 15 36 31 16 34 30 16 31 28 15 33 28 16 36 31 17 39 33 19 41 34 20 44 36 24 50 39 26 50 41 27 53 42 28 53 41 29 55 43 31 58 46 34 65 50 39 68 52 41 69 52 41 76 55 45 82 60 49 77 56 48 79 57 51 74 55 48 70 52 46 62 45 41 53 40 38 54 41 37 54 40 37 53 40 35 50 37 34 47 35 31 41 32 28 36 28 23 30 23 18 19 15 14 12 9 10 11 9 8 29 29 31 24 24 24 1 0 0 8 7 2 8 5 1 15 9 3 13 8 4 3 3 1 
15 8 1 13 8 2 14 9 3 14 9 3 12 7 3 13 7 3 14 7 1 12 5 1 7 4 2 4 3 1 0 0 0 0 0 0 0 0 0 0 0 0 0 0 0 0 0 0 0 0 0 0 0 0 0 0 0 0 0 0 0 0 0 0 0 0 0 0 0 0 1 0 1 1 0 2 2 1 2 2 1 3 3 1 3 3 2 4 3 3 5 4 3 6 5 3 8 6 5 9 6 5 10 7 6 10 8 7 11 8 8 13 8 9 12 8 9 11 8 9 10 8 8 11 10 8 14 11 9 16 12 11 17 12 12 19 13 12 20 14 13 21 16 15 22 16 16 24 18 18 26 18 18 28 21 21 30 23 22 30 23 21 28 21 19 32 23 21 37 27 25 41 31 28 45 36 32 50 39 35 55 42 38 62 47 43 71 55 49 76 59 53 81 65 58 85 69 61 96 76 68 96 77 70 85 68 60 84 69 58 94 77 67 97 79 69 102 82 72 100 80 69 95 76 66 93 76 67 83 67 60 70 57 51 62 51 45 49 40 34 36 29 25 31 26 21 26 22 18 18 15 14 13 10 9 11 9 8 8 8 8 8 8 7 1 2 2 38 27 20 48 34 24 1 0 0 58 57 65 31 30 33 6 4 1 10 7 3 9 4 2 20 12 5 12 8 3 0 1 0 
14 9 1 10 9 4 16 15 7 20 17 7 10 9 5 12 7 3 16 12 7 9 5 1 15 11 5 9 8 4 6 6 5 0 0 0 0 0 0 0 0 0 2 1 1 7 6 5 8 6 6 8 6 6 9 7 5 9 6 5 8 5 4 5 3 3 3 2 1 1 1 0 0 0 0 0 0 0 0 0 0 0 0 0 0 0 0 0 0 0 0 0 0 0 0 0 0 0 0 0 0 0 0 0 0 0 0 0 0 0 0 0 1 0 1 2 1 1 2 1 2 3 1 2 3 1 4 4 2 5 4 3 6 5 3 6 5 4 7 6 4 8 8 6 9 8 7 11 9 8 12 11 10 16 13 12 18 15 13 19 16 13 18 15 12 21 18 14 24 20 16 26 21 17 27 23 18 28 24 19 30 24 20 32 25 22 36 29 26 38 30 26 34 28 24 34 29 25 36 28 25 30 26 22 25 21 18 22 18 16 22 19 17 18 15 14 13 12 11 9 9 9 5 5 5 2 3 2 0 2 2 1 1 3 4 3 2 7 5 3 11 7 6 15 10 7 22 14 10 32 22 15 45 29 19 45 29 19 46 30 21 50 32 20 55 37 25 184 133 84 131 91 57 2 0 0 25 23 25 1 0 0 6 4 0 8 5 2 8 5 2 17 10 3 14 8 3 5 4 2 
15 8 2 7 7 0 16 13 5 22 16 6 5 6 3 10 6 1 6 6 3 13 7 2 21 14 6 10 8 4 22 23 14 10 10 5 1 1 1 0 0 0 0 0 0 1 1 0 2 2 2 4 3 3 9 6 6 14 10 8 20 14 10 21 15 11 23 16 11 25 17 12 25 16 11 26 17 13 27 18 14 25 17 14 22 15 11 19 12 10 18 11 9 16 10 8 15 9 8 13 8 7 11 7 5 8 5 4 8 4 3 6 4 3 3 2 1 2 2 1 2 1 1 1 0 0 0 0 0 0 0 0 0 0 0 0 0 0 0 0 0 0 0 0 0 0 0 0 0 0 0 0 0 0 0 0 0 0 0 0 0 0 0 0 0 0 0 0 0 0 0 0 0 0 0 0 0 0 0 0 0 0 0 0 0 0 0 0 0 0 0 0 2 1 0 3 2 0 7 3 2 11 6 4 15 9 7 19 11 9 24 15 10 34 21 15 44 27 19 52 32 22 63 40 27 74 47 32 82 53 35 97 63 42 106 68 45 101 65 41 93 60 40 92 60 40 91 58 38 89 55 34 81 51 33 70 43 28 63 40 25 46 30 17 80 58 41 152 108 71 96 67 43 1 0 0 22 15 3 17 15 3 12 10 3 8 6 2 3 2 1 9 5 1 13 8 2 0 0 0 
16 10 2 13 11 4 30 23 14 34 25 15 17 12 8 12 7 4 21 16 10 13 7 1 24 17 7 18 11 5 24 17 8 19 19 6 16 16 6 8 8 3 0 1 1 0 0 0 0 0 0 0 0 0 0 0 0 0 0 0 0 0 0 0 0 0 0 0 0 0 0 1 3 2 1 5 3 2 9 6 4 13 9 7 16 11 9 18 12 9 21 13 10 22 15 12 25 16 11 27 18 12 28 19 14 31 20 14 38 24 17 40 27 19 40 26 19 42 26 19 42 27 18 44 29 20 44 29 19 43 28 19 43 27 18 41 26 17 43 28 17 32 20 14 0 0 1 0 0 0 0 0 0 0 0 0 1 1 1 0 0 0 20 13 11 61 38 27 59 37 25 61 39 25 60 38 24 60 37 23 60 38 23 64 41 26 69 43 28 74 46 28 78 49 32 80 52 34 83 53 34 92 58 37 96 60 39 98 62 40 99 63 40 100 63 41 101 64 41 101 63 38 100 63 40 96 62 38 91 58 37 88 56 36 84 53 33 76 46 28 66 41 24 59 37 23 53 33 22 47 30 19 50 33 21 57 36 21 47 31 19 6 5 4 1 0 1 16 12 5 11 8 2 8 4 1 41 30 6 53 40 8 46 36 7 40 32 7 30 24 5 17 12 4 6 4 2 47 33 21 
18 10 2 23 16 10 27 18 11 32 20 9 24 14 7 12 6 2 26 13 5 12 6 1 28 15 3 36 17 4 31 17 4 22 16 4 19 16 3 21 18 5 17 16 5 10 9 4 3 3 2 0 0 1 0 0 0 0 0 0 0 0 0 0 0 0 0 0 0 0 0 0 0 0 0 0 0 0 0 0 0 0 0 0 0 0 0 0 0 0 0 0 0 0 0 0 0 0 0 0 0 0 0 0 0 0 0 0 0 0 0 0 0 0 1 1 0 4 2 0 6 5 2 10 7 3 13 9 4 17 11 4 20 13 7 23 15 7 28 17 9 21 14 8 0 0 1 0 0 0 0 0 0 0 0 0 1 0 0 0 0 0 18 11 8 49 32 20 47 31 18 48 32 18 49 33 19 48 31 18 48 32 18 49 33 19 50 33 19 51 32 19 52 33 20 55 35 20 58 36 22 58 37 22 56 35 21 56 35 22 54 35 21 51 33 20 50 31 20 49 30 20 48 31 20 47 31 21 45 29 19 43 29 17 45 28 19 47 29 21 49 31 19 46 27 16 46 27 18 56 35 21 51 32 20 31 19 13 7 5 4 4 4 4 5 4 1 1 0 0 2 1 0 8 4 1 14 10 1 17 11 2 15 9 1 14 8 1 14 8 1 13 7 1 13 6 2 78 54 36 
16 9 2 18 12 7 5 2 0 11 5 0 11 5 1 7 3 1 17 8 2 11 6 1 19 10 2 19 10 1 16 9 2 16 9 4 20 14 4 19 15 3 21 17 4 21 19 5 20 18 6 17 15 6 14 12 5 8 8 2 4 4 2 3 2 1 2 2 1 0 0 0 0 0 0 0 0 0 0 0 0 0 0 0 0 0 0 0 0 0 0 0 0 0 0 0 1 0 0 1 1 0 1 1 1 1 1 1 1 1 1 1 1 1 2 2 1 2 1 1 3 2 1 3 3 1 4 4 1 6 4 2 6 5 2 7 5 3 10 6 3 8 5 2 0 0 0 0 0 0 0 0 0 0 0 0 0 0 0 0 0 0 7 5 3 20 12 6 19 13 7 21 13 8 21 13 8 22 14 8 23 14 8 24 15 8 25 16 9 26 16 11 26 16 10 26 16 11 29 18 11 30 20 12 30 20 13 33 21 13 35 23 15 40 25 17 44 27 20 46 29 21 48 33 21 48 31 18 51 31 20 56 34 22 65 43 24 73 45 26 73 44 26 105 70 42 135 94 56 149 105 66 62 37 21 33 19 8 15 9 6 5 3 1 5 2 1 9 4 2 8 3 2 10 5 2 14 7 2 20 10 2 25 12 4 29 15 6 32 16 5 37 19 6 16 8 2 31 16 7 
16 9 2 11 7 3 2 3 2 0 1 1 1 0 0 1 1 0 2 1 1 12 6 1 4 3 1 5 3 2 9 5 2 12 7 3 27 17 6 25 17 4 20 16 5 20 17 5 21 17 5 20 17 4 24 19 6 27 21 7 19 17 4 14 10 3 24 13 3 24 14 4 16 9 3 16 9 4 12 8 4 10 6 3 6 4 2 4 3 1 2 1 1 1 1 1 1 0 0 0 0 0 0 0 0 2 2 2 3 1 1 4 3 1 6 5 2 8 6 3 11 7 3 13 7 4 14 9 5 16 11 5 17 11 6 19 12 7 21 13 7 15 10 6 0 0 1 0 0 0 0 0 0 0 0 0 0 0 0 0 0 0 13 9 7 33 23 14 34 21 14 35 22 14 36 23 14 37 25 16 41 26 17 45 28 18 47 31 19 50 33 21 52 34 22 55 35 22 56 36 23 54 35 22 55 36 23 56 37 23 64 41 25 69 44 26 76 47 27 82 50 26 78 49 27 118 81 51 142 99 58 149 104 64 98 63 34 106 62 20 102 61 25 174 123 78 206 147 87 184 132 82 113 70 35 126 75 26 124 73 29 58 35 16 21 11 5 102 61 24 106 63 23 68 40 17 28 16 8 106 64 26 102 60 22 103 61 23 104 61 22 112 65 25 39 22 10 38 21 9 
16 9 1 20 13 4 24 17 5 29 20 6 16 11 5 14 9 3 31 19 5 13 6 2 38 23 5 45 25 5 46 25 5 44 25 4 41 23 4 31 19 5 25 18 6 24 18 6 22 18 6 20 17 5 20 14 3 26 17 6 25 18 6 18 12 3 18 9 1 21 12 2 23 13 2 32 18 5 33 20 5 37 21 6 37 20 6 38 22 8 18 10 4 32 19 7 26 16 7 0 0 1 0 0 0 1 1 1 1 0 1 2 1 1 3 2 1 4 3 2 6 5 2 8 5 3 10 7 4 11 8 4 13 9 4 14 10 5 17 12 7 14 10 7 0 0 0 0 0 0 0 0 0 0 0 0 0 0 0 0 0 0 12 8 6 28 19 12 28 18 12 30 19 12 30 19 12 29 19 12 29 18 12 27 17 12 25 16 10 23 15 9 21 13 9 19 12 9 15 10 7 50 31 13 60 35 14 49 29 12 82 49 16 93 54 18 103 62 21 110 65 20 102 64 31 186 133 84 203 145 86 184 131 83 119 73 34 138 82 25 123 75 32 175 124 77 193 137 81 179 129 80 125 79 39 139 82 27 150 89 29 81 49 19 25 13 5 138 82 29 145 86 27 106 63 23 27 16 8 142 84 30 140 81 29 136 80 26 132 78 26 141 84 29 71 43 18 19 10 5 
16 9 1 45 25 5 50 28 3 52 29 3 24 13 4 20 11 3 36 20 4 13 6 2 37 20 4 39 20 5 35 19 4 38 21 5 37 21 5 38 22 6 38 23 7 28 17 6 26 18 6 24 17 5 33 21 6 33 20 6 23 14 4 18 10 3 23 13 3 24 14 5 23 12 3 29 16 3 31 17 4 38 21 6 40 23 7 42 24 8 34 20 7 44 26 8 32 19 8 0 0 1 0 0 0 0 0 0 0 0 0 0 0 0 0 0 0 0 0 0 0 0 0 0 0 0 0 0 0 0 0 0 0 0 0 0 0 0 0 0 0 0 0 0 0 0 0 0 0 0 0 0 0 0 0 0 0 0 0 0 0 0 0 0 0 0 0 0 0 0 0 0 0 0 0 0 0 0 0 0 0 0 0 0 0 0 0 0 0 0 0 0 0 0 0 0 0 0 0 0 0 59 35 12 96 57 17 95 56 18 101 61 20 107 64 21 115 69 24 115 67 21 123 85 50 194 138 84 192 136 81 164 115 72 135 81 32 163 98 31 141 87 40 180 129 81 195 138 82 179 128 80 131 83 38 157 93 31 164 97 33 97 57 23 23 11 4 143 83 29 146 84 27 125 72 26 25 13 8 135 79 28 146 86 28 142 84 28 139 80 26 150 86 24 106 61 21 6 2 3 
15 8 1 38 21 4 41 23 5 44 25 5 19 10 4 23 13 5 36 20 6 14 7 2 47 28 9 47 27 8 41 24 7 51 30 8 52 30 9 52 30 9 54 32 11 19 11 5 36 22 7 46 28 7 47 28 7 47 28 7 38 22 6 34 19 5 41 23 7 41 23 7 24 13 3 39 23 7 40 23 7 39 22 6 39 22 7 39 22 7 42 24 8 45 26 8 28 16 7 0 0 1 0 0 0 0 0 0 0 0 0 0 0 0 0 0 0 0 0 0 0 0 0 0 0 0 0 0 0 0 0 0 0 0 0 0 0 0 0 0 0 0 0 0 0 0 0 0 0 0 0 0 0 0 0 0 0 0 0 0 0 0 0 0 0 1 0 0 1 0 0 1 0 0 1 0 0 1 0 0 1 0 0 1 0 0 1 0 0 1 1 0 1 1 0 1 1 0 0 0 1 85 51 21 124 73 23 126 75 26 132 79 26 132 79 27 140 82 26 105 65 31 172 124 78 193 137 81 195 139 84 157 109 67 152 89 32 172 99 32 148 92 45 184 132 82 194 137 81 180 129 80 146 92 42 178 106 33 184 109 36 116 69 26 22 11 6 166 99 35 171 103 34 157 94 33 29 16 10 137 81 29 160 94 31 153 90 29 155 94 35 166 105 46 143 91 43 12 7 4 
15 8 1 43 24 6 50 29 6 55 33 8 19 11 5 35 21 8 46 26 9 15 8 3 58 36 12 57 35 11 51 30 9 65 37 12 65 37 13 65 37 13 69 41 15 23 13 6 44 27 8 61 38 10 56 35 11 54 33 9 52 32 8 52 31 8 49 29 8 43 26 7 26 14 4 41 23 7 41 24 7 41 24 8 40 23 7 40 23 7 39 23 7 42 25 8 26 15 6 0 0 1 0 0 0 0 0 0 0 0 0 0 0 0 0 0 0 0 0 0 0 0 0 0 0 0 0 0 0 0 0 0 0 0 0 0 0 0 0 0 0 0 0 0 0 0 0 0 0 0 0 0 0 0 0 0 0 0 0 0 0 0 0 0 0 0 0 0 0 0 0 0 0 0 0 0 0 0 0 0 0 0 0 0 0 0 0 0 0 0 0 0 0 0 0 0 0 0 1 0 1 47 27 10 41 23 6 48 29 11 90 53 20 123 73 23 99 57 18 146 102 64 198 140 85 186 132 79 194 139 84 148 102 61 136 80 26 151 87 26 140 89 47 188 134 84 191 135 80 180 129 81 143 91 42 180 107 33 198 119 41 136 82 32 22 10 6 178 106 38 189 113 37 191 115 42 38 22 13 139 84 32 190 114 38 176 103 33 180 112 48 204 159 116 184 133 84 32 17 6 
14 8 1 48 29 8 60 35 10 64 39 14 19 11 5 46 26 11 49 28 10 18 9 4 68 41 12 67 40 11 54 33 9 72 42 12 71 41 11 70 41 12 76 44 14 27 15 7 50 30 11 69 41 15 65 39 15 60 37 12 56 34 9 55 34 9 53 33 8 49 31 8 45 27 9 44 25 8 42 24 7 39 24 8 35 21 6 33 20 7 30 18 4 32 19 5 18 11 4 0 0 0 0 0 0 0 0 0 0 0 0 0 0 0 0 0 0 0 0 0 0 0 0 0 0 0 0 0 0 0 0 0 0 0 0 0 0 0 0 0 0 0 0 0 0 0 0 0 0 0 0 0 0 0 0 0 0 0 0 0 0 0 0 0 0 0 0 0 0 0 0 0 0 0 0 0 0 0 0 0 0 0 0 0 0 0 0 0 0 0 0 0 0 0 0 0 0 0 2 1 1 39 34 30 31 28 26 3 5 7 0 0 0 47 35 24 92 73 58 159 114 72 200 142 84 192 136 81 200 143 86 144 97 55 126 72 20 129 75 22 142 95 56 202 143 88 197 139 82 192 137 85 133 85 42 158 93 26 173 103 31 130 80 29 22 10 6 176 105 38 188 112 38 196 117 40 50 30 14 128 76 29 203 122 41 187 112 37 188 109 33 201 139 80 199 125 55 70 40 14 
14 8 1 50 30 11 61 36 12 63 37 14 16 9 6 47 28 12 45 26 11 18 10 4 67 40 15 63 37 14 49 30 9 64 38 13 61 37 12 61 37 13 65 40 14 25 14 7 43 25 10 60 37 12 51 32 8 50 31 9 47 29 8 43 26 7 41 24 7 39 22 6 35 20 6 28 17 6 26 15 5 24 14 5 22 13 4 19 10 1 16 8 2 13 9 2 8 5 2 0 0 0 0 0 0 0 0 0 0 0 0 0 0 0 0 0 0 0 0 0 0 0 0 0 0 0 0 0 0 0 0 0 0 0 0 0 0 0 0 0 0 0 0 0 0 0 0 0 0 0 0 0 0 0 0 0 0 0 0 0 0 0 0 0 0 0 0 0 0 0 0 0 0 0 0 0 0 0 0 0 0 0 0 0 0 0 0 0 0 0 0 0 0 0 0 0 0 0 1 1 1 33 25 20 57 46 36 47 39 33 46 39 35 22 21 21 19 16 15 21 16 12 143 102 66 169 120 76 171 123 79 121 83 49 92 53 15 92 54 19 133 94 61 163 117 74 147 105 66 149 108 71 98 64 35 117 70 20 139 82 26 107 64 22 19 10 5 139 81 29 152 90 31 166 100 34 56 33 15 94 56 22 178 107 37 167 100 35 175 103 40 171 98 33 174 103 37 86 52 24 
