P3
80 60
255
0 0 0 2 2 0 2 2 0 0 0 0 0 0 0 0 0 0 2 2 0 1 1 0 0 0 0 0 0 0 0 0 0 0 0 0 0 0 0 0 0 0 0 0 0 0 0 0 0 0 0 0 0 0 0 0 0 0 0 0 0 0 0 0 0 0 0 0 0 0 0 0 0 0 0 0 0 0 0 0 2 0 0 2 0 0 2 0 0 2 0 0 2 0 0 0 4 1 0 1 1 0 0 1 0 0 1 2 0 1 5 0 1 6 2 3 7 0 0 0 1 0 0 1 0 0 0 0 0 0 0 0 0 0 2 0 0 2 0 0 2 0 0 0 1 0 0 1 0 0 1 0 0 1 0 0 1 0 0 1 0 0 0 0 0 0 0 0 0 0 0 0 0 0 0 2 1 0 2 1 0 1 3 0 0 2 0 0 2 0 0 2 1 0 0 1 0 0 1 0 0 1 0 0 1 0 0 1 0 0 1 0 0 1 0 0 0 0 0 3 3 3 1 1 1 0 0 0 0 0 0 2 2 2 1 1 0 0 0 0 
0 0 0 0 0 0 1 1 0 1 1 0 1 1 0 0 0 0 0 0 0 0 0 0 1 1 0 1 1 0 0 0 0 0 0 0 0 0 0 0 0 0 0 0 0 0 0 0 0 0 0 0 0 0 0 0 0 0 0 0 0 0 0 0 0 0 0 0 0 0 0 0 1 1 1 1 1 1 1 1 3 1 1 3 1 1 3 1 1 3 1 1 3 1 1 0 1 1 0 2 3 0 3 5 2 0 3 4 0 1 4 0 0 5 0 0 2 0 0 0 1 0 0 1 0 0 0 0 0 0 0 0 0 0 0 1 1 1 2 0 1 2 0 1 1 0 0 0 0 0 2 0 1 1 1 1 2 0 1 1 1 1 1 1 1 1 1 1 0 0 0 0 0 0 0 1 0 0 1 0 0 0 2 0 0 2 0 0 2 0 0 2 1 1 1 0 0 0 1 0 0 0 0 0 1 0 0 0 0 0 1 0 0 0 0 0 0 0 0 0 0 0 0 0 0 0 0 0 2 2 2 0 2 1 0 0 0 0 1 0 
3 3 3 0 0 0 0 0 0 0 0 0 1 1 1 0 0 0 0 0 0 2 2 2 1 1 1 0 0 0 0 0 0 0 0 0 0 0 0 0 0 0 0 0 0 0 0 0 0 0 0 0 0 0 0 0 0 0 0 0 0 0 0 0 0 0 0 0 0 0 0 0 0 0 0 0 0 0 0 0 0 0 0 0 0 0 2 0 0 2 0 0 2 0 0 0 1 2 0 1 4 0 0 1 0 0 1 0 1 2 4 2 3 5 1 1 3 1 1 1 1 0 0 1 0 0 0 0 0 0 0 0 1 0 0 1 0 0 3 0 0 3 0 0 0 0 0 0 1 0 0 0 2 0 0 2 1 1 3 0 0 2 0 0 2 0 0 2 0 0 2 0 0 2 0 0 2 0 0 2 0 0 2 0 1 3 0 1 3 0 1 3 0 0 2 0 0 2 0 0 2 0 0 2 0 0 2 0 0 2 0 0 2 0 0 2 0 1 3 1 2 4 0 1 0 0 1 0 1 3 2 0 1 0 0 1 0 2 6 5 
0 0 0 0 0 0 0 0 0 0 0 0 0 0 0 0 0 0 0 0 0 0 0 0 0 0 0 0 0 0 0 0 0 0 0 0 0 0 0 0 0 0 0 0 0 0 0 0 0 0 0 0 0 0 0 0 0 0 0 0 0 0 0 0 0 0 0 0 0 0 0 0 0 0 0 0 0 0 0 0 0 0 0 0 0 0 2 0 0 2 0 0 2 0 0 0 0 1 0 0 2 0 0 1 0 0 1 0 2 2 0 2 2 2 0 0 0 0 0 0 0 0 0 0 0 0 0 0 0 0 0 0 1 0 0 1 0 0 3 0 0 3 0 0 0 0 0 0 0 2 0 0 2 0 0 2 0 0 2 0 0 2 0 0 2 0 0 2 0 0 2 0 0 2 0 0 2 0 1 0 0 0 2 0 1 0 0 0 2 0 0 2 0 0 2 0 0 2 0 0 2 0 0 2 0 0 2 0 0 2 0 0 2 0 0 2 0 0 2 0 1 3 0 1 0 0 1 0 0 1 0 0 1 0 0 1 0 0 3 2 
0 0 2 1 1 3 3 3 5 2 2 4 2 2 4 4 4 6 2 2 4 0 0 2 0 0 2 0 0 2 1 1 3 1 1 3 1 1 3 1 1 3 0 0 2 0 0 0 1 1 0 1 1 0 1 1 0 1 1 0 1 1 0 1 1 0 1 1 1 1 1 1 0 0 0 0 0 0 0 0 0 0 0 0 0 0 0 1 1 1 1 1 1 0 2 1 0 1 0 0 4 0 4 6 1 5 6 0 4 3 0 1 0 0 1 0 0 1 1 1 1 1 1 0 2 1 0 1 3 1 1 1 1 0 0 1 0 0 3 0 0 1 0 0 0 2 1 0 2 3 0 1 3 0 1 3 0 1 3 0 1 3 1 1 1 1 1 1 1 1 1 1 1 1 1 1 1 0 0 0 1 0 0 0 0 0 1 0 0 0 0 0 0 0 0 0 0 0 0 1 0 0 1 0 0 2 1 0 2 1 0 2 1 0 2 1 0 1 0 0 4 3 0 4 3 0 1 0 0 2 1 0 3 2 0 1 0 0 1 0 
0 0 2 1 1 1 1 1 3 0 0 0 0 0 2 0 0 0 0 0 2 0 0 0 0 0 2 0 0 0 0 0 2 0 0 0 0 0 2 0 0 0 0 0 2 0 0 0 0 0 0 0 0 0 0 0 0 0 0 0 0 0 0 0 0 0 0 0 0 0 0 0 0 0 0 0 0 0 0 0 0 0 0 0 0 0 0 0 0 0 0 0 0 0 1 0 1 7 5 0 2 0 0 1 0 1 1 0 3 0 0 3 0 0 4 3 0 1 1 1 0 0 2 0 0 4 0 0 2 0 0 2 0 0 0 1 0 0 1 0 0 0 1 0 0 1 0 0 1 2 0 0 2 0 0 2 0 0 2 0 0 0 1 1 1 2 1 0 1 0 0 1 0 0 4 0 0 4 0 0 4 0 0 3 0 0 3 0 0 3 0 0 1 0 0 1 0 0 0 0 0 0 0 0 0 0 0 0 0 0 0 0 0 0 0 0 0 1 0 2 4 1 0 1 0 0 1 0 0 1 0 0 2 1 0 1 0 0 1 0 
1 0 0 1 0 0 1 0 0 5 4 2 2 0 1 1 0 0 1 0 0 4 3 1 2 0 1 2 1 0 1 0 0 1 0 0 1 0 0 1 0 0 2 0 1 3 2 0 1 1 0 1 2 0 1 1 0 1 1 0 1 1 0 1 1 0 1 1 0 1 1 0 0 0 0 0 0 0 0 0 0 0 0 0 0 0 0 1 1 1 1 1 1 0 2 1 0 4 4 0 2 0 4 4 0 12 8 0 6 0 0 4 0 0 4 3 0 0 0 0 0 1 4 0 0 5 0 1 4 0 0 2 1 1 1 1 1 1 0 2 0 0 2 0 1 3 2 1 3 2 1 1 1 0 0 0 0 0 0 1 0 0 2 1 0 4 0 0 3 0 0 3 0 0 4 0 0 4 0 0 7 0 0 6 0 0 6 0 0 6 0 0 6 1 0 6 1 0 5 0 0 5 0 0 4 0 0 3 0 0 3 0 0 3 0 0 3 2 0 1 0 0 0 0 0 1 1 0 5 5 3 1 1 0 0 0 0 1 3 0 
10 9 7 8 7 3 19 18 16 34 33 29 31 30 28 13 12 8 7 6 4 14 13 9 8 7 5 6 5 1 4 3 1 3 2 0 3 2 0 5 4 0 7 6 4 9 8 4 7 8 3 7 8 3 7 7 5 7 7 5 7 7 5 7 7 5 7 7 5 7 7 5 4 4 2 4 4 2 4 4 4 4 4 4 5 5 5 5 5 5 5 5 5 4 6 5 0 2 2 9 14 10 47 44 35 56 50 38 25 17 4 7 0 0 7 6 1 2 4 3 0 3 8 0 3 8 3 4 8 4 4 6 5 5 5 6 6 6 4 8 9 4 8 7 8 10 9 8 8 6 7 7 5 6 5 3 5 4 2 6 2 0 6 2 0 7 2 0 14 6 3 15 8 2 18 9 4 20 11 4 21 10 4 21 10 4 21 11 2 20 9 3 17 6 2 16 7 2 15 6 1 14 5 0 13 4 0 12 5 0 11 3 0 11 3 0 13 5 2 7 2 0 12 7 3 29 25 22 35 31 28 19 15 12 5 4 0 9 8 4 
22 21 17 18 17 12 62 61 57 67 66 61 12 11 7 20 19 14 27 26 22 10 9 4 55 54 50 71 70 65 52 51 47 81 80 75 58 57 53 56 55 50 28 27 23 17 16 12 22 21 17 24 23 19 17 16 12 18 17 13 16 15 11 15 14 10 4 3 0 22 21 17 39 38 36 35 34 32 25 24 22 8 7 5 6 5 3 14 13 11 14 13 11 13 13 11 6 10 9 11 13 8 67 63 52 87 79 66 27 19 6 36 30 18 38 37 32 28 30 29 31 35 38 30 31 35 32 30 33 20 16 17 8 4 3 13 13 13 15 20 23 9 15 15 11 11 9 14 13 9 10 9 5 51 48 43 72 69 64 46 41 35 65 58 52 56 49 41 60 51 44 40 31 22 34 24 15 41 31 22 28 15 6 30 17 8 48 34 25 38 24 15 25 10 3 35 20 13 40 25 18 53 40 32 52 39 33 40 27 21 23 10 4 23 12 6 25 14 10 15 6 1 32 23 18 13 3 1 57 49 46 65 57 54 25 17 14 17 9 6 
19 18 13 55 54 49 70 69 64 66 65 60 55 54 49 22 21 16 18 17 12 22 21 16 38 37 32 86 85 80 58 57 52 87 86 81 91 90 85 81 80 75 31 30 25 19 18 13 15 14 10 15 14 10 22 21 17 13 12 8 14 13 9 18 17 13 16 15 11 8 7 3 32 31 29 45 44 42 30 29 27 11 10 8 14 13 11 15 14 12 11 10 8 16 16 14 20 22 21 3 4 0 19 12 2 30 22 9 11 4 0 32 28 16 38 39 33 27 29 28 39 39 41 37 35 36 39 29 28 30 19 15 23 14 9 16 12 9 4 10 10 7 13 13 6 7 2 16 13 8 17 14 9 48 43 37 83 78 72 59 52 44 88 79 72 96 86 77 94 84 75 42 29 20 37 24 15 42 28 17 34 20 9 41 24 14 45 28 18 33 15 5 34 16 6 34 16 6 29 10 3 42 25 17 53 36 28 49 32 25 27 12 5 25 10 3 28 13 8 26 13 7 10 0 0 53 42 38 77 66 62 68 59 54 57 48 43 17 8 3 
64 64 56 78 78 70 63 63 55 67 67 59 51 51 43 3 3 0 111 111 103 204 204 196 213 213 205 195 195 187 195 195 187 174 174 166 181 181 173 163 163 155 209 209 201 191 191 183 62 61 56 11 10 5 15 14 10 19 18 14 23 22 18 9 8 4 34 33 29 51 50 46 51 50 46 44 43 39 36 35 31 44 43 39 39 38 36 23 22 20 21 20 18 12 11 9 10 10 10 10 9 5 17 10 0 23 15 2 21 13 0 33 29 18 50 51 46 52 52 52 46 42 41 64 53 51 40 21 14 32 10 0 31 13 1 20 10 1 23 24 19 12 16 15 12 11 6 116 111 105 185 180 174 203 196 188 199 192 184 216 207 198 187 178 169 189 179 170 203 190 182 222 208 199 207 193 184 81 64 54 13 0 0 31 13 1 40 22 10 40 20 9 52 32 21 39 19 8 50 30 21 72 54 44 65 47 37 68 49 42 60 43 35 38 24 15 34 19 12 38 25 17 24 11 5 46 35 29 71 60 54 68 57 51 81 70 66 86 75 71 
39 39 31 29 29 21 69 69 61 52 52 44 24 24 16 10 10 2 70 70 62 136 136 128 145 145 137 130 130 122 120 120 112 118 118 110 128 128 120 129 129 121 144 144 136 146 146 138 50 49 44 11 10 5 20 19 15 18 17 13 24 23 19 14 13 9 36 35 31 41 40 36 36 35 31 34 33 29 27 26 22 43 42 38 41 40 38 25 24 22 26 25 23 16 15 13 9 9 9 15 11 8 15 8 0 21 13 2 27 21 9 24 22 10 41 42 37 34 33 31 45 34 32 48 28 21 38 6 0 53 18 0 52 21 1 24 3 0 13 6 0 8 9 3 6 3 0 80 75 69 149 142 134 150 143 135 150 141 134 147 138 129 145 135 126 142 132 123 148 135 126 152 138 129 148 131 123 58 41 31 31 13 3 40 22 10 33 15 3 32 12 1 33 13 2 33 13 2 38 18 7 53 35 23 51 33 23 53 35 25 44 27 19 36 22 13 35 20 13 31 18 10 18 5 0 37 26 20 58 47 41 89 80 75 40 31 26 40 31 26 
5 4 0 15 14 9 22 21 16 10 9 4 7 6 1 1 0 0 6 5 0 1 0 0 33 32 27 111 110 105 106 105 100 102 101 96 110 109 104 106 105 100 7 6 1 1 0 0 7 6 1 8 7 2 20 19 14 11 10 5 16 15 10 18 17 12 17 16 12 5 4 0 7 6 2 48 47 43 26 25 21 8 7 3 19 18 14 13 12 8 13 12 8 21 20 18 16 14 15 10 6 5 6 0 0 10 3 0 15 13 1 15 15 5 40 41 36 28 23 19 54 35 28 78 46 31 115 69 43 125 74 43 116 71 40 99 65 40 54 38 22 16 9 0 27 23 14 4 0 0 4 0 0 34 30 21 123 116 108 109 102 94 80 71 62 127 117 108 119 106 98 25 12 3 12 0 0 25 11 2 39 22 14 30 13 3 33 16 6 33 15 5 33 15 3 22 4 0 42 24 14 64 47 37 47 30 20 51 37 26 48 34 25 21 8 0 25 15 6 16 7 0 25 16 11 14 7 1 20 13 7 22 14 11 22 17 13 4 0 0 
10 9 5 4 3 0 6 5 1 6 5 0 13 12 8 13 12 7 7 6 2 17 16 11 24 23 19 60 59 54 74 73 69 56 55 50 68 67 63 55 54 49 12 11 7 14 13 8 11 10 5 10 9 4 11 10 5 8 7 2 11 10 5 10 9 4 6 5 1 13 12 8 8 7 3 38 37 33 21 20 16 2 1 0 9 8 4 8 7 3 9 8 4 15 14 12 11 9 10 11 7 8 14 9 3 19 15 6 14 14 4 12 13 5 38 39 34 33 24 19 52 26 13 138 96 74 169 109 75 169 104 64 155 96 56 148 102 68 126 100 77 32 18 5 7 0 0 15 10 4 12 7 1 25 20 14 59 52 46 70 63 55 67 58 51 62 53 44 69 59 50 30 17 9 31 18 10 35 21 12 28 13 6 18 4 0 33 16 8 32 15 5 22 5 0 34 18 5 41 27 16 51 37 26 46 34 22 43 30 21 28 18 8 22 13 4 16 7 0 16 9 3 10 5 0 15 10 6 7 4 0 9 6 1 7 6 1 5 4 0 
8 7 5 15 14 10 2 1 0 10 9 5 9 8 6 2 1 0 17 16 14 1 0 0 14 13 11 117 116 112 101 100 98 64 63 59 119 118 116 92 91 87 8 7 5 8 7 3 11 10 5 11 10 5 15 14 9 8 7 2 9 8 3 13 12 7 10 9 4 10 9 4 8 7 3 2 1 0 4 3 0 11 10 6 10 9 5 11 10 6 14 13 9 9 8 6 10 8 11 12 8 9 13 8 4 16 13 6 12 13 7 6 9 2 12 13 8 8 0 0 73 41 26 162 111 84 172 101 59 191 113 65 175 105 56 145 87 47 151 116 86 80 62 42 7 0 0 14 11 6 8 5 0 10 7 0 4 0 0 39 34 28 136 129 123 28 19 12 16 7 0 27 16 10 29 18 12 18 5 0 21 8 2 26 13 5 27 12 5 30 17 8 22 10 0 26 14 2 26 13 4 24 14 4 10 2 0 15 6 0 19 12 2 19 15 6 16 12 3 10 7 0 12 11 6 1 0 0 9 10 5 0 1 0 0 1 0 10 12 7 
2 1 0 8 7 5 10 9 7 3 2 0 10 9 7 8 7 5 10 9 7 8 7 5 8 7 5 28 27 25 25 24 22 32 31 29 25 24 22 5 4 2 9 8 6 9 8 4 14 13 9 4 3 0 13 14 8 13 12 7 16 13 8 12 9 4 13 10 5 9 8 4 10 11 6 7 8 3 12 8 5 10 6 3 9 5 4 11 7 4 6 5 1 7 6 4 8 3 7 13 8 12 10 6 3 9 6 0 7 8 2 6 5 0 12 7 4 22 4 0 102 64 41 167 111 76 196 125 79 196 120 68 183 111 61 159 100 56 142 103 70 121 97 73 40 26 15 16 9 1 6 1 0 14 11 6 17 14 9 24 19 15 18 8 6 26 17 12 24 15 8 19 10 1 25 16 7 21 12 3 25 12 4 34 21 13 25 12 4 24 11 3 17 7 0 27 19 8 19 11 0 19 11 0 23 16 6 22 18 9 7 3 0 8 5 0 4 3 0 2 1 0 0 1 0 9 9 7 1 3 0 4 6 1 12 14 9 0 4 0 
6 7 2 6 7 2 6 7 2 6 7 2 7 8 3 7 8 3 8 9 4 8 9 4 5 6 1 3 4 0 2 3 0 4 5 0 7 8 3 9 10 5 8 9 4 6 7 2 9 9 7 10 11 6 9 12 5 10 11 3 14 9 5 15 7 4 12 7 4 9 8 4 4 6 1 6 8 3 11 5 5 14 5 6 15 4 8 12 6 6 8 9 3 7 8 3 10 3 10 9 0 7 10 6 3 11 8 1 10 5 0 13 4 0 16 0 0 62 32 22 122 76 43 157 100 55 188 128 78 200 140 88 178 120 70 144 93 48 131 95 59 134 107 80 111 85 70 27 9 0 13 6 0 5 5 0 13 12 8 17 11 11 19 7 7 20 6 3 15 6 0 18 12 0 18 15 0 19 13 0 23 13 1 28 15 6 28 13 6 23 10 2 19 10 1 19 12 2 20 13 3 16 12 1 13 9 0 8 5 0 6 3 0 5 2 0 4 3 0 7 6 4 5 5 5 4 4 4 6 6 4 4 6 1 3 5 0 6 9 2 
4 5 0 4 5 0 4 5 0 4 5 0 4 5 0 4 5 0 5 6 1 5 6 1 6 7 2 5 6 1 4 5 0 5 6 1 8 9 4 9 10 5 8 9 4 6 7 2 7 7 5 7 7 5 7 10 3 8 9 1 14 6 3 14 6 3 12 7 4 8 7 5 7 9 4 6 8 5 9 3 5 12 1 5 13 2 6 12 6 6 7 8 2 5 7 2 9 4 8 14 8 12 4 3 0 10 10 0 18 14 3 21 8 0 21 0 0 89 53 39 128 78 43 132 76 29 125 73 25 153 101 53 144 92 44 107 60 16 121 82 49 136 104 79 115 84 66 39 17 3 9 3 0 14 16 5 8 9 4 18 14 13 17 5 5 18 4 3 18 9 2 17 13 1 17 16 0 16 13 0 21 11 0 27 14 5 28 13 8 22 11 7 17 10 2 14 11 2 12 9 0 9 6 0 8 5 0 7 4 0 8 5 0 9 5 2 5 4 2 8 6 7 6 6 8 5 5 5 7 7 5 6 7 2 4 6 1 6 9 2 
8 7 3 8 7 3 7 6 2 7 6 2 7 6 2 7 6 2 7 6 2 7 6 2 6 5 1 6 5 1 5 4 0 6 5 1 7 6 2 7 6 2 7 6 2 6 5 1 5 5 3 5 5 3 6 7 1 7 6 1 10 5 1 10 5 1 9 5 2 7 6 2 10 10 8 8 8 6 10 6 7 14 5 8 16 7 8 15 10 7 10 11 5 8 11 4 2 4 0 8 13 7 0 6 0 2 6 0 1 2 0 9 1 0 15 0 0 77 44 25 130 85 52 141 89 49 135 84 41 141 90 45 136 85 40 122 74 34 127 86 58 123 88 66 118 90 69 53 36 16 16 13 0 3 7 0 5 8 0 2 1 0 19 9 8 16 5 3 17 10 2 17 13 2 16 14 1 15 11 0 20 10 1 24 10 7 23 9 9 17 5 5 12 7 3 7 7 0 5 5 0 4 4 0 4 4 0 6 6 0 7 6 1 8 7 3 5 4 2 8 7 5 7 5 6 6 4 5 7 7 5 6 7 2 4 6 1 7 10 3 
5 4 0 5 4 0 5 4 0 5 4 0 5 4 0 4 3 0 4 3 0 4 3 0 5 4 0 6 5 1 6 5 1 6 5 1 6 5 1 5 4 0 6 5 1 6 5 1 6 5 3 5 6 1 5 6 1 6 5 0 9 6 1 9 6 1 9 5 2 7 6 2 5 4 2 5 4 2 8 4 5 9 5 6 9 5 4 8 4 1 5 5 0 6 6 0 2 4 0 5 7 0 12 14 3 16 14 0 25 17 0 51 35 9 61 36 16 72 37 15 102 57 28 118 68 33 151 99 62 152 100 61 143 94 53 134 88 52 109 67 43 104 67 49 118 90 66 101 85 59 35 33 8 22 27 7 0 3 0 10 10 2 10 2 0 17 7 5 15 10 4 16 13 4 14 14 2 15 12 3 18 9 4 18 6 6 15 3 7 10 1 4 7 3 0 3 4 0 3 4 0 3 6 0 6 7 1 6 7 1 5 6 0 5 4 0 4 3 0 7 6 4 6 5 3 6 5 3 8 7 5 6 7 2 4 7 0 7 10 3 
7 3 2 7 3 2 7 3 2 7 3 2 7 3 2 7 3 2 7 3 2 7 3 2 7 3 2 8 4 3 9 5 4 8 4 3 8 4 3 7 3 2 8 4 3 7 6 4 5 4 0 6 5 1 6 5 1 6 5 1 6 7 1 7 8 2 8 7 3 9 8 4 10 6 5 11 7 8 10 8 9 9 8 6 6 5 1 6 3 0 11 6 0 19 12 2 34 24 14 30 18 6 36 19 11 46 24 11 91 64 37 130 97 66 134 97 71 117 72 49 106 56 31 129 75 49 146 92 64 118 67 36 109 61 23 126 82 47 116 73 56 105 68 52 112 85 58 137 120 90 78 74 45 46 48 26 28 29 13 22 19 10 14 5 0 15 5 3 14 11 4 11 12 4 10 11 3 9 8 3 12 7 4 13 4 5 9 3 7 6 1 5 4 4 2 3 5 0 3 5 0 2 7 1 6 8 3 6 9 2 5 6 0 4 3 0 3 2 0 8 4 1 8 4 1 5 4 0 8 7 3 6 7 1 4 7 0 7 10 3 
9 5 4 8 4 3 8 4 3 8 4 3 8 4 3 8 4 3 8 4 3 8 4 3 6 2 1 6 2 1 7 3 2 7 3 2 6 2 1 6 2 1 7 3 2 7 3 0 4 3 0 4 3 0 7 3 0 6 5 1 5 8 1 7 10 3 9 10 4 11 10 6 15 9 11 16 10 12 13 11 12 12 12 10 13 10 5 16 11 5 29 22 14 43 33 24 49 33 20 57 37 26 55 30 23 73 41 26 127 86 56 132 88 53 105 61 32 91 47 22 104 56 33 105 55 32 104 56 33 125 81 52 119 79 43 88 52 18 87 50 32 88 55 38 103 73 47 130 109 78 100 91 62 45 43 18 59 56 39 22 18 7 28 19 14 20 10 8 15 12 5 10 11 3 5 8 1 3 4 0 5 1 0 7 1 1 5 3 6 4 4 6 7 7 7 5 7 4 4 6 3 2 7 3 2 7 1 3 8 2 5 8 1 6 7 1 8 5 0 10 7 2 9 6 1 8 5 0 10 7 2 7 6 1 5 6 0 7 10 3 
7 6 2 7 6 2 6 5 1 6 5 1 6 5 1 5 4 0 5 4 0 5 4 0 6 5 1 6 5 1 5 4 0 5 4 0 5 4 0 5 4 0 5 4 0 4 3 0 4 3 0 6 3 0 7 1 1 7 3 2 2 7 1 3 8 1 6 9 2 9 8 4 10 4 6 10 4 8 8 6 7 10 9 5 13 9 0 20 11 2 35 22 14 49 35 26 18 1 0 28 10 0 17 0 0 48 15 0 96 50 16 104 55 15 76 37 4 86 49 22 90 48 23 94 52 28 83 49 22 104 75 45 106 77 43 82 55 25 84 59 37 79 54 34 99 69 43 112 85 56 72 56 30 54 43 21 50 41 26 32 22 12 30 19 13 31 22 17 21 18 11 15 16 8 11 12 4 8 7 2 9 4 0 8 3 0 5 4 2 5 5 3 8 7 5 7 6 2 6 6 4 4 6 3 2 7 3 3 8 2 6 9 2 8 9 3 13 10 3 16 11 5 13 8 2 10 5 0 11 8 1 7 7 0 6 7 1 8 11 4 
17 16 12 15 16 11 16 15 11 14 15 10 14 13 9 13 14 9 13 12 8 12 13 8 11 10 6 10 11 6 9 8 4 8 9 4 9 8 4 8 9 4 8 7 3 7 6 1 6 6 0 7 4 0 8 2 2 6 2 1 0 5 0 0 8 0 3 6 0 6 5 0 15 6 11 14 5 10 12 8 7 14 11 6 19 9 0 23 9 0 34 15 8 44 27 19 46 32 23 57 43 30 59 42 26 116 88 64 152 102 65 156 104 64 103 69 34 87 58 28 93 53 27 86 49 22 77 50 21 82 59 28 83 58 28 72 48 20 67 47 23 69 47 24 109 79 53 94 64 38 56 38 14 56 43 24 51 37 24 31 18 9 31 18 12 30 21 16 30 25 19 27 24 15 25 21 12 25 18 10 25 12 6 21 8 2 14 5 0 12 5 0 10 3 0 11 3 0 10 6 3 8 7 3 6 6 4 5 7 2 7 10 3 9 10 4 17 14 7 19 15 6 18 11 3 14 7 0 13 8 2 8 8 0 6 7 1 9 12 5 
14 15 10 13 15 10 15 16 11 15 17 12 16 17 12 15 17 12 16 17 12 15 17 12 16 17 12 15 17 12 17 18 13 16 18 13 16 17 12 14 16 11 14 15 10 13 14 8 11 11 3 18 15 10 18 9 10 8 4 5 27 32 25 29 37 26 3 6 0 17 14 9 8 2 6 18 9 14 12 8 7 9 2 0 33 15 3 20 0 0 90 66 56 56 38 28 41 32 23 40 34 22 24 17 0 49 28 0 106 57 17 108 55 13 70 41 7 73 50 19 101 64 35 91 52 21 79 53 20 83 58 28 83 53 29 79 48 27 70 46 22 83 59 33 87 59 37 78 51 30 61 43 23 48 35 18 40 26 15 36 22 13 35 22 16 35 24 18 31 24 16 36 27 18 32 18 9 36 16 7 51 22 14 53 25 14 49 25 13 44 24 13 34 15 8 18 3 0 14 3 0 11 3 0 12 8 5 12 13 8 7 8 2 16 15 10 18 15 8 19 15 6 19 12 4 17 10 0 12 8 0 10 7 0 8 9 3 8 11 4 
13 15 10 13 15 10 13 15 10 14 16 11 14 16 11 14 16 11 14 16 11 14 16 11 14 16 11 14 16 11 14 16 11 15 17 12 14 16 11 14 16 11 13 15 10 13 16 9 15 16 8 26 23 16 17 8 11 18 12 14 60 65 58 57 65 54 13 15 4 20 17 12 21 15 19 8 2 6 17 12 9 21 6 0 28 0 0 82 46 32 72 42 31 34 14 5 18 7 1 28 24 13 33 28 8 104 83 52 155 102 62 160 105 66 91 64 34 73 52 23 121 82 51 105 64 32 84 54 20 83 56 26 84 49 30 68 35 18 87 61 36 83 62 35 76 51 29 63 42 23 47 34 17 37 28 13 37 25 13 35 22 14 35 22 14 34 24 15 32 22 13 37 23 12 47 20 9 65 27 16 85 37 27 94 45 31 96 50 34 93 54 37 89 55 43 36 8 0 20 0 0 23 8 1 7 0 0 8 5 0 19 18 13 14 13 8 20 15 9 21 14 6 20 11 2 16 9 0 13 6 0 9 6 0 7 8 2 7 10 3 
15 18 11 15 18 11 15 18 11 15 18 11 15 18 11 15 18 11 15 18 11 15 18 11 13 16 9 13 16 9 14 17 10 14 17 10 14 17 10 14 17 10 14 17 10 14 17 8 12 14 3 16 13 6 19 10 13 13 7 11 19 21 16 18 24 12 10 10 0 27 24 17 7 5 8 11 6 10 29 19 17 25 2 0 73 29 18 122 74 60 107 71 57 61 37 25 47 32 27 55 45 36 38 30 11 66 39 12 129 69 33 121 58 23 66 35 7 54 30 4 129 88 58 122 77 44 100 64 28 87 54 23 90 53 37 96 60 46 80 56 30 61 44 16 62 45 25 48 36 20 34 28 12 29 26 11 33 27 15 35 26 17 35 26 17 36 26 17 38 24 13 42 18 6 65 25 15 98 41 30 122 52 40 132 56 42 130 57 38 125 60 40 127 74 56 98 55 39 44 10 0 18 0 0 21 6 0 20 13 7 16 11 7 20 17 12 21 16 10 22 15 7 21 12 3 16 9 0 13 6 0 8 5 0 6 7 1 6 8 3 
16 17 11 15 18 11 15 16 10 14 17 10 15 16 10 14 17 10 15 16 10 14 17 10 15 16 10 14 17 10 15 16 10 14 17 10 15 16 10 14 17 10 15 16 10 15 18 9 19 21 10 13 13 5 25 16 21 22 13 18 9 10 5 7 10 0 14 12 0 25 22 13 10 10 10 11 9 12 29 15 14 29 0 0 112 54 42 149 87 72 72 30 14 38 12 0 14 0 0 23 10 2 25 12 0 99 69 45 157 97 63 173 110 75 100 66 41 43 19 0 135 98 69 180 137 102 81 41 5 101 65 33 92 56 40 97 68 54 67 47 23 61 49 23 52 41 23 40 34 20 30 28 13 27 28 14 32 30 17 34 30 19 36 29 19 37 27 17 43 27 14 47 17 6 85 33 22 127 55 43 148 60 46 151 56 38 143 51 28 136 52 26 118 47 25 112 55 35 83 36 20 37 1 0 21 0 0 23 10 4 19 12 6 21 16 12 23 16 10 23 16 10 21 12 5 17 10 2 13 6 0 8 5 0 6 7 2 6 8 3 
14 14 6 13 14 6 14 14 6 13 14 6 14 14 6 13 14 6 14 14 6 13 14 6 16 16 8 15 16 8 15 15 7 14 15 7 15 15 7 14 15 7 15 15 7 14 16 5 10 14 0 14 15 7 17 8 13 16 6 14 18 17 13 12 12 2 9 5 0 22 20 8 7 11 10 12 12 12 23 8 5 59 19 11 152 80 68 152 76 60 85 38 18 50 23 4 65 49 34 76 64 52 57 41 28 98 70 49 132 78 44 112 58 20 54 24 0 48 26 2 85 58 28 182 150 112 147 109 72 78 42 10 73 48 28 54 37 19 59 51 28 54 49 27 41 34 18 34 30 18 28 29 15 29 30 16 32 30 17 33 29 17 32 28 16 35 27 14 42 26 11 53 21 6 103 45 33 148 66 54 165 63 48 167 56 36 166 58 30 172 73 42 175 90 61 149 77 52 123 65 45 69 23 7 28 0 0 24 5 0 16 5 1 20 12 9 23 15 12 23 16 10 22 13 6 18 11 3 14 7 1 9 6 1 6 7 2 6 8 5 
15 12 5 16 13 6 17 14 7 17 14 7 18 15 8 17 14 7 17 14 7 17 14 7 17 14 7 17 14 7 17 14 7 17 14 7 17 14 7 17 14 7 17 14 7 14 14 4 13 17 3 15 16 8 19 13 17 19 9 17 13 9 6 11 9 0 21 15 1 29 27 15 2 8 4 13 15 14 26 7 3 100 53 45 172 88 77 140 54 37 121 70 49 64 38 15 22 9 0 23 11 0 15 0 0 42 13 0 118 70 34 150 101 61 123 92 64 50 26 2 77 54 23 87 57 23 158 112 78 138 93 62 55 27 6 48 32 16 51 40 22 42 33 16 38 28 16 36 28 17 33 29 17 33 31 18 33 31 18 32 28 16 33 29 17 37 30 14 41 25 9 60 27 10 116 54 39 156 70 55 173 63 46 178 59 35 187 72 41 214 106 70 199 102 69 176 91 62 162 92 67 113 58 38 49 11 0 26 1 0 21 6 1 22 12 10 21 13 10 21 13 10 22 13 8 18 11 3 15 8 2 10 7 2 6 7 2 6 8 5 
18 14 5 19 15 6 20 16 7 22 18 9 22 18 9 22 18 9 21 17 8 20 16 7 19 15 6 20 16 7 20 16 7 21 17 8 21 17 8 21 17 8 20 16 7 19 16 7 16 20 6 8 11 2 17 10 17 25 15 23 16 11 8 18 14 3 25 17 4 10 8 0 11 22 16 7 12 8 27 6 1 108 55 47 146 52 40 148 55 37 84 32 8 29 5 0 30 20 0 58 50 29 57 38 31 96 66 55 131 89 51 126 81 39 83 46 19 44 12 0 73 46 19 96 59 30 123 58 30 130 64 40 105 64 44 73 45 31 59 34 27 45 22 16 46 27 20 41 27 16 38 28 16 36 30 16 36 30 16 35 29 15 33 30 15 37 30 12 39 26 7 59 28 8 115 54 36 153 67 50 176 67 46 182 64 38 187 73 37 219 110 71 156 52 13 141 47 13 162 82 55 161 99 78 77 33 20 25 0 0 35 17 13 21 11 9 18 10 7 19 11 8 20 11 6 18 11 5 15 7 4 10 7 2 6 7 2 5 7 4 
17 13 4 18 14 5 21 17 8 22 18 9 23 18 12 23 19 10 22 17 11 21 17 8 21 16 10 22 17 11 23 18 12 26 19 13 27 20 14 26 19 13 26 19 13 24 20 11 18 20 7 27 28 20 23 18 22 21 15 19 28 20 17 25 19 7 24 18 4 23 24 10 7 17 9 15 18 11 27 7 0 79 30 16 139 51 37 145 56 38 131 76 55 87 59 35 44 32 8 50 42 23 29 11 1 23 0 0 93 55 19 139 97 57 143 108 80 77 46 25 52 28 4 99 65 40 118 57 36 127 65 44 95 52 35 59 29 18 46 21 14 51 31 24 52 30 19 45 27 15 39 27 13 37 27 15 36 26 16 34 26 15 31 28 13 34 28 12 35 27 6 52 25 4 104 47 28 148 63 43 181 72 51 188 68 43 180 66 32 203 94 55 208 100 61 170 72 33 133 46 16 162 92 67 135 84 67 45 8 0 20 0 0 21 7 4 17 7 5 15 10 6 16 11 7 15 12 7 12 8 5 8 7 3 6 6 4 4 6 3 
16 16 8 15 15 7 14 14 6 13 13 5 12 13 7 12 13 5 12 13 7 13 14 6 19 18 13 16 15 10 15 12 7 16 11 7 21 13 10 24 16 13 25 15 13 23 15 12 21 16 10 17 16 11 16 16 14 17 16 14 23 16 8 23 17 5 20 18 3 17 19 5 11 14 3 13 9 0 24 7 0 88 52 30 132 66 44 140 69 49 105 49 36 48 10 0 15 0 0 13 3 0 53 36 20 67 43 19 135 102 69 130 95 63 81 54 27 50 29 8 43 30 11 44 27 9 69 36 19 69 30 15 73 40 25 50 27 13 41 31 19 39 32 16 47 30 14 47 28 11 40 28 12 37 27 15 39 26 18 37 26 20 33 29 18 30 31 15 28 30 8 47 33 7 88 38 15 148 66 45 169 56 38 183 61 40 174 60 33 174 65 32 198 92 52 207 108 67 193 100 67 185 105 78 140 75 57 85 37 25 30 0 0 24 3 0 18 9 4 13 12 7 12 14 9 9 14 8 7 12 8 6 8 7 4 6 5 4 6 5 
12 12 4 12 13 5 13 12 7 14 15 9 15 16 10 14 17 10 14 15 9 12 13 7 12 13 7 15 14 9 16 15 11 19 15 12 19 14 11 20 12 10 21 11 10 21 11 9 21 13 10 17 14 9 13 15 12 14 15 10 21 14 8 21 14 6 16 16 4 15 17 4 18 18 10 22 14 3 38 20 0 98 64 36 143 90 59 146 85 57 122 66 49 90 50 38 56 37 31 51 41 32 74 59 40 35 14 0 40 11 0 89 59 25 122 95 66 128 106 82 46 31 10 40 27 10 48 30 16 45 23 10 49 27 14 39 23 8 37 34 17 37 34 15 42 29 10 44 29 10 38 31 13 38 30 17 41 28 20 38 27 21 33 29 18 29 30 14 27 32 9 37 25 0 87 39 16 145 63 42 171 58 42 180 57 41 174 62 38 165 62 31 153 55 16 156 63 22 164 78 43 140 63 35 115 50 30 99 47 33 61 24 15 22 0 0 16 5 0 11 10 5 12 15 8 10 15 9 10 12 7 8 9 4 6 5 3 4 3 1 
16 13 8 13 12 7 14 11 6 13 12 7 15 14 9 16 17 11 17 16 12 17 16 12 17 16 12 18 17 13 20 19 15 22 18 15 21 17 14 20 15 12 19 14 11 18 13 9 20 12 9 18 13 9 13 13 13 14 14 14 17 13 12 18 14 11 15 14 10 15 14 10 11 10 6 10 1 0 64 39 17 117 78 45 144 91 51 160 103 60 155 103 66 101 64 38 40 23 13 7 0 0 18 5 0 35 18 0 90 64 29 159 127 89 133 99 62 78 45 12 47 17 0 52 29 11 38 22 7 38 28 16 45 39 27 36 30 16 42 35 19 39 32 13 42 34 15 40 35 15 37 36 16 38 35 18 42 32 22 42 32 22 39 33 19 36 33 16 34 34 10 44 28 3 92 41 20 134 51 35 162 50 38 180 60 44 164 55 32 162 67 37 163 79 42 119 44 5 109 39 5 98 34 6 94 39 18 85 42 26 51 19 8 25 5 0 20 7 0 16 12 3 17 14 5 16 13 4 15 11 2 13 6 0 13 3 0 12 2 0 
21 18 13 19 16 11 16 13 8 13 10 5 13 10 5 14 13 8 18 17 13 21 20 16 19 18 14 16 15 11 13 12 8 12 11 7 14 13 9 15 14 10 13 12 8 11 10 6 17 14 9 16 12 9 13 13 13 12 13 15 13 14 16 13 15 14 16 12 13 16 12 13 22 18 17 19 6 0 91 59 38 130 84 50 139 85 39 156 100 49 158 106 58 90 52 16 16 0 0 35 28 22 70 61 46 65 51 25 63 40 6 64 35 0 70 33 0 129 87 49 152 111 81 67 35 12 38 22 6 35 32 17 28 30 16 34 36 22 33 26 10 44 32 16 37 32 13 33 32 12 29 30 12 31 30 12 36 29 13 39 27 13 38 29 14 37 30 12 37 32 10 50 29 8 76 25 8 136 57 42 150 44 31 167 56 39 179 79 55 146 60 25 113 40 0 129 65 21 140 78 41 141 87 53 137 90 64 124 86 65 61 32 16 21 2 0 27 14 5 24 15 6 19 15 4 17 13 2 15 8 0 14 5 0 16 3 0 16 3 0 
19 15 12 20 16 13 20 16 13 18 14 11 15 11 8 14 10 7 16 12 9 19 15 12 17 16 12 16 15 11 13 14 9 12 13 8 12 13 8 12 13 8 11 13 8 11 13 8 12 13 7 12 13 8 10 12 11 8 14 14 5 15 14 6 15 14 13 11 14 15 9 11 14 8 8 30 11 4 100 57 38 133 77 44 154 93 48 159 99 45 164 108 57 127 85 45 76 60 44 22 18 9 28 20 9 17 4 0 15 0 0 83 58 18 141 104 60 149 104 62 115 67 29 100 59 29 57 37 13 34 29 10 28 35 19 33 40 24 45 38 22 40 31 16 35 32 17 33 34 18 34 37 18 41 40 20 50 41 24 57 44 28 58 46 30 59 48 30 58 50 31 65 44 25 89 40 25 119 45 32 152 56 42 152 53 32 129 42 12 133 58 16 153 87 35 181 121 67 170 114 67 154 101 59 144 98 64 139 100 71 90 59 38 25 4 0 29 15 2 24 16 5 20 16 7 16 13 6 13 8 2 10 5 0 12 5 0 12 5 0 
10 9 5 15 14 10 20 19 15 22 21 17 22 18 15 17 13 10 14 10 7 13 9 6 15 14 10 19 18 14 21 22 17 19 21 16 15 17 12 10 15 9 11 16 10 13 18 12 12 14 9 11 13 8 11 13 10 6 15 12 2 17 12 4 16 12 12 12 14 17 8 9 15 5 3 53 31 20 122 74 54 142 81 50 149 88 43 151 91 41 158 105 55 123 84 45 45 30 11 4 0 0 12 3 0 42 30 16 59 47 23 78 59 26 85 56 14 82 41 0 154 105 64 140 94 60 77 47 19 60 45 22 69 68 48 49 52 35 56 50 36 60 52 39 62 56 44 58 56 41 56 55 37 55 52 33 57 46 28 52 39 22 46 33 17 42 30 14 39 30 13 46 24 10 85 39 26 101 35 21 143 60 42 138 52 25 135 62 21 181 115 63 189 129 69 173 114 54 157 102 46 150 98 48 152 105 63 136 96 61 117 86 58 45 20 0 26 10 0 21 13 2 19 14 8 15 14 9 12 11 7 8 7 3 6 5 3 5 4 2 
5 7 4 8 10 7 15 15 13 19 19 17 22 21 19 20 19 17 16 15 11 13 12 8 12 11 7 15 14 10 17 18 13 17 19 14 13 18 12 9 16 9 6 13 6 6 13 6 11 12 7 10 11 6 9 11 6 6 13 6 2 15 5 2 15 5 9 11 6 13 8 4 8 0 0 64 38 25 125 77 55 139 80 50 142 83 43 147 93 49 155 106 65 110 76 41 30 15 0 27 21 9 35 26 19 70 59 53 44 34 22 14 2 0 51 32 0 134 105 65 132 89 47 113 68 27 126 86 51 69 38 9 35 19 0 46 39 20 40 34 20 38 32 20 39 30 21 40 30 20 39 31 18 40 31 14 42 29 12 41 28 12 38 24 11 36 24 12 34 26 15 37 19 7 59 21 10 112 56 41 114 44 19 126 57 18 192 131 77 185 130 66 179 120 52 173 114 46 178 120 57 165 110 53 157 107 58 140 97 55 132 97 65 77 49 25 27 8 0 21 11 1 19 14 10 14 14 12 10 12 11 4 8 9 2 6 9 1 5 8 
4 10 6 3 9 5 5 10 6 9 14 10 16 18 15 21 21 19 21 22 17 20 21 16 20 19 15 15 16 11 12 14 9 14 16 11 17 22 16 15 22 15 9 16 9 3 8 2 7 6 4 8 4 3 5 4 0 3 6 0 0 9 0 0 10 0 1 6 0 7 4 0 21 9 0 85 58 41 113 67 43 125 70 39 147 93 55 137 88 48 128 89 48 107 78 44 34 22 0 76 70 58 24 15 8 8 0 0 20 13 5 47 39 26 43 31 9 61 40 9 79 45 8 149 107 67 140 95 56 83 40 6 70 39 11 44 26 2 44 35 18 37 31 19 44 31 22 43 29 20 39 27 15 35 26 11 37 24 8 37 25 11 36 26 16 36 27 18 34 27 19 37 23 14 54 22 11 90 43 25 110 51 19 182 120 73 178 124 60 184 132 59 181 124 53 180 121 53 176 118 54 166 112 52 156 105 52 146 102 57 132 94 57 117 87 59 34 11 0 27 13 2 21 14 8 14 13 11 8 10 9 4 8 9 2 7 10 2 7 10 
2 13 5 1 12 4 5 15 7 2 12 4 10 17 10 10 15 9 20 22 17 22 24 19 22 23 18 16 18 13 13 15 10 14 16 11 16 18 13 14 19 13 15 20 14 18 20 17 26 17 20 20 9 13 65 60 57 74 71 64 49 50 44 51 56 49 66 73 66 41 42 34 65 48 38 109 80 62 141 101 75 146 101 68 141 97 58 127 88 47 145 116 74 141 123 87 77 66 46 46 40 28 57 50 42 58 51 45 85 80 76 106 99 93 63 55 44 52 39 20 141 120 91 107 75 37 95 51 12 146 98 60 121 76 43 54 20 0 44 28 5 43 34 17 43 26 16 42 25 15 46 34 20 31 22 7 40 30 18 29 21 10 31 24 16 33 28 22 30 25 21 35 22 14 43 15 4 81 39 17 158 104 66 182 122 68 174 120 48 186 133 57 182 128 58 180 125 60 171 115 54 166 111 54 164 113 60 145 98 52 134 95 56 127 93 65 49 22 1 29 10 0 24 11 3 20 12 9 16 15 11 10 10 8 0 2 0 6 8 5 
5 16 8 4 15 7 1 12 4 5 15 7 9 16 9 15 22 15 16 21 15 18 20 15 20 22 17 20 22 17 16 18 13 11 13 8 11 13 8 15 17 12 19 21 16 20 20 18 17 11 15 18 9 14 29 24 21 47 44 37 40 39 35 18 20 15 39 48 43 46 47 41 68 50 40 115 84 66 117 80 53 128 88 52 138 96 56 143 106 62 163 136 89 150 132 92 82 70 48 38 30 19 115 111 99 110 106 95 40 33 25 42 35 29 74 65 58 72 62 50 44 29 8 57 34 3 124 89 51 150 105 66 109 59 24 115 72 40 82 55 28 34 16 0 46 30 14 43 29 16 35 26 11 39 32 16 34 28 14 32 28 17 25 22 15 27 24 19 29 24 20 25 12 4 42 14 2 96 56 31 175 123 83 179 123 66 179 123 49 185 129 52 182 125 58 171 115 54 183 127 66 172 117 60 156 103 51 145 97 49 138 96 56 126 91 59 70 42 20 28 6 0 27 13 4 18 9 4 11 8 3 1 0 0 10 11 6 1 2 0 
5 15 6 4 14 5 3 13 4 6 13 5 10 17 9 16 23 15 16 21 14 13 18 11 17 22 15 22 27 20 24 26 21 16 18 13 13 14 9 18 19 14 22 23 18 22 22 20 1 2 6 14 18 19 5 7 2 10 11 5 7 6 4 3 4 6 1 11 12 0 0 0 67 44 38 95 58 42 112 73 44 118 76 38 128 85 42 153 113 62 148 115 61 174 150 104 73 56 36 11 3 0 41 38 21 15 12 0 19 11 0 26 16 6 77 64 58 29 16 8 8 0 0 82 70 48 138 113 82 72 38 1 134 88 52 156 107 74 87 46 14 79 49 21 53 36 16 29 22 4 41 36 17 26 23 6 32 30 15 30 30 18 19 19 9 25 25 17 27 20 12 25 11 0 44 17 0 126 87 58 153 101 61 174 115 59 186 125 58 185 125 53 186 125 62 189 129 69 169 109 49 174 118 59 164 109 55 153 103 54 138 95 53 130 94 60 83 53 29 26 3 0 23 9 0 20 11 6 15 11 8 8 7 5 17 17 15 2 4 1 
12 13 5 10 13 4 15 18 9 8 11 2 15 20 13 14 19 12 19 24 17 15 20 13 11 16 9 18 23 16 23 25 20 19 21 16 17 18 13 19 18 14 20 19 15 17 19 16 4 14 13 0 9 8 1 8 0 11 14 5 3 2 0 21 21 21 9 14 17 7 6 4 66 39 32 107 68 51 107 66 36 125 81 42 138 94 49 146 103 52 159 120 63 180 149 102 111 93 69 22 13 0 26 21 1 24 19 0 83 75 56 61 48 32 18 1 0 16 1 0 59 51 40 61 53 34 31 15 0 97 71 38 154 114 79 104 58 22 116 70 34 147 111 79 70 54 29 48 43 23 44 42 21 18 17 0 27 28 12 22 23 9 28 28 16 38 34 23 26 18 5 52 35 19 36 8 0 79 43 11 158 109 68 171 115 64 176 118 55 181 120 57 185 124 67 173 112 57 185 124 67 173 117 60 169 114 58 148 98 47 135 90 48 128 92 56 98 68 44 32 9 0 21 7 0 20 11 6 16 11 8 8 7 5 0 0 0 0 0 0 
21 12 5 17 10 2 15 11 2 12 9 0 16 16 8 17 18 10 20 21 13 18 21 12 13 16 9 16 19 12 20 21 16 24 25 20 25 24 20 24 23 19 25 21 18 21 23 20 0 12 9 0 11 3 12 18 6 16 17 3 9 9 1 11 10 6 8 8 8 12 4 1 27 1 0 102 64 41 112 69 35 122 77 36 135 88 44 141 95 46 174 128 76 188 152 104 150 129 100 25 13 0 17 10 0 42 35 7 79 67 43 24 7 0 26 7 0 45 27 15 67 55 41 10 0 0 18 6 0 92 73 43 65 34 3 77 37 2 150 102 66 93 52 20 23 6 0 32 26 4 18 13 0 32 27 7 32 29 10 27 24 7 38 32 16 35 26 9 40 25 6 106 86 62 62 35 6 83 50 15 122 80 40 158 111 65 152 100 50 163 108 54 169 112 59 179 122 69 164 107 52 160 105 49 167 114 60 148 101 49 138 95 50 135 100 62 111 81 55 34 13 0 29 12 4 24 13 9 19 11 9 10 6 5 6 2 0 13 12 8 
20 3 0 21 4 0 14 1 0 21 10 4 16 9 1 19 15 6 12 12 4 15 16 8 13 14 8 11 14 7 14 15 10 19 20 15 23 22 18 25 21 18 27 22 19 26 26 24 12 24 20 18 30 20 18 16 1 24 15 0 41 33 20 21 14 4 29 22 16 26 13 4 42 17 0 96 61 31 117 75 37 128 85 43 146 104 62 152 111 67 162 119 74 179 142 98 174 151 117 42 29 0 52 38 9 59 45 18 67 51 26 71 55 32 87 69 49 91 74 54 77 62 41 55 43 21 95 83 59 48 32 6 66 43 12 141 108 75 152 107 74 128 89 58 55 35 10 19 8 0 22 11 0 15 4 0 11 3 0 20 12 0 27 15 0 30 15 0 56 36 9 63 40 9 58 34 0 113 85 46 154 122 83 156 121 79 182 140 98 190 145 103 174 125 82 179 128 81 176 126 77 172 125 73 165 119 67 147 105 55 130 92 47 114 80 43 107 80 51 34 12 0 21 3 0 17 2 0 19 6 0 8 0 0 14 3 0 9 0 0 
43 15 11 47 22 17 60 39 34 58 41 34 46 33 25 20 11 2 14 10 1 15 15 5 9 10 2 9 10 2 9 10 4 10 11 5 14 13 9 20 16 13 24 18 18 24 20 19 23 23 21 33 29 20 69 48 31 164 139 119 202 184 164 201 184 166 197 179 165 201 183 163 202 181 150 207 179 140 167 132 90 205 170 128 237 209 169 233 207 170 232 200 162 220 190 152 215 196 154 188 173 132 173 152 121 216 195 168 237 219 195 241 225 200 239 225 198 244 230 201 231 214 186 151 134 106 174 157 131 238 221 195 244 224 197 232 207 177 229 192 163 236 201 173 191 167 143 111 95 72 153 135 115 160 142 122 162 145 125 173 157 132 175 155 130 155 134 105 157 134 100 221 197 159 215 193 152 226 204 163 227 208 168 242 220 183 241 215 182 241 210 179 206 173 140 158 122 86 224 189 147 249 215 169 235 198 153 230 196 150 223 190 147 201 171 133 172 145 116 128 102 79 45 19 4 46 22 10 66 42 30 64 37 26 47 21 8 32 6 0 
85 48 40 95 61 52 136 103 94 111 83 72 96 74 61 29 11 0 30 17 1 27 18 1 24 17 1 28 21 5 29 22 6 25 17 4 26 16 4 32 22 10 36 23 14 34 22 10 45 31 18 49 30 13 88 56 33 195 159 133 199 171 147 255 241 218 255 232 211 255 237 212 255 243 207 235 210 169 190 159 115 205 173 132 231 207 169 255 245 211 252 223 193 255 234 201 249 232 189 234 219 176 182 159 127 139 115 87 255 245 219 239 225 198 253 242 212 255 245 213 246 230 197 184 165 135 136 119 91 182 165 139 255 252 226 243 223 196 255 235 208 255 236 209 232 208 182 163 141 117 190 168 145 255 246 223 255 237 212 255 239 212 255 252 223 211 191 158 181 158 124 239 217 180 252 234 196 250 235 196 244 230 195 247 234 202 253 236 208 239 219 192 211 188 157 198 174 140 109 83 48 243 217 180 251 226 186 255 236 196 248 222 187 251 225 192 252 225 196 238 210 186 70 39 18 81 48 29 127 90 72 142 103 86 98 57 39 90 49 31 
137 90 72 138 91 73 132 87 68 122 81 59 125 87 64 139 105 78 146 116 88 145 118 89 147 122 91 142 119 87 138 115 83 159 136 105 144 119 89 136 111 81 147 120 93 149 120 90 148 118 80 148 115 74 158 120 83 234 195 162 222 187 157 225 191 164 255 223 198 228 197 169 227 197 163 250 220 182 205 173 134 246 217 177 222 194 157 245 216 184 255 228 200 227 200 171 246 226 191 212 196 160 224 205 172 195 176 144 115 98 68 251 236 205 173 160 128 141 128 96 253 238 207 193 178 149 230 214 188 131 117 90 184 170 144 255 248 222 139 122 96 217 197 170 241 220 191 191 170 139 147 126 97 186 165 136 255 241 211 190 171 141 209 192 162 251 234 204 156 139 109 100 85 54 255 246 214 248 237 207 244 235 206 214 204 177 217 207 182 244 230 203 226 207 175 218 198 163 158 139 107 238 221 191 249 232 204 250 234 208 250 233 207 253 233 206 247 221 194 220 189 161 153 116 89 129 85 60 127 76 55 137 82 62 149 90 74 149 90 76 
94 37 17 118 64 40 141 87 63 141 90 63 133 86 56 152 107 74 198 155 121 238 200 163 238 200 163 225 190 152 177 142 104 237 202 164 226 191 153 181 146 108 239 201 165 247 208 169 233 192 146 147 106 60 174 132 94 243 202 170 255 217 191 215 178 152 255 229 205 220 186 159 235 201 173 248 218 184 201 171 137 255 229 195 248 217 186 236 205 177 255 233 212 225 194 173 248 223 193 234 211 179 227 204 173 241 218 187 173 152 121 255 238 207 217 196 167 197 176 147 253 233 206 208 188 161 255 236 211 201 181 156 180 162 138 180 162 138 157 139 117 235 215 190 233 209 181 236 213 182 249 226 195 153 132 103 177 156 127 160 141 111 218 201 173 239 223 197 224 208 183 214 200 174 68 56 32 182 170 146 255 254 232 87 76 54 99 91 70 246 234 208 221 205 171 242 224 186 244 227 197 115 99 73 212 200 176 245 233 211 191 176 153 202 185 159 255 237 209 217 186 155 147 108 75 137 90 60 147 91 66 147 86 65 128 63 45 98 31 15 
94 32 11 105 43 20 125 65 41 144 87 60 155 99 72 159 106 75 169 118 87 179 133 99 176 130 96 159 115 78 179 135 98 183 139 102 176 130 96 183 137 103 169 123 89 178 134 99 166 124 86 147 107 71 145 104 74 242 202 177 255 224 206 255 227 210 255 219 203 255 231 212 255 227 207 248 216 191 209 177 152 255 225 199 235 205 181 223 192 172 254 221 206 245 212 195 255 225 203 214 178 152 220 184 160 255 233 209 255 232 207 254 220 195 255 225 203 255 236 214 249 217 196 218 186 165 255 224 203 197 165 144 169 138 118 144 113 93 194 163 143 243 212 192 224 196 174 221 195 172 249 223 200 150 123 102 179 152 131 150 125 103 194 172 151 240 219 198 238 217 198 234 215 198 141 124 108 224 207 191 242 226 210 220 204 188 229 216 200 253 238 215 224 206 170 235 216 174 251 232 199 197 182 151 241 227 200 255 251 225 156 140 114 187 168 138 255 239 208 206 176 140 148 110 74 150 106 71 141 90 59 118 62 35 105 44 23 99 38 19 
102 46 31 96 40 25 100 47 29 125 74 55 148 100 78 155 109 86 150 105 82 144 102 77 142 102 76 140 100 74 133 93 67 136 96 70 132 90 65 132 90 66 140 98 74 134 94 68 130 95 65 129 95 67 138 103 81 143 110 93 154 120 108 144 111 102 146 116 106 140 110 99 137 109 95 142 115 98 134 109 89 143 118 98 132 106 91 247 221 208 182 153 145 133 103 93 152 119 102 144 109 89 144 109 90 145 110 91 145 112 93 156 123 104 149 116 99 140 107 90 144 112 97 141 109 94 148 116 101 112 80 65 127 98 84 158 129 115 103 74 60 135 106 92 142 116 99 136 110 93 138 112 97 112 89 73 152 129 113 120 99 82 127 108 93 156 137 122 244 226 212 255 251 239 223 207 194 235 219 206 255 250 240 219 205 194 148 134 123 253 240 223 242 225 195 245 229 195 255 248 219 255 245 221 241 230 210 253 242 222 255 249 230 255 247 224 255 243 216 200 175 145 143 112 83 141 104 75 124 80 55 98 52 29 91 42 25 96 47 32 
52 17 15 46 12 10 43 10 5 44 13 8 50 21 15 55 28 19 59 32 23 59 35 25 59 37 26 51 29 18 54 32 21 60 38 27 61 37 27 55 30 23 53 28 21 56 32 20 60 39 20 51 30 9 57 35 21 50 30 19 40 20 13 46 27 23 55 36 32 47 30 23 46 29 21 51 35 22 48 34 21 38 24 11 48 31 21 71 54 47 84 66 62 43 25 21 48 28 19 46 26 15 50 30 19 46 26 15 46 26 17 49 29 20 43 25 15 53 35 25 49 31 21 52 34 24 48 31 23 49 32 24 46 29 21 41 24 16 62 45 37 46 29 21 43 26 16 47 30 20 44 27 17 49 32 22 52 35 25 46 32 21 48 35 26 42 29 20 90 80 70 108 98 89 43 33 24 47 38 29 122 113 106 62 53 46 7 0 0 97 89 78 102 93 76 101 92 75 100 92 81 118 111 103 75 70 66 79 74 70 102 94 91 108 99 92 106 93 84 79 61 49 49 27 14 48 22 9 43 13 3 47 17 9 48 15 10 43 9 7 
13 0 0 13 0 0 11 0 0 11 0 0 10 0 0 10 0 0 8 0 0 7 0 0 8 0 0 7 0 0 10 0 0 7 0 0 7 0 0 10 0 0 8 0 0 9 0 0 8 0 0 8 1 0 8 0 0 7 0 0 13 3 1 9 0 0 6 0 0 8 0 0 6 0 0 6 0 0 5 1 0 5 1 0 6 0 0 9 1 0 10 2 0 6 0 0 9 0 0 10 1 0 10 1 0 7 0 0 14 4 2 7 0 0 8 0 0 6 0 0 6 0 0 6 0 0 4 0 0 9 4 0 6 1 0 7 2 0 4 0 0 7 0 0 8 0 0 9 0 0 9 0 0 8 0 0 7 0 0 6 0 0 6 0 0 6 1 0 8 3 0 4 0 0 4 0 0 4 0 0 6 3 0 3 0 0 3 0 0 5 2 0 3 0 0 3 0 0 1 0 0 0 0 0 0 0 4 0 0 4 8 6 11 3 0 2 11 2 3 11 1 0 10 0 0 12 0 0 13 0 0 13 0 0 13 0 0 12 0 0 
4 0 0 6 0 2 8 4 5 5 1 2 1 0 0 1 0 0 2 0 1 2 2 2 5 5 5 0 0 0 5 5 7 0 0 2 5 5 7 2 0 3 1 0 4 5 3 4 1 1 0 3 5 0 1 0 0 2 3 0 0 0 0 2 2 4 1 1 3 2 2 2 2 2 0 2 3 0 0 1 0 1 2 0 0 1 0 0 0 0 1 1 1 0 0 0 1 0 2 5 0 4 1 0 2 6 4 7 1 0 2 5 3 6 1 0 2 1 0 2 0 0 2 0 0 2 6 6 8 0 0 0 3 3 5 0 0 0 5 5 7 0 0 0 1 0 0 7 3 0 3 0 0 1 0 0 5 4 0 7 6 2 1 0 0 3 4 0 1 2 0 4 5 0 0 1 0 4 5 0 6 7 2 1 2 0 4 6 1 0 1 0 0 2 0 6 8 5 2 4 3 0 4 7 4 7 12 0 1 5 2 5 10 2 3 7 3 1 4 3 0 0 4 0 0 8 3 0 7 1 1 8 2 2 3 0 0 4 2 3 
2 0 1 0 0 0 0 0 0 0 1 0 0 1 0 0 2 1 0 2 1 0 2 1 0 1 0 0 3 2 2 3 5 0 0 2 1 2 4 0 0 2 2 2 4 0 1 0 0 1 0 0 2 0 0 1 0 0 1 0 0 0 2 0 0 4 3 4 8 0 0 2 0 1 0 2 4 3 0 1 0 3 5 2 0 1 0 1 3 2 0 0 2 0 0 2 2 1 6 0 0 4 6 5 10 0 0 4 0 0 4 0 0 4 0 0 4 0 1 5 1 2 6 0 0 4 0 0 2 0 1 3 0 0 2 1 2 4 0 1 3 0 0 2 0 0 0 1 0 0 1 0 0 7 6 4 0 0 0 0 0 0 4 4 4 0 0 0 0 0 0 1 1 0 0 0 0 0 0 0 0 0 0 0 0 0 0 1 0 0 1 0 0 1 0 2 4 1 0 1 0 0 1 2 0 1 4 0 0 5 0 0 5 0 1 5 0 0 2 6 4 5 5 1 0 1 0 0 1 0 0 2 2 0 0 1 0 0 1 0 
3 0 0 1 1 0 1 0 0 0 1 0 0 1 0 0 1 0 0 1 0 0 1 0 0 1 0 0 1 0 0 1 0 0 1 0 1 0 0 1 0 0 1 0 0 1 0 0 1 0 0 0 0 0 0 0 0 0 0 0 0 0 2 0 0 4 1 0 2 1 0 2 1 0 0 1 0 0 1 0 0 1 0 0 1 0 0 1 0 0 1 0 0 1 0 0 1 0 0 1 0 0 1 0 0 1 0 0 1 0 0 1 0 0 1 0 0 1 0 0 1 0 0 0 0 0 0 0 0 0 0 0 0 0 0 0 0 0 0 0 0 1 0 0 3 0 0 3 0 0 3 0 2 3 0 0 3 0 2 3 0 0 3 0 2 3 0 0 3 0 0 3 0 0 3 0 0 3 0 0 3 0 0 3 0 0 3 0 0 3 0 0 3 0 0 3 0 0 1 0 0 1 0 0 1 0 0 1 0 0 1 0 0 3 0 0 4 0 0 4 0 0 4 0 0 4 0 0 1 0 0 0 1 0 0 1 0 0 1 0 
1 1 0 1 1 0 1 1 0 0 1 0 1 0 0 0 1 0 1 0 0 0 1 0 1 0 0 0 1 0 1 0 0 1 0 0 1 0 0 1 0 0 1 0 0 1 0 0 1 0 0 0 0 0 0 0 0 1 0 0 1 0 2 1 0 2 1 0 2 3 0 0 3 0 0 3 0 0 3 0 0 3 0 0 3 0 0 1 0 0 3 0 0 1 0 0 1 0 0 1 0 0 1 0 0 1 0 0 1 0 0 1 0 0 1 0 0 1 0 0 1 0 0 0 1 0 1 0 0 0 1 0 1 0 0 0 1 0 1 0 0 1 0 0 3 0 0 3 0 2 3 0 2 3 0 2 3 0 2 3 0 2 3 0 2 3 0 2 3 0 0 3 0 0 3 0 0 3 0 0 3 0 0 3 0 0 3 0 0 4 0 0 4 0 0 4 0 0 3 0 0 3 0 0 3 0 0 3 0 0 3 0 0 4 0 0 4 0 0 4 0 0 6 0 0 4 0 0 1 0 0 0 1 0 0 1 0 0 2 0 
0 0 0 0 0 0 0 0 0 0 1 0 0 0 0 0 0 2 0 0 2 0 0 2 0 0 2 0 0 2 0 0 4 0 0 2 0 0 4 0 0 2 0 0 2 0 0 0 0 1 0 0 1 0 0 1 0 0 0 0 0 0 0 0 0 0 0 0 0 1 0 0 1 0 0 1 0 0 1 0 0 1 0 0 1 0 0 0 0 0 1 0 0 0 0 0 0 0 0 0 0 0 0 0 0 0 0 0 0 0 0 0 0 0 0 0 0 0 0 0 0 0 0 0 1 0 0 0 0 0 1 0 0 0 0 0 1 0 0 0 0 0 0 0 0 0 2 1 0 2 1 0 2 1 0 2 1 0 2 1 0 2 1 0 0 1 0 0 1 0 0 1 0 0 1 0 0 1 0 0 1 0 0 1 0 0 1 0 0 1 0 0 3 0 2 3 0 2 3 0 2 1 0 4 1 0 4 1 0 4 1 0 4 1 0 4 3 0 4 3 0 4 4 0 4 3 0 2 0 0 2 0 0 2 0 1 2 0 2 2 
0 1 0 0 1 0 0 0 2 0 0 2 0 0 4 0 0 4 0 0 5 0 0 5 0 0 5 0 0 5 0 0 5 0 0 5 0 0 5 0 0 5 0 0 4 0 0 2 0 1 0 0 2 0 0 1 0 0 1 0 0 0 0 0 0 0 0 0 0 0 0 0 1 0 0 1 0 0 1 0 0 1 0 0 0 0 0 0 0 0 0 0 0 0 0 0 0 1 0 0 1 0 0 1 0 0 1 0 0 1 0 0 1 0 0 1 0 0 1 0 0 1 0 0 1 0 0 1 0 0 1 0 0 1 0 0 1 0 0 1 0 0 1 0 0 0 2 0 0 2 0 0 2 0 0 2 0 0 2 0 0 2 0 0 0 0 0 0 0 0 0 0 0 0 0 0 0 0 0 0 0 0 0 0 0 0 0 0 0 0 0 0 3 0 4 3 0 5 1 0 5 1 0 5 0 0 5 0 0 5 0 0 5 0 0 5 3 0 7 3 0 7 3 0 5 1 0 5 0 0 5 0 0 5 0 0 5 0 1 5 
