P3
80 60
255
1 0 0 1 0 0 4 2 3 2 0 1 1 0 0 1 0 0 4 2 3 3 1 2 1 0 0 1 0 0 1 0 0 1 0 0 1 0 0 1 0 0 0 0 0 0 0 0 0 0 0 0 0 0 0 0 0 0 0 0 2 1 0 2 1 0 2 1 0 2 1 0 1 0 0 1 0 0 1 0 0 1 0 0 3 0 0 3 0 0 3 0 0 4 0 1 1 0 4 1 0 4 1 0 4 1 0 2 1 0 0 1 0 0 0 0 0 0 2 1 0 0 4 0 1 4 0 1 4 0 3 2 0 3 2 0 4 0 0 5 0 0 4 0 0 1 0 1 0 0 1 0 0 1 0 0 1 0 0 1 0 0 0 0 0 0 0 0 1 1 1 1 1 1 1 1 1 1 1 1 1 1 1 1 1 1 0 1 3 0 1 3 0 0 0 0 0 0 0 0 0 0 0 0 0 0 0 0 0 0 0 0 0 0 0 0 2 0 1 1 0 0 1 0 0 1 0 0 1 0 0 4 2 3 1 0 0 2 0 1 
1 0 0 1 0 0 1 0 0 2 0 1 4 2 3 2 0 1 1 0 0 1 0 0 1 0 0 1 0 0 1 0 0 1 0 0 1 0 0 0 0 0 0 0 0 0 0 0 0 0 0 0 0 0 0 0 0 0 0 0 0 0 0 2 1 0 2 1 0 2 1 0 3 2 0 3 2 0 2 1 0 2 1 0 2 1 0 1 0 0 3 0 0 1 0 0 3 1 6 1 0 5 1 1 3 1 1 3 2 0 1 0 0 0 0 0 0 1 1 3 0 0 4 0 0 4 0 1 4 0 1 4 0 2 2 0 2 0 0 2 0 0 2 0 0 0 0 1 0 0 1 0 0 1 0 0 1 0 0 1 0 0 0 0 0 0 0 0 0 0 0 0 0 0 0 0 0 0 0 0 0 0 0 0 0 0 0 0 2 0 0 2 0 0 0 0 0 0 0 0 0 0 0 0 0 0 0 0 0 0 0 0 0 0 0 0 0 0 0 1 1 1 1 0 0 6 4 5 1 0 0 2 0 1 1 0 0 1 0 0 
5 5 5 2 2 2 0 0 0 0 0 0 4 4 4 2 2 2 0 0 0 2 2 2 0 0 0 0 0 0 0 0 0 0 0 0 0 0 0 0 1 0 0 1 0 0 1 0 0 1 0 0 1 0 0 1 0 0 1 0 0 1 0 0 0 0 0 0 0 0 0 0 0 0 0 0 0 0 0 0 0 0 0 0 0 0 0 0 0 0 1 0 0 0 0 0 0 1 3 0 1 3 0 0 2 0 1 0 0 0 0 0 0 0 0 0 2 1 0 2 4 0 5 4 0 6 4 0 6 4 0 5 4 0 3 4 0 1 4 0 0 2 1 0 1 0 0 1 0 0 1 0 0 1 0 0 1 0 0 1 0 0 0 0 0 0 0 0 0 0 0 0 0 0 0 0 0 0 0 0 0 0 0 0 0 0 0 0 0 0 0 0 0 1 0 0 1 0 0 1 0 0 1 0 0 1 0 0 1 0 0 1 0 0 1 0 0 1 0 0 2 1 0 0 0 2 2 2 0 0 0 0 0 0 0 0 0 0 0 0 
0 0 0 2 2 2 0 0 0 0 0 0 0 0 0 0 0 0 0 0 0 3 3 3 0 0 0 0 0 0 0 0 0 0 0 0 0 1 0 0 1 0 0 1 0 0 1 0 0 1 0 0 1 0 0 1 0 0 1 0 0 1 0 0 1 0 0 0 0 0 0 0 0 0 0 0 0 0 0 0 0 0 0 0 0 0 0 0 0 0 0 0 0 0 1 0 0 1 0 0 1 0 0 1 0 0 1 0 0 1 0 0 1 0 0 0 2 1 0 4 3 0 5 4 0 5 6 0 5 6 0 4 6 0 4 6 0 2 6 0 0 4 0 0 3 0 0 1 0 0 1 0 0 1 0 0 1 0 0 1 0 0 0 0 0 0 0 0 1 1 1 1 1 1 1 1 1 1 1 1 1 1 1 1 1 1 1 1 1 1 1 1 0 1 0 0 1 0 0 1 0 0 1 0 0 1 0 0 1 0 0 1 0 0 1 0 1 3 2 0 1 0 0 1 0 0 1 0 0 0 0 2 2 2 4 4 4 0 0 0 
0 1 0 1 3 0 2 4 1 0 2 0 1 3 0 3 5 2 1 3 0 0 1 0 0 1 0 0 1 0 0 1 0 0 1 0 0 1 0 0 1 0 0 1 0 0 1 0 0 2 1 0 1 3 0 1 3 0 1 3 0 1 3 0 1 3 0 1 3 0 1 3 0 0 2 0 0 2 1 1 3 1 1 3 1 1 3 1 1 3 0 0 2 0 1 0 0 1 0 0 2 0 0 2 0 0 3 0 0 2 1 0 2 1 0 1 3 0 0 4 3 0 5 4 0 5 6 0 5 6 0 4 4 0 4 4 0 2 4 0 0 3 0 0 1 0 0 0 0 0 0 0 0 0 0 0 0 0 0 0 0 0 0 0 0 0 0 0 1 0 0 1 0 0 1 0 0 1 0 0 1 0 0 1 0 0 1 0 0 0 0 0 0 1 0 0 1 0 0 1 0 0 1 0 0 1 0 0 1 0 0 1 0 0 1 0 0 1 0 0 1 0 0 2 1 0 2 1 0 2 1 1 3 2 0 2 1 0 1 0 
2 4 1 0 1 0 0 1 0 0 1 0 0 1 0 3 5 2 4 6 3 0 1 0 0 0 0 0 1 0 0 0 0 0 1 0 0 0 0 0 1 0 0 0 0 0 2 0 0 1 0 0 1 0 0 0 2 0 1 0 0 0 2 0 1 0 0 0 2 0 1 0 1 1 3 1 1 1 1 1 3 1 1 1 0 0 2 0 0 0 0 0 2 0 0 0 0 1 0 0 1 0 0 2 0 0 3 0 0 3 1 0 2 0 0 1 2 0 0 4 1 0 4 3 0 4 3 0 4 3 0 4 3 0 2 1 0 0 1 0 0 0 0 0 0 0 0 0 0 0 0 0 0 0 0 0 0 0 0 0 0 0 0 0 0 0 0 0 1 0 0 1 0 0 1 0 0 1 0 0 1 0 0 1 0 0 1 0 0 1 0 0 0 0 0 0 1 0 0 0 0 0 1 0 0 1 0 0 1 0 0 1 0 0 1 0 0 1 0 0 2 1 0 2 1 0 1 0 0 1 0 0 1 0 0 1 0 1 3 2 
4 4 2 0 0 0 0 0 0 7 7 5 0 0 0 0 0 0 1 1 0 0 0 0 1 0 0 0 0 0 1 0 0 0 0 0 2 1 0 1 1 0 3 2 0 2 2 0 0 0 0 1 1 0 1 1 1 1 1 0 1 1 1 1 1 0 1 1 1 1 1 0 1 0 0 2 1 0 3 1 2 3 2 0 3 1 2 3 2 0 2 0 1 2 1 0 3 2 0 2 3 0 2 5 0 0 5 0 0 4 0 0 3 1 0 1 0 0 0 2 1 1 3 1 1 3 1 1 1 1 1 1 0 2 1 0 3 1 0 4 1 0 4 1 0 2 1 1 1 1 1 1 1 1 1 1 1 1 1 1 1 1 2 1 0 2 1 0 2 1 0 2 1 0 2 1 0 2 1 0 4 0 0 4 0 0 4 0 0 2 1 0 2 0 1 1 1 1 2 0 1 1 1 1 1 1 1 1 1 1 1 1 1 1 1 1 1 1 1 2 2 2 0 0 0 0 0 0 12 12 12 1 1 1 0 0 0 6 6 6 
5 4 2 0 0 0 23 22 20 39 39 37 17 16 14 1 0 0 6 5 3 5 4 2 3 0 0 1 0 0 3 0 0 4 0 0 4 0 0 5 1 0 5 1 0 4 3 1 7 6 4 6 7 2 7 6 4 7 6 2 7 6 4 8 7 3 8 7 5 8 7 3 4 0 0 4 3 0 7 3 2 9 5 2 11 7 6 11 7 4 11 7 6 11 7 4 11 8 1 11 8 0 8 9 3 7 9 4 5 7 4 4 6 3 3 3 1 3 2 0 5 1 0 6 1 0 5 2 0 3 2 0 1 4 0 0 5 0 0 6 0 0 6 0 0 2 1 1 1 1 1 1 1 1 1 1 1 1 1 1 1 1 2 1 0 2 1 0 3 2 0 3 2 0 3 2 0 3 2 0 5 1 0 5 1 0 5 1 0 5 1 0 4 0 0 2 0 1 4 0 1 2 0 1 2 0 1 2 0 1 2 0 1 2 0 1 1 0 0 1 1 1 1 0 0 8 8 8 40 38 39 21 21 21 1 1 1 2 2 2 
8 4 3 11 10 8 71 67 66 49 48 46 4 0 0 15 11 10 10 6 5 3 0 0 30 24 24 36 32 31 31 25 25 43 37 37 31 25 25 31 25 25 11 5 5 11 5 5 13 9 6 10 9 4 17 13 10 15 12 7 11 7 4 17 14 9 15 11 8 3 0 0 68 63 60 87 84 79 50 45 42 19 14 10 19 14 11 14 9 5 22 17 14 23 18 14 19 14 8 21 17 8 19 16 11 20 19 14 22 21 17 44 40 37 42 37 33 42 33 28 32 19 13 42 27 20 34 20 11 15 2 0 6 0 0 2 2 0 0 4 0 0 3 0 5 5 3 2 1 0 2 1 0 43 42 40 83 82 80 47 46 44 72 71 69 55 54 52 58 57 55 16 15 13 3 2 0 4 3 1 6 5 3 13 12 10 9 5 2 11 7 4 7 3 2 7 3 2 4 0 0 31 27 26 30 26 25 33 29 28 14 10 9 3 0 0 4 0 0 2 1 0 11 7 6 1 0 0 50 46 45 72 71 69 13 12 10 5 4 2 
9 5 4 58 54 53 71 67 66 82 78 77 42 38 37 3 0 0 12 6 6 8 2 2 24 18 18 33 27 27 23 17 17 24 18 18 41 32 33 35 26 27 17 8 9 21 13 11 12 7 4 9 6 1 9 6 1 9 6 1 20 15 11 26 21 17 24 19 15 37 32 28 65 60 56 111 106 102 74 69 65 29 24 20 34 26 23 28 20 17 31 23 20 15 7 4 21 14 8 22 17 11 21 16 12 9 4 0 24 19 15 46 37 32 33 18 11 45 25 16 72 45 34 80 50 39 104 72 61 85 57 45 72 50 37 47 30 20 8 0 0 16 11 5 4 0 0 13 12 10 24 23 21 41 40 38 91 90 88 56 55 53 80 79 77 73 72 70 84 83 81 51 50 48 16 15 13 1 0 0 7 6 4 3 2 0 3 0 0 10 6 3 8 2 2 9 3 3 4 0 0 18 12 12 28 22 22 28 22 22 17 11 11 7 1 1 8 4 3 11 7 6 3 0 0 40 36 35 77 73 72 71 67 66 64 63 61 20 19 17 
116 112 111 103 99 98 74 70 69 67 63 62 37 31 31 9 3 3 25 19 19 22 16 16 19 10 11 48 39 40 62 53 54 52 43 44 67 57 58 35 25 26 19 9 10 25 17 15 11 6 3 21 16 12 9 4 0 4 0 0 87 82 78 198 193 189 213 208 204 196 191 187 216 208 205 184 176 173 215 207 204 213 205 202 219 211 208 222 214 211 123 115 112 6 0 0 18 13 9 19 14 10 24 19 15 12 4 1 39 28 24 59 42 35 59 32 23 106 70 58 148 102 87 161 110 93 167 114 98 147 95 81 135 91 78 137 99 88 108 78 68 17 0 0 7 0 0 106 102 99 210 206 203 213 209 206 189 185 182 200 196 193 190 186 183 195 191 188 190 189 187 198 197 195 203 202 200 83 82 80 3 2 0 6 5 3 5 4 2 9 5 4 21 15 15 17 8 9 37 28 29 60 51 52 60 51 52 59 50 51 56 50 50 22 16 16 18 12 12 22 16 16 6 2 1 38 34 33 71 67 66 74 70 69 87 83 82 84 80 79 
66 62 61 60 59 57 86 82 81 64 60 59 32 28 27 24 20 19 9 3 3 19 13 13 27 21 21 28 19 20 45 36 37 36 27 28 32 23 24 20 11 12 29 19 20 19 11 9 15 10 7 3 0 0 17 12 8 12 9 4 44 39 35 114 111 106 132 127 123 122 117 113 124 119 115 125 120 116 121 113 110 125 120 116 132 124 121 128 123 119 74 66 63 14 9 5 21 18 13 13 10 5 19 16 11 14 7 1 32 19 13 41 18 10 79 43 31 153 106 90 155 97 77 171 106 84 176 108 85 167 101 79 143 84 66 141 89 75 163 121 109 98 68 60 18 5 0 54 51 46 131 126 123 114 110 107 125 121 118 127 123 120 119 115 112 120 116 113 116 115 113 119 118 116 108 107 105 35 34 32 7 6 4 1 0 0 2 1 0 1 0 0 19 13 13 22 13 14 17 8 9 23 14 15 29 20 21 30 24 24 28 22 22 13 9 8 21 15 15 3 0 0 5 1 0 15 14 12 62 58 57 82 81 79 39 38 36 19 18 16 
9 8 4 17 18 13 14 13 9 5 4 0 27 26 22 31 30 26 7 3 0 14 10 7 5 1 0 47 42 39 49 44 41 42 37 34 60 55 52 34 29 26 6 0 0 18 13 10 8 4 1 8 7 3 11 7 4 1 0 0 11 7 4 1 0 0 18 14 11 116 112 109 130 126 123 122 118 115 118 113 110 129 125 122 39 34 31 3 0 0 14 9 6 11 7 4 15 14 10 5 4 0 9 5 2 11 4 0 15 0 0 28 0 0 100 58 42 167 112 91 187 120 93 179 104 73 172 93 62 158 83 54 159 93 67 146 89 69 139 92 76 141 107 95 28 13 6 5 0 0 11 3 0 33 28 24 132 127 123 123 118 114 114 110 107 122 118 115 117 116 114 9 8 6 15 15 15 0 0 0 0 0 0 10 10 10 4 4 4 0 0 0 3 0 0 4 0 0 21 15 15 53 47 47 36 30 30 47 43 42 45 41 40 10 9 7 8 4 3 1 0 0 10 9 7 7 7 5 1 0 0 13 13 11 17 17 15 0 0 0 
6 8 3 7 9 4 3 5 0 1 2 0 19 20 15 22 23 18 5 6 1 12 11 7 10 9 5 31 27 24 44 40 37 44 40 37 22 18 15 15 11 8 11 6 3 11 7 4 13 12 10 2 2 0 16 15 13 10 10 8 4 3 1 8 8 6 18 17 15 47 46 44 44 43 41 81 80 78 57 53 52 42 41 39 12 8 7 8 7 5 3 0 0 10 9 7 6 6 4 3 3 1 4 3 0 10 3 0 14 0 0 50 21 7 131 86 65 163 106 77 172 102 68 187 109 71 186 107 68 176 101 62 157 91 57 140 84 57 141 96 73 156 125 107 92 75 67 6 0 0 7 0 0 25 18 12 64 59 55 71 66 62 56 52 49 71 67 64 65 64 62 6 5 3 0 0 0 4 4 4 7 7 7 0 1 0 1 2 4 0 0 2 3 0 0 15 11 10 10 4 4 29 25 24 21 17 16 25 24 22 11 10 8 2 2 0 1 0 0 1 1 0 5 5 3 7 9 6 1 3 0 1 3 0 7 9 6 2 7 3 
11 16 10 0 2 0 13 18 12 12 14 9 16 18 13 25 27 22 5 7 2 6 7 2 7 8 3 8 7 3 11 10 6 14 13 9 4 3 0 12 11 7 15 11 8 6 5 3 9 9 9 1 3 2 7 7 7 5 7 6 6 6 6 12 14 13 5 5 5 0 0 0 16 16 16 118 118 118 49 47 48 0 0 0 6 4 5 14 14 14 15 13 14 0 0 0 5 5 5 5 5 5 6 5 3 10 3 0 16 0 0 70 41 25 131 87 62 145 89 54 182 113 72 187 113 66 190 114 65 202 131 85 147 90 47 113 67 31 133 100 67 154 132 108 106 92 81 26 17 10 15 8 2 7 0 0 111 104 98 107 102 98 85 81 78 141 137 134 82 81 79 9 8 6 4 4 4 3 3 3 0 0 2 3 4 6 1 2 6 4 5 7 4 2 3 1 0 0 3 0 0 10 9 7 1 0 0 5 5 3 10 10 8 1 3 0 9 9 7 7 9 6 3 5 2 0 2 0 7 12 8 3 8 4 0 2 0 2 8 4 
1 6 0 10 15 9 5 10 4 0 4 0 17 22 16 22 27 21 6 8 3 7 9 4 6 7 2 13 14 9 19 20 15 15 16 11 7 8 3 6 7 2 10 9 5 7 7 5 6 6 6 8 8 10 7 9 8 5 7 6 6 8 7 7 8 10 6 7 11 6 10 13 9 10 14 15 16 20 2 3 5 4 6 5 9 9 9 0 0 2 5 4 9 3 3 5 4 2 3 3 0 0 7 4 0 12 2 0 28 1 0 89 52 34 128 82 56 144 90 54 147 86 42 148 80 33 162 90 42 156 89 44 109 56 14 100 61 22 101 72 38 158 138 111 133 120 104 103 93 83 34 25 16 6 0 0 18 11 5 19 14 10 26 22 19 8 7 5 5 3 4 1 0 0 1 0 0 2 2 4 3 3 5 5 5 7 0 0 2 0 1 0 5 5 5 5 4 2 1 0 0 6 5 3 9 9 7 2 2 0 3 5 2 3 5 2 2 4 1 3 5 2 0 1 0 5 7 4 1 6 2 0 3 0 7 12 8 1 6 2 
5 7 2 6 8 3 5 7 2 10 12 7 19 21 16 18 20 15 10 12 7 5 7 2 7 9 4 12 14 9 15 17 12 13 15 10 9 11 6 8 10 5 9 10 5 9 9 7 6 4 7 13 11 14 8 9 4 5 7 2 10 15 9 7 11 10 0 3 8 3 7 16 0 5 13 0 7 10 7 13 13 0 5 1 6 8 5 4 4 4 6 7 12 5 3 8 12 2 3 11 0 0 9 2 0 22 4 0 88 45 36 118 67 50 129 79 52 123 75 39 136 87 46 128 71 28 140 71 32 161 93 58 120 67 33 132 93 60 111 81 53 142 120 96 141 123 103 135 119 104 60 48 34 7 0 0 16 12 3 3 0 0 0 0 0 6 6 8 2 1 6 3 1 6 2 0 5 2 0 3 2 0 3 3 1 2 4 3 1 5 4 2 3 3 1 3 3 1 4 4 2 4 4 2 4 4 2 5 5 3 4 4 2 4 4 2 4 4 4 4 4 4 5 5 5 5 5 5 7 5 6 7 5 6 8 6 7 8 6 7 
8 10 5 9 11 6 7 9 4 10 12 7 17 19 14 17 19 14 11 13 8 9 11 6 7 9 4 11 13 8 14 16 11 12 14 9 9 11 6 8 10 5 8 10 5 8 8 6 12 8 9 12 8 9 9 10 4 6 9 0 3 8 1 7 12 8 8 11 16 3 6 13 0 7 13 0 7 10 0 2 0 2 7 1 13 14 8 5 4 0 8 6 9 11 5 9 9 0 0 15 2 0 10 2 0 20 1 0 103 57 44 124 67 50 134 83 56 147 101 67 140 95 54 139 86 46 151 78 45 164 91 59 138 79 49 124 77 47 112 75 48 132 102 76 154 132 109 113 96 78 76 63 46 15 6 0 4 0 0 1 0 0 5 5 5 0 0 2 3 2 8 3 2 8 5 3 8 7 2 8 6 1 5 5 1 2 4 0 0 1 0 0 3 2 0 2 2 0 3 3 1 3 3 1 3 3 1 4 4 2 3 3 1 3 3 1 4 4 2 5 4 2 5 3 4 6 5 3 8 4 5 8 4 3 8 4 5 8 4 3 
9 10 5 10 11 6 8 9 4 8 9 4 14 15 10 14 15 10 10 11 6 10 11 6 9 10 5 12 13 8 13 14 9 12 13 8 11 12 7 10 11 6 9 10 5 7 8 3 11 7 6 5 4 0 9 12 3 8 14 2 2 5 0 6 9 2 9 9 9 0 0 2 0 0 2 10 12 11 0 2 0 0 3 0 7 7 0 10 6 0 10 2 0 7 0 0 12 3 0 7 0 0 9 1 0 25 7 0 101 61 49 116 65 48 127 77 50 140 90 55 141 89 49 160 101 59 163 87 51 176 96 61 169 94 62 147 82 50 124 69 38 113 72 44 132 106 83 120 103 85 88 75 58 8 0 0 16 12 3 2 1 0 3 3 3 2 3 5 0 0 5 1 0 6 1 0 6 3 1 6 4 2 5 3 1 2 3 1 2 2 1 0 3 2 0 3 2 0 4 3 0 4 3 0 4 3 0 5 4 0 4 3 0 4 3 0 4 3 0 7 3 0 7 3 2 7 3 0 8 2 2 7 2 0 7 1 1 7 2 0 
8 9 4 10 11 6 8 9 4 8 9 4 12 13 8 11 12 7 8 9 4 9 10 5 9 10 5 11 12 7 12 13 8 11 12 7 11 12 7 11 12 7 9 10 5 7 8 3 11 10 8 4 5 0 7 10 3 8 13 6 6 9 2 6 7 1 10 6 3 8 2 2 6 0 0 12 8 5 5 4 0 7 7 0 10 6 0 18 9 0 16 1 0 31 12 5 51 31 22 42 23 9 59 37 23 75 46 30 101 58 41 108 56 35 121 67 41 118 64 30 142 89 49 168 109 69 149 77 39 147 71 35 148 73 41 160 91 60 128 73 42 109 68 38 107 81 58 115 98 78 80 67 50 19 10 0 5 1 0 4 3 0 2 2 2 0 0 2 0 1 5 0 1 6 0 0 5 1 0 6 3 1 6 3 3 5 4 4 6 4 4 4 4 3 0 4 3 0 5 4 0 5 4 0 5 4 0 6 5 1 5 4 0 5 4 0 6 2 0 6 2 0 7 3 0 7 3 0 8 3 0 8 3 0 10 2 0 9 1 0 
10 11 6 14 15 10 13 14 9 13 14 9 15 16 11 13 14 9 10 11 6 12 13 8 10 11 6 11 12 7 11 12 7 10 11 6 11 12 7 11 12 7 9 10 5 7 7 5 14 14 14 8 10 9 1 5 6 4 8 9 10 12 11 7 5 6 15 5 6 32 17 20 52 37 40 24 12 14 22 16 16 38 33 30 42 35 29 47 32 25 48 23 16 98 64 54 125 82 66 139 91 71 149 101 81 141 90 69 119 62 42 112 52 28 120 59 31 125 66 34 147 93 57 151 97 59 123 65 28 100 40 4 105 42 11 131 76 46 116 77 46 114 87 58 111 86 64 103 85 65 110 94 78 40 31 16 26 19 9 6 3 0 1 1 0 3 3 5 3 4 8 2 3 8 2 1 7 3 2 8 4 3 8 4 4 6 3 3 5 1 3 2 3 4 0 3 4 0 5 4 0 5 4 0 5 4 0 6 5 0 7 4 0 7 4 0 7 2 0 7 2 0 8 3 0 9 4 0 11 3 0 11 4 0 11 3 0 11 4 0 
11 12 7 15 16 11 15 16 11 16 17 12 18 19 14 15 16 11 11 12 7 13 14 9 10 11 6 11 12 7 11 12 7 11 12 7 11 12 7 11 12 7 10 11 6 8 9 4 7 9 6 6 10 9 1 5 6 3 7 8 12 12 14 7 1 1 13 0 0 36 18 16 64 44 45 28 10 10 20 10 9 23 15 12 23 12 6 30 12 2 43 11 0 90 44 28 116 58 34 143 82 54 137 76 48 115 55 29 114 52 27 113 52 24 120 59 31 143 84 54 128 78 45 122 73 40 129 80 47 113 62 31 117 63 37 105 59 35 99 69 43 100 79 52 109 84 62 101 79 58 146 129 111 67 54 38 38 30 19 27 23 14 9 5 2 0 0 0 0 0 2 0 0 4 1 0 5 3 2 7 6 4 9 6 6 8 4 4 6 2 2 2 2 3 0 2 3 0 4 3 0 4 3 0 4 3 0 5 4 0 6 3 0 6 3 0 8 3 0 8 3 0 9 4 0 10 5 1 12 5 0 13 6 0 13 6 0 13 6 0 
12 11 7 15 14 10 15 14 10 15 14 10 18 17 13 16 15 11 12 11 7 13 12 8 10 9 5 12 11 7 13 12 8 12 11 7 12 11 7 12 11 7 12 11 7 9 10 4 0 8 0 2 9 1 4 9 3 7 7 5 11 7 4 16 7 2 31 14 6 48 26 15 40 15 8 34 14 5 38 25 19 37 28 19 39 30 15 63 45 25 113 77 53 141 90 61 145 85 51 150 87 52 123 64 30 86 32 0 112 55 26 106 49 20 109 52 25 119 65 37 104 59 30 99 58 30 131 85 59 140 94 71 131 84 64 92 51 33 92 61 41 80 55 35 95 69 46 92 66 43 139 118 97 129 112 94 34 22 8 54 48 36 35 30 24 7 3 0 8 4 5 4 2 5 2 0 3 2 0 3 6 1 5 6 4 5 6 4 5 4 4 2 2 2 0 1 3 0 3 4 0 3 4 0 4 3 0 5 4 0 6 2 0 6 2 0 8 5 0 9 6 1 10 5 1 11 6 2 11 6 2 11 6 2 11 6 2 11 6 2 
13 12 8 15 14 10 14 13 9 14 13 9 17 16 12 16 15 11 12 11 7 13 12 8 10 9 5 13 12 8 14 13 9 13 12 8 11 10 6 12 11 7 12 11 7 9 12 5 5 13 2 0 10 1 9 9 7 9 5 4 9 0 0 33 19 16 66 46 37 79 55 45 37 10 1 50 27 19 56 41 36 58 48 39 46 34 20 51 30 9 124 82 57 145 90 59 166 106 72 144 86 49 121 73 37 79 35 0 110 59 30 96 44 20 106 56 31 94 50 25 100 63 37 93 57 31 103 61 39 124 81 62 101 60 42 77 40 22 95 64 46 80 51 33 91 61 37 100 70 46 137 112 90 150 132 110 111 95 79 53 44 29 63 54 45 52 47 41 26 21 18 19 13 13 11 5 7 6 0 2 4 0 0 5 1 0 6 2 1 5 4 0 3 3 1 2 4 1 4 5 0 4 5 0 5 4 0 6 5 1 7 3 0 7 3 0 9 5 2 10 7 2 10 6 3 10 7 2 11 6 3 10 7 2 9 5 2 9 6 1 
11 10 6 11 10 6 11 10 6 11 10 6 11 10 6 11 10 6 11 10 6 11 10 6 6 5 1 8 7 3 11 10 6 13 12 8 13 12 8 12 11 7 11 10 6 8 10 5 2 8 4 8 14 12 10 3 10 18 5 15 12 0 3 27 6 11 47 23 21 55 30 26 33 5 4 21 0 0 27 11 14 14 2 2 18 5 0 23 0 0 53 8 0 89 33 8 86 29 2 62 13 0 54 21 0 80 51 21 104 62 40 90 45 26 91 50 30 85 50 28 80 52 28 83 53 29 95 54 34 99 58 38 89 54 32 77 45 24 76 43 24 84 49 29 89 53 29 99 65 38 122 94 70 137 115 92 112 94 74 67 54 37 49 39 27 57 48 39 47 38 33 39 31 28 34 26 24 31 23 21 24 16 14 14 6 3 8 0 0 4 1 0 5 6 1 1 6 2 2 4 1 2 4 1 5 5 3 5 5 3 5 4 2 3 2 0 10 6 5 7 3 0 6 2 1 5 4 0 8 4 3 6 5 1 7 6 4 8 7 3 
11 10 6 11 10 6 11 10 6 11 10 6 11 10 6 11 10 6 11 10 6 11 10 6 10 9 5 12 11 7 13 12 8 13 12 8 12 11 7 11 10 6 10 9 5 9 10 5 8 14 10 6 6 4 17 2 9 24 1 11 31 4 11 44 18 21 46 21 17 57 32 28 41 13 12 17 0 0 17 1 4 17 5 5 16 1 0 58 32 19 96 49 29 117 59 35 120 60 36 119 69 44 81 54 24 68 44 16 112 74 55 80 37 21 81 44 26 81 53 32 75 53 30 78 52 29 88 51 32 90 53 34 78 52 29 71 47 23 79 48 28 91 56 34 85 49 23 95 60 32 119 87 62 124 98 75 92 71 50 60 45 26 52 39 23 51 41 29 37 27 18 31 22 15 30 19 15 30 21 16 30 19 15 25 16 11 24 15 10 23 18 12 5 6 1 4 6 3 4 6 3 4 4 2 4 4 2 6 5 3 7 6 4 10 6 5 3 0 0 6 2 1 6 5 3 6 5 3 5 4 2 4 4 2 4 4 2 4 4 2 
12 13 8 12 13 8 12 13 8 12 13 8 12 13 8 12 13 8 12 13 8 12 13 8 12 13 8 12 13 8 12 13 8 11 12 7 10 11 6 9 10 5 10 11 6 10 11 5 5 8 0 18 14 3 29 4 0 33 0 0 68 30 27 86 53 46 77 50 39 65 43 30 55 30 23 69 48 43 75 60 55 70 60 51 66 53 37 141 117 93 168 122 96 168 108 80 172 106 82 159 103 80 104 75 45 73 47 20 124 83 65 98 52 37 72 35 19 68 41 22 74 53 32 77 57 33 90 59 39 91 63 42 77 61 36 66 54 28 71 50 29 81 53 31 85 49 23 105 68 41 123 89 64 105 77 53 68 46 23 57 40 20 60 44 28 47 35 21 33 20 11 27 17 8 28 15 9 28 17 11 31 18 12 29 18 12 30 19 13 31 24 16 19 18 13 16 17 12 12 13 8 7 6 2 2 1 0 3 0 0 5 1 0 9 3 3 8 2 2 7 3 2 3 2 0 1 0 0 4 4 2 8 8 6 7 7 7 1 3 2 
15 16 11 15 16 11 15 16 11 15 16 11 15 16 11 15 16 11 15 16 11 15 16 11 11 12 7 12 13 8 12 13 8 12 13 8 11 12 7 10 11 6 10 11 6 11 12 6 13 13 1 10 0 0 47 8 1 82 31 27 90 40 33 108 66 54 120 92 78 56 34 20 56 33 25 79 60 54 68 53 46 47 35 23 39 24 5 94 68 43 115 68 40 145 85 57 138 72 46 102 46 19 72 43 11 74 49 19 113 72 52 119 73 57 76 39 20 70 39 19 69 47 24 73 51 28 86 55 35 88 60 39 75 59 36 66 51 28 69 46 28 76 48 27 94 58 32 121 84 57 122 88 63 85 57 33 57 35 12 61 43 23 61 45 29 45 31 18 33 21 9 29 16 7 28 15 7 29 16 8 30 17 9 29 16 8 27 17 8 28 19 12 29 26 19 26 25 20 26 23 18 21 18 13 16 11 7 10 5 1 8 0 0 6 0 0 12 4 2 9 3 3 6 2 1 6 5 3 8 7 5 8 8 6 6 6 6 3 5 4 
14 15 10 14 15 10 14 15 10 14 15 10 14 15 10 14 15 10 15 16 11 15 16 11 12 13 8 13 14 9 14 15 10 14 15 10 12 13 8 11 12 7 10 11 6 11 10 5 20 13 5 22 0 0 75 20 17 115 46 41 116 52 43 88 36 25 64 32 21 31 8 0 26 5 2 25 5 4 23 5 1 24 7 0 23 4 0 37 9 0 57 9 0 110 50 26 103 42 13 78 28 0 61 33 0 74 52 15 99 64 36 112 70 46 95 54 32 86 50 26 72 42 18 71 41 17 76 40 18 76 41 21 69 42 21 71 44 25 84 48 34 93 56 40 112 74 51 120 84 58 99 67 44 69 43 20 62 41 20 60 43 25 47 34 18 38 26 12 32 20 8 31 18 9 31 18 10 32 19 11 33 20 12 33 20 12 30 20 11 29 20 11 26 19 11 29 22 14 34 25 18 37 28 21 37 26 22 31 20 16 23 12 10 17 6 4 9 0 0 10 0 0 13 5 3 15 10 7 11 7 4 3 2 0 1 1 0 5 5 3 
10 11 6 10 11 6 10 11 6 11 12 7 11 12 7 11 12 7 11 12 7 12 13 8 14 15 10 15 16 11 16 17 12 14 15 10 12 13 8 9 10 5 7 8 3 9 6 1 11 1 0 33 0 0 122 55 49 158 75 69 141 63 51 115 53 40 75 39 25 50 30 21 16 0 0 15 0 0 26 7 1 18 0 0 34 13 0 88 57 36 127 79 59 146 88 66 153 93 65 142 92 59 88 58 20 73 49 13 106 73 42 102 62 36 114 70 45 103 59 34 92 52 26 87 50 23 86 46 20 87 47 22 87 49 26 95 54 34 106 60 44 114 68 52 122 84 61 102 68 43 73 42 21 65 40 18 68 50 30 54 39 20 34 22 6 32 22 10 33 20 11 33 20 12 33 20 12 34 21 13 35 22 16 33 23 14 32 22 13 31 21 12 29 19 10 30 20 10 33 20 11 37 24 15 42 27 20 44 29 22 43 28 23 42 27 22 33 19 16 20 9 7 9 0 0 7 0 0 6 1 0 5 1 0 3 2 0 3 4 0 
8 10 5 8 10 5 8 10 5 8 10 5 9 11 6 9 11 6 9 11 6 10 12 7 13 15 10 13 15 10 12 14 9 10 12 7 7 9 4 4 6 1 3 5 0 7 4 0 13 0 0 82 42 30 146 68 56 167 74 59 151 64 45 123 55 34 78 41 22 45 26 11 42 25 18 70 53 46 87 69 59 64 45 28 79 57 33 146 115 87 173 125 102 166 108 86 161 101 77 137 86 59 81 46 16 65 36 6 113 79 51 123 83 57 122 72 49 119 67 43 114 67 37 112 67 34 111 68 34 113 70 36 120 71 39 122 71 42 126 72 44 122 75 49 108 70 47 80 48 27 67 39 18 68 46 25 59 42 24 43 30 13 33 24 9 31 23 10 33 23 14 33 22 16 32 21 15 31 20 14 31 20 16 32 21 15 31 20 14 29 19 10 36 23 14 37 23 12 39 22 12 42 25 15 48 29 22 53 34 27 58 39 33 61 42 36 65 47 43 49 34 29 25 14 10 7 0 0 6 0 0 9 4 0 9 6 1 1 0 0 
10 11 6 9 11 6 9 11 6 8 13 7 7 14 7 9 14 8 11 13 8 11 13 8 10 11 6 10 11 6 7 9 4 5 7 2 2 4 0 2 3 0 2 2 0 10 1 0 41 12 0 106 50 33 140 53 36 190 90 74 157 66 47 127 56 36 122 87 67 52 35 19 40 25 18 56 41 34 52 35 25 35 16 0 38 18 0 64 35 5 85 35 8 130 68 43 109 45 18 69 15 0 52 15 0 66 36 10 114 80 55 151 111 86 114 62 38 128 72 45 127 72 41 125 72 38 120 75 36 124 76 36 132 78 40 133 77 42 128 78 45 121 77 48 80 48 25 64 39 19 72 49 31 68 49 32 38 25 8 30 21 4 39 31 18 30 24 12 33 24 15 32 23 16 31 22 15 29 20 13 30 21 16 32 23 16 33 24 17 33 23 13 31 19 3 42 25 9 58 30 18 70 36 26 78 40 31 79 41 32 80 42 33 79 42 34 82 49 40 84 55 49 65 45 38 32 17 12 8 0 0 5 0 0 7 3 2 2 1 0 
14 11 6 10 11 5 7 12 6 3 14 6 3 16 9 3 14 8 6 11 7 7 8 3 2 1 0 6 5 0 2 3 0 0 1 0 6 7 2 8 7 5 4 0 0 21 0 0 85 32 14 121 43 21 161 61 45 187 84 69 153 61 46 106 39 23 50 19 1 28 16 2 9 0 0 8 0 0 14 0 0 13 0 0 13 0 0 44 17 0 99 43 18 139 70 39 143 74 35 137 79 41 77 42 14 57 29 7 91 56 37 188 146 124 132 83 53 125 71 37 137 77 43 131 73 36 133 81 41 132 80 40 141 83 45 136 82 46 120 79 49 77 47 21 59 41 19 63 50 33 60 47 30 42 30 14 31 22 7 34 26 13 35 29 15 29 25 13 32 25 15 34 27 17 32 25 15 31 24 14 34 27 19 33 26 16 31 24 14 35 27 14 33 25 2 59 37 13 79 32 16 104 40 28 126 52 43 120 43 35 111 38 29 115 47 36 118 54 44 109 55 45 85 45 37 26 1 0 14 3 0 1 0 0 4 3 8 1 0 6 
13 5 2 9 6 1 3 8 2 0 11 5 0 11 7 0 10 6 2 7 3 4 4 2 7 3 0 5 4 0 5 6 0 1 3 0 6 8 5 8 7 5 7 1 3 35 7 4 106 43 26 163 75 53 193 90 75 164 60 47 162 70 59 100 32 19 34 2 0 16 4 0 11 2 0 30 20 18 43 29 26 48 34 25 54 43 23 134 110 84 181 125 100 186 117 86 184 117 74 148 95 51 74 43 14 51 29 8 64 37 18 170 136 111 194 154 118 117 69 29 130 77 37 136 81 40 130 83 39 130 86 41 128 79 36 131 87 50 89 58 29 66 44 21 65 52 33 54 47 29 43 36 20 34 27 11 32 26 12 35 29 15 34 28 16 28 24 12 29 25 14 31 27 16 30 26 15 29 25 14 32 28 17 32 26 14 31 24 14 38 26 12 52 34 10 83 46 20 113 46 30 136 48 38 146 47 41 143 42 34 134 40 28 121 33 19 119 35 24 127 53 42 110 53 42 51 14 6 14 0 0 9 5 4 1 0 5 5 5 13 
12 2 1 10 5 2 6 8 5 3 9 5 0 9 6 0 8 5 4 6 5 6 5 3 8 4 3 4 0 0 5 6 1 5 7 2 5 7 4 6 6 4 10 6 7 36 11 7 124 62 49 180 93 76 182 80 68 152 48 39 149 57 46 103 36 20 100 69 49 51 38 21 52 42 32 81 70 64 87 74 66 75 61 50 64 53 31 117 96 69 143 91 67 145 82 51 118 65 23 78 39 0 33 12 0 38 28 3 54 47 21 124 111 77 227 203 159 190 158 109 140 102 53 125 85 34 129 93 41 125 93 42 131 100 53 138 110 70 61 38 7 70 52 30 64 51 34 46 37 20 33 26 8 33 26 8 37 30 14 36 30 14 33 27 13 32 26 12 31 25 13 33 27 15 32 26 14 32 26 14 34 28 16 33 25 12 32 24 13 45 26 12 83 40 23 115 49 33 143 53 44 159 52 46 156 43 37 157 44 36 152 48 35 133 33 18 131 35 23 120 33 23 122 52 44 93 43 36 29 1 0 8 0 0 7 0 7 0 0 5 
9 0 0 7 2 0 4 4 2 1 6 2 0 4 2 0 2 1 2 2 2 5 1 2 10 4 6 4 0 0 7 7 5 5 10 4 3 8 4 8 10 7 12 8 7 30 6 2 104 45 31 143 57 42 134 36 25 157 56 46 158 68 57 140 72 59 130 97 80 48 32 17 38 28 19 48 37 31 46 33 25 23 11 0 18 10 0 32 13 0 67 20 0 107 51 18 108 56 17 96 57 18 58 38 11 35 27 4 59 58 28 73 65 29 158 127 83 210 168 118 216 173 122 186 143 92 187 143 94 208 170 123 229 200 156 172 148 110 71 51 24 65 48 28 47 36 18 38 29 12 34 27 9 38 31 13 39 32 16 34 27 11 32 26 12 35 29 15 32 26 14 34 28 16 34 28 16 34 28 14 35 27 14 33 25 12 34 26 13 55 29 16 101 42 28 139 52 42 163 56 50 171 53 49 167 46 38 163 45 35 159 49 34 144 41 24 144 42 27 116 23 8 116 36 25 109 49 41 69 32 26 14 0 0 16 5 9 3 0 4 
14 4 5 13 7 7 10 10 10 6 10 9 5 9 10 6 7 9 10 5 9 11 5 7 16 7 10 8 4 3 11 11 9 7 12 8 7 12 8 11 16 12 11 10 8 23 3 0 88 31 12 133 52 31 143 50 33 147 51 39 140 52 42 111 43 34 53 16 7 33 14 7 10 0 0 8 0 0 11 0 0 10 0 0 11 5 0 49 33 0 107 67 31 152 98 60 167 107 73 167 116 85 101 75 52 34 22 0 62 52 25 71 48 16 105 46 12 150 78 38 209 140 98 250 183 140 230 161 122 212 149 114 176 131 98 101 70 41 65 44 23 43 30 13 37 25 9 37 28 11 38 31 15 39 32 16 37 30 14 34 27 11 33 27 13 35 29 15 34 26 13 36 28 15 36 28 15 36 28 15 37 27 15 34 25 10 38 29 14 65 33 20 116 44 32 159 58 48 172 59 51 178 57 49 178 57 46 164 48 33 156 50 28 158 56 33 160 58 35 151 54 35 130 44 29 100 32 19 101 54 46 44 16 12 10 0 0 14 5 6 
20 11 14 17 13 14 15 15 15 12 16 15 10 14 15 11 12 14 15 10 14 18 9 14 16 7 12 10 6 7 10 12 11 7 12 8 9 14 10 13 15 10 13 9 6 31 8 0 100 45 25 134 58 35 142 53 35 143 51 36 155 69 56 107 39 28 40 2 0 19 0 0 14 0 0 32 18 17 60 45 42 64 52 40 43 37 13 107 94 60 152 118 81 158 108 71 150 85 53 122 62 36 66 31 9 36 18 0 57 45 19 83 53 25 116 49 20 130 45 14 151 65 32 180 94 61 160 74 47 129 55 30 92 42 17 75 44 23 60 43 25 46 34 20 38 29 14 38 31 15 38 31 15 35 28 12 35 28 12 34 28 14 34 28 14 33 27 13 35 27 14 36 28 15 36 28 15 36 28 15 37 28 13 34 25 10 43 31 15 72 39 24 131 53 40 170 64 51 174 57 48 176 55 44 177 60 43 167 55 33 172 67 38 192 91 61 196 95 65 189 91 64 173 82 61 121 44 28 103 46 35 89 49 41 23 0 0 16 0 0 
10 8 11 9 9 9 5 9 8 4 10 8 4 10 10 6 7 9 8 3 7 8 2 6 13 7 11 10 5 9 8 10 9 7 12 8 9 14 8 8 9 3 15 10 4 52 28 18 111 58 42 136 63 44 144 58 41 143 56 39 142 59 41 116 49 30 117 79 58 80 59 40 50 34 21 71 58 49 89 75 66 75 63 51 29 22 3 55 43 17 76 46 20 86 39 11 129 64 34 99 34 6 78 33 10 54 28 5 48 34 8 72 48 20 114 57 30 134 52 28 147 51 29 136 35 15 144 51 34 131 58 43 90 49 31 56 38 18 40 28 14 31 23 10 40 32 19 38 32 18 35 29 15 34 28 14 34 28 14 35 29 17 34 28 16 31 27 15 34 28 16 35 29 17 35 27 14 35 27 14 36 27 12 34 25 10 43 34 19 76 43 28 140 61 46 170 64 48 175 59 46 175 58 41 174 58 35 177 63 36 198 91 57 221 118 83 205 102 67 175 75 43 181 85 60 159 72 52 122 50 36 114 55 47 69 24 19 29 0 0 
10 11 13 6 10 11 2 11 8 1 12 8 2 11 8 4 8 9 6 4 7 6 1 5 14 7 14 8 6 9 9 10 12 12 14 11 14 15 9 8 5 0 22 12 3 76 48 36 122 70 49 140 70 45 163 85 62 154 72 50 138 57 36 138 72 50 129 88 66 79 57 36 29 13 0 32 18 9 31 14 7 16 2 0 11 4 0 12 1 0 48 24 0 118 74 47 161 92 61 171 102 69 159 113 87 64 38 13 35 21 0 74 54 29 101 56 33 124 57 38 139 53 38 155 66 52 136 56 45 97 37 27 76 44 31 67 51 38 111 103 90 42 36 24 37 31 17 36 30 16 37 31 17 38 32 18 36 30 18 31 27 15 31 27 15 34 30 18 34 28 16 35 29 17 34 28 16 35 27 14 34 26 13 33 24 9 44 35 20 78 46 31 139 62 44 168 63 44 179 68 49 185 70 49 177 61 36 182 69 37 208 101 65 220 119 77 168 69 28 133 35 0 144 49 17 172 82 56 162 83 66 117 49 36 111 52 46 61 8 2 
0 8 7 2 12 11 0 12 8 0 10 6 1 12 8 3 9 7 3 3 5 4 2 5 7 2 8 16 14 17 13 14 16 9 11 8 13 10 5 12 3 0 38 20 10 92 61 43 121 71 36 146 83 42 164 92 54 168 93 61 164 87 61 122 57 37 48 7 0 43 16 5 17 0 0 13 0 0 19 1 1 23 8 3 29 22 6 42 31 9 132 113 83 174 133 101 186 113 78 168 99 60 93 55 19 36 17 0 39 27 1 62 47 26 77 48 30 92 51 33 113 60 44 108 56 42 90 48 36 80 47 38 52 27 22 49 32 25 106 98 87 40 36 24 33 27 15 37 31 19 35 31 19 38 34 22 34 30 19 32 28 17 33 29 18 31 29 17 33 29 18 35 31 19 31 27 15 34 28 14 35 29 15 32 24 11 41 33 20 67 38 22 127 55 33 174 75 52 164 58 34 184 72 48 182 68 41 180 67 33 203 97 58 206 108 63 146 53 9 151 62 18 132 42 5 134 47 17 158 78 55 143 70 53 114 47 38 105 42 33 
0 9 8 2 12 11 0 8 3 0 9 2 0 10 4 6 12 8 5 5 5 6 4 7 8 6 11 9 9 11 7 9 8 9 10 5 15 10 4 15 1 0 53 29 17 108 72 50 133 81 42 144 83 38 157 90 47 162 93 54 173 99 70 174 112 87 90 49 29 39 13 0 34 17 10 18 2 2 52 33 35 90 72 70 79 69 57 52 41 21 93 76 50 107 71 37 121 56 16 104 39 0 77 38 0 64 40 6 44 24 0 37 18 3 56 37 22 61 38 22 74 41 26 66 34 19 74 56 44 57 44 35 48 35 29 32 19 13 28 18 8 38 30 17 37 29 16 34 28 16 36 30 18 38 34 22 33 29 17 33 29 18 36 32 21 30 26 15 31 27 16 31 27 16 29 25 13 34 30 18 36 30 16 31 25 11 41 33 20 73 44 28 124 49 28 161 61 37 171 65 41 180 68 44 180 65 38 180 65 34 186 78 40 218 119 77 184 93 48 168 81 36 139 51 11 119 33 0 143 59 33 150 71 54 122 50 36 113 45 34 
4 10 10 6 15 12 0 11 4 0 13 4 0 9 1 5 12 5 1 1 0 3 1 2 6 6 8 9 9 11 8 10 9 9 8 4 16 7 0 21 3 0 75 43 30 115 73 51 137 84 50 151 92 50 156 93 52 159 94 54 169 101 64 166 107 73 105 69 37 108 84 58 83 68 49 43 31 19 72 53 49 68 50 46 45 32 24 19 7 0 16 0 0 49 18 0 87 38 0 123 69 22 138 90 50 152 108 79 89 50 35 51 21 11 33 17 4 43 27 14 41 13 1 55 32 18 38 32 20 25 28 17 28 27 22 31 24 18 50 32 22 44 25 11 44 32 18 35 27 14 38 30 17 36 30 16 33 27 13 35 29 17 40 34 22 31 27 15 27 23 11 33 29 17 32 28 16 29 25 13 32 26 12 35 29 15 39 33 19 62 33 17 135 57 37 164 57 37 172 60 40 175 58 38 184 62 39 182 61 34 168 53 22 190 83 47 222 129 86 203 116 73 188 100 62 161 72 40 166 76 52 168 82 65 123 47 33 107 35 23 
0 0 2 8 10 9 1 7 3 6 13 5 1 8 0 6 11 4 1 0 0 4 3 1 5 5 7 18 18 20 20 22 21 10 9 4 14 4 0 34 12 0 95 58 42 114 68 44 133 79 43 147 88 48 153 91 50 165 102 61 177 112 72 161 105 68 118 82 46 106 85 54 54 42 20 20 8 0 14 0 0 14 0 0 22 8 0 11 0 0 33 11 0 121 95 68 157 123 77 164 124 73 168 120 80 139 89 62 65 17 5 53 14 7 45 27 17 39 25 12 51 28 14 48 31 15 33 34 18 30 36 24 32 35 26 40 36 27 49 31 17 45 24 7 41 25 9 37 25 9 44 32 18 38 29 14 41 32 17 38 31 15 38 30 17 36 30 16 38 32 18 39 33 19 39 33 19 35 29 15 39 33 19 43 37 21 42 35 19 63 31 16 127 46 29 166 56 39 166 55 38 172 55 38 178 55 39 177 55 34 177 61 36 173 65 36 167 70 35 183 93 58 215 120 90 204 108 83 178 81 62 152 60 45 116 37 24 112 38 25 
22 11 15 24 15 16 14 10 7 11 10 5 9 9 1 13 13 5 8 4 1 10 6 5 8 6 9 19 19 19 22 24 21 13 10 3 18 6 0 50 24 9 108 67 47 122 72 45 141 86 47 147 88 44 155 98 53 157 98 54 158 94 56 159 103 70 128 92 60 30 9 0 24 11 0 10 0 0 20 0 0 24 0 0 51 33 21 69 52 34 73 53 28 156 136 101 137 115 68 113 87 38 105 67 28 64 18 0 67 19 7 63 20 14 44 16 5 34 15 0 37 19 0 40 28 4 31 29 8 26 27 11 30 27 18 32 26 14 32 21 0 43 29 3 43 28 7 41 26 7 49 33 17 41 28 11 51 38 22 44 32 16 40 28 12 45 36 19 41 32 17 32 25 9 33 26 10 32 25 9 32 25 9 28 21 3 27 18 1 62 29 12 135 52 38 157 49 37 159 51 39 164 54 41 171 55 42 175 59 44 179 66 48 160 51 30 159 61 34 156 58 33 159 57 35 167 60 44 162 54 44 143 42 34 122 38 28 112 35 25 
36 15 22 33 17 20 25 14 12 18 9 4 19 12 4 19 12 4 18 10 7 16 11 8 10 8 9 9 9 9 10 12 9 11 8 0 21 7 0 63 36 17 110 68 46 135 81 53 140 82 44 141 84 41 148 94 48 158 101 58 159 97 60 155 101 67 141 104 75 64 42 18 23 10 0 28 16 4 45 25 18 83 60 52 99 80 65 85 67 43 48 27 0 50 30 0 62 43 0 61 33 0 91 51 16 124 76 53 141 95 82 130 90 80 84 56 44 82 61 40 82 67 36 61 48 16 60 45 22 61 48 31 52 40 28 47 35 21 53 41 15 45 31 2 56 38 14 33 12 0 36 18 0 27 9 0 35 18 0 32 17 0 32 19 0 38 25 6 30 19 1 37 26 8 51 40 22 48 37 19 55 44 26 69 61 42 79 68 50 111 82 64 144 75 59 150 62 48 164 81 65 161 78 62 163 74 60 162 70 55 153 60 43 145 54 35 147 61 38 147 59 37 143 46 29 143 41 29 134 31 24 112 19 11 98 24 13 87 23 11 
37 6 14 49 22 27 62 41 40 49 31 27 43 30 24 23 12 6 24 13 11 24 16 14 14 10 11 5 5 3 3 5 0 9 6 0 28 12 0 83 55 34 111 67 42 136 81 51 147 88 56 149 91 54 160 105 66 204 149 110 235 175 139 241 188 154 217 183 148 204 185 153 195 185 160 182 174 155 118 98 87 188 164 152 220 199 180 195 175 150 205 184 153 194 170 136 187 158 124 172 133 102 201 145 120 253 196 177 240 198 182 245 216 200 243 222 201 229 214 185 232 217 178 153 131 94 190 156 131 228 192 176 232 206 193 221 202 185 214 193 164 217 194 162 186 162 136 133 109 85 148 126 103 156 134 111 159 138 117 160 142 120 165 148 128 150 133 113 123 108 89 121 108 89 133 120 101 128 115 96 130 117 98 135 124 104 128 115 96 146 126 102 155 115 90 169 123 99 171 131 105 157 120 94 164 119 96 156 108 85 158 106 84 169 113 90 152 96 71 146 84 61 128 53 34 104 22 8 105 23 12 114 42 30 98 49 34 86 49 30 
76 36 37 107 69 68 138 105 100 114 85 77 85 61 49 34 14 3 27 9 0 25 11 2 22 12 3 19 10 1 16 10 0 16 7 0 37 19 0 105 75 51 112 71 43 126 77 47 134 81 49 140 87 53 160 112 74 200 152 114 224 172 135 255 231 197 255 227 192 255 236 203 252 238 211 226 214 190 165 146 129 149 126 110 207 186 165 255 252 227 249 228 199 255 237 207 255 227 199 255 217 191 211 156 135 189 137 116 255 233 214 253 226 205 255 236 211 250 233 203 238 220 182 193 167 130 179 139 114 226 185 165 255 234 219 248 223 203 255 245 215 255 228 198 245 215 187 181 151 125 223 195 171 255 230 205 255 235 211 255 238 215 255 239 215 214 196 174 138 121 101 104 89 68 111 96 77 130 117 98 132 121 103 104 93 75 77 66 48 102 87 66 157 133 107 162 136 109 100 83 57 85 71 44 127 111 86 130 110 86 139 115 91 124 94 70 144 108 82 162 116 92 169 108 87 134 67 48 137 68 52 158 95 78 129 84 65 111 74 55 
150 101 86 146 99 83 136 91 72 125 84 64 127 89 68 135 100 78 136 106 82 130 102 80 134 110 86 132 108 84 122 100 76 149 125 99 135 108 81 147 116 87 146 111 81 169 130 99 150 112 76 143 108 70 164 129 91 227 193 155 217 183 146 236 203 168 255 232 199 224 201 169 228 209 179 237 217 192 198 176 153 212 190 167 184 164 140 241 221 197 249 229 204 213 191 167 250 223 196 227 196 168 235 199 173 236 200 176 202 172 148 255 228 204 218 192 167 207 183 155 245 220 190 215 188 158 246 214 189 205 173 148 238 210 188 255 231 206 209 182 155 241 211 183 241 206 178 218 181 154 198 162 136 251 217 190 250 218 193 243 215 191 241 214 193 222 200 179 127 109 89 104 87 69 123 110 93 133 121 107 148 138 126 128 120 107 145 139 127 132 120 106 148 126 105 147 122 100 139 122 104 125 117 98 129 122 106 153 147 131 123 115 96 102 87 66 95 69 44 149 114 86 173 123 96 141 81 55 153 87 65 144 77 58 163 100 83 149 88 70 
92 34 10 127 71 46 152 96 71 143 92 65 136 86 59 161 116 87 209 168 138 245 206 175 228 192 160 206 171 139 189 153 121 236 201 169 244 208 176 205 169 137 184 148 116 247 211 179 237 202 170 235 202 169 161 128 95 246 216 182 245 214 183 205 176 146 255 232 204 207 180 153 227 199 175 231 205 182 201 174 153 255 244 223 203 178 158 199 174 154 247 224 206 168 143 123 237 206 185 237 205 182 227 195 172 255 226 203 216 184 161 255 237 214 238 206 183 236 204 181 254 222 199 212 180 157 255 226 203 237 205 182 219 187 164 224 192 169 228 196 173 255 222 197 242 205 179 253 216 189 240 203 177 189 153 129 255 229 207 212 181 160 208 181 162 228 205 187 131 112 97 153 135 121 134 120 107 103 93 83 82 73 64 85 81 72 108 103 97 133 123 113 154 132 118 136 113 97 140 126 113 124 116 105 86 86 76 95 97 86 116 117 103 141 134 116 143 125 103 145 115 89 167 126 98 142 91 64 146 86 62 148 83 63 137 70 54 105 38 22 
99 33 7 111 47 20 134 70 43 152 92 64 158 101 72 158 105 74 167 116 85 179 133 100 187 141 108 165 120 87 178 132 99 199 154 121 178 132 99 187 141 108 195 149 116 180 135 104 185 141 116 165 125 100 172 132 107 239 198 176 255 227 205 255 230 209 255 224 205 255 232 214 255 232 216 244 208 194 224 188 174 254 220 208 255 226 216 220 186 176 176 143 134 255 221 211 255 225 212 225 186 171 235 196 181 255 223 208 255 229 214 226 187 172 247 208 193 255 230 215 255 220 205 227 188 173 251 212 197 254 215 200 225 186 171 214 175 160 249 210 195 254 215 198 233 196 177 231 196 176 255 234 214 255 225 206 255 225 207 255 228 211 251 225 210 242 220 206 138 120 108 136 119 109 67 54 45 30 21 14 25 18 12 24 19 13 43 38 34 109 100 93 140 122 110 140 122 108 103 90 81 37 33 24 19 20 14 21 24 17 43 44 36 100 96 84 137 121 105 141 116 94 155 119 97 142 97 74 148 97 76 135 79 62 104 48 35 90 32 20 
100 41 23 91 34 14 103 48 28 134 82 60 158 107 86 157 109 86 150 105 82 148 106 81 139 97 73 151 109 84 142 100 76 130 88 63 139 97 73 143 101 76 137 92 69 132 90 68 131 90 72 134 95 78 135 96 79 166 127 112 171 134 118 165 127 114 158 122 110 160 124 112 167 130 121 157 123 114 148 113 107 161 128 121 144 109 103 147 114 109 160 127 122 145 110 106 167 130 122 150 112 103 153 115 106 161 123 114 168 130 121 134 96 87 154 116 107 167 129 120 159 121 112 150 112 103 164 126 117 134 96 87 156 118 109 163 125 116 131 93 84 165 128 119 162 130 117 154 125 109 163 135 121 155 127 113 152 126 113 156 132 120 144 124 113 159 141 131 152 135 128 104 91 85 44 33 29 62 53 48 124 119 115 84 80 77 49 45 42 78 70 67 168 154 145 137 123 112 57 48 41 31 28 23 102 104 101 85 90 86 32 34 29 54 51 42 130 120 108 155 136 121 147 118 100 142 105 87 132 90 74 98 54 41 83 39 28 83 39 30 
51 16 12 53 18 12 52 19 14 51 21 13 60 31 25 72 45 36 74 49 42 70 48 37 83 60 52 62 40 29 67 44 36 76 54 43 67 44 36 58 36 25 68 43 36 68 44 34 70 43 32 67 40 29 66 39 28 62 35 26 56 29 20 68 41 32 66 39 32 62 37 30 59 34 29 62 37 32 58 33 29 62 38 34 67 42 38 63 39 37 58 34 32 58 32 31 59 31 28 70 42 38 67 39 35 67 39 35 59 31 27 70 42 38 62 34 30 59 31 27 65 37 33 62 34 30 68 40 36 66 38 34 61 33 29 64 36 32 73 45 41 56 31 26 61 36 29 50 27 19 57 37 28 57 37 28 62 43 36 53 36 29 57 40 33 55 40 35 84 70 67 53 43 41 25 17 15 37 32 29 100 95 92 62 58 57 39 35 34 46 41 38 78 67 61 64 53 47 40 35 31 39 39 37 79 83 84 61 67 67 24 28 27 22 23 18 58 51 43 65 51 40 63 41 28 66 40 27 50 20 10 43 13 3 54 24 16 49 18 13 
13 0 0 13 0 0 11 0 0 11 0 0 10 0 0 8 0 0 7 0 0 6 0 0 7 0 0 6 0 0 7 0 0 7 0 0 7 0 0 7 0 0 13 1 1 8 0 0 10 0 0 13 0 0 10 0 0 13 0 0 10 0 0 10 0 0 13 0 0 10 0 0 15 1 0 10 0 0 13 0 0 12 0 0 10 0 0 10 0 0 16 2 2 10 0 0 13 0 0 10 0 0 12 0 0 10 0 0 16 1 0 10 0 0 11 0 0 10 0 0 11 0 0 12 0 0 12 0 0 10 0 0 11 0 0 10 0 0 11 0 0 12 0 0 11 0 0 23 8 3 10 0 0 11 0 0 10 0 0 8 0 0 8 0 0 7 0 0 6 0 0 7 0 0 5 0 0 3 0 0 14 10 9 1 0 0 1 0 0 5 1 0 6 0 0 8 0 0 8 4 3 0 0 2 0 1 4 0 5 9 0 4 7 0 0 0 10 5 2 8 0 0 16 2 0 14 0 0 14 0 0 17 0 0 14 0 0 14 0 0 
6 0 2 4 0 0 3 0 0 7 3 4 4 2 3 0 0 0 0 0 0 7 9 8 0 0 0 6 8 7 1 1 1 0 0 0 4 4 4 1 1 1 1 0 0 2 1 0 0 1 0 0 1 0 0 1 0 1 2 0 0 1 0 0 1 0 1 2 0 6 6 4 0 0 0 3 3 1 3 3 1 0 0 0 3 3 1 4 4 2 0 0 0 7 7 5 5 5 3 0 0 0 2 1 0 0 0 0 1 0 0 2 2 0 3 2 0 1 1 0 1 0 0 5 5 3 1 0 0 5 5 3 2 1 0 0 0 0 9 8 6 1 0 0 4 0 0 7 0 0 8 0 0 6 0 0 10 1 2 4 0 0 9 3 3 4 0 0 6 2 1 8 4 5 3 0 0 1 0 0 4 2 3 3 1 2 3 1 2 1 0 0 3 0 0 3 0 0 0 0 0 3 4 8 0 5 9 0 1 5 0 0 5 5 4 9 3 0 0 6 1 0 12 3 0 8 0 0 15 4 0 13 3 1 6 0 0 11 3 1 
1 0 0 0 0 0 0 0 0 0 1 0 0 2 1 1 3 2 0 1 0 0 1 0 0 1 0 0 1 0 0 1 0 0 2 1 0 1 0 0 1 0 0 0 0 2 4 3 0 3 1 0 3 0 0 2 0 0 2 0 0 6 4 0 6 4 0 2 0 0 2 0 0 2 0 0 5 3 0 1 0 0 2 1 0 4 3 0 1 0 0 1 0 0 1 0 0 1 0 0 1 0 0 2 1 1 5 4 0 1 0 0 1 0 1 5 4 0 1 0 0 2 1 0 1 0 1 5 4 0 1 0 0 1 0 3 7 6 0 1 0 0 1 0 4 4 4 1 0 0 1 0 2 4 2 3 1 0 0 1 0 0 4 2 3 1 0 0 1 0 0 3 1 2 3 1 2 1 0 0 3 1 2 1 0 0 2 2 2 0 0 0 1 0 0 5 3 4 0 0 2 0 1 5 0 0 5 0 3 8 0 0 5 0 0 4 2 0 3 4 0 1 4 0 0 4 0 0 4 0 0 1 0 0 7 5 6 0 0 0 
3 0 0 1 0 0 1 0 0 0 1 0 0 1 0 0 1 0 0 1 0 0 1 0 0 1 0 0 1 0 0 1 0 0 1 0 1 0 0 1 0 0 1 0 0 0 0 0 0 1 0 0 1 0 0 1 2 0 1 0 0 1 2 0 1 2 0 1 2 0 1 2 0 1 2 0 1 2 0 0 2 0 0 2 0 0 2 0 0 2 0 0 2 0 0 2 0 0 2 0 0 2 0 0 2 0 0 2 0 0 2 0 0 2 0 0 2 0 0 2 0 0 2 0 0 2 0 0 2 0 0 2 0 0 2 0 0 2 0 0 2 0 0 2 0 0 2 0 0 2 0 0 4 0 0 2 0 0 2 0 0 2 0 0 2 0 0 2 0 0 0 0 0 0 0 0 0 0 0 0 0 0 0 0 0 0 0 0 0 0 0 0 1 0 0 1 0 0 0 0 2 0 0 4 0 0 4 0 0 4 0 0 4 1 0 4 1 0 2 1 0 0 1 0 0 1 0 0 0 0 0 0 1 0 0 1 0 0 1 2 
1 0 0 1 0 0 1 0 0 0 0 0 1 0 0 0 0 0 1 0 0 0 0 0 1 0 0 1 0 0 1 0 0 1 0 0 1 0 0 1 0 0 3 0 0 1 0 0 0 1 0 0 0 2 0 0 2 0 0 2 0 0 2 0 0 2 0 0 2 0 0 2 0 0 2 0 0 2 0 0 2 0 0 2 1 0 2 0 0 2 1 0 2 0 0 2 1 0 2 0 0 2 1 0 2 0 0 2 1 0 2 0 0 2 1 0 2 0 0 2 1 0 2 0 0 2 1 0 2 0 0 2 1 0 2 0 0 2 1 0 2 0 0 2 0 0 4 0 1 4 0 1 4 0 1 2 0 1 2 0 1 2 0 0 2 0 0 2 0 1 0 0 1 0 0 0 0 0 0 0 0 0 0 0 0 0 0 0 0 0 0 0 1 0 0 1 0 0 0 0 0 0 0 2 0 0 2 1 0 2 1 0 2 1 0 2 1 0 2 1 0 2 0 0 0 0 1 0 0 1 0 0 1 0 0 1 2 0 2 2 
0 0 4 0 0 4 0 0 4 0 0 4 0 0 4 0 0 4 0 0 4 0 0 4 0 0 4 0 0 4 0 0 4 0 0 4 0 0 4 0 0 4 1 0 4 0 0 4 0 0 2 0 0 2 0 0 2 1 0 2 1 0 2 1 0 2 1 0 2 1 0 2 1 0 0 1 0 0 1 0 0 1 0 0 3 0 0 1 0 0 3 0 0 1 0 0 3 0 0 1 0 0 3 0 0 1 0 0 3 0 0 1 0 0 3 0 0 1 0 0 3 0 0 1 0 0 3 0 0 1 0 0 3 0 0 1 0 0 3 0 0 1 0 0 0 0 2 0 1 2 0 1 2 0 1 2 0 1 2 0 1 0 0 1 0 0 1 0 0 1 0 0 1 0 0 1 0 0 1 0 0 0 0 0 0 0 0 0 0 0 0 0 1 0 0 1 0 0 1 0 0 1 0 0 1 0 0 3 0 0 3 0 0 3 0 0 1 0 0 1 0 0 0 0 2 0 0 2 0 1 0 0 1 0 0 1 0 0 1 0 
0 0 7 0 0 7 0 0 7 0 0 7 0 0 7 0 0 7 0 0 7 0 0 7 0 0 7 0 0 7 0 0 7 0 0 7 0 0 7 0 0 7 0 0 7 0 0 5 1 0 4 1 0 2 1 0 2 1 0 2 3 0 2 3 0 2 3 0 2 3 0 2 3 0 0 3 0 0 3 0 0 3 0 0 3 0 0 3 0 0 3 0 0 3 0 0 3 0 0 3 0 0 3 0 0 3 0 0 3 0 0 3 0 0 3 0 0 3 0 0 3 0 0 3 0 0 3 0 0 3 0 0 3 0 0 3 0 0 3 0 0 1 0 0 0 0 2 0 1 2 0 1 2 0 1 2 0 1 0 0 1 0 0 1 0 0 1 0 0 1 0 0 1 0 0 1 0 0 1 0 0 0 0 0 0 0 0 0 0 0 0 0 1 0 0 1 0 0 1 0 0 1 0 0 3 0 0 3 0 0 3 0 0 3 0 0 1 0 0 0 0 0 0 0 2 0 0 2 0 1 0 0 1 0 0 1 0 0 1 0 
