P3
80 45
255
14 10 2 14 10 2 14 10 2 14 10 2 15 10 2 15 10 2 17 9 2 17 8 4 3 0 0 17 7 1 8 0 0 36 25 9 33 19 10 29 15 1 30 19 0 29 10 0 51 15 0 98 58 10 208 174 92 251 220 117 251 221 111 255 235 129 234 198 114 143 103 46 84 36 11 141 94 76 165 122 91 110 73 33 194 165 122 88 65 27 21 0 0 21 6 0 11 3 0 9 5 0 10 7 1 7 3 0 6 2 0 6 2 0 6 2 0 3 4 0 0 8 5 1 9 11 6 3 11 10 0 0 20 0 0 115 78 54 77 28 10 67 19 5 55 20 9 22 1 0 27 18 2 21 19 1 23 21 4 20 10 0 49 27 20 33 11 7 23 15 8 11 10 1 0 0 0 27 21 14 17 9 0 17 9 0 18 9 0 18 8 0 13 5 3 18 9 10 9 3 3 14 7 7 15 8 8 13 6 6 9 5 4 7 2 1 7 2 1 7 2 1 5 3 1 5 3 1 5 3 1 5 3 1 5 3 1 5 3 1 
10 7 0 10 7 0 10 7 0 10 7 0 12 6 0 12 6 0 12 6 0 13 5 1 25 16 15 13 5 0 46 37 22 71 58 37 24 9 0 73 54 29 113 96 56 51 29 0 125 88 46 79 40 0 138 103 24 236 204 108 255 241 138 255 234 133 233 197 111 220 181 117 128 84 47 65 21 0 109 68 36 83 48 14 118 89 58 49 27 0 11 0 0 22 8 0 16 8 0 9 5 0 7 3 0 4 1 0 4 1 0 6 2 0 7 3 0 6 5 1 6 11 9 1 3 4 4 0 1 13 0 0 59 28 7 141 98 67 162 110 82 158 107 86 126 90 75 86 63 51 27 16 0 23 20 0 35 31 12 21 10 0 25 1 0 14 0 0 22 10 1 32 25 14 15 7 0 20 13 4 17 9 0 18 9 0 18 9 0 18 8 0 13 5 3 18 9 10 9 3 3 14 7 7 15 8 8 13 6 6 9 5 4 7 2 1 7 2 1 7 2 1 5 3 1 5 3 1 5 3 1 5 3 1 5 3 1 5 3 1 
6 2 0 6 2 0 6 2 0 6 2 0 6 2 0 6 2 0 6 2 0 6 2 0 11 9 5 3 0 0 83 73 60 45 31 6 74 54 8 169 144 89 176 147 91 104 70 13 164 125 68 162 122 58 95 60 0 128 94 10 173 140 51 191 158 66 207 173 87 223 188 111 205 167 107 118 80 36 57 21 0 45 12 0 46 19 7 25 4 0 14 0 0 20 10 2 13 7 0 9 5 0 6 2 0 6 2 0 7 3 0 8 4 0 8 4 0 8 4 1 10 5 7 5 0 0 15 0 0 40 9 1 134 94 60 185 133 87 177 116 71 173 115 78 151 109 86 153 126 111 81 66 46 14 6 0 28 20 0 21 6 0 21 0 0 47 17 4 83 63 47 49 34 16 12 0 0 31 17 4 20 8 0 18 9 0 18 9 0 17 9 2 13 5 3 16 10 10 9 3 3 14 7 7 15 8 8 13 6 6 9 5 4 8 3 3 7 2 1 7 2 1 5 3 1 5 3 1 5 3 1 5 3 1 5 3 1 5 3 1 
3 0 0 3 0 0 3 0 0 3 0 0 2 0 0 2 0 0 2 0 0 2 0 0 21 21 12 38 36 21 52 41 20 60 44 4 166 143 75 218 187 109 223 187 117 135 93 25 200 159 88 214 176 103 181 146 69 107 72 0 73 39 0 82 48 0 105 70 0 102 69 0 105 73 4 99 66 15 66 34 6 23 0 0 18 0 0 19 3 6 16 5 4 5 0 0 9 5 0 8 4 0 8 4 0 8 4 0 8 4 0 8 4 0 8 4 0 8 4 1 6 1 0 7 0 0 32 12 9 71 39 22 166 125 82 179 127 70 200 139 80 183 122 75 155 109 82 144 111 93 115 96 73 43 29 4 8 0 0 23 4 0 48 15 0 115 77 58 134 101 78 102 73 51 34 10 0 12 0 0 23 7 0 19 7 0 18 8 0 17 9 2 13 6 4 16 10 10 9 3 3 14 7 7 15 8 8 12 5 5 9 5 4 8 3 3 7 2 1 7 2 1 5 3 1 5 3 1 5 3 1 5 3 1 5 3 1 5 3 1 
4 1 0 4 1 0 4 1 0 4 1 0 15 10 2 13 7 0 3 0 0 26 24 13 39 34 18 21 14 0 45 34 0 154 137 75 241 217 127 255 225 129 253 214 132 172 130 53 206 164 85 243 204 121 227 190 109 167 133 51 106 71 0 92 56 0 161 128 53 157 126 54 126 97 36 96 69 24 57 31 8 29 7 1 15 0 3 13 3 13 16 11 15 19 17 17 8 4 1 9 5 0 11 5 0 11 5 0 2 0 0 8 4 0 8 4 0 0 0 0 1 2 0 23 19 14 24 11 2 90 67 43 159 126 76 182 137 73 196 143 77 161 107 50 127 78 44 143 104 81 138 113 85 77 57 27 59 39 10 67 43 12 113 74 46 124 78 50 121 76 46 129 88 58 95 59 30 29 1 0 15 0 0 19 6 0 17 7 0 15 9 4 14 8 5 14 7 7 13 6 6 12 5 5 12 5 5 12 5 5 9 5 4 8 3 3 8 3 3 8 3 3 6 4 3 6 4 3 6 4 3 6 4 3 6 4 3 6 4 3 
6 2 0 6 2 0 6 2 0 6 2 0 7 1 0 4 0 0 9 6 0 84 79 65 45 35 9 31 17 0 123 106 43 235 214 130 255 233 131 255 236 133 255 229 140 195 154 72 194 155 72 247 209 124 228 193 103 230 197 108 201 167 83 112 79 2 102 67 1 182 150 95 190 163 120 114 89 59 39 19 1 12 0 0 11 0 1 10 5 11 14 13 18 17 17 19 7 5 4 9 5 0 11 5 0 11 5 0 8 4 0 2 0 0 4 1 0 13 9 3 19 18 9 19 13 4 22 8 0 95 69 46 111 75 28 125 78 18 159 103 42 128 68 18 117 64 29 132 89 61 154 123 88 124 101 63 115 92 54 129 98 63 121 78 45 137 85 50 142 87 49 128 75 36 119 75 39 93 60 30 26 2 0 22 6 0 18 8 0 14 8 5 13 6 6 12 5 5 12 5 5 11 4 4 11 4 4 11 4 4 9 5 4 8 3 3 8 3 3 8 3 3 6 4 3 6 4 3 6 4 3 6 4 3 6 4 3 6 4 3 
5 4 0 5 4 0 7 3 0 7 3 0 7 2 0 15 10 0 63 59 51 72 63 46 37 15 0 90 62 6 194 170 80 246 223 115 255 242 135 255 238 138 255 239 150 211 176 94 174 136 58 241 205 119 243 212 111 255 233 130 236 206 109 176 144 64 80 48 0 63 32 0 70 42 31 30 6 3 7 0 0 17 5 0 8 3 0 10 8 2 12 14 16 16 18 22 7 5 6 9 5 2 11 4 2 11 4 2 8 4 0 4 1 0 10 7 1 23 18 11 15 5 0 17 1 0 46 20 13 122 83 69 134 85 49 147 86 42 171 100 60 153 82 45 148 87 55 125 78 44 130 96 55 116 87 44 98 68 26 122 87 49 130 83 49 158 100 63 165 102 55 139 78 30 126 76 34 127 89 54 62 34 7 31 13 0 24 11 4 13 5 3 12 5 5 11 4 4 11 4 4 11 4 4 11 4 4 11 4 4 9 5 4 9 5 4 8 3 3 8 3 3 6 4 3 6 4 3 6 4 3 6 4 3 6 4 3 6 4 3 
5 3 3 5 3 1 7 2 1 8 2 0 6 0 0 18 11 0 30 23 9 24 10 0 38 9 0 103 68 0 197 164 68 252 219 110 255 237 127 255 231 126 255 236 137 216 183 92 162 127 43 234 200 112 255 241 140 252 223 121 227 199 108 144 115 43 59 30 0 27 0 0 29 5 2 23 2 4 17 2 0 14 4 0 11 6 0 10 9 0 17 18 13 16 16 16 7 5 4 9 5 4 11 4 2 11 4 2 3 0 0 16 8 1 25 17 11 27 15 7 21 4 0 32 8 0 62 29 24 113 72 60 125 73 45 143 82 48 133 63 30 134 64 33 140 81 51 104 54 21 109 70 26 111 78 30 115 81 36 118 79 38 154 104 71 161 103 66 168 106 56 163 103 51 140 91 44 118 79 40 112 83 52 39 17 0 23 9 0 14 4 0 12 4 0 12 4 0 12 3 2 12 3 2 11 4 2 9 5 2 9 5 4 9 5 4 8 3 3 8 3 3 6 4 3 6 4 3 6 4 3 6 4 3 6 4 3 6 4 3 
5 2 19 6 2 15 8 3 7 9 3 1 4 0 0 20 9 0 36 21 0 100 78 42 123 91 36 84 45 0 131 84 9 214 167 78 255 211 103 255 232 116 255 230 117 228 196 88 169 137 36 246 216 119 248 218 126 249 220 136 196 169 98 84 59 4 29 6 0 33 12 0 20 2 0 14 0 0 24 10 8 11 0 1 13 4 5 13 7 2 28 25 14 17 14 4 7 6 2 9 5 4 8 2 0 9 0 0 27 14 9 33 15 10 30 10 3 29 7 1 23 0 0 27 2 1 54 23 17 97 60 48 118 77 52 132 85 53 99 48 13 117 64 29 124 71 46 124 76 47 122 81 38 114 79 29 146 111 59 128 87 44 136 86 57 159 105 75 157 105 59 146 95 44 130 83 36 123 82 41 114 83 50 103 80 52 23 6 0 22 12 0 18 10 0 15 6 0 23 8 4 15 0 0 11 5 0 9 6 0 9 5 4 9 4 6 9 5 4 7 5 4 7 5 4 6 4 3 6 4 3 5 3 1 5 3 1 5 3 1 
5 1 23 5 2 19 6 3 9 9 3 1 11 4 0 40 27 9 141 122 96 183 160 119 235 204 142 182 143 72 106 56 0 135 81 6 208 157 65 240 195 92 237 200 92 214 183 78 144 114 17 208 179 93 233 202 126 227 199 136 110 84 34 46 23 0 23 3 0 25 8 0 17 4 0 18 6 0 11 0 0 23 13 3 16 5 2 15 6 0 32 26 7 14 10 0 9 5 0 7 2 1 7 1 0 16 5 2 30 13 7 29 7 1 26 2 0 37 11 1 29 0 0 29 0 0 50 17 7 78 44 28 99 64 42 97 61 32 121 83 50 117 76 47 102 57 38 107 63 41 123 84 44 144 106 57 154 117 64 155 115 67 148 102 65 136 87 51 141 94 46 137 93 42 131 87 38 126 88 44 128 98 60 103 79 46 40 23 0 27 13 0 19 9 0 12 1 0 20 3 0 11 0 0 9 7 0 7 7 0 11 4 2 11 4 4 9 5 4 7 5 4 7 5 4 6 4 3 6 4 3 5 3 1 5 3 1 5 3 1 
4 4 18 6 4 16 7 4 10 11 4 2 16 6 0 18 5 0 53 34 13 114 90 53 159 134 67 251 218 138 211 166 92 108 58 0 106 55 0 170 125 56 178 142 58 212 180 98 119 87 18 163 131 73 208 177 128 147 120 79 55 30 0 33 14 0 20 4 0 16 1 0 26 14 4 8 0 0 24 17 0 41 35 0 19 8 0 17 8 0 31 24 0 13 8 0 7 3 0 6 1 0 13 7 2 24 14 8 21 4 0 31 12 0 32 12 0 41 14 0 50 11 0 52 9 0 69 28 10 96 59 37 77 44 21 81 51 25 88 58 32 84 54 32 78 41 31 83 44 33 113 76 48 151 115 73 148 114 59 156 122 63 148 109 54 127 86 31 142 98 44 142 97 46 134 94 46 127 91 46 115 85 47 119 95 59 87 68 36 40 22 0 28 13 0 30 17 0 33 22 3 9 6 0 7 7 0 7 6 0 11 5 0 11 5 0 9 5 2 7 5 4 9 5 4 8 3 3 6 4 3 5 3 1 7 2 1 7 2 1 
4 5 14 6 5 10 7 5 6 11 4 2 13 3 0 18 4 0 35 14 0 66 43 12 82 57 0 109 80 8 207 167 89 209 163 94 103 54 2 70 26 0 125 89 33 155 125 72 99 67 26 121 90 55 164 134 105 53 27 6 31 11 0 27 10 2 18 4 2 13 1 1 23 12 9 7 0 0 116 112 49 148 145 80 28 19 0 21 10 0 33 24 0 15 8 0 6 3 0 11 8 2 21 15 8 25 16 5 34 18 5 39 21 4 77 57 38 131 102 80 149 105 79 116 66 38 89 43 15 97 58 30 69 39 13 67 44 17 85 64 41 84 62 44 72 44 35 64 31 21 85 52 29 127 95 58 145 114 63 144 115 52 139 110 40 139 105 37 144 101 43 148 104 53 134 94 46 125 91 48 121 93 54 116 92 57 109 87 55 89 68 41 68 44 25 80 55 38 73 49 27 31 11 0 14 4 0 11 5 0 11 5 0 9 6 0 6 5 1 6 4 3 8 3 3 8 3 3 6 4 3 5 3 1 7 2 1 7 2 1 
4 6 8 6 6 6 7 6 2 11 5 0 15 3 0 19 2 0 25 4 0 42 18 0 89 66 30 148 120 66 127 94 19 108 71 0 129 88 34 96 55 16 45 10 0 86 54 37 61 31 16 65 38 24 72 46 34 28 6 0 22 6 2 18 7 6 15 8 8 13 6 6 18 10 6 41 33 8 125 121 59 141 138 73 60 51 22 27 16 0 56 47 18 17 10 0 11 9 0 51 48 38 41 34 23 40 29 14 65 50 32 47 30 8 81 64 40 132 105 75 135 88 51 86 33 0 111 64 30 104 66 33 70 43 11 72 54 26 73 61 35 70 55 33 70 47 32 60 33 17 62 36 13 79 53 21 124 99 53 128 106 45 131 111 36 134 108 32 144 101 43 154 107 57 154 117 68 139 107 63 121 93 54 122 98 63 90 68 37 86 61 35 95 62 44 100 54 40 119 59 47 108 50 42 37 1 0 15 0 0 12 7 0 8 10 0 6 5 0 6 4 3 8 3 3 7 2 1 5 3 1 5 3 1 7 2 1 7 2 1 
4 7 2 6 7 0 7 6 0 11 5 0 15 2 0 19 1 0 22 0 0 27 4 0 27 5 0 95 69 32 206 175 112 176 142 74 96 59 6 84 46 13 38 5 0 35 5 8 33 6 6 12 0 0 19 0 0 23 8 4 17 8 4 14 10 6 12 10 8 12 10 6 21 15 8 30 22 0 155 149 103 199 193 147 43 33 14 33 21 9 53 43 19 18 11 0 31 29 12 58 55 43 30 23 7 17 6 0 27 12 0 33 16 0 52 35 9 102 78 45 124 78 39 133 81 40 130 84 45 116 79 42 74 47 13 57 37 5 44 31 1 50 39 8 52 34 6 54 33 6 64 44 16 77 57 25 93 75 31 120 104 46 132 119 44 129 107 32 149 109 50 148 101 51 152 114 65 165 133 87 118 91 50 105 81 46 113 91 60 99 74 46 99 64 44 100 53 37 107 42 32 137 72 65 123 71 68 52 17 13 14 3 0 10 8 0 5 4 0 5 3 1 7 2 1 7 2 1 5 3 1 5 3 1 7 2 1 7 2 1 
4 9 0 6 8 0 7 7 0 11 5 0 15 2 0 19 1 0 22 0 0 23 0 0 31 10 0 35 12 0 75 41 9 176 139 99 207 171 127 156 123 91 112 81 78 28 2 8 30 7 8 9 0 0 12 0 0 20 9 4 14 11 0 10 12 0 9 13 0 10 13 0 28 24 7 30 21 6 35 24 9 71 59 50 20 7 4 38 25 20 48 37 20 18 10 0 10 8 0 49 47 29 37 31 12 35 25 5 67 53 33 52 35 13 90 76 49 122 99 68 141 102 65 125 80 38 88 47 6 111 77 36 101 72 36 81 57 22 70 51 14 71 54 14 67 54 4 73 63 14 77 65 28 72 60 25 66 55 11 88 79 25 114 107 41 135 116 50 150 110 51 144 98 45 139 104 52 147 118 69 156 132 88 105 81 43 97 75 42 98 76 45 104 74 48 104 69 49 68 32 17 78 31 22 144 84 79 137 80 78 64 36 27 13 1 0 8 2 0 5 3 1 7 2 3 7 2 3 4 2 0 4 2 0 6 1 0 7 1 0 
6 8 0 7 7 0 9 6 0 11 5 0 14 3 0 17 2 0 20 0 0 23 2 0 25 5 0 28 7 0 36 9 0 43 12 0 104 75 44 74 46 21 48 24 18 33 12 17 27 9 8 11 0 0 17 7 1 16 11 2 12 12 0 10 13 0 9 14 0 10 13 0 28 24 9 23 13 5 19 5 5 3 0 0 4 0 0 44 27 21 54 29 15 30 3 0 72 50 31 96 78 59 58 48 29 40 29 12 43 27 12 20 5 0 30 18 0 83 63 29 124 86 42 138 96 46 105 74 28 96 69 26 105 78 39 108 80 41 102 76 35 93 73 25 99 91 30 102 95 38 88 79 36 67 52 16 53 32 0 52 32 0 82 68 14 136 118 60 137 104 45 142 103 46 123 91 36 99 71 19 119 95 48 140 116 76 115 93 57 99 79 47 103 80 52 79 58 33 31 13 0 22 0 0 56 2 0 121 63 55 141 100 86 49 21 10 16 0 0 11 0 3 10 0 3 7 2 3 4 2 0 4 2 0 6 1 0 7 1 0 
16 12 0 16 12 0 16 12 0 18 10 2 17 9 0 18 8 0 20 8 0 20 8 0 19 5 0 20 3 0 20 2 0 20 2 0 17 0 0 16 1 0 17 2 0 15 2 0 13 3 0 11 1 0 10 2 0 8 3 0 8 5 0 0 0 0 5 5 0 13 10 0 26 17 16 23 11 13 20 6 6 17 4 0 22 11 0 48 24 7 83 29 13 97 31 15 123 63 40 76 30 6 30 8 0 20 9 0 50 35 24 56 40 27 58 45 24 133 114 77 136 96 37 109 72 5 66 53 0 66 56 7 99 74 34 114 82 43 117 86 39 109 85 32 102 94 33 90 86 28 97 85 43 65 41 6 135 93 55 126 82 42 57 29 0 77 55 7 141 119 58 131 107 43 114 89 29 108 82 29 107 83 37 101 78 36 103 82 43 107 89 57 87 76 45 39 32 7 18 14 0 36 25 13 24 0 0 91 49 31 144 93 70 161 109 92 68 24 27 30 0 9 10 0 0 0 0 0 4 2 0 4 2 0 7 1 0 9 0 0 
24 11 2 24 11 2 24 11 2 24 11 2 24 11 4 24 11 4 24 11 2 24 11 2 24 9 1 24 9 1 20 8 0 19 7 0 18 6 0 19 7 0 18 9 0 18 9 0 16 6 0 13 6 0 13 6 0 13 6 0 23 15 4 114 109 97 51 46 34 12 6 0 33 24 25 16 4 8 14 1 0 27 13 2 24 9 0 52 20 0 122 52 35 136 50 31 127 46 23 126 66 43 86 59 41 38 26 14 57 42 35 30 15 7 4 0 0 66 47 13 129 91 29 133 100 27 90 81 20 63 58 7 89 63 24 107 72 36 117 83 40 115 89 38 97 84 27 116 107 53 86 76 36 96 73 37 175 130 88 173 122 82 132 92 58 66 39 0 96 78 18 112 96 31 114 92 33 106 83 29 106 84 37 96 75 34 96 77 40 81 66 32 46 40 10 13 12 0 0 0 0 20 15 3 26 8 0 55 20 0 122 66 35 151 89 66 136 81 84 55 15 26 3 0 0 6 1 0 4 2 0 4 2 0 7 1 0 9 0 0 
32 12 5 32 12 5 32 12 5 32 12 5 32 12 5 32 12 5 32 12 5 30 13 5 30 15 7 29 14 5 26 12 3 24 9 1 22 10 1 24 11 2 24 11 2 24 11 2 22 10 1 21 11 1 21 11 1 21 11 1 36 26 16 108 100 89 67 60 48 9 1 0 34 25 24 17 6 5 15 3 0 31 12 0 31 7 0 89 47 23 157 83 62 145 58 37 137 57 32 97 37 14 41 14 0 10 0 0 30 14 13 45 30 26 55 45 32 127 112 81 163 131 73 135 103 36 73 58 1 47 32 0 94 65 30 107 74 42 121 86 50 130 98 56 117 92 46 86 71 23 48 43 3 138 129 89 177 144 93 158 113 65 170 127 87 144 108 64 96 73 15 94 77 14 114 94 37 112 88 39 94 71 29 112 91 53 91 71 37 32 16 0 23 16 0 14 12 0 12 12 0 20 15 5 13 0 0 76 41 21 119 62 33 94 32 7 92 38 31 87 48 49 37 20 14 6 0 0 3 2 0 3 1 0 8 0 0 9 0 0 
36 14 8 36 14 8 36 14 8 36 14 8 36 14 8 36 14 8 36 14 8 35 16 9 34 17 9 31 16 8 29 14 5 26 12 3 26 12 3 27 13 4 29 14 5 29 14 5 27 13 4 29 14 5 30 15 7 28 16 7 25 13 3 21 9 0 17 4 0 25 15 7 29 20 16 22 13 9 20 8 0 25 5 0 70 35 13 128 72 50 166 85 65 153 63 41 151 69 44 116 56 33 70 43 27 49 37 27 67 51 50 67 51 50 36 26 16 47 33 6 69 43 0 110 81 22 109 83 33 90 65 23 73 42 9 76 42 13 87 52 25 98 64 35 102 72 36 60 39 0 42 41 5 130 128 85 153 128 73 155 116 59 164 117 69 163 121 74 145 120 65 110 92 36 102 81 31 110 88 43 116 95 56 75 53 22 40 19 0 33 16 0 23 15 0 23 19 2 20 20 9 20 15 5 25 6 0 70 34 17 89 32 3 105 43 14 80 28 12 60 23 10 35 19 4 4 0 0 3 2 0 4 3 0 6 0 0 6 0 0 
38 16 10 38 16 10 38 16 10 38 16 10 43 21 15 40 19 12 37 15 9 32 12 5 34 17 9 37 22 14 30 15 9 36 21 14 37 22 16 38 21 16 38 21 16 38 21 16 30 13 5 36 19 11 36 19 11 29 12 4 31 14 7 31 14 7 31 14 7 30 15 9 23 15 8 31 23 14 27 16 1 46 20 1 107 58 36 126 56 34 172 85 62 152 60 37 144 62 37 132 70 48 91 62 44 34 20 9 4 0 0 34 21 18 31 24 12 55 45 21 143 122 81 135 106 59 128 92 49 82 44 7 67 33 1 72 40 14 80 46 31 77 43 27 72 39 16 59 36 7 46 44 13 37 34 0 109 84 27 155 117 53 169 123 68 156 115 63 137 111 58 107 90 41 102 82 38 105 84 46 76 54 23 40 17 0 25 3 0 38 20 3 21 13 0 19 15 0 16 13 3 15 7 0 25 4 0 76 39 19 154 97 68 153 93 61 136 86 57 141 107 80 35 21 0 1 0 0 8 11 0 5 4 0 5 0 0 3 0 0 
32 12 5 32 12 5 32 12 5 33 14 7 33 14 7 33 14 7 31 11 4 28 11 3 30 15 7 36 21 12 27 13 6 33 18 12 42 25 19 42 25 19 42 25 19 42 25 19 34 17 9 41 24 16 42 23 16 35 16 9 41 22 15 41 22 15 43 21 15 40 23 15 16 12 0 29 25 10 34 23 4 61 31 9 130 70 47 184 101 79 172 78 53 149 55 30 146 63 39 109 47 25 44 13 0 50 34 21 46 31 27 72 60 55 55 48 37 31 25 4 52 40 5 97 71 32 138 94 56 126 77 41 59 21 0 64 31 8 69 36 29 76 45 39 56 27 10 50 31 8 29 22 0 71 61 23 153 122 64 125 84 16 140 100 36 132 98 39 112 88 37 100 82 38 111 92 53 110 90 58 61 40 15 36 14 0 25 5 0 33 16 4 21 12 0 19 13 0 15 10 0 23 13 3 36 15 2 114 76 57 176 119 90 157 97 60 124 76 36 156 124 83 114 100 62 1 0 0 1 5 0 0 2 0 5 0 0 6 0 0 
21 9 0 21 9 0 21 9 0 20 8 0 20 8 0 20 8 0 22 10 1 24 11 2 27 13 4 32 18 9 27 9 4 31 14 9 36 19 13 36 19 13 38 18 13 38 18 13 34 17 9 42 23 16 44 22 16 37 15 9 41 22 15 43 21 15 44 20 15 40 23 15 28 23 11 33 32 14 29 20 0 51 19 0 131 59 36 164 70 47 149 48 23 146 50 23 144 62 37 122 60 37 110 79 60 72 56 41 33 20 13 18 8 2 18 13 1 11 7 0 88 84 53 146 126 92 148 99 65 100 44 11 61 21 0 43 12 0 35 4 1 46 19 19 39 21 6 44 29 9 54 42 21 176 151 119 167 124 68 159 113 44 119 85 15 112 89 24 98 79 29 99 82 42 113 95 62 81 63 37 39 20 0 30 11 0 27 9 0 27 13 2 22 13 0 19 13 0 13 8 0 39 30 17 57 37 21 142 104 83 180 124 95 170 108 70 155 106 59 116 81 32 148 136 88 62 62 21 8 12 0 0 0 0 4 0 0 12 2 8 
15 6 0 15 6 0 15 6 0 15 6 0 10 2 0 12 4 0 17 9 2 19 12 3 22 12 4 28 16 9 23 8 2 29 14 7 25 10 4 25 10 4 27 9 4 27 9 4 30 13 5 37 20 12 39 19 12 32 12 5 33 14 7 33 14 7 35 13 7 31 14 7 16 12 0 28 24 5 31 19 0 57 23 0 126 57 30 129 40 14 142 47 18 143 50 22 131 51 26 113 53 30 53 20 0 15 0 0 17 4 0 31 23 14 66 62 50 47 46 26 32 34 6 59 49 13 88 47 8 137 86 46 108 72 32 65 34 10 43 13 14 39 18 22 35 25 13 28 20 0 47 35 14 151 126 96 157 116 64 174 132 67 161 134 63 95 76 14 111 92 51 108 92 63 96 79 55 36 21 1 22 6 0 26 9 0 27 10 2 22 11 0 21 12 0 17 10 0 22 15 1 53 41 27 73 51 34 137 102 77 159 107 76 175 118 78 173 123 69 153 112 55 123 97 47 150 134 94 62 53 26 13 8 0 7 1 0 11 7 8 
11 4 4 11 4 4 11 4 4 11 4 4 12 5 5 12 5 5 13 6 6 13 6 4 15 6 0 15 7 0 16 8 0 16 8 0 23 13 5 23 13 5 22 12 4 24 11 4 24 11 2 25 11 2 25 11 2 25 11 2 26 12 3 28 11 3 29 12 4 26 14 4 25 18 7 28 19 2 30 12 0 93 60 26 130 75 39 135 63 28 134 53 21 134 52 23 124 46 20 109 49 24 72 39 16 79 64 44 55 44 29 26 19 8 26 21 7 7 9 0 16 23 0 122 122 81 147 126 71 110 79 21 68 35 0 49 17 0 47 19 22 30 11 19 31 29 16 31 33 7 37 32 6 73 61 26 155 131 84 147 119 65 128 106 45 112 93 43 101 82 57 111 95 80 61 48 32 20 7 0 24 10 0 24 9 1 24 11 4 21 11 1 31 24 8 8 1 0 39 31 15 65 52 33 75 51 30 120 88 60 144 104 67 157 112 65 173 125 68 168 119 60 150 98 52 134 90 55 159 127 104 40 20 6 2 0 0 10 8 6 
7 5 6 7 5 6 7 5 6 7 5 6 9 6 7 9 7 5 10 8 6 11 7 6 13 7 2 13 7 0 14 9 0 14 9 0 19 12 3 19 12 3 19 12 3 19 12 3 21 11 1 22 10 1 22 12 2 22 12 2 25 13 3 26 12 3 26 14 4 26 14 4 27 17 7 27 14 0 51 28 0 104 69 33 129 81 42 157 95 57 154 83 48 125 48 17 125 52 25 109 49 24 93 61 35 52 35 13 27 18 0 0 0 0 32 27 13 59 57 40 39 47 24 70 74 38 52 43 0 85 65 4 134 106 54 108 79 43 42 16 9 47 28 28 27 23 6 24 26 0 28 26 0 34 26 0 113 96 56 131 111 65 122 103 52 111 92 51 96 78 61 81 66 60 20 8 0 32 20 10 22 10 3 21 11 3 21 11 3 21 11 1 25 19 2 21 12 0 83 72 55 35 20 0 87 63 39 111 82 51 131 96 58 145 105 57 160 112 55 169 114 60 170 109 66 153 94 64 149 102 82 124 94 81 17 8 0 10 8 2 
4 7 4 4 7 4 4 7 4 4 7 4 5 8 5 5 9 3 7 10 4 8 9 4 11 8 2 13 7 0 14 9 0 14 9 0 17 9 0 17 9 0 18 10 2 18 10 2 20 10 0 20 10 0 22 12 2 22 12 2 26 14 4 25 13 3 26 14 4 27 15 5 30 15 9 25 7 0 73 48 20 116 81 45 131 83 43 150 90 51 163 94 58 164 91 61 128 55 27 101 41 16 71 39 13 20 4 0 55 46 28 41 37 20 50 46 31 31 29 16 0 0 0 17 17 0 102 93 52 139 122 71 121 99 42 100 76 28 65 45 13 53 36 12 61 51 27 49 45 19 51 44 17 55 44 14 66 51 15 89 73 35 112 94 52 106 88 55 87 72 56 26 13 6 24 14 6 20 10 2 21 11 3 19 12 3 19 12 3 19 12 1 25 19 2 66 58 40 50 40 21 49 32 11 96 73 47 97 69 35 116 82 41 128 87 42 140 93 43 158 105 57 172 112 73 173 114 84 145 98 77 164 132 116 62 51 36 10 8 0 
4 8 0 4 8 0 4 8 0 4 8 0 5 9 1 5 9 1 7 10 2 8 9 2 11 8 2 13 7 0 14 9 0 14 9 0 15 7 0 16 8 0 16 8 0 17 9 0 20 10 0 20 10 0 20 10 0 22 12 2 26 14 4 26 14 4 26 14 4 29 14 5 30 13 7 36 13 2 89 61 36 121 86 50 140 95 53 154 99 58 165 100 65 167 97 66 164 94 65 131 71 46 64 30 3 49 33 7 63 58 37 16 14 0 8 4 0 0 0 0 23 20 21 67 64 58 97 88 61 49 36 0 111 93 38 148 127 70 75 54 6 55 36 0 66 50 21 57 44 21 48 37 11 48 37 9 38 25 0 51 38 8 77 63 34 101 87 62 42 31 16 20 10 2 23 15 6 13 6 0 20 13 4 19 12 3 19 12 3 19 12 1 53 46 30 63 54 37 19 7 0 75 58 34 98 73 45 88 59 26 100 65 25 118 80 36 118 75 28 141 91 49 166 108 73 176 119 90 162 114 91 142 107 87 136 121 101 23 17 0 
6 6 0 6 6 0 6 6 0 6 6 0 11 10 1 11 10 1 11 10 1 13 9 1 14 8 1 14 9 0 14 9 0 14 9 0 16 8 0 16 8 0 16 8 0 16 8 0 21 11 3 16 6 0 11 1 0 38 28 20 27 15 5 12 0 0 12 0 0 29 14 5 35 12 9 49 21 12 104 74 50 133 95 60 143 97 56 147 95 54 151 93 56 154 91 58 170 101 74 146 86 61 101 65 36 37 18 0 23 17 0 2 2 0 23 19 5 67 59 52 69 59 65 10 1 1 3 0 0 97 89 51 120 108 56 96 78 18 101 74 17 87 58 11 49 27 0 42 22 1 42 25 4 43 28 8 40 28 7 38 27 8 35 24 7 30 21 6 27 17 7 23 15 6 22 14 5 22 14 5 20 13 4 22 14 5 21 16 6 23 15 4 29 22 8 14 3 0 45 30 10 86 67 44 95 70 42 99 68 35 102 67 29 104 67 25 101 65 23 107 66 25 119 67 35 133 79 50 169 118 94 158 119 96 137 114 87 116 103 75 
18 11 0 18 11 0 18 11 0 18 11 0 15 7 0 15 7 0 15 7 0 15 7 0 13 8 0 13 8 0 13 8 0 13 8 0 23 15 6 23 15 6 23 15 6 23 15 6 23 13 5 20 10 2 13 3 0 34 22 14 27 15 5 18 6 0 18 6 0 30 13 5 39 12 8 71 38 28 110 75 50 130 93 58 139 96 53 144 94 49 145 93 51 150 89 55 159 91 64 145 85 60 111 75 46 42 23 0 21 18 0 73 73 57 40 35 21 23 13 5 4 0 0 42 30 30 49 45 26 68 64 31 51 43 0 107 91 35 157 125 70 105 70 20 50 21 0 42 19 0 46 26 8 41 23 9 36 22 10 32 23 12 30 22 15 27 21 14 25 19 12 25 17 11 23 15 6 20 13 4 18 10 2 16 8 0 13 8 0 15 7 0 13 3 0 39 28 11 76 61 41 97 75 53 96 68 41 99 68 35 102 67 31 101 66 28 95 62 23 96 62 23 108 61 29 113 61 33 119 66 41 130 87 60 138 109 78 144 121 90 
33 16 6 33 16 6 33 16 6 33 16 6 27 10 0 27 10 0 27 10 0 25 11 2 20 13 4 19 13 6 19 13 6 18 12 5 19 12 3 18 10 2 18 10 2 18 10 2 24 15 4 28 16 7 17 4 0 25 13 3 31 16 8 27 13 4 27 13 4 34 15 8 41 10 7 92 55 45 111 75 48 131 91 55 135 92 48 138 92 44 140 90 46 143 88 50 141 75 48 139 79 54 117 81 52 42 23 0 21 18 0 44 44 28 11 6 0 22 13 0 33 19 10 68 56 44 33 33 10 1 2 0 85 80 39 146 131 86 80 44 0 59 18 0 83 48 14 65 38 13 42 18 1 40 21 9 34 19 15 31 20 19 26 22 21 25 23 21 28 24 20 29 23 18 30 22 15 27 20 11 25 17 9 23 15 6 20 15 5 22 14 3 41 31 18 72 62 45 84 69 49 92 71 48 96 68 41 100 67 35 102 67 31 100 65 29 94 65 30 91 60 25 98 54 26 106 55 29 99 46 21 107 62 32 114 81 47 133 105 69 
41 22 13 41 22 13 41 22 13 40 21 11 40 21 11 39 20 10 39 20 10 37 20 12 32 22 14 31 23 14 31 23 14 31 23 14 28 18 10 28 18 10 28 18 10 28 18 8 27 15 5 32 20 10 18 6 0 19 7 0 31 16 8 32 18 9 32 18 9 36 14 8 52 17 13 108 64 53 116 73 46 129 85 48 133 89 42 133 89 38 133 89 40 135 87 44 122 66 33 123 73 45 111 82 53 49 35 10 19 18 0 14 15 0 36 32 15 69 60 44 33 20 6 29 18 2 15 12 0 43 43 13 62 59 26 67 52 18 37 6 0 114 76 43 130 100 64 76 49 19 45 21 0 46 26 12 37 20 12 34 21 18 32 23 22 30 24 22 30 26 23 32 26 21 34 28 21 36 28 19 36 28 19 36 28 19 35 30 20 37 29 18 79 69 52 92 77 57 90 71 50 87 63 39 93 66 37 99 67 37 102 67 33 99 66 32 95 66 33 91 60 27 96 55 28 101 52 28 102 52 28 103 57 31 103 64 36 106 72 43 
35 17 14 35 17 14 35 17 14 35 17 14 35 17 14 35 17 14 35 17 14 33 18 12 38 25 16 38 25 16 38 25 16 38 25 16 34 22 12 34 22 12 34 22 12 35 23 14 38 23 15 36 21 12 32 18 9 31 16 8 31 16 8 30 15 7 25 11 2 29 5 0 73 33 28 123 70 61 124 69 44 134 78 42 123 73 26 123 79 26 123 84 31 125 87 39 115 75 36 130 99 66 120 106 79 27 24 2 19 20 1 20 23 6 63 61 43 63 57 41 11 3 0 7 0 0 59 51 31 67 60 37 19 8 0 27 11 0 122 101 81 143 120 93 43 24 0 63 46 8 127 109 78 56 40 14 34 19 0 47 30 18 41 24 14 26 11 5 29 21 12 28 22 15 22 17 9 29 24 16 27 21 14 26 20 13 32 26 19 45 36 23 87 68 47 100 74 49 91 65 40 97 69 42 97 68 39 100 69 38 100 67 37 99 66 34 98 65 33 101 65 34 99 58 31 99 55 31 100 54 33 98 53 34 95 52 35 96 55 39 
23 7 6 23 7 6 23 7 6 23 7 6 23 7 6 23 7 6 23 7 6 23 8 4 26 11 5 26 12 3 26 12 3 26 12 3 27 13 4 27 13 4 27 13 4 27 13 4 27 13 4 26 11 5 24 9 3 23 8 2 23 8 2 25 10 4 30 15 9 39 14 9 79 37 33 121 68 58 127 69 46 134 77 39 137 86 37 137 91 38 134 98 44 135 102 51 144 115 70 118 97 61 13 5 0 9 9 0 22 25 8 15 18 1 26 25 5 18 12 0 41 32 16 56 47 32 39 27 13 14 3 0 18 4 0 47 34 20 53 39 26 31 16 0 56 42 13 119 106 74 80 67 37 42 28 1 81 67 42 62 45 24 31 11 0 55 37 23 41 30 15 24 15 2 21 11 1 41 31 20 21 11 1 28 18 8 31 22 11 33 17 2 40 17 0 77 50 22 110 82 55 97 69 42 97 69 42 98 69 42 99 67 39 100 67 37 99 66 32 101 66 30 98 60 27 97 58 30 97 55 33 95 52 35 91 50 34 90 49 35 
15 2 0 15 2 0 15 2 0 15 2 0 15 2 0 15 2 0 15 2 0 15 2 0 17 4 0 17 4 0 18 5 0 18 5 0 18 5 0 18 5 0 19 6 0 19 6 0 19 6 0 19 6 1 18 5 0 18 5 0 20 7 2 24 11 6 28 15 11 37 15 11 76 40 36 112 66 54 123 70 44 129 74 38 147 93 47 147 99 47 144 105 52 143 110 60 168 138 94 120 99 63 13 5 0 18 19 0 17 20 3 24 27 10 31 30 10 37 31 10 100 92 72 71 62 45 11 1 0 12 0 0 53 43 21 64 54 33 14 3 0 14 0 0 97 84 70 81 68 52 23 10 0 72 60 36 109 95 70 64 50 23 56 40 14 103 86 62 40 23 1 55 40 20 82 65 45 30 12 0 56 36 17 49 29 10 45 25 7 50 28 8 44 20 0 32 7 0 66 41 15 99 73 48 95 70 44 97 69 44 97 69 44 97 68 39 99 69 29 98 69 24 95 62 23 93 61 24 94 58 29 93 56 32 88 51 29 86 48 29 
15 6 2 15 6 2 15 6 2 15 6 2 15 6 2 15 6 2 15 6 2 15 6 2 13 5 1 13 5 0 13 5 0 13 5 0 13 5 0 13 5 0 13 5 0 13 5 0 14 3 0 14 3 0 14 3 0 14 3 0 29 18 15 27 16 13 22 11 8 24 7 4 66 37 33 103 64 54 113 67 44 124 73 37 144 92 48 145 95 48 145 102 55 142 107 59 143 114 71 146 125 89 24 17 0 2 2 0 15 18 1 28 31 14 23 22 2 32 26 5 46 38 18 25 17 0 16 6 0 37 28 15 39 31 11 19 9 0 24 12 0 64 52 43 33 20 15 14 2 0 67 55 43 103 92 75 42 32 10 62 51 25 110 99 71 87 74 44 42 23 0 111 90 65 93 72 49 50 29 6 102 78 56 68 44 23 62 38 17 87 63 41 44 20 0 48 26 4 39 17 0 47 25 3 94 70 48 94 70 48 95 69 48 95 70 42 97 72 30 96 69 24 91 64 23 90 62 24 91 59 29 90 57 32 86 53 30 81 48 28 
9 5 2 9 5 2 9 5 2 9 5 2 8 4 1 8 4 1 8 4 1 8 4 1 7 3 0 7 3 0 7 3 0 7 3 0 7 3 0 7 3 0 7 3 0 7 3 0 9 3 3 9 3 3 9 3 3 9 3 3 19 12 12 15 8 8 9 3 3 9 0 0 33 13 11 104 73 65 116 77 56 124 77 45 142 92 52 143 95 52 145 101 59 142 106 63 145 116 74 168 147 111 51 44 19 0 0 0 12 17 2 18 23 8 23 22 2 31 25 6 38 29 14 15 6 0 89 82 59 76 67 47 10 1 0 4 0 0 55 46 28 59 50 35 3 0 0 18 7 6 36 25 20 44 36 25 8 1 0 89 84 60 100 95 69 25 15 0 81 62 39 140 118 96 43 22 0 84 63 40 105 83 63 47 25 5 97 75 55 84 62 42 49 27 7 72 52 32 44 25 4 46 27 6 29 9 0 78 58 40 88 68 50 89 68 43 91 70 34 93 70 30 96 70 33 93 67 35 84 57 29 84 56 33 79 51 31 58 29 12 
7 6 2 7 6 2 7 6 2 7 6 2 6 5 1 6 5 1 6 5 1 6 5 1 5 3 1 5 3 1 5 3 1 5 3 1 5 3 1 5 3 3 5 3 3 5 3 3 6 4 5 8 3 5 8 3 5 9 4 6 11 7 8 11 6 10 10 5 9 9 2 5 22 9 9 71 49 41 107 74 53 119 75 47 138 90 54 141 93 52 142 99 59 141 102 63 146 114 74 161 140 104 80 73 48 0 1 0 11 16 1 18 23 8 23 22 2 31 25 6 31 22 9 42 33 18 83 75 52 35 27 5 16 8 0 30 22 13 48 42 24 17 11 0 16 8 1 56 48 44 25 17 11 1 0 0 25 20 8 36 32 17 23 21 4 12 6 0 56 40 23 64 47 28 26 9 0 98 81 62 77 59 43 20 2 0 88 70 53 49 32 15 71 54 37 71 56 38 48 32 15 65 50 32 33 17 2 22 6 0 64 48 33 91 74 53 86 68 38 85 66 31 86 63 34 84 61 37 84 60 41 76 51 37 54 29 17 21 0 0 
6 7 2 6 7 2 6 7 2 6 7 2 5 5 1 5 5 1 5 5 1 5 5 3 3 3 3 3 3 3 3 3 3 3 3 3 3 3 3 3 3 6 3 3 6 3 3 6 5 4 7 6 3 7 6 3 7 6 3 7 6 3 7 7 4 10 10 7 12 14 8 12 15 5 6 37 20 12 103 74 54 113 74 46 135 88 53 138 90 52 142 96 56 139 100 61 131 98 59 145 123 87 119 111 86 9 9 0 11 16 3 18 23 8 23 22 2 31 25 4 29 20 3 27 18 2 31 24 8 17 10 0 76 70 52 89 85 66 12 8 0 5 1 0 42 38 23 66 62 50 25 19 10 4 1 0 46 43 37 38 34 31 6 4 3 24 20 17 32 24 16 14 4 0 16 6 0 36 26 16 20 8 0 28 16 5 29 18 6 19 7 0 40 28 16 34 24 11 64 55 42 50 39 27 53 41 29 18 4 0 23 9 0 48 32 17 83 66 44 82 65 41 79 59 41 67 47 33 65 42 34 34 9 6 14 0 0 22 0 0 
6 7 2 6 7 2 6 7 2 6 7 2 5 5 1 5 5 1 5 5 1 5 5 3 3 3 3 3 3 6 3 3 6 3 3 6 3 3 6 3 3 6 3 3 6 3 3 3 5 5 5 5 5 5 6 4 5 8 3 5 4 0 1 8 3 3 15 9 6 19 12 10 20 13 13 13 1 0 89 63 42 104 65 35 125 78 44 129 80 44 132 86 49 131 90 51 109 75 34 132 106 69 131 119 94 30 26 9 13 14 5 20 21 12 25 20 8 31 24 8 34 25 7 44 35 20 33 26 15 34 27 14 80 74 55 39 35 14 18 14 0 34 29 15 37 33 16 12 7 0 4 0 0 17 14 6 60 56 53 30 26 25 0 0 0 54 52 50 47 44 38 0 0 0 42 36 29 44 39 29 5 0 0 48 41 32 22 14 5 18 10 2 33 26 15 19 12 1 33 26 15 20 13 2 18 9 0 41 31 20 17 4 0 7 0 0 40 29 14 38 26 12 27 13 2 15 0 0 14 0 0 9 0 0 9 0 0 15 0 2 
7 6 2 7 6 2 7 6 2 7 6 2 7 6 2 7 6 2 7 6 2 7 6 2 6 4 3 6 4 5 6 4 5 6 4 5 10 7 8 10 7 8 9 6 7 7 8 3 6 7 0 7 7 0 8 4 1 10 1 1 19 6 3 24 9 1 27 11 0 20 7 0 8 2 0 14 3 0 73 48 22 112 74 39 127 77 46 137 85 52 124 78 41 83 39 0 86 46 0 67 34 0 105 84 59 81 69 55 5 0 0 15 10 10 31 20 19 24 11 6 31 22 11 31 22 9 31 22 11 31 22 11 29 20 7 15 8 0 40 33 20 114 106 95 46 39 25 12 5 0 5 0 0 34 29 19 28 23 13 12 6 0 8 3 0 50 45 37 27 22 12 8 3 0 46 43 33 17 14 4 15 12 2 44 39 29 11 5 0 35 30 20 33 27 18 2 0 0 6 1 0 5 0 0 10 2 0 10 2 0 8 3 0 8 2 0 7 1 0 7 1 0 6 1 0 6 1 0 7 2 3 8 1 3 8 1 6 8 1 6 
7 6 2 7 6 2 7 6 2 7 6 2 7 6 2 7 6 2 7 6 2 7 6 2 6 4 3 6 4 3 6 4 3 6 4 3 7 5 4 7 5 4 7 5 4 7 6 2 5 7 0 6 6 0 8 2 0 11 0 0 26 8 3 30 9 0 36 15 0 29 9 0 21 10 7 17 4 0 63 38 10 113 75 40 128 80 50 124 75 44 74 29 0 124 80 38 181 139 89 139 103 56 45 23 0 57 42 22 20 10 2 22 11 8 27 9 6 31 14 9 32 20 10 31 22 11 31 22 11 31 22 11 31 22 11 28 18 8 50 40 30 72 62 52 27 20 9 20 13 2 48 41 30 82 75 64 22 14 3 16 8 0 37 29 18 38 31 19 13 8 0 27 22 10 26 24 11 14 11 0 31 28 18 25 22 12 9 6 0 29 26 16 19 13 4 5 0 0 9 4 0 13 8 0 8 3 0 8 2 0 7 3 0 7 3 0 5 3 1 5 3 1 3 3 3 3 3 3 3 3 6 3 3 6 3 3 6 3 3 6 
7 6 2 7 6 2 7 6 2 7 6 2 7 5 4 7 5 4 7 5 4 7 5 4 6 4 3 6 4 3 6 4 3 6 4 3 5 3 1 5 3 1 5 3 1 5 3 0 7 7 0 8 5 0 9 3 0 14 3 0 27 9 4 26 6 0 66 45 21 37 16 0 21 4 0 25 6 0 53 28 0 99 66 32 126 82 56 70 24 0 113 71 35 174 134 88 166 128 70 192 160 102 94 71 29 27 12 0 31 19 0 93 78 58 90 68 48 40 17 0 34 21 7 31 22 11 31 22 11 31 22 11 27 17 7 29 19 9 22 12 2 13 3 0 15 5 0 22 12 2 67 58 47 79 69 59 14 4 0 19 12 1 84 77 66 48 41 30 19 14 2 70 65 53 26 24 11 35 32 19 60 57 47 21 18 7 32 29 19 53 50 40 13 8 0 13 8 0 8 3 0 11 5 0 9 4 0 9 3 0 8 4 1 7 3 0 5 3 1 5 3 1 3 3 3 3 3 3 3 3 6 3 3 6 3 3 6 3 3 6 
7 6 2 7 6 2 7 6 2 7 6 2 7 5 4 7 5 4 7 5 4 7 5 4 6 4 3 6 4 3 6 4 3 6 4 3 3 1 0 4 2 0 4 2 0 3 1 0 7 7 0 8 5 0 9 3 0 18 8 4 23 6 0 21 0 0 100 79 54 54 31 7 40 17 4 54 31 16 88 60 33 104 72 42 73 36 12 36 0 0 81 41 7 147 109 63 162 124 64 154 124 61 140 118 68 32 13 0 80 63 30 137 114 83 152 121 89 97 67 41 36 20 5 30 20 10 30 20 10 30 20 10 27 17 7 21 11 1 29 19 9 24 15 4 17 8 0 25 16 5 44 34 24 34 24 14 32 23 12 21 11 1 56 49 38 18 11 0 18 13 1 68 63 51 17 15 2 26 24 11 43 40 29 15 12 2 46 43 33 51 48 38 19 13 4 23 18 9 4 0 0 1 0 0 9 3 0 9 3 0 8 4 1 7 3 0 5 3 1 5 3 1 3 3 3 3 3 3 3 3 6 3 3 6 3 3 6 3 3 6 
7 5 4 12 10 8 18 16 14 23 21 19 25 23 21 26 24 22 20 18 17 11 9 7 7 5 4 10 8 6 13 11 10 14 12 11 11 9 7 5 3 1 5 3 1 11 9 5 7 7 0 8 5 0 9 3 0 21 10 7 35 18 12 32 12 0 112 91 66 67 42 14 68 39 19 95 64 45 113 86 57 75 46 17 39 8 0 116 80 60 113 77 43 116 77 33 151 115 56 146 115 55 147 123 74 60 38 0 100 76 39 127 97 59 153 112 72 155 117 82 49 29 10 29 19 9 29 19 9 29 19 9 24 15 4 23 13 3 23 13 3 23 13 3 23 13 3 23 13 3 23 13 3 22 12 2 22 12 2 21 11 1 19 12 1 19 12 1 19 14 2 19 14 2 17 15 2 17 15 2 17 14 4 17 14 4 17 14 4 17 14 4 41 36 26 42 37 27 29 24 14 7 1 0 11 5 0 11 5 0 9 5 2 8 4 1 5 3 1 4 2 0 2 2 2 2 2 2 3 3 6 3 3 6 3 3 6 3 3 6 
